<svg width="1041" height="815" viewBox="0 0 1041 815" fill="none" xmlns="http://www.w3.org/2000/svg">
<rect width="999" height="151" transform="translate(23 35)" fill="#108BD0"/>
<rect width="999" height="607" transform="translate(23 186)" fill="#A0D2EE"/>
<line x1="88" y1="259.5" x2="251" y2="259.5" stroke="#084E76" stroke-width="35"/>
<line x1="242.5" y1="415" x2="242.5" y2="252" stroke="#084E76" stroke-width="35"/>
<line x1="94.5" y1="415" x2="94.5" y2="252" stroke="#084E76" stroke-width="35"/>
<line x1="88" y1="407.5" x2="251" y2="407.5" stroke="#084E76" stroke-width="35"/>
<rect x="77" y="242" width="35" height="43" rx="7" fill="#084E76"/>
<rect x="225" y="382" width="35" height="43" rx="7" fill="#084E76"/>
<rect x="77" y="382" width="35" height="43" rx="7" fill="#084E76"/>
<rect x="225" y="242" width="35" height="43" rx="7" fill="#084E76"/>
<ellipse cx="146" cy="315" rx="18" ry="19" fill="#084E76"/>
<line x1="446.162" y1="242.026" x2="607.091" y2="267.931" stroke="#084E76" stroke-width="35"/>
<line x1="573.986" y1="420.103" x2="599.891" y2="259.175" stroke="#084E76" stroke-width="35"/>
<line x1="427.867" y1="396.582" x2="453.772" y2="235.654" stroke="#084E76" stroke-width="35"/>
<line x1="422.641" y1="388.145" x2="583.57" y2="414.05" stroke="#084E76" stroke-width="35"/>
<rect x="438.083" y="223" width="35" height="43" rx="7" transform="rotate(9.1445 438.083 223)" fill="#084E76"/>
<rect x="561.953" y="384.742" width="35" height="43" rx="7" transform="rotate(9.1445 561.953 384.742)" fill="#084E76"/>
<rect x="415.834" y="361.221" width="35" height="43" rx="7" transform="rotate(9.1445 415.834 361.221)" fill="#084E76"/>
<rect x="584.202" y="246.521" width="35" height="43" rx="7" transform="rotate(9.1445 584.202 246.521)" fill="#084E76"/>
<ellipse cx="536.071" cy="312.713" rx="18" ry="19" transform="rotate(9.1445 536.071 312.713)" fill="#084E76"/>
<line x1="753.486" y1="493.951" x2="914.664" y2="469.646" stroke="#084E76" stroke-width="35"/>
<line x1="929.446" y1="624.675" x2="905.141" y2="463.498" stroke="#084E76" stroke-width="35"/>
<line x1="783.1" y1="646.743" x2="758.795" y2="485.565" stroke="#084E76" stroke-width="35"/>
<line x1="775.554" y1="640.296" x2="936.732" y2="615.992" stroke="#084E76" stroke-width="35"/>
<rect x="740" y="478.287" width="35" height="43" rx="7" transform="rotate(-8.5752 740 478.287)" fill="#084E76"/>
<rect x="907.221" y="594.654" width="35" height="43" rx="7" transform="rotate(-8.5752 907.221 594.654)" fill="#084E76"/>
<rect x="760.875" y="616.722" width="35" height="43" rx="7" transform="rotate(-8.5752 760.875 616.722)" fill="#084E76"/>
<rect x="886.345" y="456.219" width="35" height="43" rx="7" transform="rotate(-8.5752 886.345 456.219)" fill="#084E76"/>
<line x1="793" y1="259.5" x2="956" y2="259.5" stroke="#084E76" stroke-width="35"/>
<line x1="947.5" y1="415" x2="947.5" y2="252" stroke="#084E76" stroke-width="35"/>
<line x1="799.5" y1="415" x2="799.5" y2="252" stroke="#084E76" stroke-width="35"/>
<line x1="793" y1="407.5" x2="956" y2="407.5" stroke="#084E76" stroke-width="35"/>
<rect x="782" y="242" width="35" height="43" rx="7" fill="#084E76"/>
<rect x="930" y="382" width="35" height="43" rx="7" fill="#084E76"/>
<rect x="782" y="382" width="35" height="43" rx="7" fill="#084E76"/>
<rect x="930" y="242" width="35" height="43" rx="7" fill="#084E76"/>
<ellipse cx="895" cy="315" rx="18" ry="19" fill="#084E76"/>
<line x1="22.9998" y1="18" x2="1022" y2="18" stroke="#084E76" stroke-width="35"/>
<line x1="355.5" y1="745.052" x2="353.5" y2="73.052" stroke="#084E76" stroke-width="35"/>
<line x1="690.5" y1="745.052" x2="688.5" y2="73.0521" stroke="#084E76" stroke-width="35"/>
<line x1="24" y1="797.5" x2="1023" y2="797.5" stroke="#084E76" stroke-width="35"/>
<line x1="75.9997" y1="184" x2="972" y2="184" stroke="#084E76" stroke-width="35"/>
<line x1="17.5" y1="24" x2="17.5" y2="793.03" stroke="#084E76" stroke-width="35"/>
<line x1="1023.5" y1="35" x2="1023.5" y2="804.03" stroke="#084E76" stroke-width="35"/>
<rect width="35" height="35" rx="7" fill="#084E76"/>
<rect x="1006" width="35" height="43" rx="7" fill="#084E76"/>
<rect x="1006" y="772" width="35" height="43" rx="7" fill="#084E76"/>
<rect y="772" width="35" height="43" rx="7" fill="#084E76"/>
<line x1="226" y1="358.5" x2="307" y2="358.5" stroke="#084E76" stroke-width="35"/>
<line x1="298.5" y1="514" x2="298.5" y2="351" stroke="#084E76" stroke-width="35"/>
<line x1="150.5" y1="514" x2="150.5" y2="392" stroke="#084E76" stroke-width="35"/>
<line x1="144" y1="506.5" x2="307" y2="506.5" stroke="#084E76" stroke-width="35"/>
<rect x="281" y="481" width="35" height="43" rx="7" fill="#084E76"/>
<rect x="133" y="481" width="35" height="43" rx="7" fill="#084E76"/>
<rect x="281" y="341" width="35" height="43" rx="7" fill="#084E76"/>
<line x1="418.846" y1="602.766" x2="577.739" y2="639.123" stroke="#084E76" stroke-width="35"/>
<line x1="545.365" y1="742.504" x2="569.007" y2="639.18" stroke="#084E76" stroke-width="35"/>
<line x1="401.093" y1="709.493" x2="424.735" y2="606.169" stroke="#084E76" stroke-width="35"/>
<line x1="397.21" y1="697.323" x2="556.104" y2="733.68" stroke="#084E76" stroke-width="35"/>
<rect x="412.026" y="583.254" width="35" height="27.9617" rx="7" transform="rotate(12.8882 412.026 583.254)" fill="#084E76"/>
<rect x="533.092" y="717.682" width="35" height="27.9617" rx="7" transform="rotate(12.8882 533.092 717.682)" fill="#084E76"/>
<rect x="388.821" y="684.671" width="35" height="27.9617" rx="7" transform="rotate(12.8882 388.821 684.671)" fill="#084E76"/>
<rect x="556.298" y="616.265" width="35" height="30" rx="7" transform="rotate(12.8882 556.298 616.265)" fill="#084E76"/>
<line x1="79" y1="612.5" x2="242" y2="612.5" stroke="#084E76" stroke-width="35"/>
<line x1="233.5" y1="720.497" x2="233.5" y2="614.503" stroke="#084E76" stroke-width="35"/>
<line x1="85.5" y1="720.497" x2="85.5" y2="614.503" stroke="#084E76" stroke-width="35"/>
<line x1="79" y1="709.5" x2="242" y2="709.5" stroke="#084E76" stroke-width="35"/>
<rect x="68" y="595" width="35" height="27.9617" rx="7" fill="#084E76"/>
<rect x="216" y="699.038" width="35" height="27.9617" rx="7" fill="#084E76"/>
<rect x="68" y="699.038" width="35" height="27.9617" rx="7" fill="#084E76"/>
<rect x="216" y="595" width="35" height="30" rx="7" fill="#084E76"/>
<line x1="479" y1="469.5" x2="642" y2="469.5" stroke="#084E76" stroke-width="35"/>
<line x1="633.5" y1="577.497" x2="633.5" y2="471.503" stroke="#084E76" stroke-width="35"/>
<line x1="485.5" y1="577.497" x2="485.5" y2="471.503" stroke="#084E76" stroke-width="35"/>
<line x1="479" y1="566.5" x2="642" y2="566.5" stroke="#084E76" stroke-width="35"/>
<rect x="468" y="452" width="35" height="27.9617" rx="7" fill="#084E76"/>
<rect x="616" y="556.038" width="35" height="27.9617" rx="7" fill="#084E76"/>
<rect x="468" y="556.038" width="35" height="27.9617" rx="7" fill="#084E76"/>
<rect x="616" y="452" width="35" height="30" rx="7" fill="#084E76"/>
<path d="M808.777 112.904V109.406H788.844V112.904H796.684V135H800.885V112.904H808.777ZM827.287 123.521V120.111H816.705V112.904H828.975V109.406H812.469V135H829.062V131.52H816.705V123.521H827.287ZM847.203 128.408C847.203 128.971 847.08 129.469 846.834 129.902C846.6 130.336 846.283 130.699 845.885 130.992C845.475 131.297 844.988 131.525 844.426 131.678C843.875 131.83 843.277 131.906 842.633 131.906C841.871 131.906 841.168 131.812 840.523 131.625C839.891 131.438 839.34 131.15 838.871 130.764C838.391 130.389 838.01 129.914 837.729 129.34C837.459 128.754 837.295 128.068 837.236 127.283H833.018C833.029 128.525 833.275 129.621 833.756 130.57C834.248 131.508 834.91 132.328 835.742 133.031C836.645 133.781 837.705 134.355 838.924 134.754C840.143 135.141 841.379 135.334 842.633 135.334C843.816 135.334 844.941 135.188 846.008 134.895C847.074 134.59 848.012 134.139 848.82 133.541C849.617 132.967 850.25 132.246 850.719 131.379C851.199 130.512 851.439 129.51 851.439 128.373C851.439 127.143 851.164 126.059 850.613 125.121C850.074 124.172 849.354 123.357 848.451 122.678C847.725 122.139 846.928 121.682 846.061 121.307C845.205 120.92 844.326 120.598 843.424 120.34C842.709 120.129 842.023 119.9 841.367 119.654C840.723 119.408 840.148 119.121 839.645 118.793C839.152 118.465 838.76 118.084 838.467 117.65C838.174 117.205 838.021 116.689 838.01 116.104C838.01 115.553 838.121 115.055 838.344 114.609C838.566 114.164 838.877 113.783 839.275 113.467C839.674 113.162 840.143 112.928 840.682 112.764C841.232 112.588 841.83 112.5 842.475 112.5C843.213 112.5 843.863 112.611 844.426 112.834C845 113.045 845.486 113.338 845.885 113.713C846.271 114.1 846.57 114.562 846.781 115.102C847.004 115.629 847.145 116.215 847.203 116.859H851.387C851.387 115.699 851.152 114.645 850.684 113.695C850.227 112.734 849.6 111.908 848.803 111.217C848.006 110.537 847.068 110.01 845.99 109.635C844.924 109.248 843.77 109.055 842.527 109.055C841.355 109.055 840.236 109.219 839.17 109.547C838.115 109.863 837.189 110.326 836.393 110.936C835.596 111.557 834.963 112.307 834.494 113.186C834.025 114.053 833.791 115.031 833.791 116.121C833.791 117.129 833.99 118.037 834.389 118.846C834.799 119.643 835.361 120.357 836.076 120.99C836.791 121.611 837.652 122.168 838.66 122.66C839.68 123.152 840.793 123.574 842 123.926C842.785 124.148 843.494 124.4 844.127 124.682C844.771 124.951 845.328 125.256 845.797 125.596C846.242 125.959 846.588 126.369 846.834 126.826C847.08 127.283 847.203 127.811 847.203 128.408ZM873.641 112.904V109.406H853.707V112.904H861.547V135H865.748V112.904H873.641Z" fill="black" fill-opacity="0.45"/>
<path d="M153.777 112.904V109.406H133.844V112.904H141.684V135H145.885V112.904H153.777ZM156.572 125.314V125.684C156.572 127.078 156.771 128.361 157.17 129.533C157.568 130.705 158.148 131.725 158.91 132.592C159.66 133.459 160.586 134.139 161.688 134.631C162.789 135.123 164.037 135.369 165.432 135.369C166.814 135.369 168.051 135.123 169.141 134.631C170.242 134.139 171.168 133.459 171.918 132.592C172.668 131.725 173.242 130.705 173.641 129.533C174.039 128.361 174.238 127.078 174.238 125.684V125.314C174.238 123.932 174.039 122.654 173.641 121.482C173.242 120.299 172.668 119.273 171.918 118.406C171.156 117.539 170.225 116.859 169.123 116.367C168.033 115.875 166.791 115.629 165.396 115.629C164.002 115.629 162.76 115.875 161.67 116.367C160.58 116.859 159.66 117.539 158.91 118.406C158.148 119.273 157.568 120.299 157.17 121.482C156.771 122.654 156.572 123.932 156.572 125.314ZM160.773 125.684V125.314C160.773 124.482 160.861 123.686 161.037 122.924C161.225 122.162 161.506 121.494 161.881 120.92C162.268 120.346 162.748 119.889 163.322 119.549C163.908 119.209 164.6 119.039 165.396 119.039C166.205 119.039 166.896 119.209 167.471 119.549C168.057 119.889 168.537 120.346 168.912 120.92C169.287 121.494 169.568 122.162 169.756 122.924C169.943 123.686 170.037 124.482 170.037 125.314V125.684C170.037 126.539 169.943 127.348 169.756 128.109C169.58 128.871 169.305 129.539 168.93 130.113C168.555 130.688 168.074 131.145 167.488 131.484C166.902 131.812 166.217 131.977 165.432 131.977C164.623 131.977 163.926 131.812 163.34 131.484C162.754 131.145 162.268 130.688 161.881 130.113C161.506 129.539 161.225 128.871 161.037 128.109C160.861 127.348 160.773 126.539 160.773 125.684ZM200.289 135H206.758C207.93 135 209.025 134.859 210.045 134.578C211.076 134.297 212.014 133.893 212.857 133.365C213.607 132.885 214.287 132.305 214.896 131.625C215.518 130.945 216.045 130.189 216.479 129.357C216.924 128.502 217.264 127.559 217.498 126.527C217.744 125.484 217.867 124.383 217.867 123.223V121.219C217.867 120.012 217.738 118.875 217.48 117.809C217.223 116.742 216.859 115.764 216.391 114.873C215.934 114.018 215.365 113.244 214.686 112.553C214.018 111.861 213.25 111.287 212.383 110.83C211.586 110.385 210.701 110.039 209.729 109.793C208.756 109.535 207.719 109.406 206.617 109.406H200.289V135ZM204.561 112.852H206.617C207.297 112.852 207.93 112.928 208.516 113.08C209.102 113.232 209.629 113.443 210.098 113.713C210.742 114.076 211.299 114.545 211.768 115.119C212.236 115.693 212.611 116.344 212.893 117.07C213.115 117.656 213.285 118.295 213.402 118.986C213.52 119.678 213.578 120.41 213.578 121.184V123.223C213.578 124.008 213.52 124.746 213.402 125.438C213.285 126.129 213.115 126.768 212.893 127.354C212.635 128.033 212.307 128.643 211.908 129.182C211.51 129.721 211.047 130.166 210.52 130.518C210.016 130.857 209.447 131.121 208.814 131.309C208.193 131.484 207.508 131.572 206.758 131.572H204.561V112.852ZM221.436 125.314V125.684C221.436 127.078 221.635 128.361 222.033 129.533C222.432 130.705 223.012 131.725 223.773 132.592C224.523 133.459 225.449 134.139 226.551 134.631C227.652 135.123 228.9 135.369 230.295 135.369C231.678 135.369 232.914 135.123 234.004 134.631C235.105 134.139 236.031 133.459 236.781 132.592C237.531 131.725 238.105 130.705 238.504 129.533C238.902 128.361 239.102 127.078 239.102 125.684V125.314C239.102 123.932 238.902 122.654 238.504 121.482C238.105 120.299 237.531 119.273 236.781 118.406C236.02 117.539 235.088 116.859 233.986 116.367C232.896 115.875 231.654 115.629 230.26 115.629C228.865 115.629 227.623 115.875 226.533 116.367C225.443 116.859 224.523 117.539 223.773 118.406C223.012 119.273 222.432 120.299 222.033 121.482C221.635 122.654 221.436 123.932 221.436 125.314ZM225.637 125.684V125.314C225.637 124.482 225.725 123.686 225.9 122.924C226.088 122.162 226.369 121.494 226.744 120.92C227.131 120.346 227.611 119.889 228.186 119.549C228.771 119.209 229.463 119.039 230.26 119.039C231.068 119.039 231.76 119.209 232.334 119.549C232.92 119.889 233.4 120.346 233.775 120.92C234.15 121.494 234.432 122.162 234.619 122.924C234.807 123.686 234.9 124.482 234.9 125.314V125.684C234.9 126.539 234.807 127.348 234.619 128.109C234.443 128.871 234.168 129.539 233.793 130.113C233.418 130.688 232.938 131.145 232.352 131.484C231.766 131.812 231.08 131.977 230.295 131.977C229.486 131.977 228.789 131.812 228.203 131.484C227.617 131.145 227.131 130.688 226.744 130.113C226.369 129.539 226.088 128.871 225.9 128.109C225.725 127.348 225.637 126.539 225.637 125.684Z" fill="black" fill-opacity="0.45"/>
<path d="M409.252 109.406V112.904H414.596V131.52H409.252V135H424.334V131.52H418.867V112.904H424.334V109.406H409.252ZM430.346 135H434.547V121.43C434.734 121.113 434.951 120.82 435.197 120.551C435.443 120.281 435.707 120.053 435.988 119.865C436.352 119.619 436.756 119.432 437.201 119.303C437.646 119.162 438.127 119.092 438.643 119.092C439.264 119.092 439.814 119.162 440.295 119.303C440.775 119.432 441.186 119.654 441.525 119.971C441.865 120.287 442.123 120.709 442.299 121.236C442.475 121.764 442.562 122.42 442.562 123.205V135H446.764V123.135C446.764 121.799 446.605 120.662 446.289 119.725C445.973 118.775 445.527 117.996 444.953 117.387C444.379 116.777 443.688 116.332 442.879 116.051C442.07 115.77 441.18 115.629 440.207 115.629C439.469 115.629 438.766 115.734 438.098 115.945C437.43 116.156 436.814 116.455 436.252 116.842C435.9 117.088 435.566 117.369 435.25 117.686C434.945 117.99 434.664 118.324 434.406 118.688L434.143 115.98H430.346V135ZM478.018 125.244H482.359C483.648 125.244 484.832 125.057 485.91 124.682C487 124.307 487.938 123.779 488.723 123.1C489.508 122.408 490.117 121.582 490.551 120.621C490.984 119.66 491.201 118.594 491.201 117.422C491.201 116.191 490.984 115.084 490.551 114.1C490.117 113.115 489.508 112.277 488.723 111.586C487.938 110.895 487 110.361 485.91 109.986C484.832 109.611 483.648 109.418 482.359 109.406H473.799V135H478.018V125.244ZM478.018 121.799V112.852H482.359C483.074 112.852 483.713 112.969 484.275 113.203C484.85 113.426 485.336 113.742 485.734 114.152C486.133 114.562 486.432 115.049 486.631 115.611C486.842 116.162 486.947 116.777 486.947 117.457C486.947 118.078 486.842 118.652 486.631 119.18C486.432 119.707 486.133 120.164 485.734 120.551C485.336 120.938 484.85 121.242 484.275 121.465C483.713 121.676 483.074 121.787 482.359 121.799H478.018ZM508.357 115.629C507.045 115.629 505.844 115.934 504.754 116.543C503.676 117.152 502.75 117.99 501.977 119.057L501.959 118.617L501.783 115.98H497.846V135H502.047V123.258C502.27 122.695 502.545 122.197 502.873 121.764C503.201 121.33 503.6 120.973 504.068 120.691C504.502 120.398 505 120.182 505.562 120.041C506.125 119.9 506.758 119.83 507.461 119.83C508.082 119.83 508.703 119.865 509.324 119.936C509.957 120.006 510.596 120.111 511.24 120.252L511.838 116.104C511.475 115.975 510.971 115.863 510.326 115.77C509.693 115.676 509.037 115.629 508.357 115.629ZM516.057 125.314V125.684C516.057 127.078 516.256 128.361 516.654 129.533C517.053 130.705 517.633 131.725 518.395 132.592C519.145 133.459 520.07 134.139 521.172 134.631C522.273 135.123 523.521 135.369 524.916 135.369C526.299 135.369 527.535 135.123 528.625 134.631C529.727 134.139 530.652 133.459 531.402 132.592C532.152 131.725 532.727 130.705 533.125 129.533C533.523 128.361 533.723 127.078 533.723 125.684V125.314C533.723 123.932 533.523 122.654 533.125 121.482C532.727 120.299 532.152 119.273 531.402 118.406C530.641 117.539 529.709 116.859 528.607 116.367C527.518 115.875 526.275 115.629 524.881 115.629C523.486 115.629 522.244 115.875 521.154 116.367C520.064 116.859 519.145 117.539 518.395 118.406C517.633 119.273 517.053 120.299 516.654 121.482C516.256 122.654 516.057 123.932 516.057 125.314ZM520.258 125.684V125.314C520.258 124.482 520.346 123.686 520.521 122.924C520.709 122.162 520.99 121.494 521.365 120.92C521.752 120.346 522.232 119.889 522.807 119.549C523.393 119.209 524.084 119.039 524.881 119.039C525.689 119.039 526.381 119.209 526.955 119.549C527.541 119.889 528.021 120.346 528.396 120.92C528.771 121.494 529.053 122.162 529.24 122.924C529.428 123.686 529.521 124.482 529.521 125.314V125.684C529.521 126.539 529.428 127.348 529.24 128.109C529.064 128.871 528.789 129.539 528.414 130.113C528.039 130.688 527.559 131.145 526.973 131.484C526.387 131.812 525.701 131.977 524.916 131.977C524.107 131.977 523.41 131.812 522.824 131.484C522.238 131.145 521.752 130.688 521.365 130.113C520.99 129.539 520.709 128.871 520.521 128.109C520.346 127.348 520.258 126.539 520.258 125.684ZM537.906 125.35V125.719C537.906 127.09 538.082 128.367 538.434 129.551C538.797 130.723 539.312 131.736 539.98 132.592C540.637 133.459 541.434 134.139 542.371 134.631C543.309 135.111 544.363 135.352 545.535 135.352C546.18 135.352 546.777 135.281 547.328 135.141C547.879 135.012 548.383 134.818 548.84 134.561C549.145 134.396 549.426 134.203 549.684 133.98C549.953 133.758 550.211 133.518 550.457 133.26V134.578C550.457 135.293 550.352 135.932 550.141 136.494C549.941 137.057 549.654 137.531 549.279 137.918C548.869 138.316 548.371 138.621 547.785 138.832C547.211 139.043 546.549 139.148 545.799 139.148C545.365 139.148 544.938 139.102 544.516 139.008C544.094 138.926 543.678 138.791 543.268 138.604C542.857 138.416 542.453 138.17 542.055 137.865C541.668 137.572 541.305 137.221 540.965 136.811L538.979 139.359C539.4 139.922 539.904 140.402 540.49 140.801C541.076 141.199 541.691 141.521 542.336 141.768C542.98 142.014 543.625 142.195 544.27 142.312C544.914 142.43 545.506 142.488 546.045 142.488C547.322 142.488 548.488 142.307 549.543 141.943C550.609 141.592 551.523 141.076 552.285 140.396C553.035 139.705 553.615 138.861 554.025 137.865C554.447 136.881 554.658 135.75 554.658 134.473V115.98H550.844L550.668 117.896C550.434 117.615 550.182 117.357 549.912 117.123C549.643 116.877 549.355 116.666 549.051 116.49C548.582 116.209 548.061 115.998 547.486 115.857C546.912 115.705 546.273 115.629 545.57 115.629C544.387 115.629 543.32 115.869 542.371 116.35C541.434 116.818 540.631 117.48 539.963 118.336C539.307 119.191 538.797 120.217 538.434 121.412C538.082 122.596 537.906 123.908 537.906 125.35ZM542.125 125.719V125.35C542.125 124.494 542.213 123.691 542.389 122.941C542.564 122.18 542.84 121.512 543.215 120.938C543.578 120.363 544.041 119.912 544.604 119.584C545.166 119.256 545.84 119.092 546.625 119.092C547.07 119.092 547.48 119.145 547.855 119.25C548.23 119.344 548.57 119.479 548.875 119.654C549.215 119.842 549.514 120.076 549.771 120.357C550.041 120.639 550.27 120.955 550.457 121.307V129.639C550.27 129.979 550.053 130.289 549.807 130.57C549.561 130.852 549.279 131.092 548.963 131.291C548.646 131.479 548.289 131.625 547.891 131.73C547.504 131.836 547.07 131.889 546.59 131.889C545.816 131.889 545.148 131.73 544.586 131.414C544.023 131.086 543.561 130.635 543.197 130.061C542.822 129.51 542.547 128.859 542.371 128.109C542.207 127.359 542.125 126.562 542.125 125.719ZM573.221 115.629C571.908 115.629 570.707 115.934 569.617 116.543C568.539 117.152 567.613 117.99 566.84 119.057L566.822 118.617L566.646 115.98H562.709V135H566.91V123.258C567.133 122.695 567.408 122.197 567.736 121.764C568.064 121.33 568.463 120.973 568.932 120.691C569.365 120.398 569.863 120.182 570.426 120.041C570.988 119.9 571.621 119.83 572.324 119.83C572.945 119.83 573.566 119.865 574.188 119.936C574.82 120.006 575.459 120.111 576.104 120.252L576.701 116.104C576.338 115.975 575.834 115.863 575.189 115.77C574.557 115.676 573.9 115.629 573.221 115.629ZM590.57 135.352C592.422 135.352 593.998 134.988 595.299 134.262C596.611 133.535 597.584 132.715 598.217 131.801L595.967 129.621C595.381 130.371 594.637 130.951 593.734 131.361C592.832 131.76 591.859 131.959 590.816 131.959C590.055 131.959 589.352 131.83 588.707 131.572C588.074 131.314 587.523 130.951 587.055 130.482C586.586 130.037 586.217 129.533 585.947 128.971C585.678 128.408 585.479 127.711 585.35 126.879V126.791H598.533V124.98C598.533 123.621 598.352 122.367 597.988 121.219C597.625 120.07 597.086 119.08 596.371 118.248C595.656 117.428 594.771 116.789 593.717 116.332C592.662 115.863 591.449 115.629 590.078 115.629C588.848 115.629 587.688 115.863 586.598 116.332C585.52 116.789 584.57 117.445 583.75 118.301C582.93 119.156 582.285 120.188 581.816 121.395C581.348 122.602 581.113 123.949 581.113 125.438V126.158C581.113 127.459 581.336 128.672 581.781 129.797C582.238 130.91 582.883 131.877 583.715 132.697C584.547 133.529 585.543 134.18 586.703 134.648C587.875 135.117 589.164 135.352 590.57 135.352ZM590.061 119.039C590.764 119.039 591.379 119.162 591.906 119.408C592.445 119.643 592.891 119.959 593.242 120.357C593.605 120.768 593.887 121.248 594.086 121.799C594.285 122.338 594.385 122.883 594.385 123.434V123.715H585.438C585.566 122.988 585.766 122.338 586.035 121.764C586.305 121.189 586.639 120.697 587.037 120.287C587.436 119.889 587.887 119.584 588.391 119.373C588.906 119.15 589.463 119.039 590.061 119.039ZM615.742 129.85C615.742 130.154 615.672 130.436 615.531 130.693C615.402 130.939 615.203 131.168 614.934 131.379C614.605 131.637 614.166 131.842 613.615 131.994C613.076 132.146 612.443 132.223 611.717 132.223C611.178 132.223 610.645 132.17 610.117 132.064C609.59 131.947 609.121 131.76 608.711 131.502C608.289 131.256 607.938 130.934 607.656 130.535C607.387 130.125 607.234 129.627 607.199 129.041H603.121C603.121 129.826 603.309 130.6 603.684 131.361C604.059 132.123 604.609 132.797 605.336 133.383C606.051 133.98 606.936 134.461 607.99 134.824C609.057 135.188 610.275 135.369 611.646 135.369C612.877 135.369 613.996 135.229 615.004 134.947C616.012 134.666 616.879 134.273 617.605 133.77C618.32 133.266 618.871 132.662 619.258 131.959C619.656 131.256 619.855 130.482 619.855 129.639C619.855 128.771 619.668 128.021 619.293 127.389C618.918 126.756 618.391 126.205 617.711 125.736C617.031 125.291 616.211 124.916 615.25 124.611C614.289 124.307 613.229 124.049 612.068 123.838C611.236 123.697 610.545 123.539 609.994 123.363C609.455 123.188 609.033 122.994 608.729 122.783C608.4 122.584 608.172 122.355 608.043 122.098C607.914 121.828 607.85 121.529 607.85 121.201C607.85 120.885 607.926 120.586 608.078 120.305C608.23 120.012 608.459 119.76 608.764 119.549C609.068 119.314 609.455 119.133 609.924 119.004C610.404 118.863 610.961 118.793 611.594 118.793C612.285 118.793 612.889 118.887 613.404 119.074C613.92 119.25 614.342 119.49 614.67 119.795C614.951 120.053 615.162 120.346 615.303 120.674C615.455 120.99 615.531 121.324 615.531 121.676H619.732C619.732 120.82 619.545 120.023 619.17 119.285C618.795 118.547 618.262 117.908 617.57 117.369C616.867 116.83 616.012 116.408 615.004 116.104C613.996 115.787 612.859 115.629 611.594 115.629C610.41 115.629 609.332 115.781 608.359 116.086C607.398 116.391 606.578 116.807 605.898 117.334C605.207 117.861 604.674 118.477 604.299 119.18C603.936 119.871 603.754 120.604 603.754 121.377C603.754 122.186 603.936 122.895 604.299 123.504C604.662 124.102 605.166 124.629 605.811 125.086C606.467 125.555 607.246 125.953 608.148 126.281C609.062 126.609 610.07 126.885 611.172 127.107C612.051 127.271 612.783 127.447 613.369 127.635C613.955 127.822 614.43 128.021 614.793 128.232C615.133 128.467 615.373 128.713 615.514 128.971C615.666 129.229 615.742 129.521 615.742 129.85ZM637.363 129.85C637.363 130.154 637.293 130.436 637.152 130.693C637.023 130.939 636.824 131.168 636.555 131.379C636.227 131.637 635.787 131.842 635.236 131.994C634.697 132.146 634.064 132.223 633.338 132.223C632.799 132.223 632.266 132.17 631.738 132.064C631.211 131.947 630.742 131.76 630.332 131.502C629.91 131.256 629.559 130.934 629.277 130.535C629.008 130.125 628.855 129.627 628.82 129.041H624.742C624.742 129.826 624.93 130.6 625.305 131.361C625.68 132.123 626.23 132.797 626.957 133.383C627.672 133.98 628.557 134.461 629.611 134.824C630.678 135.188 631.896 135.369 633.268 135.369C634.498 135.369 635.617 135.229 636.625 134.947C637.633 134.666 638.5 134.273 639.227 133.77C639.941 133.266 640.492 132.662 640.879 131.959C641.277 131.256 641.477 130.482 641.477 129.639C641.477 128.771 641.289 128.021 640.914 127.389C640.539 126.756 640.012 126.205 639.332 125.736C638.652 125.291 637.832 124.916 636.871 124.611C635.91 124.307 634.85 124.049 633.689 123.838C632.857 123.697 632.166 123.539 631.615 123.363C631.076 123.188 630.654 122.994 630.35 122.783C630.021 122.584 629.793 122.355 629.664 122.098C629.535 121.828 629.471 121.529 629.471 121.201C629.471 120.885 629.547 120.586 629.699 120.305C629.852 120.012 630.08 119.76 630.385 119.549C630.689 119.314 631.076 119.133 631.545 119.004C632.025 118.863 632.582 118.793 633.215 118.793C633.906 118.793 634.51 118.887 635.025 119.074C635.541 119.25 635.963 119.49 636.291 119.795C636.572 120.053 636.783 120.346 636.924 120.674C637.076 120.99 637.152 121.324 637.152 121.676H641.354C641.354 120.82 641.166 120.023 640.791 119.285C640.416 118.547 639.883 117.908 639.191 117.369C638.488 116.83 637.633 116.408 636.625 116.104C635.617 115.787 634.48 115.629 633.215 115.629C632.031 115.629 630.953 115.781 629.98 116.086C629.02 116.391 628.199 116.807 627.52 117.334C626.828 117.861 626.295 118.477 625.92 119.18C625.557 119.871 625.375 120.604 625.375 121.377C625.375 122.186 625.557 122.895 625.92 123.504C626.283 124.102 626.787 124.629 627.432 125.086C628.088 125.555 628.867 125.953 629.77 126.281C630.684 126.609 631.691 126.885 632.793 127.107C633.672 127.271 634.404 127.447 634.99 127.635C635.576 127.822 636.051 128.021 636.414 128.232C636.754 128.467 636.994 128.713 637.135 128.971C637.287 129.229 637.363 129.521 637.363 129.85Z" fill="black" fill-opacity="0.45"/>
</svg>
