<?xml version="1.0" encoding="UTF-8"?>
<svg width="821px" height="340px" viewBox="0 0 821 340" version="1.1" xmlns="http://www.w3.org/2000/svg" xmlns:xlink="http://www.w3.org/1999/xlink">
    <!-- Generator: sketchtool 59.1 (101010) - https://sketch.com -->
    <title>650C7ED7-0F11-4ED7-8FDE-44C9E2F6B26D</title>
    <desc>Created with sketchtool.</desc>
    <defs>
        <polygon id="path-1" points="0.742 0.279 23.837 0.279 23.837 13.2678 0.742 13.2678"></polygon>
    </defs>
    <g id="desktop" stroke="none" stroke-width="1" fill="none" fill-rule="evenodd">
        <g id="landingDevOps" transform="translate(-550.000000, -2431.000000)">
            <g id="Scrum" transform="translate(550.000000, 2430.000000)">
                <path d="M240.937,123.7686 C232.997,123.7686 225.327,121.9916 218.14,118.4856 C200.088,109.6816 188.874,91.7286 188.874,71.6336 C188.874,63.6936 190.652,56.0236 194.157,48.8376 C202.961,30.7866 220.914,19.5726 241.009,19.5726 C244.575,19.5726 248.151,19.9436 251.638,20.6756 C252.719,20.9026 253.411,21.9636 253.185,23.0446 C252.958,24.1256 251.9,24.8166 250.816,24.5906 C247.599,23.9146 244.3,23.5726 241.009,23.5726 C222.456,23.5726 205.88,33.9256 197.752,50.5916 C194.516,57.2266 192.874,64.3066 192.874,71.6336 C192.874,90.1866 203.228,106.7616 219.894,114.8916 C226.529,118.1276 233.609,119.7686 240.937,119.7686 C256.718,119.7686 271.491,112.0566 280.454,99.1376 C281.815,97.1756 281.986,96.8536 283.122,94.5256 C283.605,93.5326 284.802,93.1206 285.796,93.6046 C286.789,94.0886 287.201,95.2866 286.716,96.2796 C285.543,98.6856 285.273,99.2076 283.74,101.4176 C274.03,115.4136 258.028,123.7686 240.937,123.7686" id="Fill-1" fill="#FF7211"></path>
                <path d="M269.0767,31.9395 L254.0837,11.7895 L250.3767,24.5015 C250.3767,24.5015 255.3127,25.5225 260.1157,27.4815 C264.7797,29.3845 269.0767,31.9395 269.0767,31.9395" id="Fill-3" fill="#FF7211"></path>
                <path d="M512.7646,264.564 C512.0506,263.736 510.8016,263.633 509.9636,264.341 L509.2016,264.981 C508.3626,265.686 508.2476,266.931 508.9386,267.778 C508.9446,267.785 508.9476,267.792 508.9526,267.799 C509.3486,268.271 509.9156,268.515 510.4876,268.515 C510.9406,268.515 511.3966,268.361 511.7706,268.048 L512.5416,267.398 C513.3866,266.686 513.4936,265.424 512.7816,264.58 C512.7766,264.574 512.7696,264.57 512.7646,264.564" id="Fill-5" fill="#505050"></path>
                <path d="M552.6826,199.3702 L552.3916,200.3152 C552.0656,201.3622 552.6436,202.4712 553.6816,202.8092 C553.6906,202.8122 553.6976,202.8172 553.7056,202.8192 C553.9046,202.8812 554.1046,202.9102 554.3016,202.9102 C555.1546,202.9102 555.9436,202.3612 556.2096,201.5042 L556.5066,200.5452 C556.8306,199.4892 556.2386,198.3702 555.1816,198.0462 C555.1736,198.0432 555.1656,198.0432 555.1576,198.0412 C554.1146,197.7302 553.0046,198.3212 552.6826,199.3702" id="Fill-7" fill="#505050"></path>
                <path d="M297.9565,220.7076 L297.5195,219.8206 C297.0375,218.8346 295.8535,218.4246 294.8665,218.8936 C294.8595,218.8966 294.8515,218.8976 294.8445,218.9016 C293.8515,219.3866 293.4405,220.5836 293.9255,221.5766 L294.3755,222.4896 C294.7255,223.1926 295.4325,223.5996 296.1675,223.5996 C296.4665,223.5996 296.7705,223.5316 297.0575,223.3896 C297.0635,223.3866 297.0675,223.3816 297.0745,223.3786 C298.0495,222.8806 298.4455,221.6906 297.9565,220.7076" id="Fill-9" fill="#505050"></path>
                <path d="M471.4521,31.441 L472.3661,31.806 C472.6111,31.904 472.8631,31.95 473.1111,31.95 C473.8971,31.95 474.6401,31.482 474.9581,30.712 C474.9601,30.706 474.9651,30.702 474.9681,30.695 C475.3801,29.67 474.8831,28.506 473.8581,28.094 L472.9191,27.72 C471.8941,27.314 470.7291,27.819 470.3251,28.847 C470.3221,28.854 470.3211,28.862 470.3181,28.869 C469.9301,29.892 470.4311,31.039 471.4521,31.441" id="Fill-11" fill="#505050"></path>
                <path d="M291.7568,206.2081 L291.4258,205.2811 C291.0618,204.2441 289.9288,203.6981 288.8898,204.0561 C288.8848,204.0581 288.8798,204.0581 288.8748,204.0601 C287.8338,204.4271 287.2868,205.5691 287.6538,206.6111 L287.9948,207.5671 C288.2888,208.3821 289.0578,208.8881 289.8758,208.8881 C290.1018,208.8881 290.3308,208.8501 290.5558,208.7691 C290.5638,208.7661 290.5698,208.7611 290.5768,208.7581 C291.6008,208.3741 292.1298,207.2391 291.7568,206.2081" id="Fill-13" fill="#505050"></path>
                <path d="M425.376,21.9585 L426.361,21.9915 C426.386,21.9925 426.411,21.9935 426.436,21.9935 C427.5,21.9935 428.381,21.1555 428.431,20.0855 C428.432,20.0795 428.434,20.0725 428.434,20.0665 C428.474,18.9625 427.612,18.0355 426.508,17.9945 L425.499,17.9605 C424.386,17.9175 423.472,18.7935 423.439,19.8975 C423.439,19.9065 423.44,19.9155 423.44,19.9235 C423.421,21.0165 424.28,21.9245 425.376,21.9585" id="Fill-15" fill="#505050"></path>
                <path d="M305.7861,234.3917 L305.2501,233.5627 C304.6591,232.6397 303.4351,232.3667 302.5081,232.9467 C302.5021,232.9507 302.4941,232.9527 302.4881,232.9567 C301.5571,233.5527 301.2861,234.7897 301.8821,235.7197 L302.4341,236.5757 C302.8181,237.1637 303.4581,237.4837 304.1121,237.4837 C304.4861,237.4837 304.8651,237.3787 305.2021,237.1597 C305.2081,237.1557 305.2121,237.1507 305.2181,237.1467 C306.1291,236.5397 306.3851,235.3107 305.7861,234.3917" id="Fill-17" fill="#505050"></path>
                <path d="M531.4785,241.377 L530.8855,242.169 C530.2255,243.046 530.3985,244.288 531.2665,244.956 C531.2725,244.96 531.2765,244.965 531.2825,244.97 C531.6425,245.241 532.0645,245.372 532.4825,245.372 C533.0895,245.372 533.6895,245.096 534.0825,244.574 L534.6875,243.766 C535.3465,242.88 535.1635,241.627 534.2775,240.967 C534.2705,240.962 534.2615,240.959 534.2545,240.954 C533.3705,240.314 532.1325,240.499 531.4785,241.377" id="Fill-19" fill="#505050"></path>
                <path d="M485.748,38.0528 L486.615,38.5198 C486.919,38.6848 487.246,38.7628 487.568,38.7628 C488.27,38.7628 488.948,38.3908 489.313,37.7368 C489.317,37.7298 489.323,37.7248 489.327,37.7178 C489.855,36.7468 489.496,35.5328 488.525,35.0058 L487.635,34.5258 C486.66,34.0048 485.449,34.3718 484.928,35.3458 C484.924,35.3528 484.923,35.3598 484.92,35.3658 C484.414,36.3368 484.781,37.5348 485.748,38.0528" id="Fill-21" fill="#505050"></path>
                <path d="M499.2031,46.2588 L500.0091,46.8188 C500.3581,47.0648 500.7591,47.1818 501.1561,47.1818 C501.7791,47.1818 502.3901,46.8898 502.7791,46.3488 C502.7841,46.3418 502.7901,46.3388 502.7951,46.3318 C503.4301,45.4278 503.2121,44.1808 502.3071,43.5458 L501.4731,42.9638 C500.5611,42.3368 499.3151,42.5668 498.6901,43.4768 C498.6871,43.4808 498.6861,43.4848 498.6841,43.4878 C498.0671,44.3968 498.2981,45.6348 499.2031,46.2588" id="Fill-23" fill="#505050"></path>
                <path d="M284.5347,175.5855 L284.4217,174.6035 C284.2987,173.5105 283.3197,172.7235 282.2277,172.8375 C282.2217,172.8385 282.2167,172.8375 282.2117,172.8375 C281.1137,172.9605 280.3237,173.9505 280.4467,175.0485 L280.5617,176.0535 C280.6817,177.0705 281.5457,177.8195 282.5457,177.8195 C282.6237,177.8195 282.7027,177.8145 282.7827,177.8055 C282.7917,177.8045 282.7997,177.8005 282.8087,177.7995 C283.8917,177.6575 284.6627,176.6725 284.5347,175.5855" id="Fill-25" fill="#505050"></path>
                <path d="M532.8096,79.2222 L533.3856,80.0302 C533.7756,80.5792 534.3926,80.8722 535.0186,80.8722 C535.4116,80.8722 535.8066,80.7532 536.1526,80.5142 C536.1596,80.5092 536.1666,80.5082 536.1736,80.5032 C537.0756,79.8642 537.2876,78.6152 536.6476,77.7142 L536.0596,76.8912 C535.4156,75.9932 534.1656,75.7872 533.2696,76.4312 C533.2626,76.4362 533.2576,76.4432 533.2496,76.4482 C532.3706,77.0962 532.1706,78.3312 532.8096,79.2222" id="Fill-27" fill="#505050"></path>
                <path d="M556.3896,184.0621 L556.2096,185.0331 C556.0066,186.1111 556.7126,187.1481 557.7856,187.3621 C557.7926,187.3631 557.7986,187.3661 557.8056,187.3681 C557.9306,187.3921 558.0556,187.4031 558.1776,187.4031 C559.1206,187.4031 559.9606,186.7321 560.1416,185.7721 L560.3256,184.7771 C560.5226,183.6901 559.8016,182.6491 558.7146,182.4521 C558.7066,182.4501 558.6996,182.4511 558.6916,182.4501 C557.6086,182.2671 556.5856,182.9841 556.3896,184.0621" id="Fill-29" fill="#505050"></path>
                <path d="M325.8745,258.6236 L325.1635,257.9376 C324.3765,257.1736 323.1235,257.1876 322.3505,257.9656 C322.3455,257.9706 322.3405,257.9736 322.3355,257.9786 C321.5655,258.7706 321.5835,260.0376 322.3765,260.8066 L323.1045,261.5106 C323.4925,261.8826 323.9915,262.0666 324.4895,262.0666 C325.0155,262.0666 325.5405,261.8606 325.9335,261.4516 C325.9385,261.4456 325.9425,261.4386 325.9485,261.4326 C326.6955,260.6336 326.6655,259.3826 325.8745,258.6236" id="Fill-31" fill="#505050"></path>
                <path d="M540.1377,228.2134 L539.6417,229.0634 C539.0827,230.0094 539.3957,231.2274 540.3347,231.7924 C540.3397,231.7954 540.3437,231.7984 540.3487,231.8014 C540.6677,231.9894 541.0177,232.0794 541.3627,232.0794 C542.0467,232.0794 542.7137,231.7274 543.0867,231.0944 L543.5987,230.2194 C544.1527,229.2634 543.8267,228.0404 542.8707,227.4854 C542.8637,227.4814 542.8557,227.4794 542.8477,227.4754 C541.8987,226.9424 540.6887,227.2644 540.1377,228.2134" id="Fill-33" fill="#505050"></path>
                <path d="M483.7812,281.8243 L482.8982,282.2723 C481.9182,282.7663 481.5212,283.9573 482.0052,284.9403 C482.0082,284.9463 482.0092,284.9523 482.0112,284.9583 C482.3622,285.6563 483.0672,286.0593 483.8002,286.0593 C484.1012,286.0593 484.4082,285.9913 484.6972,285.8453 L485.6032,285.3863 C486.5872,284.8833 486.9752,283.6783 486.4722,282.6943 C486.4692,282.6863 486.4632,282.6803 486.4592,282.6723 C485.9492,281.7073 484.7602,281.3243 483.7812,281.8243" id="Fill-35" fill="#505050"></path>
                <path d="M350.9224,277.6724 L350.0744,277.1644 C349.1364,276.5984 347.9204,276.8964 347.3444,277.8244 C347.3394,277.8324 347.3334,277.8374 347.3294,277.8454 C346.7584,278.7914 347.0634,280.0204 348.0094,280.5904 L348.8754,281.1094 C349.1964,281.2994 349.5484,281.3914 349.8974,281.3914 C350.5784,281.3914 351.2434,281.0424 351.6174,280.4144 C351.6204,280.4084 351.6224,280.4024 351.6254,280.3964 C352.1774,279.4494 351.8654,278.2344 350.9224,277.6724" id="Fill-37" fill="#505050"></path>
                <path d="M558.3096,168.4219 L558.2436,169.4079 C558.1656,170.5009 558.9836,171.4479 560.0726,171.5389 C560.0806,171.5399 560.0886,171.5429 560.0976,171.5439 C560.1456,171.5469 560.1936,171.5479 560.2406,171.5479 C561.2816,171.5479 562.1596,170.7429 562.2336,169.6889 L562.3016,168.6799 C562.3726,167.5769 561.5376,166.6259 560.4346,166.5549 C560.4276,166.5539 560.4206,166.5559 560.4136,166.5559 C559.3146,166.5139 558.3806,167.3279 558.3096,168.4219" id="Fill-39" fill="#505050"></path>
                <path d="M456.498,26.5123 L457.445,26.7683 C457.622,26.8173 457.801,26.8403 457.976,26.8403 C458.848,26.8403 459.644,26.2643 459.894,25.3873 C459.896,25.3813 459.901,25.3763 459.903,25.3693 C460.195,24.3043 459.569,23.2033 458.504,22.9113 L457.529,22.6473 C456.462,22.3633 455.366,22.9963 455.081,24.0643 C455.079,24.0713 455.079,24.0793 455.077,24.0863 C454.808,25.1463 455.438,26.2293 456.498,26.5123" id="Fill-41" fill="#505050"></path>
                <path d="M337.856,268.8628 L337.074,268.2638 C336.205,267.5928 334.962,267.7498 334.284,268.6078 C334.279,268.6138 334.273,268.6178 334.269,268.6248 C333.593,269.4988 333.755,270.7548 334.629,271.4298 L335.434,272.0468 C335.796,272.3218 336.222,272.4548 336.644,272.4548 C337.247,272.4548 337.843,272.1828 338.237,271.6658 C338.241,271.6598 338.243,271.6548 338.247,271.6488 C338.902,270.7708 338.73,269.5278 337.856,268.8628" id="Fill-43" fill="#505050"></path>
                <path d="M364.9033,284.9336 L364.0053,284.5266 C363.0073,284.0686 361.8313,284.5046 361.3653,285.4956 C361.3623,285.5016 361.3583,285.5076 361.3553,285.5136 C360.8953,286.5176 361.3383,287.7046 362.3423,288.1636 L363.2613,288.5806 C363.5283,288.7016 363.8073,288.7576 364.0813,288.7576 C364.8443,288.7576 365.5723,288.3186 365.9063,287.5786 C365.9093,287.5706 365.9113,287.5616 365.9143,287.5536 C366.3503,286.5526 365.9033,285.3836 364.9033,284.9336" id="Fill-45" fill="#505050"></path>
                <path d="M441.0635,23.335 L442.0385,23.481 C442.1415,23.497 442.2445,23.505 442.3455,23.505 C443.3075,23.505 444.1515,22.808 444.3135,21.832 C444.3155,21.824 444.3185,21.817 444.3195,21.81 C444.4885,20.718 443.7395,19.696 442.6475,19.528 L441.6435,19.377 C440.5525,19.22 439.5355,19.973 439.3755,21.066 C439.3745,21.072 439.3755,21.077 439.3745,21.083 C439.2245,22.169 439.9765,23.176 441.0635,23.335" id="Fill-47" fill="#505050"></path>
                <path d="M315.1353,247.0835 L314.5073,246.3205 C313.8113,245.4695 312.5633,245.3425 311.7093,246.0285 C311.7043,246.0325 311.6983,246.0345 311.6933,246.0395 C310.8383,246.7385 310.7123,247.9995 311.4113,248.8535 L312.0563,249.6365 C312.4513,250.1135 313.0223,250.3595 313.5963,250.3595 C314.0463,250.3595 314.4993,250.2085 314.8723,249.8995 C314.8783,249.8945 314.8833,249.8875 314.8893,249.8825 C315.7223,249.1745 315.8353,247.9275 315.1353,247.0835" id="Fill-49" fill="#505050"></path>
                <path d="M547.2373,214.1519 L546.8413,215.0519 C546.3963,216.0549 546.8433,217.2249 547.8393,217.6799 C547.8453,217.6839 547.8513,217.6889 547.8583,217.6919 C548.1223,217.8089 548.3973,217.8639 548.6693,217.8639 C549.4353,217.8639 550.1673,217.4209 550.4983,216.6739 L550.9053,215.7479 C551.3453,214.7349 550.8823,213.5569 549.8693,213.1159 C549.8633,213.1139 549.8563,213.1129 549.8503,213.1099 C548.8423,212.6839 547.6753,213.1449 547.2373,214.1519" id="Fill-51" fill="#505050"></path>
                <path d="M497.376,273.8375 L496.551,274.3835 C495.634,274.9865 495.376,276.2155 495.97,277.1365 C495.973,277.1415 495.975,277.1485 495.979,277.1535 C496.362,277.7385 497,278.0555 497.651,278.0555 C498.028,278.0555 498.409,277.9485 498.748,277.7265 L499.595,277.1655 C500.514,276.5525 500.762,275.3115 500.149,274.3925 C500.145,274.3845 500.139,274.3795 500.134,274.3725 C499.516,273.4715 498.288,273.2285 497.376,273.8375" id="Fill-53" fill="#505050"></path>
                <path d="M521.376,253.4732 L520.696,254.1932 C519.941,254.9882 519.971,256.2412 520.754,257.0022 C520.76,257.0082 520.764,257.0152 520.77,257.0202 C521.156,257.3882 521.651,257.5702 522.147,257.5702 C522.676,257.5702 523.204,257.3612 523.597,256.9472 L524.29,256.2122 C525.047,255.4082 525.008,254.1412 524.202,253.3852 C524.197,253.3802 524.19,253.3772 524.186,253.3722 C523.381,252.6322 522.128,252.6732 521.376,253.4732" id="Fill-55" fill="#505050"></path>
                <path d="M287.2705,191.1026 L287.0475,190.1436 C286.8045,189.0746 285.7465,188.4056 284.6785,188.6356 C284.6705,188.6376 284.6615,188.6366 284.6535,188.6386 C283.5765,188.8846 282.9025,189.9566 283.1485,191.0336 L283.3775,192.0226 C283.5955,192.9426 284.4165,193.5626 285.3225,193.5626 C285.4755,193.5626 285.6295,193.5456 285.7845,193.5086 C285.7905,193.5076 285.7945,193.5046 285.8005,193.5036 C286.8655,193.2426 287.5235,192.1716 287.2705,191.1026" id="Fill-57" fill="#505050"></path>
                <path d="M548.1279,106.7315 C548.2539,107.0325 548.3769,107.3345 548.4989,107.6375 C548.8149,108.4155 549.5639,108.8875 550.3549,108.8875 C550.5979,108.8875 550.8459,108.8415 551.0859,108.7465 C551.0919,108.7445 551.0979,108.7435 551.1039,108.7415 C552.1269,108.3275 552.6219,107.1615 552.2079,106.1375 C552.0799,105.8215 551.9509,105.5065 551.8209,105.1935 C551.3969,104.1735 550.2249,103.6925 549.2059,104.1165 C549.1989,104.1195 549.1939,104.1235 549.1879,104.1265 C548.1809,104.5575 547.7069,105.7185 548.1279,106.7315" id="Fill-59" fill="#505050"></path>
                <path d="M297.5684,98.9507 L298.0054,98.0667 C298.4954,97.0847 298.1014,95.8957 297.1284,95.3957 C297.1214,95.3917 297.1164,95.3877 297.1094,95.3837 C296.1214,94.8897 294.9194,95.2907 294.4264,96.2807 L293.9794,97.1847 C293.4914,98.1767 293.8994,99.3747 294.8904,99.8627 C294.8984,99.8667 294.9054,99.8677 294.9134,99.8707 C295.1904,100.0027 295.4834,100.0687 295.7724,100.0687 C296.5104,100.0687 297.2204,99.6577 297.5684,98.9507" id="Fill-61" fill="#505050"></path>
                <path d="M363.231,34.4307 C363.507,34.4307 363.788,34.3727 364.056,34.2517 L364.962,33.8437 C365.963,33.3957 366.414,32.2267 365.979,31.2237 C365.976,31.2167 365.975,31.2087 365.971,31.2017 C365.52,30.1927 364.339,29.7407 363.329,30.1917 L362.404,30.6087 C361.398,31.0647 360.952,32.2507 361.409,33.2567 C361.412,33.2637 361.419,33.2697 361.422,33.2777 C361.762,34.0007 362.479,34.4307 363.231,34.4307" id="Fill-63" fill="#505050"></path>
                <path d="M511.6377,55.94 L512.3747,56.589 C512.7557,56.928 513.2307,57.094 513.7017,57.094 C514.2467,57.094 514.7897,56.871 515.1837,56.436 C515.1877,56.431 515.1937,56.428 515.1987,56.422 C515.9317,55.597 515.8577,54.333 515.0317,53.599 L514.2687,52.927 C513.4377,52.201 512.1717,52.287 511.4477,53.118 C511.4427,53.123 511.4397,53.13 511.4347,53.135 C510.7227,53.968 510.8117,55.218 511.6377,55.94" id="Fill-65" fill="#505050"></path>
                <path d="M553.3027,121.606 L553.5697,122.557 C553.8147,123.443 554.6187,124.024 555.4957,124.024 C555.6647,124.024 555.8357,124 556.0067,123.955 C556.0147,123.953 556.0227,123.954 556.0307,123.952 C557.0947,123.657 557.7187,122.555 557.4247,121.491 L557.1527,120.516 C556.8507,119.454 555.7487,118.837 554.6827,119.137 C554.6737,119.139 554.6657,119.144 554.6567,119.147 C553.6117,119.458 553.0047,120.552 553.3027,121.606" id="Fill-67" fill="#505050"></path>
                <path d="M305.3042,85.2261 L305.8402,84.3971 C306.4402,83.4761 306.1832,82.2461 305.2682,81.6391 C305.2632,81.6371 305.2612,81.6331 305.2562,81.6301 C304.3312,81.0261 303.0912,81.2881 302.4892,82.2141 L301.9392,83.0631 C301.3422,83.9921 301.6112,85.2291 302.5402,85.8271 C302.5482,85.8311 302.5572,85.8331 302.5652,85.8381 C302.8942,86.0431 303.2592,86.1451 303.6202,86.1451 C304.2782,86.1451 304.9222,85.8201 305.3042,85.2261" id="Fill-69" fill="#505050"></path>
                <path d="M314.5571,72.4678 L315.1831,71.7048 C315.8831,70.8598 315.7681,69.6118 314.9321,68.9048 C314.9271,68.8998 314.9231,68.8938 314.9171,68.8888 C314.0661,68.1848 312.8061,68.3028 312.1011,69.1558 L311.4581,69.9378 C310.7601,70.7928 310.8871,72.0528 311.7431,72.7518 C311.7481,72.7568 311.7561,72.7598 311.7621,72.7648 C312.1301,73.0578 312.5691,73.2028 313.0071,73.2028 C313.5861,73.2028 314.1611,72.9518 314.5571,72.4678" id="Fill-71" fill="#505050"></path>
                <path d="M409.4507,22.3936 C409.5067,22.3936 409.5637,22.3916 409.6197,22.3866 L410.6017,22.3076 C411.6957,22.2246 412.5147,21.2746 412.4437,20.1836 C412.4437,20.1756 412.4457,20.1686 412.4447,20.1616 C412.3597,19.0596 411.4027,18.2286 410.2977,18.3196 L409.2857,18.4006 C408.1857,18.4926 407.3677,19.4596 407.4597,20.5606 C407.4607,20.5666 407.4627,20.5726 407.4627,20.5786 C407.5587,21.6136 408.4277,22.3936 409.4507,22.3936" id="Fill-73" fill="#505050"></path>
                <path d="M349.0791,41.8887 C349.4311,41.8887 349.7871,41.7957 350.1101,41.6007 L350.9571,41.0947 C351.9031,40.5337 352.2171,39.3157 351.6651,38.3677 C351.6621,38.3637 351.6611,38.3587 351.6591,38.3537 C351.0961,37.4037 349.8691,37.0907 348.9181,37.6527 L348.0441,38.1757 C347.0991,38.7457 346.7941,39.9747 347.3641,40.9207 C347.3691,40.9287 347.3751,40.9337 347.3801,40.9407 C347.7581,41.5497 348.4091,41.8887 349.0791,41.8887" id="Fill-75" fill="#505050"></path>
                <path d="M522.8896,66.9742 L523.5506,67.7062 C523.9456,68.1472 524.4926,68.3722 525.0406,68.3722 C525.5106,68.3722 525.9836,68.2052 526.3636,67.8702 C526.3676,67.8672 526.3706,67.8652 526.3746,67.8622 C527.1976,67.1242 527.2666,65.8602 526.5296,65.0372 L525.8486,64.2842 C525.1066,63.4672 523.8426,63.4062 523.0236,64.1492 C523.0176,64.1552 523.0126,64.1612 523.0066,64.1672 C522.2066,64.9132 522.1526,66.1632 522.8896,66.9742" id="Fill-77" fill="#505050"></path>
                <path d="M287.042,128.5806 L287.266,127.6216 C287.52,126.5546 286.866,125.4856 285.804,125.2206 C285.797,125.2186 285.791,125.2146 285.783,125.2126 C284.706,124.9556 283.63,125.6216 283.375,126.6956 L283.144,127.6846 C282.896,128.7606 283.568,129.8336 284.645,130.0816 C284.652,130.0836 284.66,130.0826 284.668,130.0836 C284.811,130.1156 284.954,130.1326 285.095,130.1326 C286.005,130.1326 286.829,129.5066 287.042,128.5806" id="Fill-79" fill="#505050"></path>
                <path d="M558.4209,152.6612 L558.4669,153.6482 C558.5139,154.7222 559.3999,155.5602 560.4629,155.5602 C560.4839,155.5602 560.5059,155.5592 560.5269,155.5592 C560.5349,155.5582 560.5439,155.5592 560.5529,155.5582 C561.6559,155.5102 562.5119,154.5762 562.4629,153.4732 L562.4149,152.4622 C562.3599,151.3582 561.4189,150.5172 560.3179,150.5642 C560.3109,150.5642 560.3029,150.5672 560.2949,150.5672 C559.2029,150.6352 558.3649,151.5662 558.4209,152.6612" id="Fill-81" fill="#505050"></path>
                <path d="M325.2021,60.8418 L325.9101,60.1578 C326.7011,59.3978 326.7301,58.1468 325.9821,57.3478 C325.9771,57.3418 325.9731,57.3358 325.9681,57.3298 C325.2031,56.5338 323.9381,56.5078 323.1401,57.2708 L322.4091,57.9788 C321.6191,58.7498 321.6021,60.0158 322.3741,60.8068 C322.3781,60.8108 322.3821,60.8128 322.3861,60.8168 C322.7771,61.2108 323.2901,61.4098 323.8061,61.4098 C324.3091,61.4098 324.8131,61.2208 325.2021,60.8418" id="Fill-83" fill="#505050"></path>
                <path d="M284.4014,144.1163 L284.5144,143.1343 C284.6424,142.0433 283.8684,141.0563 282.7814,140.9183 C282.7744,140.9173 282.7684,140.9143 282.7624,140.9133 C281.6654,140.7853 280.6714,141.5693 280.5414,142.6653 L280.4254,143.6713 C280.3034,144.7693 281.0934,145.7583 282.1914,145.8813 C282.1994,145.8823 282.2084,145.8823 282.2174,145.8833 C282.2844,145.8893 282.3504,145.8933 282.4164,145.8933 C283.4214,145.8933 284.2864,145.1383 284.4014,144.1163" id="Fill-85" fill="#505050"></path>
                <path d="M283.566921,159.8487 L283.5659,159.2367 L283.5659,158.8657 C283.5699,157.7687 282.6909,156.8777 281.5969,156.8607 C281.5889,156.8607 281.5819,156.8577 281.5739,156.8577 C280.4409,156.8927 279.5699,157.7457 279.5659,158.8497 L279.5659,159.2367 L279.5669,159.8677 C279.5719,160.9687 280.4659,161.8577 281.5669,161.8577 L281.5759,161.8577 C281.5829,161.8577 281.5879,161.8557 281.5939,161.8557 C282.6899,161.8407 283.5719,160.9467 283.566921,159.8487" id="Fill-87" fill="#505050"></path>
                <path d="M393.6216,24.6329 C393.7516,24.6329 393.8846,24.6199 394.0176,24.5929 L394.9816,24.4039 C396.0606,24.1969 396.7666,23.1589 396.5706,22.0819 C396.5686,22.0749 396.5696,22.0689 396.5686,22.0629 C396.3596,20.9769 395.3086,20.2649 394.2266,20.4759 L393.2296,20.6719 C392.1466,20.8889 391.4456,21.9429 391.6626,23.0259 C391.6636,23.0339 391.6676,23.0409 391.6686,23.0489 C391.8686,23.9859 392.6956,24.6329 393.6216,24.6329" id="Fill-89" fill="#505050"></path>
                <path d="M556.7422,136.9854 L556.8982,137.9604 C557.0532,138.9464 557.9042,139.6504 558.8712,139.6504 C558.9682,139.6504 559.0652,139.6414 559.1632,139.6274 C559.1702,139.6264 559.1782,139.6264 559.1842,139.6254 C560.2752,139.4544 561.0212,138.4304 560.8492,137.3394 L560.6892,136.3394 C560.5122,135.2504 559.4822,134.5064 558.3932,134.6894 C558.3862,134.6904 558.3792,134.6934 558.3712,134.6944 C557.2932,134.8844 556.5642,135.9024 556.7422,136.9854" id="Fill-91" fill="#505050"></path>
                <path d="M378.150397,28.6539 C378.3534,28.6539 378.5604,28.6229 378.7644,28.5569 L379.7044,28.2579 C380.7504,27.9289 381.3324,26.8209 381.0164,25.7749 C381.0144,25.7659 381.0144,25.7579 381.0114,25.7499 C380.6804,24.6959 379.5594,24.1109 378.5044,24.4429 L377.5374,24.7499 C376.4864,25.0889 375.9084,26.2149 376.2474,27.2669 C376.2494,27.2729 376.2534,27.2769 376.2544,27.2819 C376.5334,28.1199 377.3114,28.6539 378.150397,28.6539" id="Fill-93" fill="#505050"></path>
                <path d="M335.8813,50.9244 C336.3093,50.9244 336.7403,50.7874 337.1043,50.5054 L337.8863,49.9054 C338.7583,49.2414 338.9303,48.0014 338.2783,47.1234 C338.2733,47.1164 338.2713,47.1094 338.2663,47.1034 C337.5973,46.2234 336.3433,46.0544 335.4633,46.7234 L334.6553,47.3434 C333.7813,48.0194 333.6223,49.2764 334.2983,50.1494 C334.3023,50.1534 334.3073,50.1564 334.3113,50.1614 C334.7053,50.6614 335.2893,50.9244 335.8813,50.9244" id="Fill-95" fill="#505050"></path>
                <path d="M291.4521,113.462 L291.7841,112.537 C292.1581,111.507 291.6321,110.372 290.6101,109.986 C290.6021,109.983 290.5951,109.978 290.5871,109.975 C289.5481,109.599 288.4011,110.134 288.0241,111.172 L287.6821,112.123 C287.3131,113.164 287.8571,114.308 288.8981,114.677 C288.9031,114.679 288.9081,114.679 288.9121,114.681 C289.1291,114.756 289.3501,114.793 289.5671,114.793 C290.3901,114.793 291.1611,114.281 291.4521,113.462" id="Fill-97" fill="#505050"></path>
                <path d="M541.2607,92.5298 L541.7387,93.3958 C542.1017,94.0608 542.7877,94.4378 543.4957,94.4378 C543.8127,94.4378 544.1337,94.3598 544.4317,94.2008 C544.4387,94.1968 544.4457,94.1968 544.4517,94.1928 C545.4217,93.6638 545.7797,92.4488 545.2497,91.4798 L544.7587,90.5888 C544.2217,89.6228 543.0057,89.2738 542.0387,89.8108 C542.0337,89.8138 542.0297,89.8178 542.0247,89.8208 C541.0707,90.3618 540.7277,91.5698 541.2607,92.5298" id="Fill-99" fill="#505050"></path>
                <path d="M307.4976,254.6002 C286.5396,229.7682 274.6066,199.4962 272.9576,166.8752 C272.9016,165.7722 271.9586,164.9312 270.8586,164.9782 C269.7556,165.0342 268.9066,165.9742 268.9626,167.0772 C270.6506,200.4742 282.8326,231.4752 304.2316,256.9352 L307.4026,254.4942 C307.4026,254.4942 307.4406,254.5362 307.4976,254.6002" id="Fill-101" fill="#505050"></path>
                <path d="M314.3096,261.9737 C310.8036,258.2877 308.0176,255.1817 307.4976,254.5997 C307.4406,254.5367 307.4026,254.4947 307.4026,254.4947 L304.2316,256.9357 L296.8726,262.6007 L321.6916,269.0167 C321.6916,269.0167 317.8756,265.7227 314.3096,261.9737" id="Fill-103" fill="#505050"></path>
                <path d="M332.3638,41.1587 C358.0448,21.9237 388.5618,11.7687 420.7978,11.7687 L421.9458,11.7727 L421.9598,11.7727 C423.0578,11.7727 423.9508,10.8877 423.959854,9.7877 C423.9678,8.6837 423.0798,7.7817 421.9748,7.7727 L420.7978,7.7687 C387.7948,7.7687 356.5458,18.1297 330.2198,37.7627 L332.4738,41.0717 C332.4738,41.0717 332.4298,41.1057 332.3638,41.1587" id="Fill-105" fill="#505050"></path>
                <path d="M324.6055,47.5323 C328.4925,44.2433 331.7565,41.6403 332.3635,41.1583 C332.4295,41.1063 332.4735,41.0713 332.4735,41.0713 L330.2205,37.7633 L324.9925,30.0883 L317.1455,54.4923 C317.1455,54.4923 320.6565,50.8743 324.6055,47.5323" id="Fill-107" fill="#505050"></path>
                <path d="M445.874,13.9668 C477.918,19.3938 506.58,34.8058 528.907,58.6548 C529.301,59.0758 529.834,59.2878 530.367,59.2878 C530.857,59.2878 531.349,59.1098 531.734,58.7478 C532.54,57.9928 532.582,56.7278 531.827,55.9218 C508.974,31.5088 479.655,15.7008 446.876,10.0768 L446.03,13.9888 C446.03,13.9888 445.97,13.9808 445.874,13.9668" id="Fill-109" fill="#505050"></path>
                <g id="Group-113" transform="translate(425.000000, 0.721000)">
                    <mask id="mask-2" fill="white">
                        <use xlink:href="#path-1"></use>
                    </mask>
                    <g id="Clip-112"></g>
                    <path d="M20.874,13.2458 C20.97,13.2598 21.03,13.2678 21.03,13.2678 L21.876,9.3558 L23.837,0.2788 L0.742,11.4038 C0.742,11.4038 5.783,11.4558 10.927,12.0168 C15.949,12.5628 20.061,13.1318 20.874,13.2458" id="Fill-111" fill="#505050" mask="url(#mask-2)"></path>
                </g>
                <path d="M542.2148,75.6104 C559.3738,100.3824 568.4538,129.3464 568.4538,159.5214 C568.4538,161.9914 568.3928,164.4964 568.2708,166.9644 C568.2158,168.0684 569.0658,169.0064 570.1688,169.0614 C570.2018,169.0624 570.2358,169.0634 570.2698,169.0634 C571.3278,169.0634 572.2118,168.2324 572.2648,167.1624 C572.3908,164.6284 572.4538,162.0574 572.4538,159.5214 C572.4538,128.8954 563.3678,99.4744 546.1498,74.2304 L542.7498,76.3424 C542.7498,76.3424 542.5568,76.0764 542.2148,75.6104" id="Fill-114" fill="#505050"></path>
                <path d="M529.9844,60.4649 C529.9844,60.4649 533.4524,64.1249 536.6254,68.2109 C539.1674,71.4839 541.2714,74.3259 542.2144,75.6109 C542.5564,76.0759 542.7504,76.3429 542.7504,76.3429 L546.1494,74.2309 L554.0374,69.3289 L529.9844,60.4649 Z" id="Fill-116" fill="#505050"></path>
                <path d="M565.1973,190.5757 C565.1973,190.5757 565.2073,190.5217 565.2213,190.4417 C558.5003,222.2317 541.9443,250.2407 517.2183,271.5787 C516.3833,272.3007 516.2903,273.5637 517.0113,274.3997 C517.4073,274.8587 517.9653,275.0937 518.5263,275.0937 C518.9893,275.0937 519.4543,274.9337 519.8323,274.6077 C545.1463,252.7597 562.1273,224.1047 569.0723,191.5787 L565.1973,190.5757 Z" id="Fill-118" fill="#505050"></path>
                <path d="M569.0723,191.5787 L578.0623,193.9047 L567.8803,170.3797 C567.8803,170.3797 567.6243,175.4147 566.8563,180.5317 C566.0993,185.5757 565.3583,189.6907 565.2213,190.4417 C565.2073,190.5217 565.1973,190.5757 565.1973,190.5757 L569.0723,191.5787 Z" id="Fill-120" fill="#505050"></path>
                <path d="M273.8535,141.9976 C277.4985,109.7116 291.2945,80.2476 313.8615,56.6386 C314.6245,55.8396 314.5955,54.5736 313.7975,53.8106 C312.9995,53.0476 311.7335,53.0766 310.9695,53.8746 C287.8635,78.0476 273.7075,108.1986 269.9115,141.2396 L273.8645,141.8666 C273.8645,141.8666 273.8595,141.9186 273.8535,141.9976" id="Fill-122" fill="#FF7211"></path>
                <path d="M273.1294,162.2266 C273.1294,162.2266 272.9014,157.1896 273.1754,152.0236 C273.4464,146.9196 273.7904,142.7466 273.8534,141.9976 C273.8594,141.9186 273.8644,141.8666 273.8644,141.8666 L269.9114,141.2396 L260.7394,139.7856 L273.1294,162.2266 Z" id="Fill-124" fill="#FF7211"></path>
                <path d="M240.1138,63.3877 C239.5618,63.3877 239.1138,62.9397 239.1138,62.3877 L239.1138,57.7207 C239.1138,57.1687 239.5618,56.7207 240.1138,56.7207 C240.6658,56.7207 241.1138,57.1687 241.1138,57.7207 L241.1138,62.3877 C241.1138,62.9397 240.6658,63.3877 240.1138,63.3877" id="Fill-126" fill="#444444"></path>
                <path d="M254.1138,72.7208 L249.4468,72.7208 C248.8948,72.7208 248.4468,72.2728 248.4468,71.7208 C248.4468,71.1688 248.8948,70.7208 249.4468,70.7208 L254.1138,70.7208 C254.6658,70.7208 255.1138,71.1688 255.1138,71.7208 C255.1138,72.2728 254.6658,72.7208 254.1138,72.7208" id="Fill-128" fill="#444444"></path>
                <path d="M240.1138,86.7208 C239.5618,86.7208 239.1138,86.2728 239.1138,85.7208 L239.1138,81.0538 C239.1138,80.5018 239.5618,80.0538 240.1138,80.0538 C240.6658,80.0538 241.1138,80.5018 241.1138,81.0538 L241.1138,85.7208 C241.1138,86.2728 240.6658,86.7208 240.1138,86.7208" id="Fill-130" fill="#444444"></path>
                <path d="M230.7803,72.7208 L226.1133,72.7208 C225.5613,72.7208 225.1133,72.2728 225.1133,71.7208 C225.1133,71.1688 225.5613,70.7208 226.1133,70.7208 L230.7803,70.7208 C231.3323,70.7208 231.7803,71.1688 231.7803,71.7208 C231.7803,72.2728 231.3323,72.7208 230.7803,72.7208" id="Fill-132" fill="#444444"></path>
                <path d="M240.1138,58.7208 C232.9458,58.7208 227.1138,64.5528 227.1138,71.7208 C227.1138,78.8888 232.9458,84.7208 240.1138,84.7208 C247.2818,84.7208 253.1138,78.8888 253.1138,71.7208 C253.1138,64.5528 247.2818,58.7208 240.1138,58.7208 M240.1138,86.7208 C231.8428,86.7208 225.1138,79.9918 225.1138,71.7208 C225.1138,63.4498 231.8428,56.7208 240.1138,56.7208 C248.3848,56.7208 255.1138,63.4498 255.1138,71.7208 C255.1138,79.9918 248.3848,86.7208 240.1138,86.7208" id="Fill-134" fill="#444444"></path>
                <path d="M245.7134,72.7208 L240.1134,72.7208 C239.7984,72.7208 239.5024,72.5728 239.3144,72.3208 L233.7134,64.8548 C233.3824,64.4128 233.4714,63.7858 233.9134,63.4548 C234.3574,63.1228 234.9824,63.2138 235.3134,63.6548 L240.6134,70.7208 L245.7134,70.7208 C246.2654,70.7208 246.7134,71.1688 246.7134,71.7208 C246.7134,72.2728 246.2654,72.7208 245.7134,72.7208" id="Fill-136" fill="#444444"></path>
                <path d="M461.1162,181.7945 C461.1162,184.9465 465.9252,184.9465 465.9252,181.7945 C465.9252,178.6425 461.1162,178.6425 461.1162,181.7945 L461.1162,181.7945 Z M449.5602,163.3445 L453.6352,162.9125 L453.6352,167.5585 L458.1772,167.5585 L458.1772,171.0435 L453.6012,171.0435 L453.6012,178.1105 C453.6012,179.6705 454.4702,180.4345 455.7392,180.4345 C456.3732,180.4345 457.1082,180.2345 457.7092,179.9365 L458.8452,183.3875 C457.6762,183.8525 456.7072,184.0505 455.4712,184.0845 C451.8982,184.2165 449.5602,182.1925 449.5602,178.1105 L449.5602,171.0435 L446.4882,171.0435 L446.4882,167.5585 L449.5602,167.5585 L449.5602,163.3445 Z M444.3842,183.8845 L440.3092,183.8845 L440.3092,175.3235 C440.3092,172.8345 438.9402,170.9435 436.3352,170.9435 C433.8302,170.9435 432.1272,173.0335 432.1272,175.5225 L432.1272,183.8845 L428.0862,183.8845 L428.0862,167.4925 L431.7262,167.4925 L431.9932,169.7155 C433.6632,168.0895 435.3332,167.2595 437.4032,167.2595 C441.2782,167.2595 444.3842,170.1475 444.3842,175.2905 L444.3842,183.8845 Z M420.0702,162.9125 C420.0702,159.7605 424.8802,159.7605 424.8802,162.9125 C424.8802,166.0655 420.0702,166.0655 420.0702,162.9125 L420.0702,162.9125 Z M420.4372,183.8845 L424.5122,183.8845 L424.5122,167.4585 L420.4372,167.4585 L420.4372,183.8845 Z M405.9432,167.5255 L409.7172,167.5255 L410.0182,169.4165 C411.2872,167.3925 412.9902,167.0935 414.6602,167.0935 C416.3632,167.0935 418.0002,167.7575 418.9012,168.6535 L417.0642,172.1705 C416.2292,171.4745 415.4622,171.1095 414.1262,171.1095 C411.9882,171.1095 410.0182,172.2375 410.0182,175.2575 L410.0182,183.8845 L405.9432,183.8845 L405.9432,167.5255 Z M389.1452,190.7205 L385.0702,190.7205 L385.0702,167.5255 L388.8772,167.5255 L389.1452,169.7815 C390.4142,167.9565 392.6182,167.1605 394.4882,167.1605 C399.5652,167.1605 402.9382,170.9105 402.9382,175.7215 C402.9382,180.5005 399.8992,184.2835 394.6222,184.2835 C392.8852,184.2835 390.3132,183.7525 389.1452,181.9605 L389.1452,190.7205 Z M394.1882,180.3675 C396.9602,180.3675 398.8632,178.2765 398.8632,175.7215 C398.8632,173.1665 397.1272,171.0765 394.1882,171.0765 C391.2492,171.0765 389.5122,173.1665 389.5122,175.7215 C389.5122,178.2765 391.4162,180.3675 394.1882,180.3675 L394.1882,180.3675 Z M381.6972,169.2175 L379.4262,171.8725 C378.2572,170.7775 376.9212,170.4125 375.3512,170.4125 C373.4142,170.4125 372.3462,171.0095 372.3462,172.0385 C372.3462,173.1005 373.3142,173.6975 375.4182,173.8305 C378.5242,174.0295 382.4652,174.7265 382.4652,179.0735 C382.4652,181.9605 380.0942,184.4495 375.3852,184.4495 C372.7802,184.4495 370.1752,184.0175 367.7702,181.5285 L369.7742,178.6425 C370.9432,179.9365 373.6152,180.8985 375.4522,180.9315 C376.9882,180.9645 378.4242,180.1685 378.4242,178.9735 C378.4242,177.8455 377.4892,177.3805 375.1512,177.2485 C372.0452,177.0165 368.3382,175.8875 368.3382,172.1705 C368.3382,168.3885 372.2792,167.0605 375.2852,167.0605 C377.8562,167.0605 379.7932,167.5585 381.6972,169.2175 L381.6972,169.2175 Z M463.5702,121.0525 L467.6442,121.0525 L467.6442,134.4595 L473.1882,127.8885 L478.0642,127.8885 L478.0642,128.1215 L471.3512,135.5875 L479.0002,143.9495 L479.0002,144.2485 L474.0912,144.2485 L467.6442,136.8485 L467.6442,144.2485 L463.5702,144.2485 L463.5702,121.0525 Z M447.7402,134.1605 L456.6242,134.1605 C456.3562,132.0365 454.6862,130.9745 452.3482,130.9745 C450.1442,130.9745 448.3422,132.0365 447.7402,134.1605 L447.7402,134.1605 Z M460.5312,137.5125 L447.6742,137.5125 C447.9402,139.5365 449.7112,140.9965 452.5832,140.9965 C454.0862,140.9965 456.0552,140.4325 456.9912,139.4695 L459.5962,142.0245 C457.8592,143.8165 455.0202,144.6795 452.5152,144.6795 C446.8392,144.6795 443.4662,141.1955 443.4662,135.9525 C443.4662,130.9745 446.8722,127.3915 452.2162,127.3915 C457.7252,127.3915 461.1662,130.7755 460.5312,137.5125 L460.5312,137.5125 Z M428.2692,134.1605 L437.1532,134.1605 C436.8862,132.0365 435.2162,130.9745 432.8792,130.9745 C430.6742,130.9745 428.8712,132.0365 428.2692,134.1605 L428.2692,134.1605 Z M441.0602,137.5125 L428.2032,137.5125 C428.4702,139.5365 430.2402,140.9965 433.1122,140.9965 C434.6152,140.9965 436.5862,140.4325 437.5202,139.4695 L440.1262,142.0245 C438.3882,143.8165 435.5502,144.6795 433.0462,144.6795 C427.3682,144.6795 423.9952,141.1955 423.9952,135.9525 C423.9952,130.9745 427.4012,127.3915 432.7452,127.3915 C438.2562,127.3915 441.6952,130.7755 441.0602,137.5125 L441.0602,137.5125 Z M405.8262,127.8555 L409.4002,127.8555 L413.0072,140.1675 L416.7812,127.8555 L421.2902,127.8555 L415.5452,144.3155 L410.8032,144.3155 L409.0992,139.4695 L407.6302,133.9945 L406.1602,139.4695 L404.4572,144.3155 L399.7152,144.3155 L393.9372,127.8555 L398.4792,127.8555 L402.2532,140.1675 L405.8262,127.8555 Z M378.8082,135.2885 L391.1312,135.2885 L391.1312,131.5725 L378.8082,131.5725 L378.8082,135.2885 Z M361.4752,127.7555 L357.1002,127.7555 C357.1342,122.8445 361.8092,120.7205 366.1172,120.7205 C370.7932,120.7205 375.8692,122.6125 375.8692,128.1215 C375.8692,134.0275 371.3942,135.1565 366.4852,135.1565 C364.5482,135.1565 361.4082,135.6535 361.4082,138.1755 L361.4082,140.1675 L375.9362,140.1675 L375.9362,144.2485 L357.0002,144.2485 L357.0002,138.1425 C357.0002,132.7995 361.8762,131.2075 366.4852,131.2075 C368.2552,131.2075 371.4942,130.9085 371.4942,128.2205 C371.4942,125.6985 369.1902,124.5035 366.1842,124.5035 C363.8802,124.5035 361.5092,125.6655 361.4752,127.7555 L361.4752,127.7555 Z" id="Fill-138" fill="#505050"></path>
                <path d="M219.9785,158.2256 C219.9785,157.8736 219.8525,157.6036 219.5995,157.4156 C219.3465,157.2266 218.8905,157.0286 218.2325,156.8196 C217.5755,156.6106 217.0545,156.4046 216.6705,156.2016 C215.6255,155.6466 215.1025,154.9006 215.1025,153.9606 C215.1025,153.4726 215.2425,153.0376 215.5225,152.6546 C215.8035,152.2716 216.2065,151.9726 216.7305,151.7566 C217.2555,151.5416 217.8455,151.4336 218.4985,151.4336 C219.1565,151.4336 219.7425,151.5516 220.2565,151.7856 C220.7705,152.0186 221.1705,152.3486 221.4555,152.7746 C221.7395,153.2016 221.8815,153.6856 221.8815,154.2276 L219.9845,154.2276 C219.9845,153.8136 219.8525,153.4926 219.5865,153.2626 C219.3205,153.0326 218.9475,152.9176 218.4665,152.9176 C218.0035,152.9176 217.6425,153.0146 217.3855,153.2066 C217.1285,153.3986 216.9995,153.6526 216.9995,153.9666 C216.9995,154.2606 217.1505,154.5066 217.4525,154.7056 C217.7535,154.9046 218.1975,155.0906 218.7835,155.2646 C219.8625,155.5826 220.6485,155.9786 221.1425,156.4506 C221.6355,156.9216 221.8815,157.5096 221.8815,158.2126 C221.8815,158.9956 221.5805,159.6086 220.9775,160.0536 C220.3745,160.4986 219.5625,160.7206 218.5425,160.7206 C217.8345,160.7206 217.1895,160.5936 216.6075,160.3396 C216.0255,160.0846 215.5825,159.7356 215.2765,159.2926 C214.9705,158.8506 214.8175,158.3376 214.8175,157.7536 L216.7215,157.7536 C216.7215,158.7506 217.3285,159.2496 218.5425,159.2496 C218.9945,159.2496 219.3465,159.1596 219.5995,158.9796 C219.8525,158.7996 219.9785,158.5486 219.9785,158.2256 L219.9785,158.2256 Z M213.6665,159.4546 C213.3255,159.8556 212.8425,160.1676 212.2185,160.3886 C211.5945,160.6106 210.9035,160.7206 210.1445,160.7206 C209.3475,160.7206 208.6485,160.5506 208.0485,160.2086 C207.4475,159.8676 206.9835,159.3716 206.6565,158.7226 C206.3305,158.0726 206.1625,157.3086 206.1545,156.4316 L206.1545,155.8166 C206.1545,154.9146 206.3095,154.1336 206.6195,153.4736 C206.9285,152.8136 207.3755,152.3086 207.9595,151.9586 C208.5435,151.6086 209.2275,151.4336 210.0115,151.4336 C211.1035,151.4336 211.9575,151.6896 212.5735,152.2006 C213.1885,152.7116 213.5535,153.4556 213.6665,154.4326 L211.8205,154.4326 C211.7365,153.9146 211.5495,153.5366 211.2605,153.2966 C210.9725,153.0566 210.5745,152.9366 210.0685,152.9366 C209.4235,152.9366 208.9325,153.1746 208.5955,153.6506 C208.2575,154.1266 208.0875,154.8336 208.0825,155.7736 L208.0825,156.3506 C208.0825,157.2986 208.2665,158.0146 208.6335,158.4986 C208.9995,158.9826 209.5375,159.2256 210.2455,159.2256 C210.9585,159.2256 211.4665,159.0756 211.7705,158.7776 L211.7705,157.2196 L210.0435,157.2196 L210.0435,155.8486 L213.6665,155.8486 L213.6665,159.4546 Z M204.7255,160.5966 L202.8275,160.5966 L199.1345,154.6496 L199.1345,160.5966 L197.2375,160.5966 L197.2375,151.5586 L199.1345,151.5586 L202.8335,157.5176 L202.8335,151.5586 L204.7255,151.5586 L204.7255,160.5966 Z M193.5815,160.5966 L195.4785,160.5966 L195.4785,151.5586 L193.5815,151.5586 L193.5815,160.5966 Z M192.3805,153.0666 L189.5605,153.0666 L189.5605,160.5966 L187.6625,160.5966 L187.6625,153.0666 L184.8805,153.0666 L184.8805,151.5586 L192.3805,151.5586 L192.3805,153.0666 Z M183.7045,156.6796 L180.0615,156.6796 L180.0615,159.1006 L184.3365,159.1006 L184.3365,160.5966 L178.1645,160.5966 L178.1645,151.5586 L184.3235,151.5586 L184.3235,153.0666 L180.0615,153.0666 L180.0615,155.2206 L183.7045,155.2206 L183.7045,156.6796 Z M176.4185,156.6796 L172.7755,156.6796 L172.7755,159.1006 L177.0515,159.1006 L177.0515,160.5966 L170.8785,160.5966 L170.8785,151.5586 L177.0385,151.5586 L177.0385,153.0666 L172.7755,153.0666 L172.7755,155.2206 L176.4185,155.2206 L176.4185,156.6796 Z M162.0125,151.5586 L164.3775,158.1136 L166.7305,151.5586 L169.2215,151.5586 L169.2215,160.5966 L167.3185,160.5966 L167.3185,158.1256 L167.5085,153.8616 L165.0225,160.5966 L163.7205,160.5966 L161.2415,153.8676 L161.4305,158.1256 L161.4305,160.5966 L159.5335,160.5966 L159.5335,151.5586 L162.0125,151.5586 Z M236.5445,143.1906 L238.2395,143.1906 C238.7405,143.1906 239.1235,143.0746 239.3865,142.8426 C239.6505,142.6106 239.7825,142.2796 239.7825,141.8496 C239.7825,141.4066 239.6495,141.0486 239.3835,140.7756 C239.1185,140.5026 238.7515,140.3616 238.2835,140.3536 L236.5445,140.3536 L236.5445,143.1906 Z M236.5445,144.6986 L236.5445,147.8836 L234.6465,147.8836 L234.6465,138.8456 L238.2395,138.8456 C238.9305,138.8456 239.5385,138.9696 240.0635,139.2176 C240.5885,139.4656 240.9925,139.8186 241.2745,140.2756 C241.5575,140.7336 241.6985,141.2536 241.6985,141.8376 C241.6985,142.7226 241.3895,143.4216 240.7715,143.9326 C240.1545,144.4436 239.2995,144.6986 238.2075,144.6986 L236.5445,144.6986 Z M233.0915,138.8456 L233.0915,144.7986 C233.0915,145.7876 232.7765,146.5696 232.1455,147.1446 C231.5155,147.7206 230.6545,148.0076 229.5625,148.0076 C228.4875,148.0076 227.6335,147.7286 227.0015,147.1696 C226.3685,146.6106 226.0465,145.8436 226.0335,144.8666 L226.0335,138.8456 L227.9305,138.8456 L227.9305,144.8106 C227.9305,145.4026 228.0755,145.8336 228.3645,146.1046 C228.6525,146.3756 229.0525,146.5116 229.5625,146.5116 C230.6285,146.5116 231.1705,145.9606 231.1875,144.8606 L231.1875,138.8456 L233.0915,138.8456 Z M220.9745,144.7366 L224.5345,144.7366 L224.5345,143.2896 L220.9745,143.2896 L220.9745,144.7366 Z M214.5815,140.3536 L214.5815,146.3876 L215.4985,146.3876 C216.2395,146.3876 216.8075,146.1496 217.1995,145.6736 C217.5915,145.1976 217.7915,144.5166 217.7995,143.6316 L217.7995,143.1536 C217.7995,142.2346 217.6055,141.5386 217.2175,141.0646 C216.8305,140.5906 216.2635,140.3536 215.5175,140.3536 L214.5815,140.3536 Z M212.6835,147.8836 L212.6835,138.8456 L215.5175,138.8456 C216.3265,138.8456 217.0505,139.0236 217.6885,139.3816 C218.3275,139.7406 218.8265,140.2486 219.1845,140.9096 C219.5425,141.5696 219.7225,142.3196 219.7225,143.1596 L219.7225,143.5756 C219.7225,144.4156 219.5465,145.1626 219.1945,145.8166 C218.8425,146.4706 218.3455,146.9766 217.7055,147.3376 C217.0635,147.6976 216.3415,147.8796 215.5355,147.8836 L212.6835,147.8836 Z M211.0265,147.8836 L209.1295,147.8836 L205.4365,141.9366 L205.4365,147.8836 L203.5395,147.8836 L203.5395,138.8456 L205.4365,138.8456 L209.1355,144.8046 L209.1355,138.8456 L211.0265,138.8456 L211.0265,147.8836 Z M197.2085,144.5126 L199.5105,144.5126 L198.3535,141.1296 L197.2085,144.5126 Z M200.0225,146.0206 L196.6965,146.0206 L196.0635,147.8836 L194.0465,147.8836 L197.4745,138.8456 L199.2325,138.8456 L202.6795,147.8836 L200.6615,147.8836 L200.0225,146.0206 Z M193.7435,140.3536 L190.9225,140.3536 L190.9225,147.8836 L189.0255,147.8836 L189.0255,140.3536 L186.2435,140.3536 L186.2435,138.8456 L193.7435,138.8456 L193.7435,140.3536 Z M183.6245,145.5126 C183.6245,145.1606 183.4985,144.8906 183.2455,144.7026 C182.9925,144.5136 182.5375,144.3146 181.8795,144.1056 C181.2215,143.8966 180.7015,143.6916 180.3175,143.4886 C179.2715,142.9336 178.7495,142.1866 178.7495,141.2476 C178.7495,140.7596 178.8895,140.3236 179.1695,139.9406 C179.4505,139.5586 179.8525,139.2586 180.3775,139.0436 C180.9025,138.8286 181.4915,138.7206 182.1455,138.7206 C182.8025,138.7206 183.3885,138.8376 183.9035,139.0716 C184.4175,139.3056 184.8165,139.6356 185.1015,140.0616 C185.3865,140.4886 185.5285,140.9726 185.5285,141.5146 L183.6315,141.5146 C183.6315,141.1006 183.4985,140.7786 183.2325,140.5496 C182.9675,140.3196 182.5945,140.2046 182.1135,140.2046 C181.6495,140.2046 181.2895,140.3006 181.0325,140.4936 C180.7745,140.6856 180.6465,140.9386 180.6465,141.2536 C180.6465,141.5476 180.7965,141.7936 181.0985,141.9926 C181.3995,142.1906 181.8435,142.3776 182.4295,142.5516 C183.5085,142.8696 184.2955,143.2656 184.7885,143.7366 C185.2815,144.2086 185.5285,144.7966 185.5285,145.4996 C185.5285,146.2816 185.2275,146.8956 184.6245,147.3406 C184.0205,147.7856 183.2095,148.0076 182.1895,148.0076 C181.4805,148.0076 180.8355,147.8806 180.2545,147.6256 C179.6725,147.3716 179.2285,147.0226 178.9225,146.5796 C178.6175,146.1376 178.4645,145.6236 178.4645,145.0406 L180.3685,145.0406 C180.3685,146.0376 180.9755,146.5366 182.1895,146.5366 C182.6405,146.5366 182.9925,146.4466 183.2455,146.2666 C183.4985,146.0866 183.6245,145.8346 183.6245,145.5126 L183.6245,145.5126 Z M170.7935,142.9176 L172.7095,138.8456 L174.7835,138.8456 L171.7615,144.6056 L171.7615,147.8836 L169.8325,147.8836 L169.8325,144.6056 L166.8095,138.8456 L168.8905,138.8456 L170.7935,142.9176 Z M162.5025,146.3876 L166.5315,146.3876 L166.5315,147.8836 L160.6055,147.8836 L160.6055,138.8456 L162.5025,138.8456 L162.5025,146.3876 Z M156.9505,147.8836 L158.8475,147.8836 L158.8475,138.8456 L156.9505,138.8456 L156.9505,147.8836 Z M150.4995,144.5126 L152.8015,144.5126 L151.6445,141.1296 L150.4995,144.5126 Z M153.3135,146.0206 L149.9875,146.0206 L149.3545,147.8836 L147.3375,147.8836 L150.7655,138.8456 L152.5235,138.8456 L155.9695,147.8836 L153.9525,147.8836 L153.3135,146.0206 Z M141.5955,140.3536 L141.5955,146.3876 L142.5125,146.3876 C143.2545,146.3876 143.8215,146.1496 144.2135,145.6736 C144.6055,145.1976 144.8065,144.5166 144.8145,143.6316 L144.8145,143.1536 C144.8145,142.2346 144.6205,141.5386 144.2325,141.0646 C143.8445,140.5906 143.2775,140.3536 142.5315,140.3536 L141.5955,140.3536 Z M139.6985,147.8836 L139.6985,138.8456 L142.5315,138.8456 C143.3405,138.8456 144.0645,139.0236 144.7035,139.3816 C145.3425,139.7406 145.8405,140.2486 146.1995,140.9096 C146.5575,141.5696 146.7365,142.3196 146.7365,143.1596 L146.7365,143.5756 C146.7365,144.4156 146.5615,145.1626 146.2085,145.8166 C145.8565,146.4706 145.3605,146.9766 144.7195,147.3376 C144.0785,147.6976 143.3555,147.8796 142.5505,147.8836 L139.6985,147.8836 Z" id="Fill-140" fill="#505050"></path>
                <path d="M819,296.7208 L818,296.7208 C816.896,296.7208 816,295.8248 816,294.7208 C816,293.6168 816.896,292.7208 818,292.7208 L819,292.7208 C820.104,292.7208 821,293.6168 821,294.7208 C821,295.8248 820.104,296.7208 819,296.7208" id="Fill-142" fill="#505050"></path>
                <path d="M803,296.7208 L802,296.7208 C800.896,296.7208 800,295.8248 800,294.7208 C800,293.6168 800.896,292.7208 802,292.7208 L803,292.7208 C804.104,292.7208 805,293.6168 805,294.7208 C805,295.8248 804.104,296.7208 803,296.7208" id="Fill-144" fill="#505050"></path>
                <path d="M787,296.7208 L786,296.7208 C784.896,296.7208 784,295.8248 784,294.7208 C784,293.6168 784.896,292.7208 786,292.7208 L787,292.7208 C788.104,292.7208 789,293.6168 789,294.7208 C789,295.8248 788.104,296.7208 787,296.7208" id="Fill-146" fill="#505050"></path>
                <path d="M771,296.7208 L770,296.7208 C768.896,296.7208 768,295.8248 768,294.7208 C768,293.6168 768.896,292.7208 770,292.7208 L771,292.7208 C772.104,292.7208 773,293.6168 773,294.7208 C773,295.8248 772.104,296.7208 771,296.7208" id="Fill-148" fill="#505050"></path>
                <path d="M755,296.7208 L754,296.7208 C752.896,296.7208 752,295.8248 752,294.7208 C752,293.6168 752.896,292.7208 754,292.7208 L755,292.7208 C756.104,292.7208 757,293.6168 757,294.7208 C757,295.8248 756.104,296.7208 755,296.7208" id="Fill-150" fill="#505050"></path>
                <path d="M739,296.7208 L738,296.7208 C736.896,296.7208 736,295.8248 736,294.7208 C736,293.6168 736.896,292.7208 738,292.7208 L739,292.7208 C740.104,292.7208 741,293.6168 741,294.7208 C741,295.8248 740.104,296.7208 739,296.7208" id="Fill-152" fill="#505050"></path>
                <path d="M547,296.7208 L546,296.7208 C544.896,296.7208 544,295.8248 544,294.7208 C544,293.6168 544.896,292.7208 546,292.7208 L547,292.7208 C548.104,292.7208 549,293.6168 549,294.7208 C549,295.8248 548.104,296.7208 547,296.7208" id="Fill-154" fill="#505050"></path>
                <path d="M531,296.7208 L530,296.7208 C528.896,296.7208 528,295.8248 528,294.7208 C528,293.6168 528.896,292.7208 530,292.7208 L531,292.7208 C532.104,292.7208 533,293.6168 533,294.7208 C533,295.8248 532.104,296.7208 531,296.7208" id="Fill-156" fill="#505050"></path>
                <path d="M515,296.7208 L514,296.7208 C512.896,296.7208 512,295.8248 512,294.7208 C512,293.6168 512.896,292.7208 514,292.7208 L515,292.7208 C516.104,292.7208 517,293.6168 517,294.7208 C517,295.8248 516.104,296.7208 515,296.7208" id="Fill-158" fill="#505050"></path>
                <path d="M499,296.7208 L498,296.7208 C496.896,296.7208 496,295.8248 496,294.7208 C496,293.6168 496.896,292.7208 498,292.7208 L499,292.7208 C500.104,292.7208 501,293.6168 501,294.7208 C501,295.8248 500.104,296.7208 499,296.7208" id="Fill-160" fill="#505050"></path>
                <path d="M483,296.7208 L482,296.7208 C480.896,296.7208 480,295.8248 480,294.7208 C480,293.6168 480.896,292.7208 482,292.7208 L483,292.7208 C484.104,292.7208 485,293.6168 485,294.7208 C485,295.8248 484.104,296.7208 483,296.7208" id="Fill-162" fill="#505050"></path>
                <path d="M467,296.7208 L466,296.7208 C464.896,296.7208 464,295.8248 464,294.7208 C464,293.6168 464.896,292.7208 466,292.7208 L467,292.7208 C468.104,292.7208 469,293.6168 469,294.7208 C469,295.8248 468.104,296.7208 467,296.7208" id="Fill-164" fill="#505050"></path>
                <path d="M451,296.7208 L450,296.7208 C448.896,296.7208 448,295.8248 448,294.7208 C448,293.6168 448.896,292.7208 450,292.7208 L451,292.7208 C452.104,292.7208 453,293.6168 453,294.7208 C453,295.8248 452.104,296.7208 451,296.7208" id="Fill-166" fill="#505050"></path>
                <path d="M435,296.7208 L434,296.7208 C432.896,296.7208 432,295.8248 432,294.7208 C432,293.6168 432.896,292.7208 434,292.7208 L435,292.7208 C436.104,292.7208 437,293.6168 437,294.7208 C437,295.8248 436.104,296.7208 435,296.7208" id="Fill-168" fill="#505050"></path>
                <path d="M419,296.7208 L418,296.7208 C416.896,296.7208 416,295.8248 416,294.7208 C416,293.6168 416.896,292.7208 418,292.7208 L419,292.7208 C420.104,292.7208 421,293.6168 421,294.7208 C421,295.8248 420.104,296.7208 419,296.7208" id="Fill-170" fill="#505050"></path>
                <path d="M403,296.7208 L402,296.7208 C400.896,296.7208 400,295.8248 400,294.7208 C400,293.6168 400.896,292.7208 402,292.7208 L403,292.7208 C404.104,292.7208 405,293.6168 405,294.7208 C405,295.8248 404.104,296.7208 403,296.7208" id="Fill-172" fill="#505050"></path>
                <path d="M387,296.7208 L386,296.7208 C384.896,296.7208 384,295.8248 384,294.7208 C384,293.6168 384.896,292.7208 386,292.7208 L387,292.7208 C388.104,292.7208 389,293.6168 389,294.7208 C389,295.8248 388.104,296.7208 387,296.7208" id="Fill-174" fill="#505050"></path>
                <path d="M371,296.7208 L370,296.7208 C368.896,296.7208 368,295.8248 368,294.7208 C368,293.6168 368.896,292.7208 370,292.7208 L371,292.7208 C372.104,292.7208 373,293.6168 373,294.7208 C373,295.8248 372.104,296.7208 371,296.7208" id="Fill-176" fill="#505050"></path>
                <path d="M355,296.7208 L354,296.7208 C352.896,296.7208 352,295.8248 352,294.7208 C352,293.6168 352.896,292.7208 354,292.7208 L355,292.7208 C356.104,292.7208 357,293.6168 357,294.7208 C357,295.8248 356.104,296.7208 355,296.7208" id="Fill-178" fill="#505050"></path>
                <path d="M339,296.7208 L338,296.7208 C336.896,296.7208 336,295.8248 336,294.7208 C336,293.6168 336.896,292.7208 338,292.7208 L339,292.7208 C340.104,292.7208 341,293.6168 341,294.7208 C341,295.8248 340.104,296.7208 339,296.7208" id="Fill-180" fill="#505050"></path>
                <path d="M323,296.7208 L322,296.7208 C320.896,296.7208 320,295.8248 320,294.7208 C320,293.6168 320.896,292.7208 322,292.7208 L323,292.7208 C324.104,292.7208 325,293.6168 325,294.7208 C325,295.8248 324.104,296.7208 323,296.7208" id="Fill-182" fill="#505050"></path>
                <path d="M211,296.7208 L210,296.7208 C208.896,296.7208 208,295.8248 208,294.7208 C208,293.6168 208.896,292.7208 210,292.7208 L211,292.7208 C212.104,292.7208 213,293.6168 213,294.7208 C213,295.8248 212.104,296.7208 211,296.7208" id="Fill-184" fill="#505050"></path>
                <path d="M195,296.7208 L194,296.7208 C192.896,296.7208 192,295.8248 192,294.7208 C192,293.6168 192.896,292.7208 194,292.7208 L195,292.7208 C196.104,292.7208 197,293.6168 197,294.7208 C197,295.8248 196.104,296.7208 195,296.7208" id="Fill-186" fill="#505050"></path>
                <path d="M179,296.7208 L178,296.7208 C176.896,296.7208 176,295.8248 176,294.7208 C176,293.6168 176.896,292.7208 178,292.7208 L179,292.7208 C180.104,292.7208 181,293.6168 181,294.7208 C181,295.8248 180.104,296.7208 179,296.7208" id="Fill-188" fill="#505050"></path>
                <path d="M67,296.7208 L66,296.7208 C64.896,296.7208 64,295.8248 64,294.7208 C64,293.6168 64.896,292.7208 66,292.7208 L67,292.7208 C68.104,292.7208 69,293.6168 69,294.7208 C69,295.8248 68.104,296.7208 67,296.7208" id="Fill-190" fill="#505050"></path>
                <path d="M51,296.7208 L50,296.7208 C48.896,296.7208 48,295.8248 48,294.7208 C48,293.6168 48.896,292.7208 50,292.7208 L51,292.7208 C52.104,292.7208 53,293.6168 53,294.7208 C53,295.8248 52.104,296.7208 51,296.7208" id="Fill-192" fill="#505050"></path>
                <path d="M35,296.7208 L34,296.7208 C32.896,296.7208 32,295.8248 32,294.7208 C32,293.6168 32.896,292.7208 34,292.7208 L35,292.7208 C36.104,292.7208 37,293.6168 37,294.7208 C37,295.8248 36.104,296.7208 35,296.7208" id="Fill-194" fill="#505050"></path>
                <path d="M19,296.7208 L18,296.7208 C16.896,296.7208 16,295.8248 16,294.7208 C16,293.6168 16.896,292.7208 18,292.7208 L19,292.7208 C20.104,292.7208 21,293.6168 21,294.7208 C21,295.8248 20.104,296.7208 19,296.7208" id="Fill-196" fill="#505050"></path>
                <path d="M3,296.7208 L2,296.7208 C0.896,296.7208 0,295.8248 0,294.7208 C0,293.6168 0.896,292.7208 2,292.7208 L3,292.7208 C4.104,292.7208 5,293.6168 5,294.7208 C5,295.8248 4.104,296.7208 3,296.7208" id="Fill-198" fill="#505050"></path>
                <path d="M39,285.7208 L19,285.7208 C17.896,285.7208 17,284.8248 17,283.7208 C17,282.6168 17.896,281.7208 19,281.7208 L39,281.7208 C40.104,281.7208 41,282.6168 41,283.7208 C41,284.8248 40.104,285.7208 39,285.7208 M59,285.7208 L54,285.7208 C52.896,285.7208 52,284.8248 52,283.7208 C52,282.6168 52.896,281.7208 54,281.7208 L59,281.7208 C60.104,281.7208 61,282.6168 61,283.7208 C61,284.8248 60.104,285.7208 59,285.7208 M99,285.7208 L79,285.7208 C77.896,285.7208 77,284.8248 77,283.7208 C77,282.6168 77.896,281.7208 79,281.7208 L99,281.7208 C100.104,281.7208 101,282.6168 101,283.7208 C101,284.8248 100.104,285.7208 99,285.7208 M119,285.7208 L114,285.7208 C112.896,285.7208 112,284.8248 112,283.7208 C112,282.6168 112.896,281.7208 114,281.7208 L119,281.7208 C120.104,281.7208 121,282.6168 121,283.7208 C121,284.8248 120.104,285.7208 119,285.7208 M159,285.7208 L139,285.7208 C137.896,285.7208 137,284.8248 137,283.7208 C137,282.6168 137.896,281.7208 139,281.7208 L159,281.7208 C160.104,281.7208 161,282.6168 161,283.7208 C161,284.8248 160.104,285.7208 159,285.7208 M179,285.7208 L174,285.7208 C172.896,285.7208 172,284.8248 172,283.7208 C172,282.6168 172.896,281.7208 174,281.7208 L179,281.7208 C180.104,281.7208 181,282.6168 181,283.7208 C181,284.8248 180.104,285.7208 179,285.7208 M212,285.7208 L199,285.7208 C197.896,285.7208 197,284.8248 197,283.7208 C197,282.6168 197.896,281.7208 199,281.7208 L212,281.7208 C213.104,281.7208 214,282.6168 214,283.7208 C214,284.8248 213.104,285.7208 212,285.7208" id="Fill-200" fill="#E5E5E5"></path>
                <path d="M606,284.7208 L586,284.7208 C584.896,284.7208 584,283.8248 584,282.7208 C584,281.6168 584.896,280.7208 586,280.7208 L606,280.7208 C607.104,280.7208 608,281.6168 608,282.7208 C608,283.8248 607.104,284.7208 606,284.7208 M626,284.7208 L621,284.7208 C619.896,284.7208 619,283.8248 619,282.7208 C619,281.6168 619.896,280.7208 621,280.7208 L626,280.7208 C627.104,280.7208 628,281.6168 628,282.7208 C628,283.8248 627.104,284.7208 626,284.7208 M666,284.7208 L646,284.7208 C644.896,284.7208 644,283.8248 644,282.7208 C644,281.6168 644.896,280.7208 646,280.7208 L666,280.7208 C667.104,280.7208 668,281.6168 668,282.7208 C668,283.8248 667.104,284.7208 666,284.7208 M686,284.7208 L681,284.7208 C679.896,284.7208 679,283.8248 679,282.7208 C679,281.6168 679.896,280.7208 681,280.7208 L686,280.7208 C687.104,280.7208 688,281.6168 688,282.7208 C688,283.8248 687.104,284.7208 686,284.7208" id="Fill-202" fill="#E5E5E5"></path>
                <path d="M151.269,339.4546 C150.927,339.8556 150.443,340.1676 149.818,340.3886 C149.193,340.6106 148.501,340.7206 147.741,340.7206 C146.943,340.7206 146.243,340.5506 145.641,340.2086 C145.04,339.8676 144.575,339.3716 144.248,338.7226 C143.92,338.0726 143.752,337.3086 143.744,336.4316 L143.744,335.8166 C143.744,334.9146 143.899,334.1336 144.209,333.4736 C144.52,332.8136 144.968,332.3086 145.552,331.9586 C146.137,331.6086 146.822,331.4336 147.608,331.4336 C148.702,331.4336 149.557,331.6896 150.173,332.2006 C150.79,332.7116 151.155,333.4556 151.269,334.4326 L149.419,334.4326 C149.335,333.9146 149.148,333.5366 148.859,333.2966 C148.569,333.0566 148.171,332.9366 147.665,332.9366 C147.019,332.9366 146.527,333.1746 146.189,333.6506 C145.851,334.1266 145.68,334.8336 145.676,335.7736 L145.676,336.3506 C145.676,337.2986 145.86,338.0146 146.227,338.4986 C146.594,338.9826 147.133,339.2256 147.842,339.2256 C148.556,339.2256 149.064,339.0756 149.369,338.7776 L149.369,337.2196 L147.64,337.2196 L147.64,335.8486 L151.269,335.8486 L151.269,339.4546 Z M140.666,335.8726 C140.666,334.9246 140.493,334.2046 140.146,333.7126 C139.8,333.2206 139.306,332.9736 138.664,332.9736 C138.027,332.9736 137.535,333.2166 137.188,333.7036 C136.842,334.1896 136.667,334.9026 136.663,335.8416 L136.663,336.2826 C136.663,337.2056 136.836,337.9216 137.182,338.4306 C137.528,338.9396 138.027,339.1936 138.677,339.1936 C139.314,339.1936 139.804,338.9486 140.146,338.4576 C140.488,337.9676 140.662,337.2526 140.666,336.3136 L140.666,335.8726 Z M142.591,336.2826 C142.591,337.1726 142.431,337.9526 142.11,338.6226 C141.789,339.2926 141.33,339.8106 140.732,340.1746 C140.135,340.5386 139.45,340.7206 138.677,340.7206 C137.913,340.7206 137.23,340.5406 136.631,340.1806 C136.031,339.8206 135.567,339.3066 135.238,338.6386 C134.908,337.9696 134.741,337.2016 134.737,336.3316 L134.737,335.8856 C134.737,334.9956 134.901,334.2126 135.228,333.5356 C135.555,332.8586 136.018,332.3396 136.615,331.9776 C137.213,331.6156 137.895,331.4336 138.664,331.4336 C139.433,331.4336 140.116,331.6156 140.713,331.9776 C141.311,332.3396 141.773,332.8586 142.101,333.5356 C142.428,334.2126 142.591,334.9936 142.591,335.8786 L142.591,336.2826 Z M129.892,339.1006 L133.926,339.1006 L133.926,340.5966 L127.992,340.5966 L127.992,331.5586 L129.892,331.5586 L129.892,339.1006 Z M122.645,336.9716 L121.658,338.0146 L121.658,340.5966 L119.757,340.5966 L119.757,331.5586 L121.658,331.5586 L121.658,335.6556 L122.494,334.5316 L124.844,331.5586 L127.181,331.5586 L123.906,335.5746 L127.276,340.5966 L125.015,340.5966 L122.645,336.9716 Z M118.51,337.5856 C118.438,338.5586 118.072,339.3246 117.411,339.8826 C116.75,340.4416 115.879,340.7206 114.798,340.7206 C113.616,340.7206 112.686,340.3306 112.008,339.5506 C111.33,338.7706 110.991,337.6996 110.991,336.3386 L110.991,335.7856 C110.991,334.9166 111.147,334.1516 111.46,333.4886 C111.772,332.8266 112.219,332.3186 112.8,331.9646 C113.38,331.6116 114.055,331.4336 114.823,331.4336 C115.887,331.4336 116.745,331.7136 117.395,332.2726 C118.045,332.8306 118.421,333.6156 118.522,334.6246 L116.622,334.6246 C116.576,334.0416 116.41,333.6186 116.125,333.3556 C115.84,333.0926 115.406,332.9616 114.823,332.9616 C114.19,332.9616 113.716,333.1836 113.401,333.6286 C113.087,334.0736 112.925,334.7636 112.917,335.6986 L112.917,336.3816 C112.917,337.3586 113.068,338.0726 113.37,338.5236 C113.671,338.9746 114.147,339.2006 114.798,339.2006 C115.385,339.2006 115.823,339.0686 116.112,338.8056 C116.401,338.5426 116.567,338.1366 116.609,337.5856 L118.51,337.5856 Z M104.93,337.2256 L107.235,337.2256 L106.076,333.8426 L104.93,337.2256 Z M107.748,338.7346 L104.416,338.7346 L103.783,340.5966 L101.763,340.5966 L105.196,331.5586 L106.956,331.5586 L110.409,340.5966 L108.388,340.5966 L107.748,338.7346 Z M96.164,335.3456 L97.57,335.3456 C98.528,335.3286 99.007,334.9546 99.007,334.2216 C99.007,333.8116 98.886,333.5176 98.643,333.3366 C98.4,333.1566 98.017,333.0666 97.494,333.0666 L96.164,333.0666 L96.164,335.3456 Z M96.164,336.6616 L96.164,339.1006 L97.791,339.1006 C98.239,339.1006 98.588,338.9966 98.839,338.7876 C99.091,338.5786 99.216,338.2896 99.216,337.9216 C99.216,337.0936 98.779,336.6736 97.905,336.6616 L96.164,336.6616 Z M94.263,340.5966 L94.263,331.5586 L97.494,331.5586 C98.613,331.5586 99.461,331.7686 100.04,332.1886 C100.618,332.6086 100.908,333.2246 100.908,334.0356 C100.908,334.4776 100.791,334.8686 100.559,335.2056 C100.327,335.5426 100.004,335.7896 99.59,335.9476 C100.063,336.0626 100.436,336.2966 100.708,336.6486 C100.98,337.0006 101.117,337.4306 101.117,337.9396 C101.117,338.8086 100.833,339.4666 100.268,339.9136 C99.702,340.3606 98.895,340.5886 97.848,340.5966 L94.263,340.5966 Z M151.994,320.3536 L149.169,320.3536 L149.169,327.8836 L147.269,327.8836 L147.269,320.3536 L144.482,320.3536 L144.482,318.8456 L151.994,318.8456 L151.994,320.3536 Z M143.804,324.8726 C143.732,325.8456 143.366,326.6106 142.706,327.1696 C142.044,327.7276 141.174,328.0076 140.093,328.0076 C138.91,328.0076 137.98,327.6176 137.302,326.8376 C136.624,326.0576 136.286,324.9866 136.286,323.6246 L136.286,323.0726 C136.286,322.2036 136.442,321.4376 136.754,320.7756 C137.067,320.1136 137.514,319.6056 138.094,319.2516 C138.675,318.8976 139.35,318.7206 140.118,318.7206 C141.182,318.7206 142.039,319.0006 142.689,319.5586 C143.34,320.1176 143.716,320.9016 143.817,321.9116 L141.917,321.9116 C141.87,321.3286 141.705,320.9046 141.419,320.6426 C141.135,320.3796 140.701,320.2476 140.118,320.2476 C139.484,320.2476 139.011,320.4706 138.696,320.9156 C138.381,321.3606 138.22,322.0506 138.211,322.9856 L138.211,323.6686 C138.211,324.6446 138.362,325.3586 138.664,325.8096 C138.966,326.2616 139.442,326.4866 140.093,326.4866 C140.68,326.4866 141.118,326.3556 141.407,326.0926 C141.696,325.8296 141.862,325.4236 141.904,324.8726 L143.804,324.8726 Z M135.006,318.8456 L135.006,324.7986 C135.006,325.7876 134.691,326.5696 134.06,327.1446 C133.428,327.7206 132.566,328.0076 131.472,328.0076 C130.395,328.0076 129.54,327.7276 128.907,327.1696 C128.273,326.6106 127.95,325.8436 127.937,324.8666 L127.937,318.8456 L129.838,318.8456 L129.838,324.8106 C129.838,325.4026 129.982,325.8336 130.272,326.1046 C130.561,326.3756 130.961,326.5116 131.472,326.5116 C132.54,326.5116 133.083,325.9606 133.1,324.8606 L133.1,318.8456 L135.006,318.8456 Z M121.496,320.3536 L121.496,326.3876 L122.415,326.3876 C123.158,326.3876 123.726,326.1496 124.118,325.6736 C124.511,325.1976 124.711,324.5166 124.72,323.6316 L124.72,323.1536 C124.72,322.2346 124.526,321.5376 124.137,321.0646 C123.749,320.5906 123.181,320.3536 122.434,320.3536 L121.496,320.3536 Z M119.596,327.8836 L119.596,318.8456 L122.434,318.8456 C123.244,318.8456 123.97,319.0236 124.609,319.3816 C125.249,319.7406 125.748,320.2486 126.107,320.9096 C126.466,321.5696 126.645,322.3196 126.645,323.1596 L126.645,323.5756 C126.645,324.4156 126.469,325.1626 126.117,325.8166 C125.764,326.4706 125.267,326.9766 124.625,327.3376 C123.983,327.6976 123.259,327.8796 122.453,327.8836 L119.596,327.8836 Z M116.29,323.1596 C116.29,322.2116 116.117,321.4916 115.77,320.9986 C115.424,320.5066 114.93,320.2606 114.288,320.2606 C113.65,320.2606 113.159,320.5036 112.812,320.9896 C112.466,321.4756 112.29,322.1886 112.287,323.1286 L112.287,323.5696 C112.287,324.4926 112.459,325.2076 112.806,325.7166 C113.152,326.2256 113.65,326.4806 114.301,326.4806 C114.938,326.4806 115.428,326.2356 115.77,325.7456 C116.112,325.2546 116.285,324.5396 116.29,323.6006 L116.29,323.1596 Z M118.215,323.5696 C118.215,324.4586 118.055,325.2386 117.734,325.9096 C117.413,326.5796 116.954,327.0976 116.356,327.4616 C115.759,327.8256 115.073,328.0076 114.301,328.0076 C113.537,328.0076 112.854,327.8276 112.255,327.4676 C111.655,327.1076 111.191,326.5936 110.861,325.9246 C110.532,325.2566 110.365,324.4876 110.361,323.6186 L110.361,323.1716 C110.361,322.2826 110.524,321.4986 110.852,320.8226 C111.179,320.1456 111.642,319.6256 112.239,319.2646 C112.836,318.9016 113.519,318.7206 114.288,318.7206 C115.057,318.7206 115.74,318.9016 116.337,319.2646 C116.935,319.6256 117.397,320.1456 117.724,320.8226 C118.051,321.4986 118.215,322.2796 118.215,323.1656 L118.215,323.5696 Z M104.261,323.0666 L105.794,323.0666 C106.271,323.0666 106.641,322.9476 106.903,322.7096 C107.165,322.4716 107.295,322.1436 107.295,321.7256 C107.295,321.2996 107.172,320.9636 106.925,320.7196 C106.678,320.4756 106.299,320.3536 105.788,320.3536 L104.261,320.3536 L104.261,323.0666 Z M105.775,324.5746 L104.261,324.5746 L104.261,327.8836 L102.361,327.8836 L102.361,318.8456 L105.788,318.8456 C106.877,318.8456 107.718,319.0826 108.309,319.5586 C108.9,320.0346 109.196,320.7076 109.196,321.5766 C109.196,322.1926 109.06,322.7076 108.787,323.1196 C108.515,323.5306 108.102,323.8586 107.549,324.1026 L109.544,327.7966 L109.544,327.8836 L107.504,327.8836 L105.775,324.5746 Z M95.894,323.1906 L97.592,323.1906 C98.094,323.1906 98.477,323.0746 98.741,322.8426 C99.005,322.6106 99.137,322.2796 99.137,321.8496 C99.137,321.4066 99.004,321.0486 98.738,320.7756 C98.472,320.5026 98.105,320.3616 97.636,320.3536 L95.894,320.3536 L95.894,323.1906 Z M95.894,324.6986 L95.894,327.8836 L93.994,327.8836 L93.994,318.8456 L97.592,318.8456 C98.284,318.8456 98.894,318.9696 99.419,319.2176 C99.945,319.4656 100.349,319.8186 100.632,320.2756 C100.915,320.7336 101.057,321.2536 101.057,321.8376 C101.057,322.7226 100.747,323.4216 100.128,323.9326 C99.51,324.4436 98.654,324.6986 97.56,324.6986 L95.894,324.6986 Z" id="Fill-204" fill="#505050"></path>
                <path d="M295.9702,339.4546 C295.6282,339.8556 295.1442,340.1676 294.5192,340.3886 C293.8942,340.6106 293.2022,340.7206 292.4422,340.7206 C291.6442,340.7206 290.9442,340.5506 290.3432,340.2086 C289.7412,339.8676 289.2772,339.3716 288.9492,338.7226 C288.6222,338.0726 288.4542,337.3086 288.4462,336.4316 L288.4462,335.8166 C288.4462,334.9146 288.6012,334.1336 288.9112,333.4736 C289.2212,332.8136 289.6692,332.3086 290.2542,331.9586 C290.8392,331.6086 291.5242,331.4336 292.3092,331.4336 C293.4032,331.4336 294.2582,331.6896 294.8742,332.2006 C295.4912,332.7116 295.8562,333.4556 295.9702,334.4326 L294.1202,334.4326 C294.0362,333.9146 293.8492,333.5366 293.5602,333.2966 C293.2712,333.0566 292.8732,332.9366 292.3662,332.9366 C291.7202,332.9366 291.2282,333.1746 290.8902,333.6506 C290.5532,334.1266 290.3822,334.8336 290.3772,335.7736 L290.3772,336.3506 C290.3772,337.2986 290.5612,338.0146 290.9282,338.4986 C291.2962,338.9826 291.8342,339.2256 292.5432,339.2256 C293.2572,339.2256 293.7662,339.0756 294.0702,338.7776 L294.0702,337.2196 L292.3412,337.2196 L292.3412,335.8486 L295.9702,335.8486 L295.9702,339.4546 Z M285.3682,335.8726 C285.3682,334.9246 285.1952,334.2046 284.8482,333.7126 C284.5022,333.2206 284.0082,332.9736 283.3662,332.9736 C282.7292,332.9736 282.2372,333.2166 281.8912,333.7036 C281.5452,334.1896 281.3692,334.9026 281.3652,335.8416 L281.3652,336.2826 C281.3652,337.2056 281.5382,337.9216 281.8852,338.4306 C282.2312,338.9396 282.7292,339.1936 283.3792,339.1936 C284.0172,339.1936 284.5072,338.9486 284.8482,338.4576 C285.1902,337.9676 285.3642,337.2526 285.3682,336.3136 L285.3682,335.8726 Z M287.2932,336.2826 C287.2932,337.1726 287.1332,337.9526 286.8122,338.6226 C286.4912,339.2926 286.0322,339.8106 285.4342,340.1746 C284.8372,340.5386 284.1522,340.7206 283.3792,340.7206 C282.6152,340.7206 281.9332,340.5406 281.3332,340.1806 C280.7342,339.8206 280.2692,339.3066 279.9402,338.6386 C279.6112,337.9696 279.4442,337.2016 279.4402,336.3316 L279.4402,335.8856 C279.4402,334.9956 279.6032,334.2126 279.9302,333.5356 C280.2582,332.8586 280.7202,332.3396 281.3182,331.9776 C281.9152,331.6156 282.5982,331.4336 283.3662,331.4336 C284.1352,331.4336 284.8182,331.6156 285.4152,331.9776 C286.0122,332.3396 286.4752,332.8586 286.8032,333.5356 C287.1302,334.2126 287.2932,334.9936 287.2932,335.8786 L287.2932,336.2826 Z M274.5952,339.1006 L278.6292,339.1006 L278.6292,340.5966 L272.6952,340.5966 L272.6952,331.5586 L274.5952,331.5586 L274.5952,339.1006 Z M267.3492,336.9716 L266.3622,338.0146 L266.3622,340.5966 L264.4622,340.5966 L264.4622,331.5586 L266.3622,331.5586 L266.3622,335.6556 L267.1982,334.5316 L269.5472,331.5586 L271.8842,331.5586 L268.6102,335.5746 L271.9792,340.5966 L269.7182,340.5966 L267.3492,336.9716 Z M263.2142,337.5856 C263.1422,338.5586 262.7762,339.3246 262.1152,339.8826 C261.4542,340.4416 260.5832,340.7206 259.5022,340.7206 C258.3202,340.7206 257.3902,340.3306 256.7132,339.5506 C256.0352,338.7706 255.6962,337.6996 255.6962,336.3386 L255.6962,335.7856 C255.6962,334.9166 255.8522,334.1516 256.1652,333.4886 C256.4772,332.8266 256.9242,332.3186 257.5042,331.9646 C258.0852,331.6116 258.7602,331.4336 259.5282,331.4336 C260.5922,331.4336 261.4492,331.7136 262.0992,332.2726 C262.7492,332.8306 263.1252,333.6156 263.2262,334.6246 L261.3262,334.6246 C261.2802,334.0416 261.1142,333.6186 260.8292,333.3556 C260.5442,333.0926 260.1112,332.9616 259.5282,332.9616 C258.8942,332.9616 258.4212,333.1836 258.1062,333.6286 C257.7912,334.0736 257.6302,334.7636 257.6212,335.6986 L257.6212,336.3816 C257.6212,337.3586 257.7722,338.0726 258.0742,338.5236 C258.3762,338.9746 258.8522,339.2006 259.5022,339.2006 C260.0892,339.2006 260.5282,339.0686 260.8172,338.8056 C261.1062,338.5426 261.2722,338.1366 261.3142,337.5856 L263.2142,337.5856 Z M249.6352,337.2256 L251.9402,337.2256 L250.7822,333.8426 L249.6352,337.2256 Z M252.4532,338.7346 L249.1222,338.7346 L248.4892,340.5966 L246.4692,340.5966 L249.9012,331.5586 L251.6622,331.5586 L255.1142,340.5966 L253.0932,340.5966 L252.4532,338.7346 Z M240.8702,335.3456 L242.2762,335.3456 C243.2342,335.3286 243.7142,334.9546 243.7142,334.2216 C243.7142,333.8116 243.5922,333.5176 243.3492,333.3366 C243.1072,333.1566 242.7232,333.0666 242.2002,333.0666 L240.8702,333.0666 L240.8702,335.3456 Z M240.8702,336.6616 L240.8702,339.1006 L242.4972,339.1006 C242.9452,339.1006 243.2942,338.9966 243.5462,338.7876 C243.7972,338.5786 243.9232,338.2896 243.9232,337.9216 C243.9232,337.0936 243.4862,336.6736 242.6122,336.6616 L240.8702,336.6616 Z M238.9702,340.5966 L238.9702,331.5586 L242.2002,331.5586 C243.3192,331.5586 244.1672,331.7686 244.7462,332.1886 C245.3242,332.6086 245.6142,333.2246 245.6142,334.0356 C245.6142,334.4776 245.4972,334.8686 245.2652,335.2056 C245.0332,335.5426 244.7102,335.7896 244.2962,335.9476 C244.7692,336.0626 245.1412,336.2966 245.4142,336.6486 C245.6862,337.0006 245.8232,337.4306 245.8232,337.9396 C245.8232,338.8086 245.5392,339.4666 244.9742,339.9136 C244.4082,340.3606 243.6012,340.5886 242.5542,340.5966 L238.9702,340.5966 Z M289.9472,320.3536 L287.1222,320.3536 L287.1222,327.8836 L285.2222,327.8836 L285.2222,320.3536 L282.4352,320.3536 L282.4352,318.8456 L289.9472,318.8456 L289.9472,320.3536 Z M281.3462,327.8836 L279.4462,327.8836 L275.7472,321.9366 L275.7472,327.8836 L273.8472,327.8836 L273.8472,318.8456 L275.7472,318.8456 L279.4522,324.8046 L279.4522,318.8456 L281.3462,318.8456 L281.3462,327.8836 Z M270.1872,327.8836 L272.0872,327.8836 L272.0872,318.8456 L270.1872,318.8456 L270.1872,327.8836 Z M263.6892,323.0666 L265.2212,323.0666 C265.6992,323.0666 266.0682,322.9476 266.3302,322.7096 C266.5922,322.4716 266.7222,322.1436 266.7222,321.7256 C266.7222,321.2996 266.5992,320.9636 266.3522,320.7196 C266.1052,320.4756 265.7262,320.3536 265.2152,320.3536 L263.6892,320.3536 L263.6892,323.0666 Z M265.2022,324.5746 L263.6892,324.5746 L263.6892,327.8836 L261.7892,327.8836 L261.7892,318.8456 L265.2152,318.8456 C266.3042,318.8456 267.1452,319.0826 267.7362,319.5586 C268.3272,320.0346 268.6222,320.7076 268.6222,321.5766 C268.6222,322.1926 268.4862,322.7076 268.2142,323.1196 C267.9422,323.5306 267.5292,323.8586 266.9762,324.1026 L268.9712,327.7966 L268.9712,327.8836 L266.9312,327.8836 L265.2022,324.5746 Z M255.3232,323.1906 L257.0202,323.1906 C257.5222,323.1906 257.9062,323.0746 258.1692,322.8426 C258.4332,322.6106 258.5652,322.2796 258.5652,321.8496 C258.5652,321.4066 258.4322,321.0486 258.1662,320.7756 C257.9002,320.5026 257.5332,320.3616 257.0642,320.3536 L255.3232,320.3536 L255.3232,323.1906 Z M255.3232,324.6986 L255.3232,327.8836 L253.4232,327.8836 L253.4232,318.8456 L257.0202,318.8456 C257.7122,318.8456 258.3212,318.9696 258.8472,319.2176 C259.3732,319.4656 259.7772,319.8186 260.0602,320.2756 C260.3432,320.7336 260.4842,321.2536 260.4842,321.8376 C260.4842,322.7226 260.1752,323.4216 259.5562,323.9326 C258.9382,324.4436 258.0822,324.6986 256.9882,324.6986 L255.3232,324.6986 Z M250.2302,325.5126 C250.2302,325.1606 250.1042,324.8906 249.8502,324.7026 C249.5972,324.5136 249.1412,324.3146 248.4822,324.1056 C247.8242,323.8966 247.3032,323.6916 246.9182,323.4886 C245.8712,322.9336 245.3472,322.1866 245.3472,321.2476 C245.3472,320.7596 245.4882,320.3236 245.7692,319.9406 C246.0502,319.5586 246.4522,319.2586 246.9782,319.0436 C247.5042,318.8286 248.0942,318.7206 248.7482,318.7206 C249.4072,318.7206 249.9942,318.8376 250.5092,319.0716 C251.0242,319.3056 251.4242,319.6356 251.7092,320.0616 C251.9942,320.4886 252.1372,320.9726 252.1372,321.5146 L250.2372,321.5146 C250.2372,321.1006 250.1042,320.7786 249.8382,320.5496 C249.5722,320.3196 249.1982,320.2046 248.7172,320.2046 C248.2522,320.2046 247.8912,320.3006 247.6342,320.4936 C247.3762,320.6856 247.2472,320.9386 247.2472,321.2536 C247.2472,321.5476 247.3982,321.7936 247.7002,321.9926 C248.0022,322.1906 248.4472,322.3776 249.0332,322.5516 C250.1152,322.8696 250.9022,323.2656 251.3962,323.7366 C251.8902,324.2086 252.1372,324.7966 252.1372,325.4996 C252.1372,326.2816 251.8352,326.8956 251.2312,327.3406 C250.6272,327.7856 249.8152,328.0076 248.7932,328.0076 C248.0832,328.0076 247.4372,327.8806 246.8552,327.6256 C246.2722,327.3716 245.8282,327.0226 245.5222,326.5796 C245.2162,326.1376 245.0622,325.6236 245.0622,325.0406 L246.9692,325.0406 C246.9692,326.0376 247.5772,326.5366 248.7932,326.5366 C249.2442,326.5366 249.5972,326.4466 249.8502,326.2666 C250.1042,326.0866 250.2302,325.8346 250.2302,325.5126 L250.2302,325.5126 Z" id="Fill-206" fill="#505050"></path>
                <path d="M679.0039,333.0669 L676.1649,333.0669 L676.1649,340.5969 L674.2559,340.5969 L674.2559,333.0669 L671.4549,333.0669 L671.4549,331.5589 L679.0039,331.5589 L679.0039,333.0669 Z M670.3589,340.5969 L668.4499,340.5969 L664.7329,334.6499 L664.7329,340.5969 L662.8229,340.5969 L662.8229,331.5589 L664.7329,331.5589 L668.4569,337.5179 L668.4569,331.5589 L670.3589,331.5589 L670.3589,340.5969 Z M661.0669,336.6799 L657.3999,336.6799 L657.3999,339.1009 L661.7029,339.1009 L661.7029,340.5969 L655.4899,340.5969 L655.4899,331.5589 L661.6909,331.5589 L661.6909,333.0669 L657.3999,333.0669 L657.3999,335.2209 L661.0669,335.2209 L661.0669,336.6799 Z M646.5659,331.5589 L648.9459,338.1139 L651.3149,331.5589 L653.8219,331.5589 L653.8219,340.5969 L651.9059,340.5969 L651.9059,338.1259 L652.0979,333.8609 L649.5959,340.5969 L648.2839,340.5969 L645.7889,333.8679 L645.9809,338.1259 L645.9809,340.5969 L644.0699,340.5969 L644.0699,331.5589 L646.5659,331.5589 Z M642.3139,336.6799 L638.6479,336.6799 L638.6479,339.1009 L642.9499,339.1009 L642.9499,340.5969 L636.7369,340.5969 L636.7369,331.5589 L642.9379,331.5589 L642.9379,333.0669 L638.6479,333.0669 L638.6479,335.2209 L642.3139,335.2209 L642.3139,336.6799 Z M630.3269,335.7799 L631.8679,335.7799 C632.3479,335.7799 632.7189,335.6609 632.9819,335.4229 C633.2449,335.1849 633.3759,334.8569 633.3759,334.4389 C633.3759,334.0129 633.2519,333.6769 633.0039,333.4329 C632.7559,333.1889 632.3749,333.0669 631.8609,333.0669 L630.3269,333.0669 L630.3269,335.7799 Z M631.8489,337.2879 L630.3269,337.2879 L630.3269,340.5969 L628.4179,340.5969 L628.4179,331.5589 L631.8609,331.5589 C632.9559,331.5589 633.8009,331.7959 634.3949,332.2729 C634.9889,332.7479 635.2859,333.4209 635.2859,334.2899 C635.2859,334.9059 635.1499,335.4209 634.8749,335.8329 C634.6019,336.2439 634.1869,336.5719 633.6309,336.8169 L635.6359,340.5099 L635.6359,340.5969 L633.5869,340.5969 L631.8489,337.2879 Z M627.1639,337.5859 C627.0919,338.5589 626.7239,339.3239 626.0599,339.8829 C625.3959,340.4419 624.5199,340.7209 623.4339,340.7209 C622.2449,340.7209 621.3109,340.3309 620.6299,339.5509 C619.9479,338.7709 619.6079,337.6999 619.6079,336.3379 L619.6079,335.7859 C619.6079,334.9169 619.7649,334.1509 620.0789,333.4889 C620.3929,332.8269 620.8419,332.3189 621.4249,331.9649 C622.0089,331.6109 622.6869,331.4339 623.4589,331.4339 C624.5279,331.4339 625.3899,331.7129 626.0429,332.2729 C626.6969,332.8309 627.0739,333.6149 627.1769,334.6249 L625.2669,334.6249 C625.2199,334.0419 625.0539,333.6179 624.7669,333.3559 C624.4809,333.0929 624.0449,332.9619 623.4589,332.9619 C622.8219,332.9619 622.3459,333.1839 622.0299,333.6289 C621.7139,334.0739 621.5519,334.7639 621.5429,335.6989 L621.5429,336.3819 C621.5429,337.3589 621.6939,338.0719 621.9979,338.5239 C622.3019,338.9749 622.7799,339.1999 623.4339,339.1999 C624.0239,339.1999 624.4639,339.0689 624.7539,338.8059 C625.0449,338.5429 625.2119,338.1359 625.2539,337.5859 L627.1639,337.5859 Z M618.2199,340.5969 L616.3109,340.5969 L612.5929,334.6499 L612.5929,340.5969 L610.6839,340.5969 L610.6839,331.5589 L612.5929,331.5589 L616.3159,337.5179 L616.3159,331.5589 L618.2199,331.5589 L618.2199,340.5969 Z M607.0039,340.5969 L608.9139,340.5969 L608.9139,331.5589 L607.0039,331.5589 L607.0039,340.5969 Z M672.0879,320.3539 L669.2489,320.3539 L669.2489,327.8829 L667.3399,327.8829 L667.3399,320.3539 L664.5389,320.3539 L664.5389,318.8449 L672.0879,318.8449 L672.0879,320.3539 Z M663.8579,324.8729 C663.7849,325.8449 663.4169,326.6109 662.7529,327.1699 C662.0889,327.7279 661.2139,328.0079 660.1269,328.0079 C658.9399,328.0079 658.0049,327.6179 657.3229,326.8379 C656.6429,326.0569 656.3019,324.9859 656.3019,323.6249 L656.3019,323.0729 C656.3019,322.2039 656.4589,321.4379 656.7729,320.7759 C657.0869,320.1129 657.5349,319.6059 658.1189,319.2519 C658.7019,318.8979 659.3809,318.7209 660.1519,318.7209 C661.2229,318.7209 662.0839,319.0009 662.7369,319.5589 C663.3909,320.1179 663.7689,320.9019 663.8699,321.9119 L661.9609,321.9119 C661.9139,321.3279 661.7469,320.9049 661.4609,320.6419 C661.1749,320.3789 660.7379,320.2479 660.1519,320.2479 C659.5169,320.2479 659.0399,320.4709 658.7239,320.9159 C658.4069,321.3599 658.2449,322.0499 658.2359,322.9859 L658.2359,323.6689 C658.2359,324.6449 658.3889,325.3589 658.6919,325.8099 C658.9949,326.2609 659.4739,326.4869 660.1269,326.4869 C660.7169,326.4869 661.1569,326.3559 661.4479,326.0929 C661.7389,325.8299 661.9049,325.4229 661.9479,324.8729 L663.8579,324.8729 Z M655.0159,318.8449 L655.0159,324.7979 C655.0159,325.7869 654.6979,326.5689 654.0649,327.1449 C653.4299,327.7199 652.5639,328.0079 651.4639,328.0079 C650.3819,328.0079 649.5229,327.7279 648.8859,327.1699 C648.2489,326.6109 647.9249,325.8429 647.9119,324.8669 L647.9119,318.8449 L649.8209,318.8449 L649.8209,324.8109 C649.8209,325.4019 649.9669,325.8339 650.2579,326.1049 C650.5489,326.3759 650.9499,326.5119 651.4639,326.5119 C652.5369,326.5119 653.0829,325.9609 653.0999,324.8599 L653.0999,318.8449 L655.0159,318.8449 Z M641.4389,320.3539 L641.4389,326.3869 L642.3609,326.3869 C643.1079,326.3869 643.6789,326.1499 644.0729,325.6729 C644.4679,325.1979 644.6699,324.5169 644.6789,323.6309 L644.6789,323.1529 C644.6789,322.2339 644.4829,321.5379 644.0929,321.0649 C643.7019,320.5899 643.1319,320.3539 642.3799,320.3539 L641.4389,320.3539 Z M639.5279,327.8829 L639.5279,318.8449 L642.3799,318.8449 C643.1949,318.8449 643.9239,319.0239 644.5669,319.3819 C645.2099,319.7399 645.7119,320.2489 646.0719,320.9089 C646.4329,321.5689 646.6129,322.3189 646.6129,323.1589 L646.6129,323.5749 C646.6129,324.4159 646.4369,325.1629 646.0819,325.8169 C645.7279,326.4699 645.2279,326.9769 644.5829,327.3379 C643.9379,327.6969 643.2099,327.8799 642.3999,327.8829 L639.5279,327.8829 Z M636.2059,323.1589 C636.2059,322.2119 636.0319,321.4919 635.6839,320.9989 C635.3359,320.5069 634.8399,320.2599 634.1939,320.2599 C633.5539,320.2599 633.0599,320.5039 632.7109,320.9899 C632.3629,321.4759 632.1879,322.1889 632.1829,323.1289 L632.1829,323.5689 C632.1829,324.4919 632.3569,325.2079 632.7049,325.7169 C633.0529,326.2259 633.5539,326.4809 634.2069,326.4809 C634.8479,326.4809 635.3399,326.2349 635.6839,325.7449 C636.0269,325.2549 636.2009,324.5399 636.2059,323.5999 L636.2059,323.1589 Z M638.1409,323.5689 C638.1409,324.4589 637.9799,325.2389 637.6569,325.9089 C637.3349,326.5799 636.8729,327.0969 636.2729,327.4619 C635.6719,327.8259 634.9829,328.0079 634.2069,328.0079 C633.4399,328.0079 632.7539,327.8279 632.1509,327.4679 C631.5489,327.1079 631.0819,326.5929 630.7509,325.9249 C630.4199,325.2559 630.2519,324.4879 630.2479,323.6189 L630.2479,323.1719 C630.2479,322.2819 630.4119,321.4989 630.7409,320.8219 C631.0699,320.1459 631.5339,319.6259 632.1349,319.2639 C632.7349,318.9019 633.4219,318.7209 634.1939,318.7209 C634.9669,318.7209 635.6529,318.9019 636.2539,319.2639 C636.8549,319.6259 637.3179,320.1459 637.6479,320.8219 C637.9769,321.4989 638.1409,322.2799 638.1409,323.1659 L638.1409,323.5689 Z M624.1179,323.0669 L625.6579,323.0669 C626.1379,323.0669 626.5089,322.9469 626.7729,322.7099 C627.0349,322.4709 627.1669,322.1439 627.1669,321.7259 C627.1669,321.2989 627.0429,320.9639 626.7949,320.7199 C626.5459,320.4759 626.1649,320.3539 625.6519,320.3539 L624.1179,320.3539 L624.1179,323.0669 Z M625.6389,324.5749 L624.1179,324.5749 L624.1179,327.8829 L622.2079,327.8829 L622.2079,318.8449 L625.6519,318.8449 C626.7469,318.8449 627.5909,319.0829 628.1859,319.5589 C628.7789,320.0349 629.0759,320.7079 629.0759,321.5769 C629.0759,322.1929 628.9399,322.7079 628.6659,323.1189 C628.3929,323.5309 627.9779,323.8589 627.4219,324.1029 L629.4269,327.7959 L629.4269,327.8829 L627.3769,327.8829 L625.6389,324.5749 Z M615.7089,323.1909 L617.4149,323.1909 C617.9199,323.1909 618.3049,323.0749 618.5699,322.8429 C618.8359,322.6109 618.9679,322.2799 618.9679,321.8499 C618.9679,321.4069 618.8339,321.0489 618.5669,320.7759 C618.2999,320.5029 617.9309,320.3619 617.4599,320.3539 L615.7089,320.3539 L615.7089,323.1909 Z M615.7089,324.6989 L615.7089,327.8829 L613.7999,327.8829 L613.7999,318.8449 L617.4149,318.8449 C618.1109,318.8449 618.7229,318.9689 619.2509,319.2179 C619.7789,319.4659 620.1869,319.8189 620.4709,320.2759 C620.7549,320.7339 620.8969,321.2539 620.8969,321.8379 C620.8969,322.7229 620.5859,323.4209 619.9639,323.9319 C619.3429,324.4429 618.4829,324.6989 617.3829,324.6989 L615.7089,324.6989 Z" id="Fill-208" fill="#505050"></path>
                <path d="M154.231,284.4673 L154.96,291.7213 L73,291.7213 C71.343,291.7213 70,293.0643 70,294.7213 C70,296.3783 71.343,297.7213 73,297.7213 L155.564,297.7213 L165,297.7213 L175.988,297.7213 L154.231,284.4673 Z" id="Fill-210" fill="#FF7211"></path>
                <path d="M298.707,284.4673 L299.436,291.7213 L217.476,291.7213 C215.819,291.7213 214.476,293.0643 214.476,294.7213 C214.476,296.3783 215.819,297.7213 217.476,297.7213 L300.04,297.7213 L309.476,297.7213 L320.464,297.7213 L298.707,284.4673 Z" id="Fill-212" fill="#FF7211"></path>
                <path d="M714.2363,284.4673 L714.9653,291.7213 L553.0143,291.7213 C551.3573,291.7213 550.0143,293.0643 550.0143,294.7213 C550.0143,296.3783 551.3573,297.7213 553.0143,297.7213 L715.5693,297.7213 L721.0063,297.7213 L735.9943,297.7213 L714.2363,284.4673 Z" id="Fill-214" fill="#FF7211"></path>
            </g>
        </g>
    </g>
</svg>