<svg width="677" height="452" viewBox="0 0 677 452" fill="none" xmlns="http://www.w3.org/2000/svg">
<path fill-rule="evenodd" clip-rule="evenodd" d="M77.1034 176.896C67.4003 176.896 58.0271 174.509 49.2442 169.799C27.1836 157.973 13.4794 133.857 13.4794 106.864C13.4794 96.1989 15.6523 85.8961 19.9356 76.2434C30.6946 51.996 52.6342 47.1783 77.1914 47.1783C81.5493 47.1783 86.8674 48.753 92.0712 47.1783C90.6117 48.753 92.0712 53.2558 92.0712 47.1783C91.7938 48.6303 93.3959 54.1982 92.0712 53.8946C88.1398 52.9866 81.2132 51.2081 77.1914 51.2081C54.5186 51.2081 34.2618 56.2125 24.3289 78.5994C20.3743 87.512 18.3677 97.0224 18.3677 106.864C18.3677 131.786 31.0209 154.051 51.3877 164.972C59.496 169.318 68.1482 171.523 77.1034 171.523C96.3887 171.523 114.442 161.163 125.395 143.81C127.059 141.174 127.268 140.742 128.656 137.615C129.246 136.281 130.709 135.727 131.924 136.377C133.137 137.028 133.641 138.637 133.048 139.971C131.615 143.203 131.285 143.904 129.411 146.872C117.545 165.673 97.9896 176.896 77.1034 176.896Z" fill="#153E64"/>
<path fill-rule="evenodd" clip-rule="evenodd" d="M109.945 70.235L87.8398 39.569L82.3743 58.9152C82.3743 58.9152 89.6518 60.4691 96.7331 63.4505C103.61 66.3466 109.945 70.235 109.945 70.235Z" fill="#153E64"/>
<path fill-rule="evenodd" clip-rule="evenodd" d="M464.418 401.114C463.365 399.854 461.524 399.697 460.288 400.775L459.165 401.749C457.928 402.822 457.758 404.717 458.777 406.006C458.786 406.016 458.79 406.027 458.798 406.038C459.381 406.756 460.217 407.127 461.061 407.127C461.729 407.127 462.401 406.893 462.952 406.417L464.089 405.427C465.335 404.344 465.493 402.423 464.443 401.139C464.436 401.13 464.425 401.123 464.418 401.114Z" fill="#E18128"/>
<path fill-rule="evenodd" clip-rule="evenodd" d="M523.272 301.897L522.843 303.335C522.362 304.928 523.214 306.616 524.745 307.13C524.758 307.135 524.768 307.142 524.78 307.146C525.073 307.24 525.368 307.284 525.659 307.284C526.916 307.284 528.08 306.449 528.472 305.144L528.91 303.685C529.387 302.078 528.514 300.375 526.956 299.882C526.944 299.877 526.932 299.877 526.921 299.874C525.383 299.401 523.746 300.3 523.272 301.897Z" fill="#E18128"/>
<path fill-rule="evenodd" clip-rule="evenodd" d="M147.712 334.37L147.068 333.02C146.357 331.519 144.612 330.895 143.156 331.609C143.146 331.613 143.134 331.615 143.124 331.621C141.66 332.359 141.054 334.181 141.769 335.692L142.433 337.082C142.949 338.151 143.991 338.771 145.075 338.771C145.515 338.771 145.964 338.667 146.387 338.451C146.396 338.447 146.402 338.439 146.412 338.434C147.849 337.677 148.433 335.866 147.712 334.37Z" fill="#153E64"/>
<path fill-rule="evenodd" clip-rule="evenodd" d="M403.508 46.3276L404.856 46.8831C405.217 47.0323 405.588 47.1023 405.954 47.1023C407.113 47.1023 408.208 46.39 408.677 45.2182C408.68 45.209 408.687 45.2029 408.692 45.1923C409.299 43.6324 408.567 41.8609 407.055 41.2339L405.671 40.6647C404.16 40.0468 402.442 40.8154 401.846 42.3799C401.842 42.3905 401.841 42.4027 401.836 42.4133C401.264 43.9702 402.003 45.7158 403.508 46.3276Z" fill="#E18128"/>
<path fill-rule="evenodd" clip-rule="evenodd" d="M138.572 312.303L138.084 310.892C137.547 309.314 135.876 308.483 134.345 309.028C134.337 309.031 134.33 309.031 134.322 309.034C132.788 309.593 131.981 311.331 132.522 312.916L133.025 314.371C133.458 315.612 134.592 316.382 135.798 316.382C136.131 316.382 136.469 316.324 136.801 316.201C136.813 316.196 136.822 316.188 136.832 316.184C138.342 315.6 139.122 313.872 138.572 312.303Z" fill="#153E64"/>
<path fill-rule="evenodd" clip-rule="evenodd" d="M335.575 31.8963L337.027 31.9465C337.064 31.948 337.101 31.9495 337.138 31.9495C338.707 31.9495 340.006 30.6742 340.079 29.0458C340.081 29.0366 340.084 29.026 340.084 29.0168C340.143 27.3367 338.872 25.9259 337.244 25.8635L335.756 25.8118C334.115 25.7463 332.768 27.0795 332.719 28.7596C332.719 28.7733 332.721 28.787 332.721 28.7992C332.693 30.4626 333.959 31.8445 335.575 31.8963Z" fill="#153E64"/>
<path fill-rule="evenodd" clip-rule="evenodd" d="M159.256 355.195L158.466 353.934C157.594 352.529 155.79 352.114 154.423 352.996C154.414 353.002 154.402 353.005 154.394 353.011C153.021 353.918 152.621 355.801 153.5 357.216L154.314 358.519C154.88 359.414 155.824 359.901 156.788 359.901C157.339 359.901 157.898 359.741 158.395 359.408C158.404 359.402 158.41 359.394 158.419 359.388C159.762 358.464 160.139 356.594 159.256 355.195Z" fill="#153E64"/>
<path fill-rule="evenodd" clip-rule="evenodd" d="M492.009 365.826L491.135 367.032C490.162 368.366 490.417 370.257 491.696 371.273C491.705 371.279 491.711 371.287 491.72 371.295C492.251 371.707 492.873 371.906 493.489 371.906C494.384 371.906 495.269 371.486 495.848 370.692L496.74 369.462C497.712 368.114 497.442 366.207 496.136 365.202C496.125 365.195 496.112 365.19 496.102 365.183C494.798 364.209 492.973 364.49 492.009 365.826Z" fill="#E18128"/>
<path fill-rule="evenodd" clip-rule="evenodd" d="M424.585 56.39L425.864 57.1008C426.312 57.3519 426.794 57.4706 427.269 57.4706C428.304 57.4706 429.303 56.9044 429.842 55.9091C429.847 55.8985 429.856 55.8909 429.862 55.8802C430.641 54.4025 430.111 52.5549 428.68 51.7529L427.368 51.0223C425.93 50.2294 424.145 50.788 423.376 52.2703C423.371 52.2809 423.369 52.2916 423.365 52.3007C422.619 53.7785 423.16 55.6017 424.585 56.39Z" fill="#E18128"/>
<path fill-rule="evenodd" clip-rule="evenodd" d="M444.423 68.8786L445.612 69.7309C446.126 70.1052 446.717 70.2833 447.303 70.2833C448.221 70.2833 449.122 69.8389 449.696 69.0156C449.703 69.0049 449.712 69.0003 449.719 68.9897C450.655 67.6139 450.334 65.7161 449 64.7497L447.77 63.864C446.425 62.9098 444.588 63.2598 443.667 64.6447C443.662 64.6508 443.661 64.6569 443.658 64.6614C442.748 66.0448 443.089 67.9289 444.423 68.8786Z" fill="#E18128"/>
<path fill-rule="evenodd" clip-rule="evenodd" d="M127.924 265.699L127.757 264.204C127.576 262.541 126.132 261.343 124.522 261.517C124.513 261.518 124.506 261.517 124.499 261.517C122.88 261.704 121.715 263.211 121.896 264.882L122.066 266.411C122.243 267.959 123.517 269.099 124.991 269.099C125.106 269.099 125.223 269.091 125.341 269.077C125.354 269.076 125.366 269.07 125.379 269.068C126.976 268.852 128.112 267.353 127.924 265.699Z" fill="#153E64"/>
<path fill-rule="evenodd" clip-rule="evenodd" d="M493.971 119.045L494.821 120.275C495.396 121.11 496.305 121.556 497.228 121.556C497.808 121.556 498.39 121.375 498.9 121.011C498.911 121.004 498.921 121.002 498.931 120.995C500.261 120.022 500.574 118.121 499.63 116.75L498.763 115.498C497.814 114.131 495.971 113.817 494.65 114.797C494.639 114.805 494.632 114.816 494.62 114.823C493.324 115.809 493.029 117.689 493.971 119.045Z" fill="#153E64"/>
<path fill-rule="evenodd" clip-rule="evenodd" d="M528.737 278.599L528.472 280.077C528.172 281.718 529.213 283.296 530.795 283.622C530.806 283.623 530.814 283.628 530.825 283.631C531.009 283.667 531.193 283.684 531.373 283.684C532.764 283.684 534.002 282.663 534.269 281.202L534.54 279.687C534.831 278.033 533.768 276.449 532.165 276.149C532.153 276.146 532.143 276.148 532.131 276.146C530.534 275.868 529.026 276.959 528.737 278.599Z" fill="#E18128"/>
<path fill-rule="evenodd" clip-rule="evenodd" d="M188.874 392.074L187.825 391.03C186.665 389.867 184.818 389.888 183.678 391.072C183.671 391.08 183.663 391.085 183.656 391.092C182.521 392.298 182.547 394.226 183.716 395.396L184.79 396.467C185.362 397.034 186.097 397.314 186.832 397.314C187.607 397.314 188.381 397 188.961 396.378C188.968 396.369 188.974 396.358 188.983 396.349C190.084 395.133 190.04 393.229 188.874 392.074Z" fill="#153E64"/>
<path fill-rule="evenodd" clip-rule="evenodd" d="M504.776 345.793L504.045 347.086C503.22 348.526 503.682 350.38 505.066 351.239C505.074 351.244 505.08 351.249 505.087 351.253C505.557 351.539 506.073 351.676 506.582 351.676C507.59 351.676 508.574 351.141 509.124 350.177L509.879 348.846C510.695 347.391 510.215 345.529 508.805 344.685C508.795 344.679 508.783 344.676 508.771 344.669C507.372 343.858 505.588 344.348 504.776 345.793Z" fill="#E18128"/>
<path fill-rule="evenodd" clip-rule="evenodd" d="M421.686 427.383L420.384 428.064C418.939 428.816 418.354 430.629 419.067 432.125C419.072 432.134 419.073 432.143 419.076 432.152C419.594 433.214 420.633 433.828 421.714 433.828C422.158 433.828 422.61 433.724 423.036 433.502L424.372 432.804C425.823 432.038 426.395 430.204 425.653 428.707C425.649 428.694 425.64 428.685 425.634 428.673C424.882 427.205 423.129 426.622 421.686 427.383Z" fill="#E18128"/>
<path fill-rule="evenodd" clip-rule="evenodd" d="M225.803 421.064L224.553 420.291C223.17 419.429 221.377 419.883 220.528 421.295C220.521 421.307 220.512 421.315 220.506 421.327C219.664 422.767 220.114 424.637 221.509 425.505L222.785 426.295C223.259 426.584 223.778 426.724 224.292 426.724C225.296 426.724 226.277 426.193 226.828 425.237C226.832 425.228 226.835 425.219 226.84 425.21C227.654 423.768 227.194 421.919 225.803 421.064Z" fill="#E18128"/>
<path fill-rule="evenodd" clip-rule="evenodd" d="M531.568 254.797L531.47 256.297C531.355 257.961 532.561 259.402 534.167 259.54C534.179 259.542 534.191 259.546 534.204 259.548C534.275 259.553 534.346 259.554 534.415 259.554C535.95 259.554 537.244 258.329 537.353 256.725L537.453 255.189C537.558 253.511 536.327 252.063 534.701 251.955C534.69 251.954 534.68 251.957 534.67 251.957C533.049 251.893 531.672 253.132 531.568 254.797Z" fill="#153E64"/>
<path fill-rule="evenodd" clip-rule="evenodd" d="M381.46 38.8269L382.857 39.2165C383.118 39.2911 383.381 39.3261 383.639 39.3261C384.925 39.3261 386.099 38.4495 386.467 37.1148C386.47 37.1056 386.478 37.098 386.481 37.0874C386.911 35.4666 385.988 33.791 384.418 33.3466L382.98 32.9448C381.407 32.5126 379.791 33.4759 379.371 35.1013C379.368 35.112 379.368 35.1241 379.365 35.1348C378.969 36.748 379.897 38.3962 381.46 38.8269Z" fill="#E18128"/>
<path fill-rule="evenodd" clip-rule="evenodd" d="M206.539 407.657L205.386 406.745C204.105 405.724 202.272 405.963 201.272 407.269C201.265 407.278 201.256 407.284 201.25 407.295C200.254 408.625 200.492 410.536 201.781 411.563L202.968 412.502C203.502 412.921 204.13 413.123 204.752 413.123C205.641 413.123 206.52 412.709 207.1 411.923C207.106 411.913 207.109 411.906 207.115 411.897C208.081 410.561 207.827 408.669 206.539 407.657Z" fill="#153E64"/>
<path fill-rule="evenodd" clip-rule="evenodd" d="M246.416 432.115L245.092 431.495C243.621 430.798 241.887 431.462 241.2 432.97C241.196 432.979 241.19 432.988 241.185 432.997C240.507 434.525 241.16 436.332 242.641 437.03L243.996 437.665C244.389 437.849 244.801 437.934 245.205 437.934C246.329 437.934 247.403 437.266 247.895 436.14C247.9 436.128 247.903 436.114 247.907 436.102C248.55 434.578 247.891 432.799 246.416 432.115Z" fill="#E18128"/>
<path fill-rule="evenodd" clip-rule="evenodd" d="M358.704 33.9914L360.142 34.2135C360.294 34.2379 360.445 34.2501 360.594 34.2501C362.013 34.2501 363.257 33.1893 363.496 31.704C363.499 31.6918 363.503 31.6811 363.505 31.6705C363.754 30.0086 362.65 28.4532 361.04 28.1975L359.559 27.9677C357.951 27.7288 356.451 28.8748 356.215 30.5382C356.214 30.5473 356.215 30.5549 356.214 30.5641C355.993 32.2168 357.102 33.7494 358.704 33.9914Z" fill="#E18128"/>
<path fill-rule="evenodd" clip-rule="evenodd" d="M173.04 374.511L172.114 373.35C171.088 372.055 169.248 371.862 167.989 372.906C167.982 372.912 167.973 372.915 167.965 372.923C166.705 373.986 166.519 375.905 167.55 377.205L168.501 378.397C169.083 379.123 169.925 379.497 170.771 379.497C171.435 379.497 172.102 379.267 172.652 378.797C172.661 378.789 172.669 378.779 172.677 378.771C173.906 377.694 174.072 375.796 173.04 374.511Z" fill="#153E64"/>
<path fill-rule="evenodd" clip-rule="evenodd" d="M515.243 324.393L514.659 325.762C514.003 327.289 514.662 329.069 516.131 329.762C516.14 329.768 516.148 329.775 516.159 329.78C516.548 329.958 516.953 330.042 517.355 330.042C518.484 330.042 519.563 329.368 520.051 328.231L520.651 326.822C521.3 325.28 520.617 323.487 519.124 322.816C519.115 322.813 519.105 322.811 519.096 322.807C517.61 322.158 515.889 322.86 515.243 324.393Z" fill="#E18128"/>
<path fill-rule="evenodd" clip-rule="evenodd" d="M441.729 415.228L440.513 416.059C439.161 416.976 438.781 418.847 439.656 420.248C439.661 420.256 439.664 420.267 439.67 420.274C440.234 421.164 441.175 421.647 442.135 421.647C442.691 421.647 443.252 421.484 443.752 421.146L445.001 420.292C446.356 419.359 446.722 417.471 445.818 416.072C445.812 416.06 445.803 416.052 445.796 416.042C444.885 414.671 443.074 414.301 441.729 415.228Z" fill="#E18128"/>
<path fill-rule="evenodd" clip-rule="evenodd" d="M477.114 384.236L476.112 385.331C474.998 386.541 475.043 388.448 476.197 389.606C476.206 389.615 476.212 389.626 476.221 389.634C476.79 390.194 477.52 390.471 478.251 390.471C479.031 390.471 479.809 390.153 480.389 389.523L481.41 388.404C482.527 387.18 482.469 385.252 481.281 384.102C481.273 384.094 481.263 384.089 481.257 384.082C480.07 382.956 478.223 383.018 477.114 384.236Z" fill="#E18128"/>
<path fill-rule="evenodd" clip-rule="evenodd" d="M131.957 289.314L131.628 287.855C131.27 286.228 129.71 285.21 128.136 285.56C128.124 285.563 128.111 285.561 128.099 285.564C126.511 285.939 125.517 287.57 125.88 289.209L126.217 290.714C126.539 292.114 127.749 293.058 129.085 293.058C129.311 293.058 129.538 293.032 129.766 292.976C129.775 292.974 129.781 292.97 129.79 292.968C131.36 292.571 132.33 290.941 131.957 289.314Z" fill="#153E64"/>
<path fill-rule="evenodd" clip-rule="evenodd" d="M516.556 160.911C516.742 161.369 516.923 161.829 517.103 162.29C517.569 163.474 518.673 164.192 519.84 164.192C520.198 164.192 520.564 164.122 520.917 163.978C520.926 163.975 520.935 163.973 520.944 163.97C522.452 163.34 523.182 161.565 522.572 160.007C522.383 159.526 522.193 159.047 522.001 158.57C521.376 157.018 519.648 156.286 518.146 156.931C518.135 156.936 518.128 156.942 518.119 156.947C516.634 157.602 515.936 159.369 516.556 160.911Z" fill="#153E64"/>
<path fill-rule="evenodd" clip-rule="evenodd" d="M147.14 149.07L147.784 147.724C148.507 146.23 147.926 144.42 146.491 143.659C146.481 143.653 146.474 143.647 146.463 143.641C145.007 142.889 143.234 143.499 142.508 145.006L141.849 146.382C141.129 147.892 141.731 149.715 143.192 150.458C143.203 150.464 143.214 150.465 143.226 150.47C143.634 150.671 144.066 150.771 144.492 150.771C145.58 150.771 146.627 150.146 147.14 149.07Z" fill="#E18128"/>
<path fill-rule="evenodd" clip-rule="evenodd" d="M243.951 50.8776C244.358 50.8776 244.772 50.7893 245.167 50.6052L246.503 49.9842C247.979 49.3024 248.644 47.5233 248.002 45.9969C247.998 45.9862 247.996 45.9741 247.991 45.9634C247.326 44.4278 245.584 43.7399 244.095 44.4263L242.731 45.0609C241.248 45.7549 240.591 47.5599 241.265 49.0909C241.269 49.1015 241.279 49.1107 241.284 49.1228C241.785 50.2232 242.842 50.8776 243.951 50.8776Z" fill="#153E64"/>
<path fill-rule="evenodd" clip-rule="evenodd" d="M462.756 83.6121L463.843 84.5998C464.405 85.1157 465.105 85.3683 465.8 85.3683C466.603 85.3683 467.404 85.029 467.985 84.3669C467.99 84.3593 467.999 84.3548 468.007 84.3456C469.087 83.0901 468.978 81.1664 467.76 80.0493L466.635 79.0266C465.41 77.9217 463.544 78.0526 462.476 79.3173C462.469 79.3249 462.464 79.3356 462.457 79.3432C461.407 80.6109 461.539 82.5133 462.756 83.6121Z" fill="#E18128"/>
<path fill-rule="evenodd" clip-rule="evenodd" d="M524.186 183.548L524.579 184.996C524.941 186.344 526.126 187.228 527.419 187.228C527.668 187.228 527.92 187.192 528.173 187.123C528.184 187.12 528.196 187.122 528.208 187.119C529.777 186.67 530.697 184.993 530.263 183.373L529.862 181.89C529.417 180.273 527.792 179.334 526.22 179.791C526.207 179.794 526.195 179.802 526.182 179.806C524.641 180.279 523.746 181.944 524.186 183.548Z" fill="#153E64"/>
<path fill-rule="evenodd" clip-rule="evenodd" d="M158.545 128.182L159.336 126.921C160.22 125.519 159.841 123.647 158.492 122.723C158.485 122.72 158.482 122.714 158.475 122.71C157.111 121.79 155.283 122.189 154.395 123.598L153.584 124.891C152.704 126.304 153.101 128.187 154.47 129.097C154.482 129.103 154.495 129.106 154.507 129.114C154.992 129.426 155.53 129.581 156.063 129.581C157.033 129.581 157.982 129.086 158.545 128.182Z" fill="#E18128"/>
<path fill-rule="evenodd" clip-rule="evenodd" d="M172.188 108.766L173.111 107.605C174.143 106.319 173.973 104.419 172.741 103.343C172.733 103.336 172.727 103.326 172.718 103.319C171.464 102.247 169.606 102.427 168.567 103.725L167.619 104.915C166.59 106.217 166.777 108.134 168.039 109.198C168.046 109.206 168.058 109.21 168.067 109.218C168.609 109.664 169.257 109.884 169.902 109.884C170.756 109.884 171.604 109.502 172.188 108.766Z" fill="#E18128"/>
<path fill-rule="evenodd" clip-rule="evenodd" d="M312.095 32.5586C312.178 32.5586 312.262 32.5555 312.345 32.5479L313.792 32.4277C315.405 32.3014 316.613 30.8556 316.508 29.1952C316.508 29.183 316.511 29.1724 316.51 29.1617C316.384 27.4846 314.973 26.2199 313.344 26.3584L311.852 26.4817C310.23 26.6217 309.024 28.0933 309.16 29.7689C309.161 29.7781 309.164 29.7872 309.164 29.7963C309.306 31.3715 310.587 32.5586 312.095 32.5586Z" fill="#153E64"/>
<path fill-rule="evenodd" clip-rule="evenodd" d="M223.086 62.2278C223.605 62.2278 224.13 62.0863 224.606 61.7895L225.855 61.0194C227.249 60.1657 227.712 58.312 226.898 56.8692C226.894 56.8632 226.892 56.8556 226.89 56.8479C226.059 55.4022 224.25 54.9258 222.848 55.7811L221.56 56.5771C220.166 57.4445 219.717 59.3149 220.557 60.7546C220.565 60.7668 220.573 60.7744 220.581 60.7851C221.138 61.7119 222.098 62.2278 223.086 62.2278Z" fill="#153E64"/>
<path fill-rule="evenodd" clip-rule="evenodd" d="M479.346 100.405L480.32 101.519C480.903 102.19 481.709 102.533 482.517 102.533C483.21 102.533 483.907 102.278 484.468 101.769C484.474 101.764 484.478 101.761 484.484 101.756C485.697 100.633 485.799 98.7096 484.712 97.4571L483.708 96.3111C482.614 95.0677 480.751 94.9749 479.543 96.1056C479.535 96.1148 479.527 96.1239 479.518 96.133C478.339 97.2683 478.259 99.1707 479.346 100.405Z" fill="#153E64"/>
<path fill-rule="evenodd" clip-rule="evenodd" d="M131.62 194.163L131.951 192.703C132.325 191.079 131.361 189.453 129.795 189.049C129.785 189.046 129.776 189.04 129.764 189.037C128.176 188.646 126.59 189.66 126.214 191.294L125.873 192.799C125.508 194.437 126.498 196.07 128.086 196.447C128.097 196.45 128.108 196.449 128.12 196.45C128.331 196.499 128.542 196.525 128.75 196.525C130.091 196.525 131.306 195.572 131.62 194.163Z" fill="#E18128"/>
<path fill-rule="evenodd" clip-rule="evenodd" d="M531.732 230.811L531.8 232.313C531.869 233.947 533.175 235.223 534.743 235.223C534.774 235.223 534.806 235.221 534.837 235.221C534.849 235.22 534.862 235.221 534.875 235.22C536.502 235.146 537.764 233.725 537.691 232.046L537.621 230.508C537.539 228.828 536.152 227.548 534.529 227.619C534.518 227.619 534.507 227.624 534.495 227.624C532.885 227.727 531.649 229.144 531.732 230.811Z" fill="#153E64"/>
<path fill-rule="evenodd" clip-rule="evenodd" d="M187.882 91.0721L188.926 90.0311C190.092 88.8745 190.135 86.9706 189.032 85.7546C189.025 85.7455 189.019 85.7364 189.012 85.7272C187.884 84.5158 186.019 84.4763 184.842 85.6375L183.764 86.715C182.6 87.8883 182.575 89.815 183.713 91.0188C183.719 91.0249 183.725 91.028 183.731 91.0341C184.307 91.6337 185.063 91.9365 185.824 91.9365C186.566 91.9365 187.309 91.6489 187.882 91.0721Z" fill="#153E64"/>
<path fill-rule="evenodd" clip-rule="evenodd" d="M127.727 217.806L127.894 216.312C128.083 214.652 126.941 213.149 125.339 212.939C125.328 212.938 125.32 212.933 125.311 212.932C123.693 212.737 122.228 213.93 122.036 215.598L121.865 217.129C121.685 218.8 122.85 220.305 124.469 220.493C124.481 220.494 124.494 220.494 124.507 220.496C124.606 220.505 124.703 220.511 124.801 220.511C126.282 220.511 127.558 219.362 127.727 217.806Z" fill="#E18128"/>
<path fill-rule="evenodd" clip-rule="evenodd" d="M126.497 241.749L126.495 240.818V240.253C126.501 238.584 125.205 237.228 123.592 237.202C123.58 237.202 123.57 237.197 123.558 237.197C121.888 237.251 120.604 238.549 120.598 240.229V240.818L120.599 241.778C120.607 243.454 121.925 244.807 123.548 244.807H123.561C123.572 244.807 123.579 244.804 123.588 244.804C125.204 244.781 126.504 243.42 126.497 241.749Z" fill="#153E64"/>
<path fill-rule="evenodd" clip-rule="evenodd" d="M288.758 35.9666C288.949 35.9666 289.145 35.9468 289.341 35.9057L290.763 35.618C292.354 35.303 293.394 33.7233 293.105 32.0842C293.103 32.0736 293.104 32.0644 293.103 32.0553C292.794 30.4025 291.245 29.319 289.65 29.6401L288.18 29.9384C286.583 30.2686 285.549 31.8727 285.869 33.5209C285.871 33.5331 285.877 33.5437 285.878 33.5559C286.173 34.9819 287.392 35.9666 288.758 35.9666Z" fill="#153E64"/>
<path fill-rule="evenodd" clip-rule="evenodd" d="M529.257 206.954L529.487 208.438C529.716 209.938 530.97 211.01 532.396 211.01C532.539 211.01 532.682 210.996 532.827 210.975C532.837 210.973 532.849 210.973 532.857 210.972C534.466 210.712 535.566 209.153 535.312 207.493L535.076 205.971C534.815 204.314 533.297 203.181 531.691 203.46C531.681 203.461 531.671 203.466 531.659 203.467C530.069 203.756 528.995 205.306 529.257 206.954Z" fill="#153E64"/>
<path fill-rule="evenodd" clip-rule="evenodd" d="M265.947 42.0858C266.247 42.0858 266.552 42.0386 266.853 41.9382L268.239 41.4832C269.781 40.9825 270.639 39.2962 270.173 37.7043C270.17 37.6906 270.17 37.6784 270.166 37.6663C269.678 36.0622 268.025 35.1719 266.469 35.6772L265.044 36.1444C263.494 36.6603 262.642 38.3739 263.142 39.975C263.145 39.9841 263.151 39.9902 263.152 39.9978C263.563 41.2731 264.71 42.0858 265.947 42.0858Z" fill="#153E64"/>
<path fill-rule="evenodd" clip-rule="evenodd" d="M203.627 75.979C204.258 75.979 204.894 75.7705 205.43 75.3413L206.583 74.4282C207.869 73.4176 208.123 71.5305 207.161 70.1943C207.154 70.1836 207.151 70.173 207.144 70.1639C206.157 68.8246 204.308 68.5674 203.011 69.5855L201.82 70.5291C200.531 71.5579 200.297 73.4709 201.293 74.7995C201.299 74.8056 201.307 74.8102 201.313 74.8178C201.893 75.5787 202.754 75.979 203.627 75.979Z" fill="#153E64"/>
<path fill-rule="evenodd" clip-rule="evenodd" d="M138.122 171.154L138.612 169.746C139.163 168.179 138.388 166.451 136.881 165.864C136.869 165.859 136.859 165.852 136.847 165.847C135.315 165.275 133.624 166.089 133.068 167.669L132.564 169.116C132.02 170.701 132.822 172.442 134.357 173.003C134.364 173.006 134.372 173.006 134.378 173.009C134.697 173.123 135.023 173.18 135.343 173.18C136.557 173.18 137.693 172.401 138.122 171.154Z" fill="#E18128"/>
<path fill-rule="evenodd" clip-rule="evenodd" d="M506.432 139.298L507.136 140.616C507.672 141.628 508.683 142.201 509.727 142.201C510.194 142.201 510.667 142.083 511.107 141.841C511.117 141.835 511.127 141.835 511.136 141.829C512.566 141.023 513.094 139.174 512.313 137.7L511.589 136.344C510.797 134.874 509.004 134.342 507.579 135.16C507.571 135.164 507.565 135.17 507.558 135.175C506.151 135.998 505.646 137.837 506.432 139.298Z" fill="#153E64"/>
<path fill-rule="evenodd" clip-rule="evenodd" d="M161.779 385.95C130.879 348.159 113.286 302.088 110.855 252.443C110.772 250.764 109.382 249.484 107.76 249.556C106.134 249.641 104.882 251.072 104.965 252.75C107.453 303.577 125.414 350.757 156.964 389.504L161.639 385.789C161.639 385.789 161.695 385.853 161.779 385.95Z" fill="#153E64"/>
<path fill-rule="evenodd" clip-rule="evenodd" d="M171.823 397.172C166.654 391.563 162.546 386.836 161.779 385.95C161.695 385.854 161.639 385.79 161.639 385.79L156.964 389.505L146.114 398.127L182.706 407.891C182.706 407.891 177.08 402.878 171.823 397.172Z" fill="#153E64"/>
<path fill-rule="evenodd" clip-rule="evenodd" d="M198.441 61.1169C236.304 31.8435 281.298 16.3887 328.825 16.3887L330.518 16.3948H330.538C332.157 16.3948 333.474 15.0479 333.487 13.3738C333.499 11.6937 332.19 10.3209 330.561 10.3072L328.825 10.3012C280.167 10.3012 234.094 26.0694 195.28 55.9486L198.603 60.9845C198.603 60.9845 198.539 61.0363 198.441 61.1169Z" fill="#153E64"/>
<path fill-rule="evenodd" clip-rule="evenodd" d="M187.003 70.8168C192.734 65.8113 197.546 61.8498 198.441 61.1163C198.538 61.0371 198.603 60.9839 198.603 60.9839L195.281 55.9495L187.573 44.269L176.004 81.4091C176.004 81.4091 181.18 75.9029 187.003 70.8168Z" fill="#153E64"/>
<path fill-rule="evenodd" clip-rule="evenodd" d="M365.797 19.734C413.041 27.9933 455.299 51.4485 488.218 87.744C488.799 88.3847 489.584 88.7074 490.37 88.7074C491.093 88.7074 491.818 88.4365 492.386 87.8855C493.574 86.7365 493.636 84.8113 492.523 83.5847C458.829 46.4309 415.602 22.3729 367.274 13.8138L366.027 19.7675C366.027 19.7675 365.938 19.7553 365.797 19.734Z" fill="#E18128"/>
<mask id="mask0" mask-type="alpha" maskUnits="userSpaceOnUse" x="336" y="0" width="35" height="20">
<path d="M336.115 0H370.165V19.7675H336.115V0Z" fill="white"/>
</mask>
<g mask="url(#mask0)">
<path fill-rule="evenodd" clip-rule="evenodd" d="M365.797 19.7341C365.938 19.7554 366.027 19.7676 366.027 19.7676L367.274 13.814L370.165 -0.000198364L336.115 16.9308C336.115 16.9308 343.547 17.0099 351.131 17.8637C358.535 18.6946 364.598 19.5606 365.797 19.7341Z" fill="#E18128"/>
</g>
<path fill-rule="evenodd" clip-rule="evenodd" d="M507.838 113.548C533.137 151.249 546.524 195.328 546.524 241.251C546.524 245.01 546.434 248.823 546.254 252.579C546.173 254.259 547.426 255.686 549.053 255.77C549.101 255.772 549.151 255.773 549.201 255.773C550.761 255.773 552.065 254.509 552.143 252.88C552.329 249.024 552.422 245.111 552.422 241.251C552.422 194.642 539.025 149.867 513.64 111.448L508.627 114.662C508.627 114.662 508.342 114.258 507.838 113.548Z" fill="#153E64"/>
<path fill-rule="evenodd" clip-rule="evenodd" d="M489.806 90.4987C489.806 90.4987 494.919 96.0688 499.597 102.287C503.345 107.268 506.447 111.594 507.838 113.549C508.342 114.257 508.628 114.663 508.628 114.663L513.639 111.449L525.269 103.989L489.806 90.4987Z" fill="#153E64"/>
<path fill-rule="evenodd" clip-rule="evenodd" d="M541.723 288.512C541.723 288.512 541.738 288.43 541.758 288.308C531.849 336.689 507.439 379.316 470.984 411.79C469.753 412.889 469.616 414.811 470.679 416.083C471.263 416.781 472.086 417.139 472.913 417.139C473.595 417.139 474.281 416.896 474.838 416.399C512.16 383.149 537.196 339.54 547.436 290.039L541.723 288.512Z" fill="#E18128"/>
<path fill-rule="evenodd" clip-rule="evenodd" d="M547.436 290.039L560.691 293.579L545.679 257.776C545.679 257.776 545.301 265.439 544.169 273.227C543.053 280.903 541.96 287.165 541.758 288.308C541.738 288.43 541.723 288.512 541.723 288.512L547.436 290.039Z" fill="#E18128"/>
<path fill-rule="evenodd" clip-rule="evenodd" d="M112.176 214.582C117.55 165.446 137.89 120.606 171.162 84.6754C172.287 83.4594 172.244 81.5327 171.068 80.3715C169.891 79.2103 168.025 79.2544 166.898 80.4689C132.831 117.257 111.96 163.144 106.364 213.428L112.192 214.383C112.192 214.383 112.184 214.462 112.176 214.582Z" fill="#E18128"/>
<path fill-rule="evenodd" clip-rule="evenodd" d="M111.108 245.368C111.108 245.368 110.772 237.703 111.176 229.84C111.575 222.073 112.082 215.722 112.175 214.582C112.184 214.462 112.192 214.383 112.192 214.383L106.363 213.428L92.8405 211.216L111.108 245.368Z" fill="#E18128"/>
<path fill-rule="evenodd" clip-rule="evenodd" d="M73.0387 94.1542C72.2248 94.1542 71.5643 93.4724 71.5643 92.6323V85.5297C71.5643 84.6896 72.2248 84.0078 73.0387 84.0078C73.8525 84.0078 74.513 84.6896 74.513 85.5297V92.6323C74.513 93.4724 73.8525 94.1542 73.0387 94.1542Z" fill="#060809"/>
<path fill-rule="evenodd" clip-rule="evenodd" d="M93.6798 108.358H86.7989C85.9851 108.358 85.3246 107.676 85.3246 106.836C85.3246 105.996 85.9851 105.314 86.7989 105.314H93.6798C94.4936 105.314 95.1542 105.996 95.1542 106.836C95.1542 107.676 94.4936 108.358 93.6798 108.358Z" fill="#060809"/>
<path fill-rule="evenodd" clip-rule="evenodd" d="M73.0387 129.665C72.2248 129.665 71.5643 128.983 71.5643 128.143V121.04C71.5643 120.2 72.2248 119.518 73.0387 119.518C73.8525 119.518 74.513 120.2 74.513 121.04V128.143C74.513 128.983 73.8525 129.665 73.0387 129.665Z" fill="#060809"/>
<path fill-rule="evenodd" clip-rule="evenodd" d="M59.2775 108.358H52.3966C51.5828 108.358 50.9223 107.676 50.9223 106.836C50.9223 105.996 51.5828 105.314 52.3966 105.314H59.2775C60.0914 105.314 60.7519 105.996 60.7519 106.836C60.7519 107.676 60.0914 108.358 59.2775 108.358Z" fill="#060809"/>
<path fill-rule="evenodd" clip-rule="evenodd" d="M73.0386 87.0517C62.4704 87.0517 53.8719 95.9274 53.8719 106.836C53.8719 117.745 62.4704 126.621 73.0386 126.621C83.6069 126.621 92.2054 117.745 92.2054 106.836C92.2054 95.9274 83.6069 87.0517 73.0386 87.0517ZM73.0386 129.665C60.8441 129.665 50.9231 119.424 50.9231 106.836C50.9231 94.2487 60.8441 84.008 73.0386 84.008C85.2331 84.008 95.1541 94.2487 95.1541 106.836C95.1541 119.424 85.2331 129.665 73.0386 129.665Z" fill="#060809"/>
<path fill-rule="evenodd" clip-rule="evenodd" d="M81.2944 108.358H73.038C72.5735 108.358 72.1371 108.133 71.86 107.749L63.602 96.387C63.114 95.7143 63.2452 94.7601 63.8969 94.2564C64.5515 93.7511 65.473 93.8896 65.961 94.5608L73.7752 105.314H81.2944C82.1083 105.314 82.7688 105.996 82.7688 106.836C82.7688 107.676 82.1083 108.358 81.2944 108.358Z" fill="#060809"/>
<path fill-rule="evenodd" clip-rule="evenodd" d="M388.269 275.148C388.269 279.945 395.36 279.945 395.36 275.148C395.36 270.351 388.269 270.351 388.269 275.148ZM371.232 247.069L377.24 246.412V253.483H383.936V258.786H377.19V269.542C377.19 271.916 378.471 273.078 380.342 273.078C381.276 273.078 382.36 272.774 383.246 272.321L384.921 277.573C383.198 278.28 381.769 278.582 379.947 278.633C374.679 278.834 371.232 275.754 371.232 269.542V258.786H366.702V253.483H371.232V247.069ZM363.6 278.329H357.592V265.3C357.592 261.512 355.574 258.634 351.733 258.634C348.04 258.634 345.529 261.815 345.529 265.603V278.329H339.571V253.382H344.938L345.331 256.765C347.794 254.291 350.256 253.028 353.308 253.028C359.021 253.028 363.6 257.423 363.6 265.25V278.329ZM327.753 246.412C327.753 241.615 334.844 241.615 334.844 246.412C334.844 251.21 327.753 251.21 327.753 246.412ZM328.294 278.329H334.302V253.33H328.294V278.329ZM306.924 253.432H312.488L312.932 256.31C314.803 253.23 317.314 252.775 319.776 252.775C322.287 252.775 324.701 253.785 326.029 255.149L323.321 260.502C322.09 259.442 320.959 258.887 318.989 258.887C315.837 258.887 312.932 260.604 312.932 265.2V278.329H306.924V253.432ZM282.158 288.733H276.15V253.432H281.763L282.158 256.866C284.029 254.088 287.278 252.877 290.035 252.877C297.521 252.877 302.494 258.584 302.494 265.906C302.494 273.179 298.013 278.936 290.233 278.936C287.672 278.936 283.88 278.128 282.158 275.401V288.733ZM289.593 272.976C293.68 272.976 296.486 269.794 296.486 265.906C296.486 262.017 293.926 258.837 289.593 258.837C285.26 258.837 282.699 262.017 282.699 265.906C282.699 269.794 285.506 272.976 289.593 272.976ZM271.177 256.007L267.828 260.048C266.105 258.382 264.135 257.826 261.82 257.826C258.965 257.826 257.39 258.735 257.39 260.301C257.39 261.917 258.817 262.826 261.919 263.028C266.499 263.331 272.309 264.392 272.309 271.007C272.309 275.401 268.813 279.189 261.871 279.189C258.03 279.189 254.189 278.531 250.643 274.743L253.598 270.351C255.321 272.321 259.261 273.785 261.969 273.835C264.234 273.885 266.351 272.674 266.351 270.855C266.351 269.138 264.973 268.431 261.526 268.23C256.946 267.877 251.481 266.158 251.481 260.502C251.481 254.746 257.291 252.725 261.723 252.725C265.514 252.725 268.37 253.483 271.177 256.007ZM391.887 182.706H397.894V203.11L406.068 193.109H413.257V193.464L403.36 204.826L414.637 217.552V218.007H407.399L397.894 206.746V218.007H391.887V182.706ZM368.548 202.655H381.647C381.251 199.422 378.789 197.806 375.342 197.806C372.093 197.806 369.436 199.422 368.548 202.655ZM387.407 207.756H368.451C368.843 210.836 371.454 213.058 375.689 213.058C377.905 213.058 380.808 212.2 382.188 210.734L386.028 214.623C383.467 217.35 379.282 218.663 375.588 218.663C367.22 218.663 362.247 213.361 362.247 205.382C362.247 197.806 367.268 192.353 375.148 192.353C383.27 192.353 388.343 197.503 387.407 207.756ZM339.841 202.655H352.939C352.545 199.422 350.083 197.806 346.638 197.806C343.387 197.806 340.728 199.422 339.841 202.655ZM358.7 207.756H339.744C340.137 210.836 342.747 213.058 346.981 213.058C349.197 213.058 352.103 212.2 353.48 210.734L357.322 214.623C354.76 217.35 350.576 218.663 346.884 218.663C338.512 218.663 333.539 213.361 333.539 205.382C333.539 197.806 338.561 192.353 346.44 192.353C354.565 192.353 359.636 197.503 358.7 207.756ZM306.752 193.059H312.021L317.339 211.797L322.903 193.059H329.551L321.081 218.109H314.09L311.577 210.734L309.411 202.402L307.244 210.734L304.733 218.109H297.742L289.223 193.059H295.92L301.484 211.797L306.752 193.059ZM266.917 204.371H285.086V198.716H266.917V204.371ZM241.362 192.907H234.912C234.962 185.433 241.855 182.201 248.206 182.201C255.1 182.201 262.584 185.08 262.584 193.464C262.584 202.452 255.986 204.17 248.749 204.17C245.893 204.17 241.263 204.927 241.263 208.765V211.797H262.683V218.007H234.764V208.715C234.764 200.583 241.953 198.161 248.749 198.161C251.358 198.161 256.134 197.706 256.134 193.615C256.134 189.777 252.737 187.958 248.305 187.958C244.908 187.958 241.412 189.726 241.362 192.907Z" fill="#E18128"/>
<path fill-rule="evenodd" clip-rule="evenodd" d="M117.879 33.0325C117.879 32.4968 117.694 32.0858 117.322 31.7997C116.951 31.5121 116.281 31.2107 115.315 30.8927C114.35 30.5746 113.585 30.2611 113.022 29.9522C111.487 29.1075 110.719 27.9722 110.719 26.5416C110.719 25.7989 110.925 25.1369 111.336 24.554C111.749 23.9711 112.34 23.5161 113.11 23.1874C113.881 22.8602 114.747 22.6958 115.706 22.6958C116.672 22.6958 117.532 22.8754 118.287 23.2315C119.042 23.5861 119.629 24.0883 120.048 24.7367C120.465 25.3865 120.673 26.1231 120.673 26.948H117.888C117.888 26.3179 117.694 25.8294 117.303 25.4793C116.913 25.1293 116.365 24.9543 115.659 24.9543C114.979 24.9543 114.449 25.1019 114.071 25.3941C113.694 25.6863 113.505 26.0729 113.505 26.5507C113.505 26.9982 113.726 27.3726 114.17 27.6754C114.612 27.9783 115.264 28.2613 116.124 28.5262C117.709 29.0101 118.863 29.6128 119.588 30.3311C120.312 31.0479 120.673 31.9428 120.673 33.0127C120.673 34.2043 120.231 35.1372 119.346 35.8145C118.46 36.4917 117.268 36.8296 115.77 36.8296C114.731 36.8296 113.784 36.6363 112.929 36.2497C112.075 35.8616 111.424 35.3305 110.975 34.6563C110.525 33.9836 110.301 33.2029 110.301 32.3141H113.097C113.097 33.8314 113.988 34.5909 115.77 34.5909C116.434 34.5909 116.951 34.4539 117.322 34.18C117.694 33.906 117.879 33.524 117.879 33.0325ZM108.611 34.9029C108.11 35.5131 107.401 35.9879 106.485 36.3243C105.568 36.6621 104.554 36.8296 103.439 36.8296C102.269 36.8296 101.243 36.5708 100.362 36.0504C99.4791 35.5314 98.7977 34.7765 98.3176 33.7888C97.8389 32.7996 97.5922 31.6369 97.5805 30.3022V29.3662C97.5805 27.9935 97.8081 26.8049 98.2633 25.8005C98.717 24.796 99.3734 24.0275 100.231 23.4948C101.088 22.9621 102.093 22.6958 103.244 22.6958C104.847 22.6958 106.101 23.0854 107.006 23.8631C107.909 24.6408 108.445 25.7731 108.611 27.2599H105.9C105.777 26.4716 105.502 25.8963 105.078 25.5311C104.655 25.1658 104.071 24.9832 103.328 24.9832C102.381 24.9832 101.66 25.3454 101.165 26.0698C100.668 26.7943 100.419 27.8702 100.411 29.3008V30.1789C100.411 31.6217 100.682 32.7113 101.221 33.4479C101.758 34.1845 102.548 34.5543 103.587 34.5543C104.634 34.5543 105.38 34.3261 105.827 33.8725V31.5014H103.291V29.4149H108.611V34.9029ZM95.4822 36.6408H92.6953L87.2727 27.5902V36.6408H84.4872V22.886H87.2727L92.7041 31.9549V22.886H95.4822V36.6408ZM79.119 36.6408L81.9044 36.6408V22.886H79.119V36.6408ZM77.3555 25.1811H73.2147V36.6408H70.4278V25.1811H66.3429V22.886H77.3555V25.1811ZM64.6161 30.6796H59.2669V34.3641H65.5441V36.6408H56.4815V22.886H65.525V25.1811H59.2669V28.4592H64.6161V30.6796ZM53.9177 30.6796H48.5685V34.3641H54.8472V36.6408H45.7831V22.886H54.8281V25.1811H48.5685V28.4592H53.9177V30.6796ZM32.7647 22.886L36.2373 32.862L39.6924 22.886L43.35 22.886V36.6408H40.5557V32.8803L40.8347 26.3909L37.1844 36.6408H35.2726L31.6326 26.4001L31.9101 32.8803V36.6408H29.1247V22.886H32.7647ZM142.204 10.1509H144.692C145.428 10.1509 145.99 9.97437 146.377 9.62129C146.764 9.26822 146.958 8.76446 146.958 8.11005C146.958 7.43585 146.763 6.89103 146.372 6.47556C145.983 6.06008 145.444 5.8455 144.757 5.83332H142.204V10.1509ZM142.204 12.4459V17.2931H139.417V3.5383H144.692C145.707 3.5383 146.6 3.72703 147.371 4.10446C148.142 4.48189 148.735 5.01911 149.149 5.71461C149.564 6.41164 149.771 7.20301 149.771 8.09179C149.771 9.43866 149.318 10.5025 148.41 11.2801C147.504 12.0578 146.249 12.4459 144.645 12.4459H142.204ZM137.133 3.5383V12.5981C137.133 14.1032 136.671 15.2934 135.744 16.1684C134.819 17.0451 133.555 17.4818 131.952 17.4818C130.373 17.4818 129.119 17.0572 128.191 16.2065C127.262 15.3558 126.789 14.1885 126.77 12.7016V3.5383H129.555V12.6163C129.555 13.5173 129.768 14.1732 130.192 14.5857C130.615 14.9981 131.203 15.2051 131.952 15.2051C133.517 15.2051 134.313 14.3665 134.338 12.6924V3.5383L137.133 3.5383ZM119.341 12.5037H124.569V10.3016H119.341V12.5037ZM109.954 5.83332V15.0164H111.301C112.389 15.0164 113.223 14.6542 113.798 13.9297C114.374 13.2053 114.668 12.1689 114.679 10.8221V10.0946C114.679 8.69597 114.395 7.63676 113.825 6.91538C113.257 6.19401 112.424 5.83332 111.329 5.83332H109.954ZM107.167 17.2931V3.5383H111.329C112.517 3.5383 113.58 3.80922 114.516 4.35405C115.455 4.90041 116.187 5.67353 116.713 6.67949C117.239 7.68394 117.503 8.82535 117.503 10.1037V10.7368C117.503 12.0152 117.245 13.1521 116.728 14.1474C116.211 15.1427 115.481 15.9128 114.541 16.4622C113.599 17.01 112.539 17.287 111.355 17.2931H107.167ZM104.734 17.2931H101.949L96.5262 8.24246V17.2931H93.7408V3.5383L96.5262 3.5383L101.958 12.6072V3.5383H104.734V17.2931ZM84.4446 12.1628H87.8248L86.1259 7.01429L84.4446 12.1628ZM88.5766 14.4578H83.6929L82.7634 17.2931H79.8017L84.8352 3.5383L87.4166 3.5383L92.478 17.2931H89.5149L88.5766 14.4578ZM79.3568 5.83332H75.2146V17.2931H72.4292V5.83332H68.3442V3.5383L79.3568 3.5383V5.83332ZM64.4986 13.6847C64.4986 13.149 64.3136 12.7381 63.9421 12.452C63.5706 12.1644 62.9025 11.8615 61.9364 11.5434C60.9702 11.2254 60.2066 10.9134 59.6428 10.6044C58.1069 9.75978 57.3404 8.62294 57.3404 7.19389C57.3404 6.45121 57.546 5.78765 57.9571 5.20477C58.3697 4.62341 58.96 4.16684 59.7309 3.83963C60.5018 3.51243 61.3666 3.34807 62.3269 3.34807C63.2916 3.34807 64.1521 3.52613 64.9083 3.88225C65.663 4.23837 66.2489 4.7406 66.6674 5.38892C67.0859 6.03877 67.2944 6.77536 67.2944 7.60023H64.5089C64.5089 6.97017 64.3136 6.48012 63.923 6.13161C63.5339 5.78158 62.9862 5.60656 62.2799 5.60656C61.5986 5.60656 61.07 5.75266 60.6927 6.04639C60.3138 6.33859 60.1259 6.72362 60.1259 7.20301C60.1259 7.65045 60.3461 8.02483 60.7896 8.32768C61.2315 8.62902 61.8835 8.91362 62.744 9.17843C64.3283 9.66239 65.4839 10.265 66.2078 10.9819C66.9317 11.7002 67.2944 12.5951 67.2944 13.6649C67.2944 14.8551 66.8524 15.7895 65.967 16.4667C65.0801 17.144 63.8893 17.4818 62.3915 17.4818C61.3505 17.4818 60.4034 17.2885 59.5503 16.9005C58.6957 16.5139 58.0438 15.9828 57.5945 15.3086C57.1466 14.6359 56.9219 13.8537 56.9219 12.9664H59.7177C59.7177 14.4837 60.609 15.2431 62.3915 15.2431C63.0538 15.2431 63.5706 15.1062 63.9421 14.8322C64.3136 14.5583 64.4986 14.1748 64.4986 13.6847ZM45.6583 9.73543L48.4716 3.5383H51.517L47.0796 12.3044V17.2931H44.2472V12.3044L39.8084 3.5383H42.864L45.6583 9.73543ZM33.4842 15.0164H39.4002V17.2931H30.6987V3.5383H33.4842V15.0164ZM25.3319 17.2931H28.1174V3.5383L25.3319 3.5383V17.2931ZM15.8596 12.1628H19.2398L17.5409 7.01429L15.8596 12.1628ZM19.9916 14.4578H15.1078L14.1784 17.2931H11.2167L16.2502 3.5383H18.8316L23.8915 17.2931H20.9298L19.9916 14.4578ZM2.78546 5.83332L2.78546 15.0164H4.13192C5.22144 15.0164 6.05399 14.6542 6.62959 13.9297C7.20518 13.2053 7.50031 12.1689 7.51206 10.8221V10.0946C7.51206 8.69597 7.2272 7.63676 6.65748 6.91538C6.08776 6.19401 5.2552 5.83332 4.15982 5.83332H2.78546ZM0 17.2931L0 3.5383H4.15982C5.34771 3.5383 6.41081 3.80922 7.34909 4.35405C8.28736 4.90041 9.01858 5.67353 9.54571 6.67949C10.0714 7.68394 10.3342 8.82535 10.3342 10.1037V10.7368C10.3342 12.0152 10.0773 13.1521 9.55893 14.1474C9.04207 15.1427 8.31378 15.9128 7.37257 16.4622C6.43136 17.01 5.36975 17.287 4.18773 17.2931H0Z" fill="#153E64"/>
<path fill-rule="evenodd" clip-rule="evenodd" d="M514.893 450.053H513.419C511.791 450.053 510.47 448.69 510.47 447.01C510.47 445.329 511.791 443.966 513.419 443.966H514.893C516.521 443.966 517.842 445.329 517.842 447.01C517.842 448.69 516.521 450.053 514.893 450.053Z" fill="#E18128"/>
<path fill-rule="evenodd" clip-rule="evenodd" d="M491.304 450.053H489.829C488.201 450.053 486.88 448.69 486.88 447.01C486.88 445.329 488.201 443.966 489.829 443.966H491.304C492.931 443.966 494.252 445.329 494.252 447.01C494.252 448.69 492.931 450.053 491.304 450.053Z" fill="#E18128"/>
<path fill-rule="evenodd" clip-rule="evenodd" d="M467.714 450.053H466.239C464.612 450.053 463.29 448.69 463.29 447.01C463.29 445.329 464.612 443.966 466.239 443.966H467.714C469.341 443.966 470.662 445.329 470.662 447.01C470.662 448.69 469.341 450.053 467.714 450.053Z" fill="#E18128"/>
<path fill-rule="evenodd" clip-rule="evenodd" d="M444.124 450.053H442.649C441.022 450.053 439.701 448.69 439.701 447.01C439.701 445.329 441.022 443.966 442.649 443.966H444.124C445.751 443.966 447.072 445.329 447.072 447.01C447.072 448.69 445.751 450.053 444.124 450.053Z" fill="#E18128"/>
<path fill-rule="evenodd" clip-rule="evenodd" d="M396.944 450.053H395.47C393.842 450.053 392.521 448.69 392.521 447.01C392.521 445.329 393.842 443.966 395.47 443.966H396.944C398.572 443.966 399.893 445.329 399.893 447.01C399.893 448.69 398.572 450.053 396.944 450.053Z" fill="#E18128"/>
<path fill-rule="evenodd" clip-rule="evenodd" d="M373.354 450.053H371.88C370.252 450.053 368.931 448.69 368.931 447.01C368.931 445.329 370.252 443.966 371.88 443.966H373.354C374.982 443.966 376.303 445.329 376.303 447.01C376.303 448.69 374.982 450.053 373.354 450.053Z" fill="#E18128"/>
<path fill-rule="evenodd" clip-rule="evenodd" d="M349.764 450.053H348.29C346.662 450.053 345.341 448.69 345.341 447.01C345.341 445.329 346.662 443.966 348.29 443.966H349.764C351.392 443.966 352.713 445.329 352.713 447.01C352.713 448.69 351.392 450.053 349.764 450.053Z" fill="#E18128"/>
<path fill-rule="evenodd" clip-rule="evenodd" d="M326.175 450.053H324.7C323.072 450.053 321.751 448.69 321.751 447.01C321.751 445.329 323.072 443.966 324.7 443.966H326.175C327.802 443.966 329.123 445.329 329.123 447.01C329.123 448.69 327.802 450.053 326.175 450.053Z" fill="#E18128"/>
<path fill-rule="evenodd" clip-rule="evenodd" d="M302.585 450.053H301.111C299.483 450.053 298.162 448.69 298.162 447.01C298.162 445.329 299.483 443.966 301.111 443.966H302.585C304.213 443.966 305.534 445.329 305.534 447.01C305.534 448.69 304.213 450.053 302.585 450.053Z" fill="#E18128"/>
<path fill-rule="evenodd" clip-rule="evenodd" d="M278.995 450.053H277.521C275.893 450.053 274.572 448.69 274.572 447.01C274.572 445.329 275.893 443.966 277.521 443.966H278.995C280.623 443.966 281.944 445.329 281.944 447.01C281.944 448.69 280.623 450.053 278.995 450.053Z" fill="#E18128"/>
<path fill-rule="evenodd" clip-rule="evenodd" d="M255.405 450.053H253.931C252.303 450.053 250.982 448.69 250.982 447.01C250.982 445.329 252.303 443.966 253.931 443.966H255.405C257.033 443.966 258.354 445.329 258.354 447.01C258.354 448.69 257.033 450.053 255.405 450.053Z" fill="#E18128"/>
<path fill-rule="evenodd" clip-rule="evenodd" d="M231.815 450.053H230.341C228.713 450.053 227.392 448.69 227.392 447.01C227.392 445.329 228.713 443.966 230.341 443.966H231.815C233.443 443.966 234.764 445.329 234.764 447.01C234.764 448.69 233.443 450.053 231.815 450.053Z" fill="#E18128"/>
<path fill-rule="evenodd" clip-rule="evenodd" d="M208.225 450.053H206.751C205.123 450.053 203.802 448.69 203.802 447.01C203.802 445.329 205.123 443.966 206.751 443.966H208.225C209.853 443.966 211.174 445.329 211.174 447.01C211.174 448.69 209.853 450.053 208.225 450.053Z" fill="#E18128"/>
<path fill-rule="evenodd" clip-rule="evenodd" d="M184.636 450.053H183.161C181.533 450.053 180.212 448.69 180.212 447.01C180.212 445.329 181.533 443.966 183.161 443.966H184.636C186.263 443.966 187.584 445.329 187.584 447.01C187.584 448.69 186.263 450.053 184.636 450.053Z" fill="#E18128"/>
<path fill-rule="evenodd" clip-rule="evenodd" d="M148.819 431.405L149.894 442.445H29.0545C26.6115 442.445 24.6314 444.489 24.6314 447.01C24.6314 449.532 26.6115 451.576 29.0545 451.576H150.784H164.696H180.896L148.819 431.405Z" fill="#153E64"/>
<path fill-rule="evenodd" clip-rule="evenodd" d="M658.569 430.694L659.185 442.355H522.244C520.843 442.355 519.707 444.514 519.707 447.178C519.707 449.841 520.843 452 522.244 452H659.696H664.293H676.967L658.569 430.694Z" fill="#153E64"/>
<path d="M43.4615 426.757V429.997H41.1597V420.449H44.9698C45.6999 420.449 46.3447 420.584 46.9043 420.855C47.4683 421.122 47.9033 421.504 48.2093 422.003C48.5197 422.497 48.6749 423.059 48.6749 423.688C48.6749 424.619 48.3405 425.365 47.6716 425.924C47.0071 426.48 46.0933 426.757 44.9304 426.757H43.4615ZM43.4615 424.98H44.9698C45.4157 424.98 45.7545 424.869 45.9862 424.646C46.2223 424.423 46.3404 424.108 46.3404 423.701C46.3404 423.255 46.2201 422.899 45.9797 422.632C45.7392 422.366 45.4113 422.23 44.996 422.226H43.4615V424.98ZM52.2096 428.226H56.2165V429.997H49.9078V420.449H52.2096V428.226ZM62.7415 428.213H59.5872L59.0363 429.997H56.5771L60.079 420.449H62.2431L65.7712 429.997H63.2989L62.7415 428.213ZM60.1381 426.436H62.1907L61.1611 423.124L60.1381 426.436ZM74.4473 429.997H72.1586L68.7747 424.055V429.997H66.4729V420.449H68.7747L72.152 426.39V420.449H74.4473V429.997ZM83.8774 429.997H81.5888L78.2049 424.055V429.997H75.9031V420.449H78.2049L81.5822 426.39V420.449H83.8774V429.997ZM87.7859 429.997H85.4907V420.449H87.7859V429.997ZM97.3604 429.997H95.0717L91.6878 424.055V429.997H89.386V420.449H91.6878L95.0651 426.39V420.449H97.3604V429.997ZM106.633 428.816C106.279 429.21 105.761 429.527 105.079 429.767C104.397 430.008 103.649 430.128 102.836 430.128C101.586 430.128 100.587 429.745 99.8392 428.98C99.0916 428.215 98.6916 427.151 98.6392 425.787L98.6326 424.96C98.6326 424.02 98.7987 423.201 99.131 422.501C99.4633 421.797 99.9376 421.257 100.554 420.881C101.175 420.501 101.892 420.311 102.705 420.311C103.894 420.311 104.817 420.584 105.472 421.131C106.133 421.673 106.517 422.484 106.627 423.563H104.41C104.331 423.03 104.161 422.65 103.899 422.422C103.636 422.195 103.265 422.081 102.784 422.081C102.207 422.081 101.761 422.326 101.446 422.816C101.131 423.306 100.972 424.005 100.967 424.914V425.491C100.967 426.445 101.129 427.162 101.452 427.642C101.78 428.119 102.294 428.357 102.994 428.357C103.593 428.357 104.038 428.224 104.331 427.957V426.475H102.731V424.895H106.633V428.816Z" fill="#153E64"/>
<path d="M551.187 405.451V408.69H548.885V399.142H552.695C553.425 399.142 554.07 399.278 554.629 399.549C555.193 399.815 555.628 400.198 555.934 400.696C556.245 401.19 556.4 401.752 556.4 402.382C556.4 403.313 556.066 404.058 555.397 404.618C554.732 405.173 553.818 405.451 552.656 405.451H551.187ZM551.187 403.674H552.695C553.141 403.674 553.48 403.562 553.711 403.339C553.947 403.116 554.066 402.801 554.066 402.395C554.066 401.949 553.945 401.593 553.705 401.326C553.464 401.059 553.136 400.924 552.721 400.919H551.187V403.674ZM561.823 403.595L561.096 403.542C560.4 403.542 559.954 403.761 559.758 404.198V408.69H557.548V401.595H559.62L559.692 402.506C560.064 401.811 560.582 401.464 561.246 401.464C561.482 401.464 561.688 401.49 561.863 401.542L561.823 403.595ZM562.105 405.077C562.105 404.369 562.243 403.739 562.519 403.188C562.794 402.633 563.19 402.207 563.706 401.91C564.221 401.612 564.827 401.464 565.522 401.464C566.584 401.464 567.422 401.794 568.034 402.454C568.646 403.11 568.952 404.004 568.952 405.136V405.215C568.952 406.321 568.644 407.2 568.027 407.851C567.415 408.498 566.584 408.822 565.535 408.822C564.525 408.822 563.714 408.52 563.102 407.917C562.49 407.309 562.16 406.487 562.112 405.451L562.105 405.077ZM564.315 405.215C564.315 405.87 564.418 406.351 564.624 406.657C564.829 406.963 565.133 407.116 565.535 407.116C566.322 407.116 566.724 406.511 566.742 405.3V405.077C566.742 403.805 566.335 403.169 565.522 403.169C564.783 403.169 564.383 403.717 564.322 404.815L564.315 405.215ZM569.647 405.09C569.647 403.967 569.89 403.081 570.375 402.434C570.86 401.787 571.538 401.464 572.408 401.464C573.042 401.464 573.575 401.713 574.008 402.211V398.618H576.224V408.69H574.237L574.126 407.93C573.671 408.524 573.094 408.822 572.395 408.822C571.551 408.822 570.882 408.498 570.388 407.851C569.894 407.204 569.647 406.284 569.647 405.09ZM571.857 405.228C571.857 406.487 572.224 407.116 572.959 407.116C573.448 407.116 573.798 406.911 574.008 406.5V403.798C573.807 403.379 573.461 403.169 572.972 403.169C572.29 403.169 571.92 403.72 571.863 404.821L571.857 405.228ZM581.707 407.923C581.239 408.522 580.607 408.822 579.812 408.822C579.033 408.822 578.443 408.596 578.041 408.146C577.643 407.691 577.444 407.04 577.444 406.192V401.595H579.654V406.205C579.654 406.813 579.949 407.116 580.54 407.116C581.047 407.116 581.407 406.935 581.622 406.572V401.595H583.845V408.69H581.772L581.707 407.923ZM588.061 407.116C588.372 407.116 588.612 407.033 588.783 406.867C588.953 406.697 589.036 406.461 589.032 406.159H591.104C591.104 406.937 590.824 407.576 590.265 408.074C589.71 408.572 588.993 408.822 588.114 408.822C587.082 408.822 586.269 408.498 585.674 407.851C585.08 407.204 584.782 406.308 584.782 405.162V405.07C584.782 404.353 584.914 403.722 585.176 403.175C585.443 402.624 585.825 402.202 586.324 401.91C586.822 401.612 587.412 401.464 588.094 401.464C589.017 401.464 589.749 401.719 590.291 402.231C590.833 402.742 591.104 403.435 591.104 404.31H589.032C589.032 403.942 588.942 403.661 588.763 403.464C588.584 403.267 588.343 403.169 588.042 403.169C587.469 403.169 587.135 403.534 587.038 404.264C587.008 404.496 586.992 404.815 586.992 405.221C586.992 405.934 587.078 406.428 587.248 406.703C587.419 406.979 587.69 407.116 588.061 407.116ZM594.613 399.831V401.595H595.78V403.129H594.613V406.375C594.613 406.642 594.661 406.828 594.757 406.933C594.853 407.038 595.043 407.09 595.327 407.09C595.546 407.09 595.73 407.077 595.878 407.051V408.631C595.48 408.758 595.065 408.822 594.632 408.822C593.872 408.822 593.31 408.642 592.947 408.284C592.584 407.925 592.403 407.381 592.403 406.651V403.129H591.498V401.595H592.403V399.831H594.613ZM551.337 424.69H549.042V415.142H551.337V424.69ZM554.866 417.595L554.938 418.428C555.427 417.785 556.103 417.464 556.964 417.464C557.703 417.464 558.254 417.684 558.617 418.126C558.984 418.568 559.174 419.232 559.187 420.12V424.69H556.971V420.211C556.971 419.853 556.898 419.591 556.754 419.424C556.61 419.254 556.348 419.169 555.967 419.169C555.534 419.169 555.213 419.339 555.003 419.68V424.69H552.793V417.595H554.866ZM563.417 423.116C563.727 423.116 563.968 423.033 564.138 422.867C564.309 422.697 564.392 422.461 564.388 422.159H566.46C566.46 422.937 566.18 423.576 565.62 424.074C565.065 424.572 564.348 424.822 563.469 424.822C562.438 424.822 561.625 424.498 561.03 423.851C560.435 423.204 560.138 422.308 560.138 421.162V421.07C560.138 420.353 560.269 419.722 560.532 419.175C560.798 418.624 561.181 418.202 561.679 417.91C562.178 417.612 562.768 417.464 563.45 417.464C564.372 417.464 565.105 417.719 565.647 418.231C566.189 418.742 566.46 419.435 566.46 420.31H564.388C564.388 419.942 564.298 419.661 564.119 419.464C563.939 419.267 563.699 419.169 563.397 419.169C562.825 419.169 562.49 419.534 562.394 420.264C562.363 420.496 562.348 420.815 562.348 421.221C562.348 421.934 562.433 422.428 562.604 422.703C562.774 422.979 563.045 423.116 563.417 423.116ZM571.686 419.595L570.959 419.542C570.263 419.542 569.817 419.761 569.621 420.198V424.69H567.411V417.595H569.483L569.555 418.506C569.927 417.811 570.445 417.464 571.109 417.464C571.345 417.464 571.551 417.49 571.726 417.542L571.686 419.595ZM575.785 424.822C574.696 424.822 573.816 424.498 573.142 423.851C572.469 423.2 572.132 422.354 572.132 421.313V421.129C572.132 420.404 572.266 419.763 572.532 419.208C572.803 418.653 573.197 418.224 573.713 417.923C574.229 417.617 574.841 417.464 575.549 417.464C576.546 417.464 577.333 417.774 577.91 418.395C578.487 419.011 578.775 419.873 578.775 420.979V421.838H574.382C574.46 422.236 574.633 422.548 574.9 422.775C575.166 423.003 575.512 423.116 575.936 423.116C576.635 423.116 577.182 422.872 577.575 422.382L578.585 423.576C578.31 423.956 577.919 424.26 577.411 424.487C576.909 424.71 576.367 424.822 575.785 424.822ZM575.536 419.169C574.889 419.169 574.504 419.597 574.382 420.454H576.611V420.283C576.62 419.929 576.53 419.656 576.343 419.464C576.155 419.267 575.886 419.169 575.536 419.169ZM581.759 417.595L581.831 418.428C582.334 417.785 583.01 417.464 583.858 417.464C584.754 417.464 585.36 417.82 585.674 418.533C586.155 417.82 586.85 417.464 587.76 417.464C589.198 417.464 589.937 418.334 589.976 420.074V424.69H587.76V420.211C587.76 419.848 587.699 419.584 587.576 419.418C587.454 419.252 587.231 419.169 586.907 419.169C586.47 419.169 586.144 419.363 585.93 419.752L585.937 419.844V424.69H583.72V420.224C583.72 419.853 583.661 419.584 583.543 419.418C583.425 419.252 583.2 419.169 582.868 419.169C582.443 419.169 582.12 419.363 581.897 419.752V424.69H579.687V417.595H581.759ZM594.672 424.822C593.583 424.822 592.702 424.498 592.029 423.851C591.356 423.2 591.019 422.354 591.019 421.313V421.129C591.019 420.404 591.152 419.763 591.419 419.208C591.69 418.653 592.084 418.224 592.599 417.923C593.115 417.617 593.727 417.464 594.436 417.464C595.432 417.464 596.219 417.774 596.796 418.395C597.374 419.011 597.662 419.873 597.662 420.979V421.838H593.268C593.347 422.236 593.52 422.548 593.786 422.775C594.053 423.003 594.398 423.116 594.823 423.116C595.522 423.116 596.068 422.872 596.462 422.382L597.472 423.576C597.196 423.956 596.805 424.26 596.298 424.487C595.795 424.71 595.253 424.822 594.672 424.822ZM594.422 419.169C593.775 419.169 593.391 419.597 593.268 420.454H595.498V420.283C595.507 419.929 595.417 419.656 595.229 419.464C595.041 419.267 594.772 419.169 594.422 419.169ZM600.587 417.595L600.659 418.428C601.149 417.785 601.824 417.464 602.685 417.464C603.424 417.464 603.975 417.684 604.338 418.126C604.705 418.568 604.895 419.232 604.908 420.12V424.69H602.692V420.211C602.692 419.853 602.62 419.591 602.476 419.424C602.331 419.254 602.069 419.169 601.689 419.169C601.256 419.169 600.934 419.339 600.725 419.68V424.69H598.515V417.595H600.587ZM608.712 415.831V417.595H609.879V419.129H608.712V422.375C608.712 422.642 608.76 422.828 608.856 422.933C608.952 423.038 609.143 423.09 609.427 423.09C609.645 423.09 609.829 423.077 609.978 423.051V424.631C609.58 424.758 609.165 424.822 608.732 424.822C607.971 424.822 607.409 424.642 607.046 424.284C606.683 423.925 606.502 423.381 606.502 422.651V419.129H605.597V417.595H606.502V415.831H608.712Z" fill="#153E64"/>
<path d="M521.214 111.447L520.112 110.068L526.921 107.314L528.023 108.693L521.214 111.447Z" fill="#153E64"/>
<path d="M533.947 116.479L530.11 119.608L535.842 119.15L537.19 121.05L530.311 123.625L529.284 122.177L530.89 121.576L534.278 120.485L528.356 120.869L527.679 119.914L531.548 116.628L528.354 118L526.748 118.601L525.723 117.157L532.602 114.583L533.947 116.479Z" fill="#153E64"/>
<path d="M536.954 129.339L534.595 130.142L533.668 128.634L540.621 126.268L542.156 128.764C542.45 129.243 542.611 129.699 542.64 130.133C542.673 130.568 542.569 130.948 542.33 131.272C542.095 131.598 541.748 131.839 541.29 131.995C540.612 132.226 539.934 132.191 539.257 131.892C538.585 131.594 538.015 131.064 537.546 130.302L536.954 129.339ZM538.249 128.899L538.856 129.887C539.036 130.179 539.254 130.374 539.509 130.47C539.767 130.57 540.044 130.569 540.34 130.468C540.664 130.358 540.875 130.191 540.973 129.967C541.07 129.744 541.037 129.495 540.873 129.222L540.254 128.216L538.249 128.899Z" fill="#153E64"/>
<path d="M541.853 139.897L543.308 142.615L542.007 143.019L539.717 138.741L546.73 136.558L547.566 138.12L541.853 139.897Z" fill="#153E64"/>
<path d="M549.54 151.494L548.372 148.966L546.689 149.444L548.068 152.43L546.758 152.802L544.636 148.209L551.701 146.202L553.828 150.805L552.513 151.178L551.129 148.183L549.639 148.606L550.807 151.134L549.54 151.494Z" fill="#153E64"/>
<path d="M556.917 158.223L552.55 161.012L558.086 161.282L558.918 163.459L551.799 165.266L551.165 163.607L552.827 163.185L556.292 162.481L550.592 162.108L550.175 161.015L554.609 158.065L551.263 159.09L549.6 159.512L548.968 157.858L556.087 156.051L556.917 158.223Z" fill="#153E64"/>
<path d="M557.875 174.048L557.063 171.385L555.355 171.768L556.314 174.914L554.985 175.212L553.509 170.372L560.676 168.765L562.155 173.614L560.821 173.913L559.859 170.757L558.348 171.096L559.16 173.76L557.875 174.048Z" fill="#153E64"/>
<path d="M557.796 186.348L557.397 184.633L561.29 181.217L556.805 182.098L556.403 180.374L563.61 178.958L564.012 180.683L560.118 184.093L564.602 183.213L565.004 184.932L557.796 186.348Z" fill="#153E64"/>
<path d="M565.783 197.059L565.434 194.883L559.539 195.871L559.258 194.123L565.153 193.134L564.81 190.998L566.159 190.772L567.132 196.833L565.783 197.059Z" fill="#153E64"/>
<path d="M562.307 207.516L562.084 205.1L560.686 204.869L560.512 202.985L568.033 204.646L568.186 206.304L561.162 210.027L560.987 208.134L562.307 207.516ZM563.476 205.332L563.621 206.904L566.071 205.761L563.476 205.332Z" fill="#153E64"/>
<path d="M567.478 219.951L567.422 217.747L561.483 218.42L561.438 216.65L567.378 215.977L567.323 213.814L568.681 213.66L568.836 219.797L567.478 219.951Z" fill="#153E64"/>
<path d="M561.383 228.135L561.44 226.37L568.756 225.715L568.698 227.48L561.383 228.135Z" fill="#153E64"/>
<path d="M563.962 240.812C563.247 240.859 562.626 240.769 562.1 240.54C561.573 240.312 561.182 239.963 560.927 239.493C560.676 239.027 560.578 238.482 560.634 237.859C560.689 237.236 560.882 236.674 561.21 236.173C561.542 235.672 561.987 235.268 562.545 234.962C563.102 234.659 563.727 234.478 564.42 234.419L564.833 234.392C565.551 234.345 566.172 234.434 566.695 234.659C567.222 234.887 567.612 235.236 567.867 235.706C568.122 236.178 568.221 236.728 568.165 237.354C568.109 237.974 567.912 238.536 567.573 239.041C567.234 239.547 566.779 239.951 566.208 240.255C565.64 240.562 565.004 240.74 564.299 240.79L563.962 240.812ZM564.43 238.998C565.158 238.951 565.721 238.792 566.118 238.523C566.519 238.257 566.74 237.898 566.781 237.445C566.86 236.561 566.237 236.137 564.913 236.175L564.375 236.205C563.657 236.252 563.094 236.407 562.687 236.671C562.279 236.934 562.055 237.3 562.013 237.769C561.973 238.214 562.132 238.545 562.489 238.761C562.847 238.978 563.381 239.064 564.092 239.021L564.43 238.998Z" fill="#153E64"/>
<path d="M558.786 252.41L559.059 250.671L564.03 247.93L559.463 248.1L559.738 246.351L567.078 246.077L566.803 247.826L561.832 250.563L566.399 250.392L566.125 252.137L558.786 252.41Z" fill="#153E64"/>
<path d="M196.398 45.2848L195.638 45.868L197.183 47.9498L195.778 49.027L191.4 43.1298L193.694 41.3713C194.385 40.8414 195.041 40.5823 195.661 40.5941C196.281 40.6059 196.802 40.8953 197.223 41.4624C197.528 41.8728 197.698 42.2764 197.733 42.6733C197.77 43.0681 197.676 43.4833 197.451 43.9187L200.433 45.3632L200.478 45.424L198.973 46.5779L196.398 45.2848ZM194.823 44.7703L195.712 44.089C195.979 43.8844 196.127 43.6607 196.156 43.418C196.186 43.1706 196.106 42.9199 195.918 42.6661C195.73 42.4123 195.514 42.266 195.272 42.2273C195.027 42.1858 194.773 42.2663 194.509 42.4689L193.62 43.1502L194.823 44.7703Z" fill="#153E64"/>
<path d="M212.83 33.1524L210.47 34.6309L211.378 36.1274L214.165 34.3811L214.872 35.5455L210.584 38.2319L206.774 31.9527L211.07 29.261L211.779 30.4297L208.984 32.1813L209.787 33.5053L212.147 32.0268L212.83 33.1524Z" fill="#153E64"/>
<path d="M226.687 26.555L225.657 21.0896L227.424 20.2026L228.426 27.9172L226.695 28.7861L221.293 23.28L223.047 22.3997L226.687 26.555Z" fill="#153E64"/>
<path d="M243.286 21.1679L241.645 21.8205L239.005 14.9668L240.645 14.3142L243.286 21.1679Z" fill="#153E64"/>
<path d="M257.87 12.7523L255.206 13.5647L255.702 15.2434L258.848 14.2839L259.234 15.5902L254.394 17.0661L252.314 10.0222L257.163 8.54328L257.55 9.85434L254.395 10.8168L254.833 12.302L257.497 11.4897L257.87 12.7523Z" fill="#153E64"/>
<path d="M275.612 8.71343L275.584 4.02657L277.307 3.69048L277.141 11.206L275.338 11.5576L273.596 7.63174L273.427 11.9304L271.63 12.2809L268.732 5.36319L270.46 5.02614L272.141 9.39043L272.277 4.6717L273.752 4.3839L275.612 8.71343Z" fill="#153E64"/>
<path d="M149.083 390.068L149.64 390.594L151.316 389.371L152.346 390.344L147.6 393.807L145.918 392.22C145.411 391.742 145.14 391.277 145.104 390.825C145.068 390.373 145.279 389.98 145.735 389.647C146.065 389.406 146.4 389.264 146.739 389.219C147.075 389.174 147.439 389.222 147.83 389.366L148.852 387.127L148.9 387.092L150.004 388.133L149.083 390.068ZM148.757 391.239L148.105 390.624C147.91 390.439 147.706 390.342 147.496 390.332C147.281 390.322 147.071 390.391 146.867 390.541C146.662 390.69 146.553 390.853 146.537 391.032C146.52 391.211 146.608 391.393 146.801 391.575L147.453 392.19L148.757 391.239Z" fill="#153E64"/>
<path d="M138.789 380.266L140.298 381.905L141.463 381.127L139.681 379.191L140.587 378.586L143.328 381.564L138.441 384.827L135.695 381.843L136.604 381.236L138.392 383.178L139.422 382.49L137.913 380.851L138.789 380.266Z" fill="#153E64"/>
<path d="M128.833 372.004L129.931 373.384L134.014 370.895L134.896 372.003L130.813 374.493L131.891 375.847L130.957 376.417L127.899 372.574L128.833 372.004Z" fill="#153E64"/>
<path d="M125.241 362.546L125.671 363.181L127.487 362.178L128.281 363.35L123.139 366.192L121.842 364.278C121.451 363.701 121.281 363.175 121.331 362.7C121.382 362.225 121.654 361.851 122.149 361.578C122.507 361.38 122.85 361.285 123.179 361.293C123.507 361.299 123.842 361.408 124.186 361.619L125.571 359.457L125.624 359.428L126.475 360.684L125.241 362.546ZM124.714 363.71L124.212 362.968C124.061 362.745 123.886 362.612 123.689 362.569C123.487 362.524 123.275 362.563 123.054 362.685C122.832 362.807 122.698 362.96 122.65 363.142C122.6 363.326 122.649 363.528 122.799 363.749L123.301 364.491L124.714 363.71Z" fill="#153E64"/>
<path d="M116.628 350.035C117.141 349.779 117.648 349.645 118.148 349.633C118.648 349.621 119.102 349.732 119.511 349.966C119.916 350.2 120.242 350.534 120.49 350.969C120.737 351.404 120.855 351.84 120.842 352.279C120.826 352.719 120.681 353.129 120.406 353.509C120.13 353.887 119.746 354.204 119.256 354.461L118.959 354.609C118.444 354.865 117.938 355.001 117.442 355.014C116.942 355.026 116.488 354.915 116.079 354.68C115.669 354.443 115.34 354.106 115.091 353.669C114.844 353.237 114.731 352.798 114.749 352.354C114.768 351.909 114.921 351.495 115.207 351.113C115.489 350.729 115.882 350.41 116.386 350.155L116.628 350.035ZM117.121 351.396C116.598 351.657 116.251 351.94 116.079 352.245C115.902 352.549 115.904 352.859 116.084 353.174C116.435 353.791 117.098 353.88 118.071 353.44L118.46 353.25C118.975 352.994 119.324 352.713 119.506 352.409C119.688 352.105 119.686 351.789 119.5 351.462C119.323 351.151 119.05 350.979 118.683 350.947C118.315 350.914 117.875 351.024 117.363 351.276L117.121 351.396Z" fill="#153E64"/>
<path d="M113.087 340.308C112.898 340.392 112.782 340.525 112.739 340.706C112.695 340.885 112.695 341.166 112.739 341.551C112.783 341.935 112.801 342.256 112.795 342.515C112.778 343.357 112.47 343.911 111.873 344.178C111.576 344.311 111.275 344.342 110.969 344.273C110.659 344.202 110.368 344.038 110.095 343.78C109.82 343.523 109.59 343.198 109.406 342.806C109.226 342.424 109.134 342.051 109.13 341.687C109.124 341.322 109.21 340.998 109.386 340.715C109.56 340.434 109.811 340.221 110.137 340.075L110.738 341.353C110.519 341.451 110.381 341.594 110.324 341.781C110.265 341.967 110.289 342.172 110.396 342.399C110.503 342.628 110.64 342.786 110.806 342.874C110.969 342.96 111.128 342.969 111.286 342.898C111.423 342.837 111.514 342.708 111.558 342.511C111.6 342.316 111.595 342.007 111.543 341.586C111.488 341.165 111.474 340.806 111.5 340.509C111.564 339.785 111.89 339.291 112.477 339.029C112.946 338.819 113.397 338.83 113.829 339.061C114.262 339.292 114.622 339.713 114.909 340.324C115.111 340.755 115.218 341.181 115.228 341.601C115.234 342.019 115.144 342.377 114.957 342.676C114.767 342.973 114.495 343.201 114.141 343.359L113.537 342.073C113.825 341.945 114.003 341.777 114.072 341.569C114.137 341.36 114.092 341.09 113.936 340.759C113.837 340.547 113.713 340.401 113.565 340.32C113.413 340.237 113.254 340.233 113.087 340.308Z" fill="#153E64"/>
<path d="M108.518 330.734L110.371 329.998L110.87 331.323L105.41 333.493L104.583 331.299C104.424 330.878 104.362 330.476 104.395 330.092C104.425 329.707 104.55 329.37 104.768 329.08C104.983 328.789 105.271 328.572 105.631 328.429C106.164 328.217 106.662 328.241 107.128 328.499C107.59 328.755 107.947 329.218 108.199 329.888L108.518 330.734ZM107.502 331.138L107.174 330.269C107.077 330.012 106.94 329.842 106.762 329.76C106.583 329.674 106.378 329.678 106.145 329.77C105.89 329.872 105.713 330.022 105.612 330.221C105.512 330.42 105.506 330.64 105.593 330.88L105.926 331.763L107.502 331.138Z" fill="#153E64"/>
<path d="M103.468 317.197L104.096 319.334L105.417 318.87L104.676 316.345L105.704 315.984L106.844 319.868L101.301 321.816L100.158 317.925L101.19 317.562L101.933 320.094L103.102 319.684L102.474 317.546L103.468 317.197Z" fill="#153E64"/>
<path d="M101.057 305.107C101.452 305.005 101.821 305.007 102.164 305.112C102.505 305.218 102.796 305.424 103.037 305.732C103.278 306.036 103.448 306.417 103.546 306.875C103.708 307.63 103.595 308.298 103.207 308.88C102.819 309.461 102.186 309.887 101.309 310.156L101.031 310.241C100.481 310.41 99.9792 310.46 99.5259 310.391C99.0695 310.321 98.6899 310.136 98.3871 309.836C98.0818 309.538 97.8772 309.146 97.7734 308.662C97.6239 307.965 97.6837 307.349 97.953 306.815C98.2197 306.282 98.6619 305.89 99.2797 305.639L99.5759 307.02C99.2361 307.136 99.0093 307.299 98.8957 307.51C98.782 307.722 98.7616 307.997 98.8344 308.337C98.9083 308.681 99.0885 308.895 99.375 308.978C99.6615 309.062 100.082 309.022 100.637 308.861L101.034 308.739C101.633 308.555 102.045 308.347 102.27 308.116C102.494 307.882 102.565 307.577 102.485 307.2C102.417 306.882 102.291 306.661 102.108 306.538C101.926 306.415 101.674 306.396 101.352 306.484L101.057 305.107Z" fill="#153E64"/>
<path d="M96.4206 293.767L96.6569 295.514L101.285 294.308L101.474 295.712L96.8468 296.918L97.0788 298.634L96.0205 298.909L95.3623 294.042L96.4206 293.767Z" fill="#153E64"/>
<path d="M100.213 283.344L100.311 284.753L94.5739 286.022L94.4763 284.613L100.213 283.344Z" fill="#153E64"/>
<path d="M98.312 273.785L94.0975 273.382L94.0893 271.8L99.8803 272.724L99.8882 274.274L94.1176 277.288L94.1095 275.718L98.312 273.785Z" fill="#153E64"/>
<path d="M97.9128 259.874L97.7705 262.097L99.1575 261.905L99.3257 259.279L100.405 259.129L100.146 263.168L94.3263 263.977L94.5855 259.929L95.6687 259.779L95.5 262.413L96.7272 262.242L96.8696 260.019L97.9128 259.874Z" fill="#153E64"/>
</svg>
