<svg width="467" height="307" viewBox="0 0 467 307" fill="none" xmlns="http://www.w3.org/2000/svg">
<path fill-rule="evenodd" clip-rule="evenodd" d="M53.1854 120.249C46.4922 120.249 40.0267 118.629 33.9683 115.432C18.7511 107.404 9.29802 91.033 9.29802 72.7092C9.29802 65.469 10.7968 58.4751 13.7514 51.9225C21.1729 35.4625 36.3067 32.192 53.2461 32.192C56.2521 32.192 59.9205 33.261 63.51 32.192C62.5033 33.261 63.51 36.3176 63.51 32.192C63.3187 33.1777 64.4238 36.9574 63.51 36.7513C60.7982 36.1349 56.0203 34.9276 53.2461 34.9276C37.6065 34.9276 23.6335 38.3248 16.7819 53.5219C14.054 59.572 12.6699 66.028 12.6699 72.7092C12.6699 89.627 21.398 104.741 35.4468 112.154C41.0399 115.105 47.0081 116.602 53.1854 116.602C66.4882 116.602 78.9414 109.569 86.4969 97.789C87.6442 96 87.7883 95.7063 88.7459 93.5835C89.1531 92.678 90.1621 92.3024 91 92.7437C91.8371 93.185 92.1844 94.2775 91.7756 95.1829C90.7868 97.3769 90.5592 97.8529 89.2669 99.8681C81.0817 112.63 67.5925 120.249 53.1854 120.249Z" fill="#153E64"/>
<path fill-rule="evenodd" clip-rule="evenodd" d="M75.8392 47.8438L60.5912 27.0266L56.8212 40.1595C56.8212 40.1595 61.8411 41.2143 66.7258 43.2382C71.4691 45.2042 75.8392 47.8438 75.8392 47.8438Z" fill="#153E64"/>
<path fill-rule="evenodd" clip-rule="evenodd" d="M320.352 272.457C319.626 271.602 318.356 271.495 317.503 272.227L316.729 272.888C315.875 273.616 315.758 274.902 316.461 275.777C316.467 275.785 316.47 275.792 316.475 275.799C316.878 276.287 317.455 276.539 318.036 276.539C318.497 276.539 318.961 276.38 319.341 276.056L320.125 275.385C320.985 274.649 321.094 273.345 320.369 272.473C320.364 272.467 320.357 272.463 320.352 272.457Z" fill="#E18128"/>
<path fill-rule="evenodd" clip-rule="evenodd" d="M360.949 205.104L360.653 206.081C360.322 207.162 360.909 208.308 361.965 208.657C361.974 208.66 361.981 208.665 361.989 208.667C362.192 208.731 362.395 208.761 362.596 208.761C363.463 208.761 364.265 208.194 364.536 207.309L364.838 206.318C365.168 205.227 364.565 204.071 363.491 203.736C363.482 203.733 363.474 203.733 363.466 203.731C362.405 203.41 361.277 204.02 360.949 205.104Z" fill="#E18128"/>
<path fill-rule="evenodd" clip-rule="evenodd" d="M101.891 227.148L101.446 226.232C100.956 225.213 99.7521 224.79 98.7483 225.274C98.7412 225.277 98.7331 225.278 98.726 225.282C97.7161 225.783 97.2981 227.02 97.7913 228.046L98.249 228.989C98.6049 229.715 99.324 230.136 100.071 230.136C100.376 230.136 100.685 230.066 100.977 229.919C100.983 229.916 100.987 229.911 100.994 229.908C101.985 229.393 102.388 228.164 101.891 227.148Z" fill="#153E64"/>
<path fill-rule="evenodd" clip-rule="evenodd" d="M278.337 31.6145L279.266 31.9916C279.516 32.0929 279.772 32.1404 280.024 32.1404C280.824 32.1404 281.579 31.6569 281.903 30.8614C281.905 30.8552 281.91 30.8511 281.913 30.8438C282.332 29.7849 281.826 28.5823 280.784 28.1567L279.829 27.7703C278.786 27.3509 277.602 27.8726 277.191 28.9346C277.188 28.9419 277.187 28.9501 277.184 28.9574C276.789 30.0142 277.299 31.1992 278.337 31.6145Z" fill="#E18128"/>
<path fill-rule="evenodd" clip-rule="evenodd" d="M95.5857 212.169L95.2491 211.211C94.8789 210.14 93.7266 209.575 92.6699 209.945C92.6648 209.947 92.6597 209.947 92.6547 209.949C91.5959 210.329 91.0397 211.508 91.4129 212.585L91.7597 213.573C92.0587 214.415 92.8408 214.937 93.6727 214.937C93.9025 214.937 94.1354 214.898 94.3642 214.814C94.3724 214.811 94.3785 214.806 94.3856 214.803C95.427 214.406 95.965 213.234 95.5857 212.169Z" fill="#153E64"/>
<path fill-rule="evenodd" clip-rule="evenodd" d="M231.477 21.818L232.479 21.8521C232.504 21.8531 232.53 21.8541 232.555 21.8541C233.637 21.8541 234.533 20.9884 234.584 19.883C234.585 19.8768 234.587 19.8695 234.587 19.8633C234.628 18.7228 233.751 17.7651 232.629 17.7227L231.602 17.6876C230.47 17.6432 229.541 18.5482 229.507 19.6887C229.507 19.698 229.508 19.7073 229.508 19.7156C229.489 20.8448 230.363 21.7829 231.477 21.818Z" fill="#153E64"/>
<path fill-rule="evenodd" clip-rule="evenodd" d="M109.854 241.285L109.309 240.429C108.707 239.475 107.463 239.193 106.52 239.793C106.514 239.797 106.506 239.799 106.5 239.803C105.553 240.419 105.277 241.697 105.883 242.657L106.445 243.542C106.835 244.149 107.486 244.48 108.151 244.48C108.532 244.48 108.917 244.371 109.26 244.145C109.266 244.141 109.27 244.136 109.276 244.132C110.202 243.505 110.463 242.235 109.854 241.285Z" fill="#153E64"/>
<path fill-rule="evenodd" clip-rule="evenodd" d="M339.384 248.502L338.781 249.32C338.11 250.226 338.286 251.51 339.169 252.2C339.175 252.204 339.179 252.209 339.185 252.214C339.551 252.494 339.98 252.629 340.405 252.629C341.023 252.629 341.633 252.344 342.033 251.805L342.648 250.97C343.318 250.055 343.132 248.76 342.231 248.079C342.224 248.073 342.215 248.07 342.207 248.065C341.308 247.404 340.049 247.595 339.384 248.502Z" fill="#E18128"/>
<path fill-rule="evenodd" clip-rule="evenodd" d="M292.876 38.4453L293.758 38.9277C294.067 39.0982 294.399 39.1788 294.727 39.1788C295.441 39.1788 296.13 38.7945 296.502 38.1188C296.506 38.1116 296.512 38.1064 296.516 38.0992C297.053 37.096 296.688 35.8418 295.7 35.2974L294.795 34.8015C293.804 34.2632 292.572 34.6424 292.042 35.6486C292.038 35.6559 292.037 35.6631 292.034 35.6693C291.519 36.6725 291.893 37.9101 292.876 38.4453Z" fill="#E18128"/>
<path fill-rule="evenodd" clip-rule="evenodd" d="M306.56 46.923L307.38 47.5015C307.735 47.7557 308.142 47.8765 308.546 47.8765C309.18 47.8765 309.801 47.5749 310.197 47.016C310.202 47.0087 310.208 47.0056 310.213 46.9984C310.859 46.0645 310.637 44.7762 309.717 44.1201L308.869 43.5189C307.941 42.8711 306.674 43.1087 306.038 44.0489C306.035 44.053 306.034 44.0571 306.032 44.0602C305.405 44.9993 305.64 46.2783 306.56 46.923Z" fill="#E18128"/>
<path fill-rule="evenodd" clip-rule="evenodd" d="M88.2408 180.532L88.1259 179.517C88.0008 178.388 87.0051 177.575 85.8945 177.693C85.8884 177.694 85.8834 177.693 85.8783 177.693C84.7616 177.82 83.9582 178.843 84.0833 179.977L84.2002 181.015C84.3223 182.066 85.2009 182.84 86.218 182.84C86.2973 182.84 86.3777 182.835 86.459 182.825C86.4682 182.824 86.4763 182.82 86.4854 182.819C87.5868 182.673 88.371 181.655 88.2408 180.532Z" fill="#153E64"/>
<path fill-rule="evenodd" clip-rule="evenodd" d="M340.738 80.9778L341.324 81.8126C341.72 82.3797 342.348 82.6825 342.985 82.6825C343.384 82.6825 343.786 82.5595 344.138 82.3126C344.145 82.3074 344.152 82.3064 344.159 82.3012C345.077 81.6411 345.292 80.3507 344.641 79.4199L344.043 78.5696C343.388 77.6419 342.117 77.4291 341.206 78.0944C341.199 78.0996 341.194 78.1068 341.185 78.112C340.292 78.7814 340.088 80.0573 340.738 80.9778Z" fill="#153E64"/>
<path fill-rule="evenodd" clip-rule="evenodd" d="M364.719 189.289L364.536 190.292C364.33 191.406 365.048 192.477 366.139 192.699C366.146 192.7 366.152 192.703 366.159 192.705C366.286 192.729 366.413 192.741 366.537 192.741C367.497 192.741 368.351 192.048 368.535 191.056L368.722 190.028C368.922 188.905 368.189 187.829 367.084 187.626C367.075 187.624 367.068 187.625 367.06 187.624C365.959 187.435 364.918 188.176 364.719 189.289Z" fill="#E18128"/>
<path fill-rule="evenodd" clip-rule="evenodd" d="M130.284 266.32L129.561 265.611C128.76 264.822 127.486 264.836 126.7 265.64C126.695 265.645 126.69 265.648 126.685 265.654C125.901 266.472 125.92 267.781 126.726 268.575L127.467 269.303C127.861 269.687 128.369 269.877 128.875 269.877C129.41 269.877 129.944 269.664 130.344 269.242C130.349 269.235 130.353 269.228 130.359 269.222C131.119 268.396 131.088 267.104 130.284 266.32Z" fill="#153E64"/>
<path fill-rule="evenodd" clip-rule="evenodd" d="M348.191 234.903L347.686 235.781C347.118 236.758 347.436 238.016 348.391 238.6C348.396 238.603 348.4 238.606 348.405 238.609C348.73 238.804 349.086 238.897 349.437 238.897C350.132 238.897 350.811 238.533 351.19 237.879L351.711 236.975C352.274 235.987 351.943 234.724 350.97 234.15C350.963 234.146 350.955 234.144 350.947 234.14C349.982 233.589 348.751 233.922 348.191 234.903Z" fill="#E18128"/>
<path fill-rule="evenodd" clip-rule="evenodd" d="M290.876 290.289L289.978 290.752C288.981 291.262 288.577 292.492 289.07 293.508C289.073 293.514 289.074 293.52 289.076 293.527C289.433 294.248 290.15 294.664 290.895 294.664C291.201 294.664 291.513 294.594 291.807 294.443L292.729 293.969C293.73 293.449 294.124 292.204 293.613 291.188C293.609 291.179 293.603 291.173 293.599 291.165C293.081 290.168 291.871 289.772 290.876 290.289Z" fill="#E18128"/>
<path fill-rule="evenodd" clip-rule="evenodd" d="M155.758 285.999L154.895 285.475C153.941 284.89 152.704 285.198 152.119 286.157C152.114 286.165 152.108 286.17 152.103 286.178C151.523 287.156 151.833 288.425 152.795 289.014L153.676 289.55C154.002 289.747 154.36 289.842 154.715 289.842C155.408 289.842 156.084 289.481 156.464 288.832C156.467 288.826 156.469 288.82 156.472 288.814C157.034 287.835 156.717 286.58 155.758 285.999Z" fill="#E18128"/>
<path fill-rule="evenodd" clip-rule="evenodd" d="M366.672 173.131L366.605 174.15C366.525 175.279 367.357 176.257 368.465 176.351C368.473 176.352 368.481 176.355 368.49 176.356C368.539 176.36 368.588 176.361 368.636 176.361C369.694 176.361 370.587 175.529 370.662 174.44L370.732 173.398C370.804 172.258 369.955 171.276 368.833 171.202C368.826 171.201 368.819 171.203 368.811 171.203C367.694 171.16 366.744 172.001 366.672 173.131Z" fill="#153E64"/>
<path fill-rule="evenodd" clip-rule="evenodd" d="M263.129 26.5227L264.092 26.7872C264.272 26.8378 264.454 26.8616 264.632 26.8616C265.519 26.8616 266.328 26.2665 266.582 25.3605C266.584 25.3543 266.589 25.3491 266.592 25.3419C266.888 24.2416 266.252 23.1042 265.169 22.8025L264.177 22.5298C263.092 22.2364 261.977 22.8903 261.687 23.9937C261.685 24.0009 261.685 24.0092 261.683 24.0164C261.41 25.1115 262.051 26.2304 263.129 26.5227Z" fill="#E18128"/>
<path fill-rule="evenodd" clip-rule="evenodd" d="M142.469 276.898L141.674 276.279C140.79 275.586 139.526 275.748 138.836 276.635C138.831 276.641 138.825 276.645 138.821 276.652C138.133 277.555 138.298 278.853 139.187 279.55L140.006 280.188C140.374 280.472 140.807 280.609 141.236 280.609C141.85 280.609 142.456 280.328 142.856 279.794C142.86 279.788 142.863 279.783 142.867 279.776C143.533 278.869 143.358 277.585 142.469 276.898Z" fill="#153E64"/>
<path fill-rule="evenodd" clip-rule="evenodd" d="M169.976 293.501L169.063 293.081C168.048 292.607 166.852 293.058 166.378 294.082C166.375 294.088 166.371 294.094 166.368 294.1C165.9 295.138 166.351 296.364 167.372 296.838L168.306 297.269C168.578 297.394 168.862 297.452 169.14 297.452C169.916 297.452 170.657 296.998 170.996 296.234C170.999 296.225 171.001 296.216 171.004 296.208C171.448 295.174 170.993 293.966 169.976 293.501Z" fill="#E18128"/>
<path fill-rule="evenodd" clip-rule="evenodd" d="M247.432 23.2402L248.423 23.3911C248.528 23.4076 248.633 23.4158 248.735 23.4158C249.714 23.4158 250.572 22.6958 250.737 21.6874C250.739 21.6792 250.742 21.672 250.743 21.6647C250.915 20.5366 250.153 19.4807 249.043 19.3072L248.021 19.1512C246.912 18.989 245.878 19.7669 245.715 20.8961C245.714 20.9023 245.715 20.9074 245.714 20.9136C245.561 22.0356 246.326 23.076 247.432 23.2402Z" fill="#E18128"/>
<path fill-rule="evenodd" clip-rule="evenodd" d="M119.362 254.398L118.723 253.61C118.015 252.73 116.746 252.599 115.878 253.308C115.872 253.312 115.866 253.314 115.861 253.319C114.992 254.041 114.864 255.344 115.575 256.226L116.23 257.035C116.632 257.528 117.213 257.782 117.797 257.782C118.254 257.782 118.715 257.626 119.094 257.307C119.1 257.302 119.106 257.295 119.112 257.29C119.959 256.558 120.074 255.27 119.362 254.398Z" fill="#153E64"/>
<path fill-rule="evenodd" clip-rule="evenodd" d="M355.411 220.375L355.008 221.305C354.556 222.341 355.01 223.55 356.023 224.02C356.029 224.024 356.035 224.03 356.043 224.033C356.311 224.153 356.591 224.21 356.867 224.21C357.646 224.21 358.391 223.753 358.728 222.981L359.141 222.024C359.589 220.978 359.118 219.761 358.088 219.305C358.082 219.303 358.075 219.302 358.068 219.299C357.043 218.859 355.857 219.335 355.411 220.375Z" fill="#E18128"/>
<path fill-rule="evenodd" clip-rule="evenodd" d="M304.702 282.038L303.863 282.602C302.93 283.225 302.668 284.494 303.272 285.446C303.275 285.451 303.277 285.458 303.281 285.463C303.671 286.068 304.319 286.395 304.981 286.395C305.365 286.395 305.752 286.285 306.097 286.055L306.959 285.476C307.893 284.842 308.145 283.56 307.522 282.611C307.518 282.603 307.512 282.597 307.507 282.59C306.878 281.659 305.629 281.408 304.702 282.038Z" fill="#E18128"/>
<path fill-rule="evenodd" clip-rule="evenodd" d="M329.11 260.999L328.418 261.743C327.65 262.564 327.681 263.859 328.477 264.645C328.483 264.651 328.488 264.658 328.494 264.663C328.886 265.044 329.39 265.232 329.894 265.232C330.432 265.232 330.969 265.016 331.369 264.588L332.073 263.829C332.843 262.998 332.804 261.689 331.984 260.908C331.979 260.903 331.972 260.9 331.968 260.895C331.149 260.13 329.875 260.173 329.11 260.999Z" fill="#E18128"/>
<path fill-rule="evenodd" clip-rule="evenodd" d="M91.0231 196.563L90.7963 195.572C90.5492 194.468 89.4732 193.776 88.387 194.014C88.3789 194.016 88.3698 194.015 88.3616 194.017C87.2663 194.271 86.5808 195.379 86.831 196.491L87.0639 197.513C87.2856 198.464 88.1206 199.104 89.042 199.104C89.1976 199.104 89.3542 199.087 89.5118 199.048C89.5179 199.047 89.522 199.044 89.5281 199.043C90.6112 198.774 91.2804 197.667 91.0231 196.563Z" fill="#153E64"/>
<path fill-rule="evenodd" clip-rule="evenodd" d="M356.317 109.398C356.445 109.709 356.57 110.021 356.694 110.334C357.015 111.138 357.777 111.625 358.582 111.625C358.829 111.625 359.081 111.578 359.325 111.48C359.331 111.478 359.337 111.477 359.343 111.475C360.384 111.047 360.887 109.842 360.466 108.784C360.336 108.458 360.205 108.132 360.073 107.809C359.641 106.755 358.449 106.258 357.413 106.696C357.406 106.7 357.401 106.704 357.395 106.707C356.371 107.152 355.889 108.351 356.317 109.398Z" fill="#153E64"/>
<path fill-rule="evenodd" clip-rule="evenodd" d="M101.496 101.36L101.941 100.446C102.439 99.4318 102.038 98.2034 101.049 97.6869C101.042 97.6827 101.036 97.6786 101.029 97.6745C100.025 97.1641 98.8021 97.5784 98.3007 98.6012L97.8461 99.5351C97.3498 100.56 97.7648 101.798 98.7726 102.302C98.7807 102.306 98.7878 102.307 98.796 102.31C99.0777 102.446 99.3757 102.515 99.6696 102.515C100.42 102.515 101.142 102.09 101.496 101.36Z" fill="#E18128"/>
<path fill-rule="evenodd" clip-rule="evenodd" d="M168.276 34.7032C168.556 34.7032 168.842 34.6433 169.115 34.5183L170.036 34.0968C171.054 33.6339 171.513 32.4262 171.07 31.39C171.067 31.3828 171.066 31.3745 171.062 31.3673C170.603 30.3249 169.402 29.8579 168.375 30.3238L167.434 30.7546C166.411 31.2257 165.958 32.451 166.423 33.4903C166.426 33.4976 166.433 33.5038 166.436 33.512C166.782 34.259 167.511 34.7032 168.276 34.7032Z" fill="#153E64"/>
<path fill-rule="evenodd" clip-rule="evenodd" d="M319.206 56.9246L319.956 57.5951C320.343 57.9453 320.826 58.1168 321.305 58.1168C321.859 58.1168 322.412 57.8864 322.812 57.437C322.816 57.4319 322.823 57.4288 322.828 57.4226C323.573 56.5703 323.498 55.2644 322.658 54.5061L321.882 53.8118C321.037 53.0618 319.749 53.1507 319.013 54.0092C319.008 54.0143 319.005 54.0216 319 54.0267C318.275 54.8873 318.366 56.1787 319.206 56.9246Z" fill="#E18128"/>
<path fill-rule="evenodd" clip-rule="evenodd" d="M361.58 124.765L361.851 125.748C362.1 126.663 362.918 127.263 363.81 127.263C363.982 127.263 364.156 127.238 364.33 127.192C364.338 127.19 364.346 127.191 364.354 127.189C365.436 126.884 366.071 125.746 365.772 124.646L365.495 123.639C365.188 122.542 364.067 121.904 362.983 122.214C362.974 122.216 362.966 122.222 362.957 122.225C361.894 122.546 361.277 123.676 361.58 124.765Z" fill="#153E64"/>
<path fill-rule="evenodd" clip-rule="evenodd" d="M109.364 87.1806L109.909 86.3241C110.519 85.3726 110.257 84.1019 109.327 83.4748C109.322 83.4727 109.32 83.4686 109.315 83.4655C108.374 82.8415 107.113 83.1122 106.501 84.0689L105.941 84.946C105.334 85.9057 105.608 87.1837 106.553 87.8015C106.561 87.8056 106.57 87.8077 106.578 87.8128C106.913 88.0246 107.284 88.13 107.651 88.13C108.32 88.13 108.975 87.7943 109.364 87.1806Z" fill="#E18128"/>
<path fill-rule="evenodd" clip-rule="evenodd" d="M118.774 73.9998L119.41 73.2116C120.122 72.3386 120.005 71.0493 119.155 70.3188C119.15 70.3137 119.146 70.3075 119.14 70.3023C118.274 69.575 116.993 69.6969 116.276 70.5782L115.622 71.386C114.912 72.2694 115.041 73.5711 115.912 74.2932C115.917 74.2984 115.925 74.3015 115.931 74.3067C116.306 74.6094 116.752 74.7592 117.197 74.7592C117.786 74.7592 118.371 74.4998 118.774 73.9998Z" fill="#E18128"/>
<path fill-rule="evenodd" clip-rule="evenodd" d="M215.281 22.2676C215.338 22.2676 215.396 22.2655 215.453 22.2603L216.452 22.1787C217.564 22.093 218.397 21.1115 218.325 19.9844C218.325 19.9761 218.327 19.9689 218.326 19.9617C218.24 18.8232 217.266 17.9647 216.143 18.0587L215.113 18.1424C213.995 18.2374 213.163 19.2364 213.256 20.3739C213.257 20.3801 213.259 20.3863 213.259 20.3925C213.357 21.4618 214.241 22.2676 215.281 22.2676Z" fill="#153E64"/>
<path fill-rule="evenodd" clip-rule="evenodd" d="M153.883 42.4082C154.241 42.4082 154.603 42.3121 154.931 42.1106L155.793 41.5879C156.755 41.0083 157.074 39.75 156.513 38.7706C156.51 38.7664 156.509 38.7613 156.507 38.7561C155.934 37.7747 154.686 37.4513 153.719 38.0319L152.83 38.5722C151.869 39.1611 151.559 40.4308 152.139 41.4081C152.144 41.4164 152.15 41.4215 152.155 41.4288C152.539 42.0579 153.202 42.4082 153.883 42.4082Z" fill="#153E64"/>
<path fill-rule="evenodd" clip-rule="evenodd" d="M330.649 68.3242L331.322 69.0805C331.723 69.5361 332.28 69.7685 332.837 69.7685C333.315 69.7685 333.796 69.596 334.182 69.2499C334.186 69.2468 334.189 69.2447 334.194 69.2416C335.031 68.4792 335.101 67.1734 334.351 66.3231L333.659 65.5452C332.904 64.7011 331.618 64.6381 330.786 65.4057C330.779 65.4119 330.774 65.4181 330.768 65.4243C329.955 66.195 329.9 67.4864 330.649 68.3242Z" fill="#153E64"/>
<path fill-rule="evenodd" clip-rule="evenodd" d="M90.7907 131.971L91.0185 130.98C91.2768 129.877 90.6117 128.773 89.5316 128.499C89.5245 128.497 89.5184 128.493 89.5103 128.491C88.415 128.226 87.3207 128.914 87.0613 130.023L86.8264 131.045C86.5742 132.157 87.2576 133.265 88.3529 133.521C88.3601 133.523 88.3682 133.522 88.3763 133.523C88.5218 133.556 88.6672 133.574 88.8106 133.574C89.7361 133.574 90.5741 132.927 90.7907 131.971Z" fill="#E18128"/>
<path fill-rule="evenodd" clip-rule="evenodd" d="M366.785 156.848L366.832 157.868C366.879 158.978 367.781 159.843 368.862 159.843C368.883 159.843 368.905 159.842 368.927 159.842C368.935 159.841 368.944 159.842 368.953 159.841C370.075 159.792 370.945 158.827 370.896 157.687L370.847 156.643C370.791 155.502 369.834 154.633 368.714 154.682C368.707 154.682 368.699 154.685 368.691 154.685C367.58 154.755 366.728 155.717 366.785 156.848Z" fill="#153E64"/>
<path fill-rule="evenodd" clip-rule="evenodd" d="M129.6 61.9888L130.32 61.2821C131.124 60.4969 131.154 59.2045 130.393 58.3791C130.388 58.3729 130.384 58.3667 130.379 58.3605C129.601 57.5381 128.314 57.5112 127.503 58.2995L126.759 59.031C125.956 59.8275 125.939 61.1354 126.724 61.9526C126.728 61.9567 126.732 61.9588 126.736 61.9629C127.134 62.37 127.655 62.5756 128.18 62.5756C128.692 62.5756 129.204 62.3803 129.6 61.9888Z" fill="#153E64"/>
<path fill-rule="evenodd" clip-rule="evenodd" d="M88.1053 148.021L88.2202 147.006C88.3504 145.879 87.5632 144.859 86.4577 144.717C86.4506 144.716 86.4445 144.713 86.4384 144.712C85.3227 144.579 84.3119 145.389 84.1797 146.522L84.0617 147.561C83.9376 148.695 84.741 149.717 85.8577 149.844C85.8658 149.845 85.875 149.845 85.8841 149.846C85.9523 149.852 86.0194 149.857 86.0865 149.857C87.1086 149.857 87.9883 149.077 88.1053 148.021Z" fill="#E18128"/>
<path fill-rule="evenodd" clip-rule="evenodd" d="M87.2566 164.274L87.2555 163.642V163.258C87.2596 162.125 86.3657 161.205 85.253 161.187C85.2449 161.187 85.2378 161.184 85.2297 161.184C84.0774 161.22 83.1916 162.101 83.1875 163.242V163.642L83.1885 164.294C83.1936 165.431 84.1028 166.35 85.2225 166.35H85.2317C85.2388 166.35 85.2439 166.347 85.25 166.347C86.3646 166.332 87.2616 165.408 87.2566 164.274Z" fill="#153E64"/>
<path fill-rule="evenodd" clip-rule="evenodd" d="M199.183 24.5811C199.315 24.5811 199.45 24.5676 199.586 24.5397L200.566 24.3445C201.663 24.1306 202.381 23.0582 202.182 21.9456C202.18 21.9384 202.181 21.9322 202.18 21.926C201.967 20.804 200.899 20.0684 199.798 20.2864L198.784 20.4889C197.683 20.7131 196.97 21.802 197.191 22.9208C197.192 22.9291 197.196 22.9363 197.197 22.9446C197.4 23.9126 198.241 24.5811 199.183 24.5811Z" fill="#153E64"/>
<path fill-rule="evenodd" clip-rule="evenodd" d="M365.078 140.654L365.236 141.661C365.394 142.68 366.259 143.407 367.243 143.407C367.342 143.407 367.44 143.398 367.54 143.383C367.547 143.382 367.555 143.382 367.561 143.381C368.671 143.204 369.429 142.147 369.255 141.019L369.092 139.986C368.912 138.861 367.864 138.093 366.757 138.282C366.75 138.283 366.743 138.286 366.734 138.287C365.638 138.483 364.897 139.535 365.078 140.654Z" fill="#153E64"/>
<path fill-rule="evenodd" clip-rule="evenodd" d="M183.449 28.735C183.655 28.735 183.866 28.703 184.073 28.6348L185.029 28.3259C186.093 27.986 186.685 26.8414 186.363 25.7607C186.361 25.7514 186.361 25.7432 186.358 25.7349C186.022 24.646 184.882 24.0416 183.809 24.3846L182.825 24.7018C181.756 25.052 181.168 26.2153 181.513 27.3021C181.515 27.3083 181.519 27.3125 181.52 27.3176C181.804 28.1834 182.595 28.735 183.449 28.735Z" fill="#153E64"/>
<path fill-rule="evenodd" clip-rule="evenodd" d="M140.461 51.743C140.896 51.743 141.334 51.6014 141.704 51.3101L142.5 50.6902C143.387 50.0043 143.561 48.7232 142.898 47.8161C142.893 47.8089 142.891 47.8017 142.886 47.7955C142.206 46.8863 140.93 46.7117 140.035 47.4029L139.214 48.0434C138.325 48.7418 138.163 50.0404 138.851 50.9423C138.855 50.9464 138.86 50.9495 138.864 50.9547C139.265 51.4713 139.859 51.743 140.461 51.743Z" fill="#153E64"/>
<path fill-rule="evenodd" clip-rule="evenodd" d="M95.2758 116.351L95.6135 115.396C95.9938 114.332 95.4589 113.159 94.4195 112.76C94.4114 112.757 94.4043 112.752 94.3961 112.749C93.3395 112.36 92.173 112.913 91.7896 113.986L91.4417 114.968C91.0665 116.044 91.6197 117.225 92.6784 117.607C92.6835 117.609 92.6886 117.609 92.6927 117.611C92.9134 117.688 93.1381 117.726 93.3588 117.726C94.1958 117.726 94.9799 117.198 95.2758 116.351Z" fill="#E18128"/>
<path fill-rule="evenodd" clip-rule="evenodd" d="M349.333 94.726L349.819 95.6207C350.188 96.3077 350.886 96.6972 351.606 96.6972C351.928 96.6972 352.255 96.6166 352.558 96.4524C352.565 96.4482 352.572 96.4482 352.578 96.4441C353.565 95.8976 353.929 94.6424 353.39 93.6413L352.89 92.7208C352.344 91.7228 351.108 91.3622 350.124 91.917C350.119 91.9201 350.115 91.9242 350.11 91.9273C349.14 92.4863 348.791 93.7343 349.333 94.726Z" fill="#153E64"/>
<path fill-rule="evenodd" clip-rule="evenodd" d="M111.594 262.163C90.2797 236.509 78.1438 205.234 76.4668 171.533C76.4098 170.394 75.4508 169.525 74.3321 169.573C73.2103 169.631 72.3468 170.602 72.4038 171.742C74.1205 206.245 86.5097 238.272 108.273 264.575L111.498 262.053C111.498 262.053 111.536 262.097 111.594 262.163Z" fill="#153E64"/>
<path fill-rule="evenodd" clip-rule="evenodd" d="M118.522 269.781C114.956 265.973 112.123 262.764 111.594 262.163C111.536 262.098 111.498 262.054 111.498 262.054L108.273 264.576L100.789 270.429L126.03 277.057C126.03 277.057 122.149 273.654 118.522 269.781Z" fill="#153E64"/>
<path fill-rule="evenodd" clip-rule="evenodd" d="M136.883 41.6541C163.001 21.7821 194.037 11.2909 226.821 11.2909L227.989 11.295H228.003C229.12 11.295 230.028 10.3807 230.037 9.24429C230.045 8.10373 229.142 7.17186 228.018 7.16256L226.821 7.15843C193.257 7.15843 161.477 17.8625 134.703 38.1456L136.995 41.5642C136.995 41.5642 136.95 41.5993 136.883 41.6541Z" fill="#153E64"/>
<path fill-rule="evenodd" clip-rule="evenodd" d="M128.993 48.2387C132.946 44.8408 136.266 42.1516 136.883 41.6536C136.95 41.5999 136.995 41.5637 136.995 41.5637L134.704 38.1462L129.387 30.2171L121.406 55.4291C121.406 55.4291 124.977 51.6913 128.993 48.2387Z" fill="#153E64"/>
<path fill-rule="evenodd" clip-rule="evenodd" d="M252.324 13.5618C284.913 19.1685 314.062 35.0908 336.769 59.7295C337.17 60.1644 337.712 60.3835 338.254 60.3835C338.752 60.3835 339.253 60.1996 339.644 59.8256C340.464 59.0456 340.507 57.7387 339.739 56.906C316.497 31.6846 286.679 15.3532 253.343 9.54297L252.483 13.5845C252.483 13.5845 252.422 13.5762 252.324 13.5618Z" fill="#E18128"/>
<mask id="mask0" mask-type="alpha" maskUnits="userSpaceOnUse" x="231" y="0" width="25" height="14">
<path d="M231.849 0.165619H255.337V13.5845H231.849V0.165619Z" fill="white"/>
</mask>
<g mask="url(#mask0)">
<path fill-rule="evenodd" clip-rule="evenodd" d="M252.324 13.5618C252.421 13.5763 252.483 13.5845 252.483 13.5845L253.343 9.54298L255.337 0.165421L231.849 11.6588C231.849 11.6588 236.976 11.7125 242.208 12.2921C247.315 12.8562 251.497 13.444 252.324 13.5618Z" fill="#E18128"/>
</g>
<path fill-rule="evenodd" clip-rule="evenodd" d="M350.303 77.2465C367.754 102.839 376.988 132.762 376.988 163.936C376.988 166.488 376.926 169.076 376.802 171.625C376.746 172.766 377.611 173.735 378.733 173.792C378.766 173.793 378.801 173.794 378.835 173.794C379.911 173.794 380.81 172.935 380.864 171.83C380.992 169.212 381.056 166.556 381.056 163.936C381.056 132.296 371.816 101.901 354.305 75.8208L350.847 78.0027C350.847 78.0027 350.651 77.7279 350.303 77.2465Z" fill="#153E64"/>
<path fill-rule="evenodd" clip-rule="evenodd" d="M337.865 61.5995C337.865 61.5995 341.392 65.3807 344.619 69.602C347.204 72.9833 349.344 75.9194 350.303 77.247C350.651 77.7274 350.848 78.0032 350.848 78.0032L354.305 75.8213L362.327 70.757L337.865 61.5995Z" fill="#153E64"/>
<path fill-rule="evenodd" clip-rule="evenodd" d="M373.676 196.019C373.676 196.019 373.687 195.963 373.701 195.88C366.866 228.723 350.028 257.659 324.882 279.704C324.032 280.45 323.938 281.754 324.671 282.618C325.074 283.092 325.641 283.335 326.212 283.335C326.683 283.335 327.155 283.17 327.54 282.833C353.284 260.262 370.554 230.658 377.617 197.055L373.676 196.019Z" fill="#E18128"/>
<path fill-rule="evenodd" clip-rule="evenodd" d="M377.617 197.055L386.76 199.458L376.405 175.154C376.405 175.154 376.145 180.356 375.364 185.642C374.594 190.853 373.84 195.104 373.701 195.88C373.687 195.963 373.677 196.019 373.677 196.019L377.617 197.055Z" fill="#E18128"/>
<path fill-rule="evenodd" clip-rule="evenodd" d="M77.3779 145.832C81.0849 112.477 95.1155 82.0372 118.066 57.6464C118.842 56.821 118.813 55.513 118.001 54.7248C117.19 53.9365 115.902 53.9665 115.125 54.7909C91.6262 79.7643 77.2294 110.914 73.3688 145.049L77.3891 145.697C77.3891 145.697 77.384 145.75 77.3779 145.832Z" fill="#E18128"/>
<path fill-rule="evenodd" clip-rule="evenodd" d="M76.6414 166.731C76.6414 166.731 76.4096 161.527 76.6882 156.19C76.9639 150.917 77.3137 146.606 77.3778 145.832C77.3839 145.75 77.389 145.697 77.389 145.697L73.3687 145.049L64.0407 143.547L76.6414 166.731Z" fill="#E18128"/>
<path fill-rule="evenodd" clip-rule="evenodd" d="M50.3816 64.081C49.8202 64.081 49.3645 63.6182 49.3645 63.0479V58.2263C49.3645 57.6561 49.8202 57.1932 50.3816 57.1932C50.9429 57.1932 51.3986 57.6561 51.3986 58.2263V63.0479C51.3986 63.6182 50.9429 64.081 50.3816 64.081Z" fill="#060809"/>
<path fill-rule="evenodd" clip-rule="evenodd" d="M64.6196 73.7232H59.8733C59.3119 73.7232 58.8563 73.2604 58.8563 72.6901C58.8563 72.1198 59.3119 71.657 59.8733 71.657H64.6196C65.181 71.657 65.6367 72.1198 65.6367 72.6901C65.6367 73.2604 65.181 73.7232 64.6196 73.7232Z" fill="#060809"/>
<path fill-rule="evenodd" clip-rule="evenodd" d="M50.3816 88.1868C49.8202 88.1868 49.3645 87.7239 49.3645 87.1537V82.3321C49.3645 81.7618 49.8202 81.299 50.3816 81.299C50.9429 81.299 51.3986 81.7618 51.3986 82.3321V87.1537C51.3986 87.7239 50.9429 88.1868 50.3816 88.1868Z" fill="#060809"/>
<path fill-rule="evenodd" clip-rule="evenodd" d="M40.8892 73.7232H36.1428C35.5814 73.7232 35.1258 73.2604 35.1258 72.6901C35.1258 72.1198 35.5814 71.657 36.1428 71.657H40.8892C41.4506 71.657 41.9062 72.1198 41.9062 72.6901C41.9062 73.2604 41.4506 73.7232 40.8892 73.7232Z" fill="#060809"/>
<path fill-rule="evenodd" clip-rule="evenodd" d="M50.3815 59.2596C43.0916 59.2596 37.1604 65.2847 37.1604 72.6901C37.1604 80.0954 43.0916 86.1205 50.3815 86.1205C57.6714 86.1205 63.6026 80.0954 63.6026 72.6901C63.6026 65.2847 57.6714 59.2596 50.3815 59.2596ZM50.3815 88.1867C41.9698 88.1867 35.1264 81.2349 35.1264 72.6901C35.1264 64.1452 41.9698 57.1934 50.3815 57.1934C58.7932 57.1934 65.6366 64.1452 65.6366 72.6901C65.6366 81.2349 58.7932 88.1867 50.3815 88.1867Z" fill="#060809"/>
<path fill-rule="evenodd" clip-rule="evenodd" d="M56.0763 73.7232H50.3811C50.0607 73.7232 49.7597 73.5703 49.5685 73.3099L43.8722 65.5967C43.5356 65.1401 43.6261 64.4923 44.0756 64.1504C44.5272 63.8074 45.1628 63.9014 45.4994 64.357L50.8896 71.657H56.0763C56.6377 71.657 57.0933 72.1198 57.0933 72.6901C57.0933 73.2603 56.6377 73.7232 56.0763 73.7232Z" fill="#060809"/>
<path fill-rule="evenodd" clip-rule="evenodd" d="M267.825 186.946C267.825 190.203 272.716 190.203 272.716 186.946C272.716 183.69 267.825 183.69 267.825 186.946ZM256.073 167.886L260.217 167.439V172.239H264.836V175.839H260.183V183.14C260.183 184.752 261.066 185.541 262.357 185.541C263.002 185.541 263.749 185.335 264.36 185.027L265.516 188.592C264.327 189.073 263.341 189.277 262.084 189.312C258.451 189.449 256.073 187.358 256.073 183.14V175.839H252.949V172.239H256.073V167.886ZM250.809 189.106H246.665V180.261C246.665 177.69 245.272 175.736 242.623 175.736C240.075 175.736 238.343 177.895 238.343 180.467V189.106H234.234V172.171H237.936L238.207 174.467C239.906 172.788 241.604 171.93 243.709 171.93C247.65 171.93 250.809 174.914 250.809 180.227V189.106ZM226.081 167.439C226.081 164.183 230.973 164.183 230.973 167.439C230.973 170.697 226.081 170.697 226.081 167.439ZM226.455 189.106H230.599V172.136H226.455V189.106ZM211.714 172.205H215.552L215.858 174.159C217.149 172.068 218.881 171.759 220.579 171.759C222.311 171.759 223.976 172.445 224.893 173.37L223.024 177.004C222.175 176.285 221.395 175.908 220.036 175.908C217.862 175.908 215.858 177.073 215.858 180.193V189.106H211.714V172.205ZM194.63 196.168H190.486V172.205H194.358L194.63 174.536C195.921 172.65 198.162 171.828 200.064 171.828C205.228 171.828 208.658 175.702 208.658 180.672C208.658 185.61 205.567 189.518 200.201 189.518C198.434 189.518 195.818 188.969 194.63 187.118V196.168ZM199.759 185.472C202.578 185.472 204.514 183.312 204.514 180.672C204.514 178.033 202.748 175.874 199.759 175.874C196.77 175.874 195.004 178.033 195.004 180.672C195.004 183.312 196.94 185.472 199.759 185.472ZM187.056 173.953L184.746 176.696C183.557 175.565 182.199 175.188 180.602 175.188C178.632 175.188 177.546 175.804 177.546 176.867C177.546 177.965 178.53 178.581 180.67 178.719C183.829 178.924 187.837 179.644 187.837 184.135C187.837 187.118 185.425 189.689 180.636 189.689C177.987 189.689 175.338 189.243 172.892 186.672L174.93 183.69C176.119 185.027 178.836 186.021 180.705 186.055C182.267 186.089 183.727 185.267 183.727 184.032C183.727 182.867 182.776 182.386 180.398 182.25C177.24 182.01 173.47 180.844 173.47 177.004C173.47 173.097 177.478 171.725 180.535 171.725C183.149 171.725 185.119 172.239 187.056 173.953ZM270.321 124.193H274.464V138.044L280.103 131.255H285.062V131.496L278.235 139.209L286.014 147.848V148.157H281.021L274.464 140.512V148.157H270.321V124.193ZM254.222 137.735H263.257C262.984 135.541 261.286 134.444 258.908 134.444C256.667 134.444 254.834 135.541 254.222 137.735ZM267.23 141.198H254.155C254.425 143.289 256.226 144.798 259.147 144.798C260.676 144.798 262.678 144.215 263.63 143.22L266.28 145.86C264.513 147.711 261.626 148.602 259.078 148.602C253.306 148.602 249.875 145.003 249.875 139.587C249.875 134.444 253.339 130.742 258.774 130.742C264.377 130.742 267.876 134.238 267.23 141.198ZM234.42 137.735H243.455C243.183 135.541 241.485 134.444 239.108 134.444C236.866 134.444 235.032 135.541 234.42 137.735ZM247.428 141.198H234.353C234.624 143.289 236.424 144.798 239.345 144.798C240.874 144.798 242.878 144.215 243.828 143.22L246.478 145.86C244.711 147.711 241.825 148.602 239.278 148.602C233.503 148.602 230.073 145.003 230.073 139.587C230.073 134.444 233.537 130.742 238.972 130.742C244.577 130.742 248.074 134.238 247.428 141.198ZM211.595 131.221H215.23L218.898 143.941L222.736 131.221H227.322L221.479 148.226H216.657L214.924 143.22L213.43 137.564L211.935 143.22L210.203 148.226H205.38L199.504 131.221H204.123L207.961 143.941L211.595 131.221ZM184.118 138.901H196.65V135.061H184.118V138.901ZM166.49 131.118H162.04C162.075 126.044 166.83 123.85 171.211 123.85C175.966 123.85 181.129 125.805 181.129 131.496C181.129 137.598 176.578 138.764 171.585 138.764C169.615 138.764 166.422 139.278 166.422 141.883V143.941H181.197V148.157H161.939V141.849C161.939 136.329 166.898 134.684 171.585 134.684C173.385 134.684 176.679 134.376 176.679 131.598C176.679 128.993 174.336 127.758 171.279 127.758C168.936 127.758 166.524 128.959 166.49 131.118Z" fill="#E18128"/>
<path fill-rule="evenodd" clip-rule="evenodd" d="M81.312 22.5893C81.312 22.2256 81.1844 21.9467 80.9282 21.7525C80.6719 21.5572 80.21 21.3526 79.5436 21.1367C78.8781 20.9208 78.3504 20.708 77.9615 20.4983C76.9031 19.9249 76.3733 19.1542 76.3733 18.1831C76.3733 17.6789 76.5152 17.2295 76.7988 16.8338C77.0834 16.4381 77.4915 16.1292 78.0223 15.9061C78.554 15.684 79.1516 15.5724 79.813 15.5724C80.4795 15.5724 81.073 15.6943 81.5936 15.936C82.1142 16.1767 82.5194 16.5177 82.808 16.9578C83.0957 17.3989 83.2395 17.899 83.2395 18.4589H81.3181C81.3181 18.0312 81.1844 17.6996 80.915 17.4619C80.6456 17.2243 80.2678 17.1055 79.7806 17.1055C79.3116 17.1055 78.946 17.2057 78.6857 17.4041C78.4254 17.6025 78.2947 17.8649 78.2947 18.1893C78.2947 18.493 78.4477 18.7471 78.7536 18.9527C79.0584 19.1583 79.5081 19.3505 80.1017 19.5302C81.1945 19.8588 81.9906 20.2679 82.491 20.7555C82.9903 21.2421 83.2395 21.8496 83.2395 22.5759C83.2395 23.3848 82.9346 24.0181 82.3239 24.4778C81.7131 24.9376 80.8907 25.1669 79.8576 25.1669C79.1405 25.1669 78.4872 25.0357 77.8977 24.7733C77.3082 24.5098 76.8595 24.1493 76.5496 23.6916C76.2397 23.235 76.0847 22.705 76.0847 22.1017H78.0132C78.0132 23.1317 78.628 23.6472 79.8576 23.6472C80.3154 23.6472 80.6719 23.5542 80.9282 23.3682C81.1844 23.1823 81.312 22.923 81.312 22.5893ZM74.9189 23.859C74.5735 24.2733 74.0843 24.5956 73.4523 24.8239C72.8203 25.0533 72.1204 25.1669 71.3516 25.1669C70.5444 25.1669 69.8364 24.9913 69.2287 24.6379C68.6199 24.2857 68.15 23.7732 67.8188 23.1027C67.4886 22.4312 67.3184 21.6419 67.3103 20.7359V20.1005C67.3103 19.1687 67.4673 18.3618 67.7813 17.6799C68.0943 16.9981 68.547 16.4764 69.1385 16.1148C69.73 15.7532 70.4228 15.5724 71.2169 15.5724C72.3229 15.5724 73.1879 15.8369 73.8118 16.3648C74.4347 16.8927 74.8044 17.6613 74.9189 18.6707H73.0492C72.9641 18.1355 72.7747 17.745 72.482 17.4971C72.1903 17.2491 71.7871 17.1251 71.2746 17.1251C70.6213 17.1251 70.124 17.371 69.7827 17.8628C69.4404 18.3546 69.2682 19.085 69.2631 20.0561V20.6522C69.2631 21.6316 69.4495 22.3713 69.8212 22.8713C70.1919 23.3713 70.7368 23.6224 71.4539 23.6224C72.1761 23.6224 72.6906 23.4674 72.9985 23.1596V21.55H71.2493V20.1336H74.9189V23.859ZM65.8629 25.0388H63.9405L60.2001 18.8949V25.0388H58.2787V15.7015H60.2001L63.9466 21.8578V15.7015H65.8629V25.0388ZM54.5757 25.0388H56.4971V15.7015H54.5757V25.0388ZM53.3592 17.2595H50.503V25.0388H48.5806V17.2595H45.7628V15.7015H53.3592V17.2595ZM44.5717 20.9921L40.8819 20.9921V23.4933L45.2118 23.4933V25.0388L38.9605 25.0388V15.7015H45.1987V17.2595H40.8819V19.4848L44.5717 19.4848V20.9921ZM37.1921 20.9921H33.5022V23.4933H37.8332V25.0388H31.5808V15.7015H37.82V17.2595H33.5022V19.4848H37.1921V20.9921ZM22.6009 15.7015L24.9963 22.4736L27.3795 15.7015H29.9025V25.0388H27.9751V22.486L28.1675 18.0808L25.6496 25.0388H24.3308L21.8199 18.087L22.0114 22.486V25.0388H20.09V15.7015L22.6009 15.7015ZM98.091 7.05643H99.8078C100.315 7.05643 100.703 6.9366 100.97 6.69692C101.237 6.45723 101.371 6.11526 101.371 5.67102C101.371 5.21335 101.236 4.84351 100.966 4.56147C100.698 4.27943 100.326 4.13376 99.8523 4.1255H98.091V7.05643ZM98.091 8.61436V11.9048H96.1686V2.56755L99.8078 2.56755C100.508 2.56755 101.123 2.69567 101.655 2.95188C102.187 3.20809 102.596 3.57278 102.882 4.04491C103.168 4.51808 103.311 5.05529 103.311 5.65863C103.311 6.57294 102.998 7.29508 102.372 7.823C101.747 8.35092 100.881 8.61436 99.7754 8.61436H98.091ZM94.5936 2.56755V8.71768C94.5936 9.73943 94.2746 10.5473 93.6354 11.1414C92.9973 11.7364 92.1253 12.0329 91.0192 12.0329C89.9304 12.0329 89.0654 11.7447 88.4253 11.1672C87.7842 10.5897 87.458 9.79727 87.4449 8.78792V2.56755H89.3663V8.73007C89.3663 9.34167 89.5131 9.78695 89.8058 10.0669C90.0975 10.3469 90.5027 10.4874 91.0192 10.4874C92.0989 10.4874 92.6479 9.91815 92.6651 8.78173V2.56755H94.5936ZM82.3208 8.65363H85.9266V7.15871H82.3208V8.65363ZM75.8456 4.1255V10.3593H76.7744C77.525 10.3593 78.1003 10.1134 78.4973 9.62165C78.8943 9.12989 79.0969 8.42635 79.105 7.51204V7.0182C79.105 6.06877 78.9085 5.34974 78.5155 4.86004C78.1236 4.37035 77.5493 4.1255 76.7937 4.1255H75.8456ZM73.9233 11.9048V2.56755L76.7937 2.56755C77.6131 2.56755 78.3464 2.75146 78.9926 3.12131C79.6398 3.4922 80.1452 4.01702 80.5078 4.69991C80.8704 5.38176 81.0527 6.1566 81.0527 7.02441V7.45419C81.0527 8.322 80.8745 9.09374 80.518 9.76939C80.1614 10.445 79.658 10.9678 79.0098 11.3408C78.3596 11.7127 77.6283 11.9007 76.8119 11.9048H73.9233ZM72.245 11.9048H70.3236L66.5831 5.76091V11.9048H64.6617V2.56755H66.5831L70.3296 8.72387V2.56755H72.245V11.9048ZM58.2493 8.42221H60.5809L59.409 4.92718L58.2493 8.42221ZM61.0995 9.98014H57.7307L57.0896 11.9048H55.0467L58.5187 2.56755H60.2993L63.7907 11.9048H61.7467L61.0995 9.98014ZM54.7398 4.1255L51.8825 4.1255V11.9048H49.9611V4.1255H47.1434V2.56755H54.7398V4.1255ZM44.4907 9.45532C44.4907 9.09167 44.3631 8.81273 44.1068 8.61851C43.8506 8.42325 43.3897 8.21766 42.7233 8.00174C42.0568 7.78582 41.5301 7.57402 41.1412 7.3643C40.0817 6.79092 39.553 6.01919 39.553 5.0491C39.553 4.54494 39.6948 4.0945 39.9784 3.69881C40.263 3.30417 40.6702 2.99423 41.2019 2.77211C41.7337 2.54999 42.3303 2.43842 42.9927 2.43842C43.6581 2.43842 44.2517 2.55929 44.7733 2.80104C45.2939 3.04278 45.698 3.38372 45.9867 3.82382C46.2753 4.26496 46.4192 4.76499 46.4192 5.32494H44.4978C44.4978 4.89723 44.3631 4.56457 44.0936 4.32799C43.8252 4.09037 43.4474 3.97156 42.9603 3.97156C42.4903 3.97156 42.1257 4.07074 41.8654 4.27013C41.604 4.46849 41.4744 4.72986 41.4744 5.05529C41.4744 5.35903 41.6263 5.61317 41.9322 5.81876C42.2371 6.02332 42.6868 6.21652 43.2803 6.39628C44.3732 6.72481 45.1703 7.13392 45.6696 7.62052C46.169 8.10814 46.4192 8.71562 46.4192 9.44189C46.4192 10.2498 46.1143 10.8841 45.5035 11.3439C44.8918 11.8036 44.0703 12.0329 43.0372 12.0329C42.3191 12.0329 41.6658 11.9017 41.0774 11.6383C40.4879 11.3759 40.0382 11.0153 39.7282 10.5577C39.4193 10.101 39.2643 9.57 39.2643 8.9677H41.1928C41.1928 9.99771 41.8076 10.5132 43.0372 10.5132C43.494 10.5132 43.8506 10.4202 44.1068 10.2343C44.3631 10.0483 44.4907 9.78799 44.4907 9.45532ZM31.4947 6.7744L33.4354 2.56755L35.536 2.56755L32.4752 8.51829V11.9048H30.5214V8.51829L27.4595 2.56755H29.5673L31.4947 6.7744ZM23.0972 10.3593H27.1779V11.9048H21.1758V2.56755H23.0972V10.3593ZM17.4738 11.9048H19.3952V2.56755H17.4738V11.9048ZM10.9398 8.42221H13.2714L12.0996 4.92718L10.9398 8.42221ZM13.79 9.98014H10.4213L9.78014 11.9048H7.73719L11.2093 2.56755H12.9899L16.4802 11.9048H14.4372L13.79 9.98014ZM1.92139 4.1255L1.92139 10.3593H2.85017C3.60171 10.3593 4.176 10.1134 4.57304 9.62165C4.97008 9.12989 5.17366 8.42635 5.18177 7.51204V7.0182C5.18177 6.06877 4.98527 5.34974 4.59228 4.86004C4.19929 4.37035 3.625 4.1255 2.86941 4.1255H1.92139ZM0 11.9048L0 2.56755H2.86941C3.68881 2.56755 4.42213 2.75146 5.06935 3.12131C5.71656 3.4922 6.22095 4.01702 6.58456 4.69991C6.94717 5.38176 7.12847 6.1566 7.12847 7.02441V7.45419C7.12847 8.322 6.95122 9.09374 6.59368 9.76939C6.23716 10.445 5.73478 10.9678 5.08554 11.3408C4.4363 11.7127 3.70402 11.9007 2.88867 11.9048H0Z" fill="#153E64"/>
<path fill-rule="evenodd" clip-rule="evenodd" d="M355.17 305.679H354.153C353.03 305.679 352.119 304.753 352.119 303.612C352.119 302.472 353.03 301.546 354.153 301.546H355.17C356.293 301.546 357.204 302.472 357.204 303.612C357.204 304.753 356.293 305.679 355.17 305.679Z" fill="#E18128"/>
<path fill-rule="evenodd" clip-rule="evenodd" d="M338.898 305.679H337.881C336.758 305.679 335.847 304.753 335.847 303.612C335.847 302.472 336.758 301.546 337.881 301.546H338.898C340.02 301.546 340.932 302.472 340.932 303.612C340.932 304.753 340.02 305.679 338.898 305.679Z" fill="#E18128"/>
<path fill-rule="evenodd" clip-rule="evenodd" d="M322.625 305.679H321.608C320.486 305.679 319.574 304.753 319.574 303.612C319.574 302.472 320.486 301.546 321.608 301.546H322.625C323.748 301.546 324.659 302.472 324.659 303.612C324.659 304.753 323.748 305.679 322.625 305.679Z" fill="#E18128"/>
<path fill-rule="evenodd" clip-rule="evenodd" d="M306.353 305.679H305.336C304.214 305.679 303.302 304.753 303.302 303.612C303.302 302.472 304.214 301.546 305.336 301.546H306.353C307.476 301.546 308.387 302.472 308.387 303.612C308.387 304.753 307.476 305.679 306.353 305.679Z" fill="#E18128"/>
<path fill-rule="evenodd" clip-rule="evenodd" d="M290.081 305.679H289.064C287.941 305.679 287.03 304.753 287.03 303.612C287.03 302.472 287.941 301.546 289.064 301.546H290.081C291.204 301.546 292.115 302.472 292.115 303.612C292.115 304.753 291.204 305.679 290.081 305.679Z" fill="#E18128"/>
<path fill-rule="evenodd" clip-rule="evenodd" d="M273.809 305.679H272.792C271.669 305.679 270.758 304.753 270.758 303.612C270.758 302.472 271.669 301.546 272.792 301.546H273.809C274.932 301.546 275.843 302.472 275.843 303.612C275.843 304.753 274.932 305.679 273.809 305.679Z" fill="#E18128"/>
<path fill-rule="evenodd" clip-rule="evenodd" d="M257.537 305.679H256.52C255.397 305.679 254.486 304.753 254.486 303.612C254.486 302.472 255.397 301.546 256.52 301.546H257.537C258.66 301.546 259.571 302.472 259.571 303.612C259.571 304.753 258.66 305.679 257.537 305.679Z" fill="#E18128"/>
<path fill-rule="evenodd" clip-rule="evenodd" d="M241.265 305.679H240.248C239.125 305.679 238.214 304.753 238.214 303.612C238.214 302.472 239.125 301.546 240.248 301.546H241.265C242.388 301.546 243.299 302.472 243.299 303.612C243.299 304.753 242.388 305.679 241.265 305.679Z" fill="#E18128"/>
<path fill-rule="evenodd" clip-rule="evenodd" d="M224.993 305.679H223.976C222.853 305.679 221.942 304.753 221.942 303.612C221.942 302.472 222.853 301.546 223.976 301.546H224.993C226.116 301.546 227.027 302.472 227.027 303.612C227.027 304.753 226.116 305.679 224.993 305.679Z" fill="#E18128"/>
<path fill-rule="evenodd" clip-rule="evenodd" d="M208.721 305.679H207.704C206.581 305.679 205.67 304.753 205.67 303.612C205.67 302.472 206.581 301.546 207.704 301.546H208.721C209.844 301.546 210.755 302.472 210.755 303.612C210.755 304.753 209.844 305.679 208.721 305.679Z" fill="#E18128"/>
<path fill-rule="evenodd" clip-rule="evenodd" d="M192.449 305.679H191.432C190.309 305.679 189.398 304.753 189.398 303.612C189.398 302.472 190.309 301.546 191.432 301.546H192.449C193.572 301.546 194.483 302.472 194.483 303.612C194.483 304.753 193.572 305.679 192.449 305.679Z" fill="#E18128"/>
<path fill-rule="evenodd" clip-rule="evenodd" d="M176.177 305.679H175.16C174.037 305.679 173.126 304.753 173.126 303.612C173.126 302.472 174.037 301.546 175.16 301.546H176.177C177.299 301.546 178.211 302.472 178.211 303.612C178.211 304.753 177.299 305.679 176.177 305.679Z" fill="#E18128"/>
<path fill-rule="evenodd" clip-rule="evenodd" d="M159.904 305.679H158.887C157.765 305.679 156.853 304.753 156.853 303.612C156.853 302.472 157.765 301.546 158.887 301.546H159.904C161.027 301.546 161.939 302.472 161.939 303.612C161.939 304.753 161.027 305.679 159.904 305.679Z" fill="#E18128"/>
<path fill-rule="evenodd" clip-rule="evenodd" d="M143.632 305.679H142.615C141.493 305.679 140.581 304.753 140.581 303.612C140.581 302.472 141.493 301.546 142.615 301.546H143.632C144.755 301.546 145.666 302.472 145.666 303.612C145.666 304.753 144.755 305.679 143.632 305.679Z" fill="#E18128"/>
<path fill-rule="evenodd" clip-rule="evenodd" d="M127.36 305.679H126.343C125.22 305.679 124.309 304.753 124.309 303.612C124.309 302.472 125.22 301.546 126.343 301.546H127.36C128.483 301.546 129.394 302.472 129.394 303.612C129.394 304.753 128.483 305.679 127.36 305.679Z" fill="#E18128"/>
<path fill-rule="evenodd" clip-rule="evenodd" d="M102.654 293.019L103.395 300.514H20.0416C18.3564 300.514 16.9906 301.901 16.9906 303.613C16.9906 305.325 18.3564 306.712 20.0416 306.712H104.01H113.606H124.781L102.654 293.019Z" fill="#153E64"/>
<path fill-rule="evenodd" clip-rule="evenodd" d="M454.276 292.537L454.701 300.453H360.24C359.273 300.453 358.49 301.918 358.49 303.726C358.49 305.535 359.273 307 360.24 307H455.054H458.225H466.967L454.276 292.537Z" fill="#153E64"/>
<path d="M30.9172 292.999V296.239H28.6154V286.69H32.4255C33.1556 286.69 33.8005 286.826 34.3601 287.097C34.9241 287.364 35.3591 287.746 35.6651 288.245C35.9755 288.739 36.1307 289.3 36.1307 289.93C36.1307 290.861 35.7962 291.607 35.1273 292.166C34.4628 292.721 33.5491 292.999 32.3862 292.999H30.9172ZM30.9172 291.222H32.4255C32.8714 291.222 33.2103 291.11 33.442 290.887C33.6781 290.664 33.7961 290.35 33.7961 289.943C33.7961 289.497 33.6759 289.141 33.4354 288.874C33.195 288.607 32.8671 288.472 32.4517 288.467H30.9172V291.222ZM39.6654 294.468H43.6722V296.239H37.3636V286.69H39.6654V294.468ZM50.1973 294.455H47.0429L46.4921 296.239H44.0329L47.5348 286.69H49.6989L53.227 296.239H50.7547L50.1973 294.455ZM47.5938 292.678H49.6464L48.6168 289.366L47.5938 292.678ZM61.903 296.239H59.6143L56.2305 290.297V296.239H53.9287V286.69H56.2305L59.6078 292.632V286.69H61.903V296.239ZM71.3332 296.239H69.0445L65.6607 290.297V296.239H63.3589V286.69H65.6607L69.038 292.632V286.69H71.3332V296.239ZM75.2417 296.239H72.9464V286.69H75.2417V296.239ZM84.8161 296.239H82.5274L79.1436 290.297V296.239H76.8418V286.69H79.1436L82.5209 292.632V286.69H84.8161V296.239ZM94.0889 295.058C93.7348 295.452 93.2167 295.769 92.5347 296.009C91.8527 296.249 91.1051 296.37 90.2919 296.37C89.0416 296.37 88.0426 295.987 87.295 295.222C86.5474 294.457 86.1474 293.392 86.0949 292.028L86.0883 291.202C86.0883 290.262 86.2545 289.442 86.5867 288.743C86.919 288.039 87.3934 287.499 88.0098 287.123C88.6306 286.743 89.3476 286.553 90.1608 286.553C91.3499 286.553 92.2724 286.826 92.9282 287.372C93.5883 287.914 93.9731 288.725 94.0824 289.805H91.8658C91.7871 289.272 91.6166 288.892 91.3543 288.664C91.092 288.437 90.7204 288.323 90.2395 288.323C89.6624 288.323 89.2164 288.568 88.9017 289.058C88.5869 289.547 88.4273 290.247 88.4229 291.156V291.733C88.4229 292.686 88.5847 293.403 88.9082 293.884C89.2361 294.361 89.7498 294.599 90.4493 294.599C91.0483 294.599 91.4942 294.466 91.7871 294.199V292.717H90.187V291.137H94.0889V295.058Z" fill="#153E64"/>
<path d="M381.142 278.535V281.775H378.841V272.227H382.651C383.381 272.227 384.026 272.362 384.585 272.633C385.149 272.9 385.584 273.283 385.89 273.781C386.201 274.275 386.356 274.837 386.356 275.466C386.356 276.398 386.021 277.143 385.353 277.703C384.688 278.258 383.774 278.535 382.611 278.535H381.142ZM381.142 276.758H382.651C383.097 276.758 383.435 276.647 383.667 276.424C383.903 276.201 384.021 275.886 384.021 275.479C384.021 275.034 383.901 274.677 383.661 274.411C383.42 274.144 383.092 274.008 382.677 274.004H381.142V276.758ZM391.779 276.68L391.051 276.627C390.356 276.627 389.91 276.846 389.713 277.283V281.775H387.504V274.679H389.576L389.648 275.591C390.02 274.896 390.538 274.548 391.202 274.548C391.438 274.548 391.644 274.574 391.819 274.627L391.779 276.68ZM392.061 278.162C392.061 277.453 392.199 276.824 392.474 276.273C392.75 275.718 393.145 275.291 393.661 274.994C394.177 274.697 394.783 274.548 395.478 274.548C396.54 274.548 397.377 274.878 397.989 275.538C398.602 276.194 398.908 277.088 398.908 278.221V278.299C398.908 279.405 398.599 280.284 397.983 280.936C397.371 281.583 396.54 281.906 395.491 281.906C394.481 281.906 393.67 281.604 393.058 281.001C392.446 280.393 392.116 279.572 392.068 278.535L392.061 278.162ZM394.271 278.299C394.271 278.955 394.374 279.436 394.579 279.742C394.785 280.048 395.089 280.201 395.491 280.201C396.278 280.201 396.68 279.596 396.698 278.385V278.162C396.698 276.889 396.291 276.253 395.478 276.253C394.739 276.253 394.339 276.802 394.278 277.899L394.271 278.299ZM399.603 278.175C399.603 277.051 399.845 276.166 400.331 275.519C400.816 274.872 401.494 274.548 402.364 274.548C402.998 274.548 403.531 274.797 403.964 275.296V271.702H406.18V281.775H404.193L404.082 281.014C403.627 281.609 403.05 281.906 402.35 281.906C401.507 281.906 400.838 281.583 400.344 280.936C399.85 280.289 399.603 279.368 399.603 278.175ZM401.813 278.312C401.813 279.572 402.18 280.201 402.914 280.201C403.404 280.201 403.754 279.996 403.964 279.585V276.883C403.763 276.463 403.417 276.253 402.928 276.253C402.246 276.253 401.876 276.804 401.819 277.906L401.813 278.312ZM411.663 281.008C411.195 281.607 410.563 281.906 409.767 281.906C408.989 281.906 408.399 281.681 407.997 281.231C407.599 280.776 407.4 280.125 407.4 279.276V274.679H409.61V279.29C409.61 279.897 409.905 280.201 410.495 280.201C411.002 280.201 411.363 280.02 411.577 279.657V274.679H413.8V281.775H411.728L411.663 281.008ZM418.017 280.201C418.328 280.201 418.568 280.118 418.739 279.952C418.909 279.781 418.992 279.545 418.988 279.244H421.06C421.06 280.022 420.78 280.66 420.221 281.159C419.665 281.657 418.948 281.906 418.07 281.906C417.038 281.906 416.225 281.583 415.63 280.936C415.036 280.289 414.738 279.392 414.738 278.247V278.155C414.738 277.438 414.869 276.806 415.132 276.26C415.398 275.709 415.781 275.287 416.279 274.994C416.778 274.697 417.368 274.548 418.05 274.548C418.972 274.548 419.705 274.804 420.247 275.315C420.789 275.827 421.06 276.52 421.06 277.394H418.988C418.988 277.027 418.898 276.745 418.719 276.548C418.54 276.352 418.299 276.253 417.997 276.253C417.425 276.253 417.09 276.618 416.994 277.348C416.964 277.58 416.948 277.899 416.948 278.306C416.948 279.018 417.033 279.513 417.204 279.788C417.374 280.063 417.646 280.201 418.017 280.201ZM424.568 272.915V274.679H425.736V276.214H424.568V279.46C424.568 279.727 424.617 279.913 424.713 280.017C424.809 280.122 424.999 280.175 425.283 280.175C425.502 280.175 425.685 280.162 425.834 280.136V281.716C425.436 281.843 425.021 281.906 424.588 281.906C423.827 281.906 423.266 281.727 422.903 281.368C422.54 281.01 422.358 280.466 422.358 279.735V276.214H421.453V274.679H422.358V272.915H424.568ZM381.293 297.775H378.998V288.227H381.293V297.775ZM384.821 290.679L384.893 291.512C385.383 290.87 386.059 290.548 386.92 290.548C387.659 290.548 388.21 290.769 388.572 291.211C388.94 291.652 389.13 292.317 389.143 293.204V297.775H386.926V293.296C386.926 292.937 386.854 292.675 386.71 292.509C386.566 292.339 386.303 292.253 385.923 292.253C385.49 292.253 385.169 292.424 384.959 292.765V297.775H382.749V290.679H384.821ZM393.373 296.201C393.683 296.201 393.924 296.118 394.094 295.952C394.265 295.781 394.348 295.545 394.343 295.244H396.416C396.416 296.022 396.136 296.66 395.576 297.159C395.021 297.657 394.304 297.906 393.425 297.906C392.393 297.906 391.58 297.583 390.986 296.936C390.391 296.289 390.094 295.392 390.094 294.247V294.155C390.094 293.438 390.225 292.806 390.487 292.26C390.754 291.709 391.137 291.287 391.635 290.994C392.133 290.697 392.724 290.548 393.406 290.548C394.328 290.548 395.06 290.804 395.602 291.315C396.145 291.827 396.416 292.52 396.416 293.394H394.343C394.343 293.027 394.254 292.745 394.074 292.548C393.895 292.352 393.655 292.253 393.353 292.253C392.78 292.253 392.446 292.618 392.35 293.348C392.319 293.58 392.304 293.899 392.304 294.306C392.304 295.018 392.389 295.513 392.56 295.788C392.73 296.063 393.001 296.201 393.373 296.201ZM401.642 292.68L400.914 292.627C400.219 292.627 399.773 292.846 399.576 293.283V297.775H397.367V290.679H399.439L399.511 291.591C399.883 290.896 400.401 290.548 401.065 290.548C401.301 290.548 401.507 290.574 401.682 290.627L401.642 292.68ZM405.741 297.906C404.652 297.906 403.771 297.583 403.098 296.936C402.425 296.284 402.088 295.438 402.088 294.398V294.214C402.088 293.488 402.221 292.848 402.488 292.293C402.759 291.737 403.153 291.309 403.669 291.007C404.184 290.701 404.797 290.548 405.505 290.548C406.502 290.548 407.289 290.859 407.866 291.479C408.443 292.096 408.731 292.957 408.731 294.063V294.922H404.337C404.416 295.32 404.589 295.633 404.856 295.86C405.122 296.087 405.468 296.201 405.892 296.201C406.591 296.201 407.138 295.956 407.531 295.467L408.541 296.66C408.266 297.04 407.874 297.344 407.367 297.572C406.864 297.795 406.322 297.906 405.741 297.906ZM405.492 292.253C404.845 292.253 404.46 292.682 404.337 293.539H406.567V293.368C406.576 293.014 406.486 292.741 406.298 292.548C406.11 292.352 405.841 292.253 405.492 292.253ZM411.715 290.679L411.787 291.512C412.29 290.87 412.965 290.548 413.814 290.548C414.71 290.548 415.315 290.905 415.63 291.617C416.111 290.905 416.806 290.548 417.715 290.548C419.154 290.548 419.893 291.418 419.932 293.158V297.775H417.715V293.296C417.715 292.933 417.654 292.669 417.532 292.502C417.409 292.336 417.186 292.253 416.863 292.253C416.426 292.253 416.1 292.448 415.886 292.837L415.892 292.929V297.775H413.676V293.309C413.676 292.937 413.617 292.669 413.499 292.502C413.381 292.336 413.156 292.253 412.823 292.253C412.399 292.253 412.076 292.448 411.853 292.837V297.775H409.643V290.679H411.715ZM424.627 297.906C423.539 297.906 422.658 297.583 421.985 296.936C421.311 296.284 420.975 295.438 420.975 294.398V294.214C420.975 293.488 421.108 292.848 421.375 292.293C421.646 291.737 422.039 291.309 422.555 291.007C423.071 290.701 423.683 290.548 424.391 290.548C425.388 290.548 426.175 290.859 426.752 291.479C427.329 292.096 427.618 292.957 427.618 294.063V294.922H423.224C423.303 295.32 423.475 295.633 423.742 295.86C424.009 296.087 424.354 296.201 424.778 296.201C425.478 296.201 426.024 295.956 426.418 295.467L427.428 296.66C427.152 297.04 426.761 297.344 426.254 297.572C425.751 297.795 425.209 297.906 424.627 297.906ZM424.378 292.253C423.731 292.253 423.346 292.682 423.224 293.539H425.454V293.368C425.462 293.014 425.373 292.741 425.185 292.548C424.997 292.352 424.728 292.253 424.378 292.253ZM430.543 290.679L430.615 291.512C431.104 290.87 431.78 290.548 432.641 290.548C433.38 290.548 433.931 290.769 434.294 291.211C434.661 291.652 434.851 292.317 434.864 293.204V297.775H432.648V293.296C432.648 292.937 432.576 292.675 432.431 292.509C432.287 292.339 432.025 292.253 431.644 292.253C431.212 292.253 430.89 292.424 430.68 292.765V297.775H428.47V290.679H430.543ZM438.668 288.915V290.679H439.835V292.214H438.668V295.46C438.668 295.727 438.716 295.913 438.812 296.017C438.908 296.122 439.098 296.175 439.383 296.175C439.601 296.175 439.785 296.162 439.933 296.136V297.716C439.536 297.843 439.12 297.906 438.687 297.906C437.927 297.906 437.365 297.727 437.002 297.368C436.639 297.01 436.458 296.466 436.458 295.735V292.214H435.553V290.679H436.458V288.915H438.668Z" fill="#153E64"/>
<path d="M357.121 77.5732L356.008 76.2029L362.832 73.4869L363.946 74.8571L357.121 77.5732Z" fill="#153E64"/>
<path d="M368.072 80.2638L364.235 83.3602L369.986 82.9197L371.349 84.8103L364.457 87.3491L363.418 85.9086L365.028 85.3158L368.423 84.2413L362.48 84.6073L361.796 83.6579L365.664 80.4052L362.465 81.7597L360.855 82.3525L359.82 80.9162L366.712 78.3773L368.072 80.2638Z" fill="#153E64"/>
<path d="M368.563 89.3357L366.2 90.127L365.262 88.6254L372.226 86.293L373.779 88.7786C374.077 89.2549 374.241 89.7087 374.271 90.14C374.306 90.5731 374.205 90.9503 373.966 91.2717C373.732 91.5949 373.385 91.8334 372.926 91.9871C372.247 92.2146 371.567 92.1785 370.886 91.8788C370.21 91.5809 369.635 91.0526 369.161 90.294L368.563 89.3357ZM369.859 88.9015L370.474 89.8855C370.656 90.1765 370.875 90.3703 371.132 90.467C371.391 90.5665 371.669 90.5666 371.965 90.4673C372.29 90.3584 372.501 90.1929 372.598 89.9709C372.694 89.7489 372.66 89.5019 372.494 89.2298L371.868 88.2287L369.859 88.9015Z" fill="#153E64"/>
<path d="M371.551 96.571L373.023 99.2787L371.721 99.6775L369.402 95.4144L376.425 93.2639L377.271 94.8193L371.551 96.571Z" fill="#153E64"/>
<path d="M377.699 105.058L376.516 102.538L374.83 103.009L376.228 105.986L374.916 106.353L372.766 101.773L379.839 99.7959L381.994 104.385L380.677 104.753L379.275 101.767L377.784 102.183L378.967 104.704L377.699 105.058Z" fill="#153E64"/>
<path d="M383.69 108.632L379.326 111.399L384.875 111.684L385.719 113.857L378.593 115.637L377.95 113.981L379.614 113.566L383.083 112.875L377.37 112.486L376.946 111.395L381.377 108.467L378.028 109.479L376.364 109.895L375.723 108.244L382.848 106.464L383.69 108.632Z" fill="#153E64"/>
<path d="M383.213 120.34L382.389 117.68L380.679 118.058L381.653 121.199L380.323 121.493L378.825 116.66L385.997 115.077L387.498 119.919L386.163 120.214L385.187 117.063L383.674 117.397L384.499 120.056L383.213 120.34Z" fill="#153E64"/>
<path d="M382.209 129.341L381.803 127.628L385.69 124.228L381.203 125.096L380.794 123.373L388.006 121.979L388.414 123.702L384.526 127.097L389.013 126.229L389.42 127.947L382.209 129.341Z" fill="#153E64"/>
<path d="M389.367 136.142L389.013 133.966L383.115 134.94L382.83 133.192L388.728 132.219L388.379 130.083L389.728 129.86L390.716 135.919L389.367 136.142Z" fill="#153E64"/>
<path d="M385.364 142.913L385.137 140.497L383.738 140.263L383.562 138.379L391.089 140.056L391.244 141.713L384.222 145.421L384.045 143.527L385.364 142.913ZM386.531 140.732L386.678 142.304L389.128 141.166L386.531 140.732Z" fill="#153E64"/>
<path d="M390.254 151.644L390.197 149.44L384.256 150.103L384.211 148.333L390.152 147.67L390.096 145.507L391.455 145.356L391.612 151.493L390.254 151.644Z" fill="#153E64"/>
<path d="M384.121 156.088L384.179 154.323L391.496 153.679L391.438 155.443L384.121 156.088Z" fill="#153E64"/>
<path d="M386.813 165.934C386.099 165.98 385.478 165.889 384.952 165.66C384.425 165.431 384.035 165.082 383.781 164.612C383.53 164.145 383.433 163.601 383.49 162.978C383.546 162.355 383.739 161.793 384.069 161.292C384.401 160.791 384.847 160.388 385.405 160.082C385.963 159.78 386.588 159.599 387.281 159.541L387.693 159.515C388.412 159.468 389.032 159.558 389.556 159.784C390.082 160.013 390.472 160.362 390.726 160.832C390.98 161.305 391.078 161.854 391.021 162.48C390.965 163.1 390.767 163.662 390.427 164.167C390.088 164.672 389.632 165.076 389.061 165.379C388.492 165.686 387.856 165.863 387.151 165.912L386.813 165.934ZM387.284 164.121C388.012 164.074 388.575 163.916 388.973 163.647C389.375 163.381 389.596 163.022 389.637 162.57C389.718 161.686 389.096 161.262 387.771 161.297L387.233 161.327C386.515 161.374 385.952 161.528 385.544 161.791C385.137 162.054 384.912 162.42 384.869 162.889C384.828 163.334 384.987 163.665 385.344 163.882C385.701 164.098 386.235 164.185 386.947 164.142L387.284 164.121Z" fill="#153E64"/>
<path d="M382.008 173.745L382.285 172.006L387.263 169.268L382.696 169.436L382.975 167.687L390.315 167.418L390.036 169.166L385.059 171.899L389.626 171.732L389.347 173.475L382.008 173.745Z" fill="#153E64"/>
<path d="M137.713 32.1611L136.948 32.7383L138.51 34.8082L137.096 35.8746L132.673 30.0112L134.98 28.2704C135.676 27.7458 136.336 27.4901 136.961 27.5031C137.586 27.5161 138.111 27.8045 138.536 28.3683C138.844 28.7764 139.016 29.1775 139.052 29.5715C139.091 29.9635 138.997 30.3754 138.771 30.8072L141.778 32.2475L141.824 32.3079L140.31 33.4502L137.713 32.1611ZM136.125 31.647L137.019 30.9725C137.287 30.77 137.436 30.5483 137.465 30.3074C137.494 30.0619 137.414 29.8129 137.224 29.5605C137.033 29.3082 136.816 29.1625 136.572 29.1235C136.325 29.0818 136.069 29.1612 135.804 29.3617L134.91 30.0362L136.125 31.647Z" fill="#153E64"/>
<path d="M149.321 23.696L146.951 25.1575L147.87 26.6474L150.669 24.9212L151.384 26.0805L147.078 28.7361L143.223 22.4842L147.538 19.8234L148.256 20.987L145.447 22.7186L146.26 24.0368L148.63 22.5753L149.321 23.696Z" fill="#153E64"/>
<path d="M158.452 20.0103L157.395 14.5682L159.168 13.6925L160.205 21.3724L158.468 22.2303L153.017 16.7306L154.776 15.8616L158.452 20.0103Z" fill="#153E64"/>
<path d="M169.691 17.2351L168.047 17.8788L165.369 11.0394L167.013 10.3958L169.691 17.2351Z" fill="#153E64"/>
<path d="M180.034 10.4781L177.367 11.2786L177.87 12.9552L181.02 12.0097L181.412 13.3142L176.566 14.7687L174.454 7.73395L179.31 6.27654L179.703 7.58589L176.543 8.53429L176.988 10.0176L179.655 9.2171L180.034 10.4781Z" fill="#153E64"/>
<path d="M192.459 8.00233L192.418 3.32047L194.142 2.98953L193.996 10.4965L192.193 10.8426L190.438 6.91621L190.281 11.2097L188.482 11.5549L185.562 4.63662L187.291 4.30473L188.987 8.66896L189.109 3.95572L190.585 3.67233L192.459 8.00233Z" fill="#153E64"/>
<path d="M103.74 263.309L104.302 263.831L105.987 262.621L107.025 263.585L102.252 267.012L100.558 265.439C100.047 264.964 99.7739 264.503 99.7374 264.056C99.7009 263.608 99.9121 263.219 100.371 262.89C100.703 262.651 101.04 262.51 101.38 262.467C101.719 262.421 102.085 262.47 102.479 262.613L103.504 260.396L103.554 260.361L104.665 261.393L103.74 263.309ZM103.414 264.469L102.757 263.859C102.56 263.676 102.356 263.58 102.143 263.57C101.927 263.559 101.716 263.628 101.511 263.776C101.305 263.923 101.195 264.085 101.18 264.262C101.162 264.44 101.251 264.619 101.446 264.801L102.103 265.41L103.414 264.469Z" fill="#153E64"/>
<path d="M96.297 256.412L97.8187 258.039L98.9891 257.27L97.1917 255.348L98.1023 254.75L100.867 257.706L95.9567 260.932L93.1861 257.97L94.1001 257.37L95.903 259.297L96.9385 258.617L95.4167 256.99L96.297 256.412Z" fill="#153E64"/>
<path d="M88.7244 250.931L89.8333 252.303L93.934 249.842L94.8246 250.944L90.724 253.404L91.8125 254.75L90.8747 255.313L87.7867 251.494L88.7244 250.931Z" fill="#153E64"/>
<path d="M87.5454 244.703L87.9802 245.334L89.8025 244.343L90.6057 245.51L85.4438 248.317L84.1326 246.412C83.7374 245.838 83.5644 245.316 83.6135 244.844C83.6626 244.373 83.9353 244.002 84.4316 243.732C84.7909 243.537 85.136 243.444 85.4669 243.453C85.7963 243.459 86.1342 243.568 86.4806 243.779L87.866 241.636L87.9192 241.607L88.7796 242.857L87.5454 244.703ZM87.0195 245.857L86.5114 245.119C86.3589 244.897 86.183 244.764 85.9838 244.72C85.7808 244.675 85.5681 244.713 85.346 244.834C85.1238 244.955 84.989 245.106 84.9415 245.287C84.8917 245.47 84.9423 245.67 85.0933 245.89L85.6013 246.628L87.0195 245.857Z" fill="#153E64"/>
<path d="M81.0385 235.575C81.553 235.323 82.0615 235.191 82.5641 235.181C83.0666 235.171 83.5238 235.283 83.9355 235.517C84.3434 235.751 84.6727 236.084 84.9233 236.517C85.174 236.95 85.2936 237.385 85.2824 237.821C85.2687 238.258 85.1244 238.665 84.8495 239.042C84.5733 239.417 84.189 239.731 83.6969 239.984L83.3998 240.13C82.8829 240.384 82.375 240.516 81.8762 240.528C81.3737 240.538 80.9165 240.426 80.5048 240.191C80.0918 239.955 79.7593 239.618 79.5073 239.183C79.258 238.752 79.1419 238.316 79.1591 237.874C79.1763 237.432 79.3278 237.021 79.6137 236.642C79.8959 236.261 80.2899 235.945 80.7958 235.694L81.0385 235.575ZM81.5391 236.931C81.0149 237.188 80.6668 237.468 80.4946 237.77C80.3187 238.072 80.3217 238.38 80.5036 238.694C80.8594 239.309 81.5256 239.399 82.5023 238.965L82.892 238.778C83.4089 238.525 83.7583 238.247 83.9404 237.945C84.1225 237.644 84.1193 237.33 83.9306 237.004C83.7514 236.694 83.4768 236.522 83.1069 236.489C82.7369 236.455 82.2952 236.563 81.7818 236.811L81.5391 236.931Z" fill="#153E64"/>
<path d="M79.3674 229.37C79.1778 229.453 79.0619 229.585 79.0198 229.765C78.9765 229.943 78.9776 230.223 79.0231 230.605C79.0686 230.988 79.0888 231.308 79.0838 231.565C79.0695 232.403 78.7631 232.954 78.1647 233.217C77.8667 233.348 77.5638 233.378 77.2561 233.308C76.9448 233.236 76.6516 233.072 76.3765 232.814C76.0989 232.557 75.8668 232.233 75.6802 231.842C75.4982 231.461 75.4043 231.089 75.3985 230.728C75.3915 230.363 75.4761 230.041 75.6522 229.761C75.8259 229.482 76.0765 229.27 76.4041 229.126L77.0126 230.401C76.7934 230.497 76.6554 230.639 76.5984 230.825C76.5403 231.01 76.5652 231.215 76.673 231.44C76.782 231.669 76.92 231.827 77.0872 231.915C77.2508 232.002 77.4114 232.01 77.569 231.941C77.7069 231.88 77.7977 231.752 77.8414 231.557C77.8827 231.362 77.8762 231.055 77.8218 230.636C77.765 230.217 77.7494 229.86 77.7748 229.563C77.8362 228.843 78.1612 228.353 78.7498 228.095C79.2202 227.888 79.673 227.9 80.1084 228.132C80.5437 228.363 80.9069 228.784 81.1978 229.393C81.4029 229.823 81.5114 230.247 81.5232 230.664C81.5313 231.081 81.4422 231.437 81.2559 231.734C81.066 232.029 80.7938 232.254 80.4391 232.41L79.8271 231.128C80.1153 231.002 80.2935 230.835 80.3619 230.629C80.4266 230.421 80.3802 230.152 80.2226 229.822C80.1217 229.611 79.9968 229.464 79.8477 229.383C79.695 229.3 79.5349 229.296 79.3674 229.37Z" fill="#153E64"/>
<path d="M76.3857 223.443L78.2424 222.717L78.7491 224.039L73.2767 226.179L72.438 223.99C72.2772 223.57 72.213 223.169 72.2451 222.787C72.2738 222.403 72.3973 222.067 72.6156 221.78C72.8304 221.491 73.1182 221.276 73.479 221.134C74.0127 220.926 74.5135 220.951 74.9815 221.21C75.446 221.467 75.8063 221.93 76.0623 222.598L76.3857 223.443ZM75.3671 223.841L75.0351 222.974C74.9369 222.718 74.7984 222.548 74.6196 222.465C74.4399 222.379 74.2335 222.382 74.0005 222.473C73.7449 222.573 73.5671 222.722 73.4672 222.92C73.3673 223.118 73.3618 223.337 73.4507 223.576L73.7886 224.458L75.3671 223.841Z" fill="#153E64"/>
<path d="M72.6188 213.675L73.2557 215.81L74.5792 215.352L73.8269 212.831L74.8566 212.475L76.0139 216.353L70.4609 218.274L69.3013 214.387L70.3348 214.03L71.0894 216.559L72.2603 216.154L71.6234 214.019L72.6188 213.675Z" fill="#153E64"/>
<path d="M71.1439 205.114C71.5394 205.015 71.9093 205.018 72.2536 205.124C72.5953 205.231 72.8876 205.438 73.1303 205.746C73.3725 206.051 73.5435 206.433 73.6431 206.89C73.8076 207.644 73.6962 208.311 73.3091 208.89C72.922 209.469 72.2892 209.891 71.4109 210.157L71.1328 210.24C70.5816 210.407 70.0787 210.455 69.6242 210.385C69.1666 210.313 68.7856 210.127 68.4813 209.826C68.1745 209.527 67.9683 209.135 67.8629 208.651C67.7111 207.955 67.7694 207.34 68.0377 206.808C68.3035 206.277 68.7456 205.887 69.3641 205.639L69.6648 207.019C69.3246 207.133 69.0978 207.295 68.9845 207.506C68.8712 207.717 68.8515 207.991 68.9254 208.331C69.0004 208.675 69.1816 208.889 69.469 208.973C69.7564 209.058 70.1778 209.02 70.7333 208.861L71.1312 208.741C71.7313 208.56 72.1436 208.354 72.3679 208.124C72.5917 207.891 72.6626 207.587 72.5807 207.211C72.5114 206.893 72.385 206.672 72.2015 206.548C72.018 206.424 71.7654 206.405 71.4438 206.491L71.1439 205.114Z" fill="#153E64"/>
<path d="M67.2584 197.729L67.4984 199.476L72.1307 198.288L72.3236 199.691L67.6913 200.879L67.927 202.595L66.8676 202.866L66.199 198.001L67.2584 197.729Z" fill="#153E64"/>
<path d="M71.5113 191.356L71.6104 192.765L65.8691 194.015L65.7699 192.606L71.5113 191.356Z" fill="#153E64"/>
<path d="M69.7673 184.796L65.5506 184.38L65.5423 182.798L71.3363 183.739L71.3444 185.289L65.571 188.287L65.5628 186.717L69.7673 184.796Z" fill="#153E64"/>
<path d="M69.3195 175.036L69.1748 177.259L70.5623 177.07L70.7331 174.444L71.8127 174.296L71.5498 178.336L65.7281 179.131L65.9915 175.084L67.0751 174.936L66.9037 177.57L68.1312 177.402L68.2759 175.179L69.3195 175.036Z" fill="#153E64"/>
</svg>
