<svg width="1083" height="450" viewBox="0 0 1083 450" fill="none" xmlns="http://www.w3.org/2000/svg">
<g clip-path="url(#clip0)">
<path d="M77.591 390.495L52.772 388.84L61.045 426.069L89.173 414.487L77.591 390.495Z" fill="#C38A8A"/>
<path d="M305.1 321.001L247.189 264.744L214.096 290.391L148.739 368.985L156.185 380.567L235.606 326.792L289.381 397.113L340.674 371.467L305.1 321.001Z" fill="#231E86"/>
<path opacity="0.1" d="M305.1 321.001L247.189 264.744L214.096 290.391L148.739 368.985L156.185 380.567L235.606 326.792L289.381 397.113L340.674 371.467L305.1 321.001Z" fill="#231E86"/>
<path d="M310.064 358.23L302.618 364.021L242.225 343.338L228.161 337.547L200.032 343.338C200.032 343.338 200.032 320.174 226.506 321.001L253.807 327.62L286.072 330.101L310.064 358.23Z" fill="#C48A8A"/>
<path d="M363.839 419.451L345.638 431.033H324.128L224.024 393.804L77.591 420.278L73.454 388.84L207.478 330.102L324.956 368.985L363.839 419.451Z" fill="#231E86"/>
<path d="M246.361 272.19L233.952 274.672L231.248 271.517C229.107 269.019 227.75 265.946 227.348 262.68C226.946 259.415 227.517 256.104 228.988 253.162L263.735 207.66C263.735 207.66 273.663 185.323 289.381 194.423C305.1 203.524 276.144 218.415 276.144 218.415L258.771 245.716L260.426 259.78L246.361 272.19Z" fill="#C48A8A"/>
<path d="M324.956 218.415C342.775 218.415 357.22 203.97 357.22 186.15C357.22 168.331 342.775 153.885 324.956 153.885C307.136 153.885 292.691 168.331 292.691 186.15C292.691 203.97 307.136 218.415 324.956 218.415Z" fill="#C48A8A"/>
<path d="M326.944 173.443C326.944 173.443 319.15 159.732 309.408 171.641C299.666 183.55 283.818 161.666 286.251 156.996C288.683 152.326 297.275 157.206 311.999 152.334C326.723 147.461 355.085 137.535 359.835 169.914C364.585 202.292 353.272 198.898 353.272 198.898C353.272 198.898 348.087 170.207 343.4 178.448L338.713 186.69L334.648 187.702L326.944 173.443Z" fill="#2F2E41"/>
<path d="M310.478 209.728L325.369 245.303L360.943 230.411C360.943 230.411 349.361 202.283 349.361 201.455C349.361 200.628 310.478 209.728 310.478 209.728Z" fill="#C38A8A"/>
<path d="M408.439 314.97C408.439 334.442 405.37 353.793 399.347 372.311L396.931 379.74L385.349 432.688L372.939 435.997L363.839 424.414L345.638 411.178L332.401 389.668L321.051 370.755L317.51 364.848L305.1 302.8L257.944 276.327L242.225 273.845L245.534 264.744L259.598 245.716L273.663 244.062L277.799 240.752L281.108 242.407L294.345 234.961L298.482 236.616L322.672 238.866L337.365 235.789L358.495 224.446L367.148 225.861L396.931 250.68C404.545 271.259 408.441 293.028 408.439 314.97Z" fill="#726708"/>
<path d="M60.3902 403.305C60.3902 403.305 67.8002 390.747 64.6704 389.28C61.5406 387.814 48.2488 381.969 48.2488 381.969L28.7567 375.509C28.7567 375.509 0.63066 333.708 0.0132905 370.059C-0.60408 406.41 20.4925 415.148 20.4925 415.148C20.4925 415.148 39.308 455.641 49.9662 449.184C60.6244 442.727 71.2895 420.808 71.2895 420.808C71.2895 420.808 52.0695 410.476 60.3902 403.305Z" fill="#2F2E41"/>
<path opacity="0.1" d="M399.413 307.764L367.975 328.447L321.051 370.755L317.51 364.848L307.582 315.21H310.064L335.711 268.054L399.413 307.764Z" fill="black"/>
<path d="M335.711 263.09L310.064 310.246H300.964L295.173 326.792L281.936 330.102L317.51 368.985L367.975 323.483L399.413 302.8L335.711 263.09Z" fill="#726708"/>
<path d="M341.088 195.664C344.286 195.664 346.879 193.071 346.879 189.873C346.879 186.675 344.286 184.082 341.088 184.082C337.89 184.082 335.297 186.675 335.297 189.873C335.297 193.071 337.89 195.664 341.088 195.664Z" fill="#C38A8A"/>
<path d="M1026.23 5.36232H766.062V0H648.091V5.36232H386.849C384.538 5.36232 382.25 5.81751 380.114 6.70192C377.979 7.58633 376.039 8.88263 374.405 10.5168C372.771 12.151 371.475 14.091 370.59 16.2262C369.706 18.3613 369.251 20.6497 369.251 22.9608V379.213C369.251 381.524 369.706 383.813 370.59 385.948C371.475 388.083 372.771 390.023 374.405 391.657C376.039 393.291 377.979 394.588 380.114 395.472C382.25 396.356 384.538 396.812 386.849 396.812H1026.23C1030.9 396.812 1035.38 394.957 1038.68 391.657C1041.98 388.357 1043.83 383.88 1043.83 379.213V22.9608C1043.83 20.6497 1043.38 18.3613 1042.49 16.2262C1041.61 14.091 1040.31 12.151 1038.68 10.5168C1037.04 8.88263 1035.1 7.58633 1032.97 6.70192C1030.83 5.81751 1028.54 5.36232 1026.23 5.36232Z" fill="#3F3D56"/>
<path d="M1020.24 36.4638H392.845V390.377H1020.24V36.4638Z" fill="#6C63FF"/>
<path d="M706.5 23C708.433 23 710 21.433 710 19.5C710 17.567 708.433 16 706.5 16C704.567 16 703 17.567 703 19.5C703 21.433 704.567 23 706.5 23Z" fill="#95FF63"/>
<path opacity="0.1" d="M840.813 390.377H392.845V36.464L840.813 390.377Z" fill="black"/>
<path d="M1061.45 383.942H1000.22V379.53C1000.22 379.416 1000.19 379.302 1000.15 379.196C1000.11 379.09 1000.04 378.993 999.961 378.912C999.879 378.831 999.783 378.766 999.677 378.722C999.571 378.678 999.457 378.656 999.342 378.656H978.349C978.234 378.656 978.121 378.678 978.014 378.722C977.908 378.766 977.812 378.831 977.731 378.912C977.649 378.993 977.585 379.09 977.541 379.196C977.497 379.302 977.475 379.416 977.475 379.53V383.942H964.354V379.53C964.354 379.416 964.331 379.302 964.287 379.196C964.243 379.09 964.179 378.993 964.098 378.912C964.016 378.831 963.92 378.766 963.814 378.722C963.708 378.678 963.594 378.656 963.479 378.656H942.486C942.371 378.656 942.258 378.678 942.152 378.722C942.045 378.766 941.949 378.831 941.868 378.912C941.786 378.993 941.722 379.09 941.678 379.196C941.634 379.302 941.612 379.416 941.612 379.53V383.942H928.491V379.53C928.491 379.416 928.468 379.302 928.424 379.196C928.381 379.09 928.316 378.993 928.235 378.912C928.154 378.831 928.057 378.766 927.951 378.722C927.845 378.678 927.731 378.656 927.616 378.656H906.623C906.508 378.656 906.395 378.678 906.289 378.722C906.182 378.766 906.086 378.831 906.005 378.912C905.924 378.993 905.859 379.09 905.815 379.196C905.771 379.302 905.749 379.416 905.749 379.53V383.942H892.628V379.53C892.628 379.416 892.606 379.302 892.562 379.196C892.518 379.09 892.453 378.993 892.372 378.912C892.291 378.831 892.194 378.766 892.088 378.722C891.982 378.678 891.868 378.656 891.753 378.656H870.761C870.646 378.656 870.532 378.678 870.426 378.722C870.32 378.766 870.223 378.831 870.142 378.912C870.061 378.993 869.996 379.09 869.952 379.196C869.908 379.302 869.886 379.416 869.886 379.53V383.942H856.765V379.53C856.765 379.416 856.743 379.302 856.699 379.196C856.655 379.09 856.59 378.993 856.509 378.912C856.428 378.831 856.331 378.766 856.225 378.722C856.119 378.678 856.005 378.656 855.891 378.656H834.898C834.783 378.656 834.669 378.678 834.563 378.722C834.457 378.766 834.36 378.831 834.279 378.912C834.198 378.993 834.133 379.09 834.09 379.196C834.046 379.302 834.023 379.416 834.023 379.53V383.942H820.902V379.53C820.902 379.416 820.88 379.302 820.836 379.196C820.792 379.09 820.727 378.993 820.646 378.912C820.565 378.831 820.469 378.766 820.362 378.722C820.256 378.678 820.143 378.656 820.028 378.656H799.035C798.92 378.656 798.806 378.678 798.7 378.722C798.594 378.766 798.497 378.831 798.416 378.912C798.335 378.993 798.271 379.09 798.227 379.196C798.183 379.302 798.16 379.416 798.16 379.53V383.942H785.04V379.53C785.04 379.416 785.017 379.302 784.973 379.196C784.929 379.09 784.865 378.993 784.783 378.912C784.702 378.831 784.606 378.766 784.5 378.722C784.393 378.678 784.28 378.656 784.165 378.656H619.72C619.605 378.656 619.492 378.678 619.386 378.722C619.279 378.766 619.183 378.831 619.102 378.912C619.021 378.993 618.956 379.09 618.912 379.196C618.868 379.302 618.846 379.416 618.846 379.53V383.942H605.725V379.53C605.725 379.416 605.702 379.302 605.658 379.196C605.615 379.09 605.55 378.993 605.469 378.912C605.388 378.831 605.291 378.766 605.185 378.722C605.079 378.678 604.965 378.656 604.85 378.656H583.858C583.743 378.656 583.629 378.678 583.523 378.722C583.417 378.766 583.32 378.831 583.239 378.912C583.158 378.993 583.093 379.09 583.049 379.196C583.005 379.302 582.983 379.416 582.983 379.53V383.942H569.862V379.53C569.862 379.416 569.84 379.302 569.796 379.196C569.752 379.09 569.687 378.993 569.606 378.912C569.525 378.831 569.428 378.766 569.322 378.722C569.216 378.678 569.102 378.656 568.987 378.656H547.995C547.88 378.656 547.766 378.678 547.66 378.722C547.554 378.766 547.457 378.831 547.376 378.912C547.295 378.993 547.23 379.09 547.186 379.196C547.142 379.302 547.12 379.416 547.12 379.53V383.942H533.999V379.53C533.999 379.416 533.977 379.302 533.933 379.196C533.889 379.09 533.824 378.993 533.743 378.912C533.662 378.831 533.565 378.766 533.459 378.722C533.353 378.678 533.239 378.656 533.125 378.656H512.132C512.017 378.656 511.903 378.678 511.797 378.722C511.691 378.766 511.594 378.831 511.513 378.912C511.432 378.993 511.368 379.09 511.324 379.196C511.28 379.302 511.257 379.416 511.257 379.53V383.942H498.136V379.53C498.136 379.416 498.114 379.302 498.07 379.196C498.026 379.09 497.961 378.993 497.88 378.912C497.799 378.831 497.703 378.766 497.596 378.722C497.49 378.678 497.377 378.656 497.262 378.656H476.269C476.154 378.656 476.04 378.678 475.934 378.722C475.828 378.766 475.732 378.831 475.65 378.912C475.569 378.993 475.505 379.09 475.461 379.196C475.417 379.302 475.394 379.416 475.394 379.53V383.942H462.274V379.53C462.274 379.416 462.251 379.302 462.207 379.196C462.163 379.09 462.099 378.993 462.017 378.912C461.936 378.831 461.84 378.766 461.734 378.722C461.627 378.678 461.514 378.656 461.399 378.656H440.406C440.291 378.656 440.177 378.678 440.071 378.722C439.965 378.766 439.869 378.831 439.787 378.912C439.706 378.993 439.642 379.09 439.598 379.196C439.554 379.302 439.531 379.416 439.531 379.53V383.942H426.411V379.53C426.411 379.416 426.388 379.302 426.344 379.196C426.3 379.09 426.236 378.993 426.154 378.912C426.073 378.831 425.977 378.766 425.871 378.722C425.765 378.678 425.651 378.656 425.536 378.656H404.543C404.428 378.656 404.314 378.678 404.208 378.722C404.102 378.766 404.006 378.831 403.925 378.912C403.843 378.993 403.779 379.09 403.735 379.196C403.691 379.302 403.668 379.416 403.668 379.53V383.942H363.432C357.864 383.942 352.525 386.154 348.588 390.091C344.651 394.028 342.439 399.367 342.439 404.935V414.427C342.439 419.995 344.651 425.335 348.588 429.272C352.525 433.209 357.864 435.42 363.432 435.42H1061.45C1067.01 435.42 1072.35 433.209 1076.29 429.272C1080.23 425.335 1082.44 419.995 1082.44 414.427V404.935C1082.44 399.367 1080.23 394.028 1076.29 390.091C1072.35 386.154 1067.01 383.942 1061.45 383.942Z" fill="#3F3D56"/>
<path d="M453.141 62.4062C453.141 61.9701 453.04 61.6022 452.838 61.3027C452.643 61.0033 452.389 60.7526 452.076 60.5508C451.764 60.3424 451.419 60.1699 451.041 60.0332C450.67 59.8965 450.312 59.7728 449.967 59.6621C449.465 59.4993 448.954 59.304 448.434 59.0762C447.919 58.8483 447.447 58.5684 447.018 58.2363C446.594 57.9043 446.246 57.5137 445.973 57.0645C445.706 56.6087 445.572 56.0749 445.572 55.4629C445.572 54.8509 445.706 54.304 445.973 53.8223C446.246 53.3405 446.601 52.9336 447.037 52.6016C447.473 52.2695 447.968 52.0189 448.521 51.8496C449.075 51.6738 449.632 51.5859 450.191 51.5859C450.81 51.5859 451.406 51.6901 451.979 51.8984C452.551 52.1003 453.059 52.3867 453.502 52.7578C453.945 53.1289 454.299 53.5781 454.566 54.1055C454.833 54.6328 454.973 55.222 454.986 55.873H453.131C453.079 55.4629 452.978 55.0918 452.828 54.7598C452.678 54.4212 452.48 54.1315 452.232 53.8906C451.985 53.6497 451.689 53.4642 451.344 53.334C451.005 53.1973 450.621 53.1289 450.191 53.1289C449.846 53.1289 449.508 53.1777 449.176 53.2754C448.85 53.373 448.557 53.5195 448.297 53.7148C448.043 53.9102 447.838 54.151 447.682 54.4375C447.532 54.724 447.457 55.056 447.457 55.4336C447.464 55.8438 447.568 56.1921 447.77 56.4785C447.971 56.7585 448.225 56.9961 448.531 57.1914C448.844 57.3867 449.179 57.5495 449.537 57.6797C449.902 57.8099 450.243 57.9238 450.562 58.0215C450.914 58.1322 451.269 58.2591 451.627 58.4023C451.985 58.5391 452.33 58.6986 452.662 58.8809C452.994 59.0632 453.303 59.2682 453.59 59.4961C453.876 59.724 454.127 59.9844 454.342 60.2773C454.557 60.5638 454.723 60.8828 454.84 61.2344C454.964 61.5794 455.025 61.9635 455.025 62.3867C455.025 63.0247 454.882 63.5814 454.596 64.0566C454.316 64.5319 453.951 64.929 453.502 65.248C453.053 65.5605 452.545 65.7982 451.979 65.9609C451.412 66.1172 450.846 66.1953 450.279 66.1953C449.648 66.1953 449.029 66.0977 448.424 65.9023C447.818 65.707 447.275 65.4271 446.793 65.0625C446.318 64.6914 445.93 64.2422 445.631 63.7148C445.331 63.181 445.172 62.5755 445.152 61.8984H446.998C447.057 62.3411 447.177 62.735 447.359 63.0801C447.542 63.4186 447.776 63.7083 448.062 63.9492C448.349 64.1836 448.678 64.3626 449.049 64.4863C449.426 64.6035 449.837 64.6621 450.279 64.6621C450.631 64.6621 450.976 64.6198 451.314 64.5352C451.66 64.444 451.965 64.3073 452.232 64.125C452.499 63.9362 452.717 63.7018 452.887 63.4219C453.056 63.1354 453.141 62.7969 453.141 62.4062ZM460.875 61.0684L459.547 62.3477V66H457.73V51H459.547V60.1797L460.729 58.9102L464.195 55.4336H466.393L462.115 59.8379L467.047 66H464.752L460.875 61.0684ZM470.006 55.4336H475.406V64.4375H478.854V66H470.006V64.4375H473.6V57.0059H470.006V55.4336ZM473.365 52.6602C473.365 52.3607 473.453 52.11 473.629 51.9082C473.811 51.6999 474.085 51.5957 474.449 51.5957C474.807 51.5957 475.077 51.6999 475.26 51.9082C475.442 52.11 475.533 52.3607 475.533 52.6602C475.533 52.9531 475.442 53.1973 475.26 53.3926C475.077 53.5879 474.807 53.6855 474.449 53.6855C474.085 53.6855 473.811 53.5879 473.629 53.3926C473.453 53.1973 473.365 52.9531 473.365 52.6602ZM482.018 51H487.418V64.4375H490.865V66H482.018V64.4375H485.611V52.5723H482.018V51ZM494.029 51H499.43V64.4375H502.877V66H494.029V64.4375H497.623V52.5723H494.029V51ZM525.211 62.4062C525.211 61.9701 525.11 61.6022 524.908 61.3027C524.713 61.0033 524.459 60.7526 524.146 60.5508C523.834 60.3424 523.489 60.1699 523.111 60.0332C522.74 59.8965 522.382 59.7728 522.037 59.6621C521.536 59.4993 521.025 59.304 520.504 59.0762C519.99 58.8483 519.518 58.5684 519.088 58.2363C518.665 57.9043 518.316 57.5137 518.043 57.0645C517.776 56.6087 517.643 56.0749 517.643 55.4629C517.643 54.8509 517.776 54.304 518.043 53.8223C518.316 53.3405 518.671 52.9336 519.107 52.6016C519.544 52.2695 520.038 52.0189 520.592 51.8496C521.145 51.6738 521.702 51.5859 522.262 51.5859C522.88 51.5859 523.476 51.6901 524.049 51.8984C524.622 52.1003 525.13 52.3867 525.572 52.7578C526.015 53.1289 526.37 53.5781 526.637 54.1055C526.904 54.6328 527.044 55.222 527.057 55.873H525.201C525.149 55.4629 525.048 55.0918 524.898 54.7598C524.749 54.4212 524.55 54.1315 524.303 53.8906C524.055 53.6497 523.759 53.4642 523.414 53.334C523.076 53.1973 522.691 53.1289 522.262 53.1289C521.917 53.1289 521.578 53.1777 521.246 53.2754C520.921 53.373 520.628 53.5195 520.367 53.7148C520.113 53.9102 519.908 54.151 519.752 54.4375C519.602 54.724 519.527 55.056 519.527 55.4336C519.534 55.8438 519.638 56.1921 519.84 56.4785C520.042 56.7585 520.296 56.9961 520.602 57.1914C520.914 57.3867 521.249 57.5495 521.607 57.6797C521.972 57.8099 522.314 57.9238 522.633 58.0215C522.984 58.1322 523.339 58.2591 523.697 58.4023C524.055 58.5391 524.4 58.6986 524.732 58.8809C525.064 59.0632 525.374 59.2682 525.66 59.4961C525.947 59.724 526.197 59.9844 526.412 60.2773C526.627 60.5638 526.793 60.8828 526.91 61.2344C527.034 61.5794 527.096 61.9635 527.096 62.3867C527.096 63.0247 526.952 63.5814 526.666 64.0566C526.386 64.5319 526.021 64.929 525.572 65.248C525.123 65.5605 524.615 65.7982 524.049 65.9609C523.482 66.1172 522.916 66.1953 522.35 66.1953C521.718 66.1953 521.1 66.0977 520.494 65.9023C519.889 65.707 519.345 65.4271 518.863 65.0625C518.388 64.6914 518.001 64.2422 517.701 63.7148C517.402 63.181 517.242 62.5755 517.223 61.8984H519.068C519.127 62.3411 519.247 62.735 519.43 63.0801C519.612 63.4186 519.846 63.7083 520.133 63.9492C520.419 64.1836 520.748 64.3626 521.119 64.4863C521.497 64.6035 521.907 64.6621 522.35 64.6621C522.701 64.6621 523.046 64.6198 523.385 64.5352C523.73 64.444 524.036 64.3073 524.303 64.125C524.57 63.9362 524.788 63.7018 524.957 63.4219C525.126 63.1354 525.211 62.7969 525.211 62.4062ZM534.449 66.1953C533.707 66.1953 533.023 66.0684 532.398 65.8145C531.78 65.5605 531.249 65.2057 530.807 64.75C530.364 64.2943 530.019 63.7539 529.771 63.1289C529.524 62.5039 529.4 61.8236 529.4 61.0879V60.6777C529.4 59.8249 529.537 59.0632 529.811 58.3926C530.084 57.7155 530.445 57.1458 530.895 56.6836C531.35 56.2148 531.865 55.8568 532.438 55.6094C533.017 55.362 533.609 55.2383 534.215 55.2383C534.977 55.2383 535.641 55.3717 536.207 55.6387C536.78 55.8991 537.255 56.2637 537.633 56.7324C538.01 57.1947 538.29 57.7415 538.473 58.373C538.661 59.0046 538.756 59.6882 538.756 60.4238V61.2344H531.207C531.227 61.7161 531.318 62.1686 531.48 62.5918C531.65 63.015 531.878 63.3861 532.164 63.7051C532.457 64.0176 532.805 64.265 533.209 64.4473C533.613 64.6296 534.059 64.7207 534.547 64.7207C535.191 64.7207 535.764 64.5905 536.266 64.3301C536.767 64.0697 537.184 63.7246 537.516 63.2949L538.619 64.1543C538.443 64.4212 538.222 64.6784 537.955 64.9258C537.695 65.1667 537.392 65.3815 537.047 65.5703C536.702 65.7591 536.311 65.9089 535.875 66.0195C535.439 66.1367 534.964 66.1953 534.449 66.1953ZM534.215 56.7227C533.85 56.7227 533.505 56.791 533.18 56.9277C532.854 57.0579 532.561 57.2533 532.301 57.5137C532.04 57.7676 531.819 58.0833 531.637 58.4609C531.461 58.832 531.337 59.2617 531.266 59.75H536.949V59.6133C536.93 59.2617 536.861 58.9134 536.744 58.5684C536.633 58.2233 536.467 57.9141 536.246 57.6406C536.025 57.3672 535.745 57.1458 535.406 56.9766C535.074 56.8073 534.677 56.7227 534.215 56.7227ZM546.07 52.875V55.4336H550.094V56.8301H546.07V62.5723C546.07 62.9824 546.122 63.321 546.227 63.5879C546.331 63.8548 546.474 64.0697 546.656 64.2324C546.839 64.3887 547.047 64.4993 547.281 64.5645C547.522 64.6296 547.776 64.6621 548.043 64.6621C548.238 64.6621 548.44 64.6523 548.648 64.6328C548.857 64.6068 549.059 64.5775 549.254 64.5449C549.456 64.5124 549.641 64.4798 549.811 64.4473C549.986 64.4082 550.13 64.3757 550.24 64.3496L550.494 65.6289C550.344 65.7201 550.162 65.8014 549.947 65.873C549.732 65.9382 549.498 65.9935 549.244 66.0391C548.99 66.0911 548.72 66.1302 548.434 66.1562C548.154 66.1823 547.874 66.1953 547.594 66.1953C547.125 66.1953 546.686 66.1302 546.275 66C545.872 65.8633 545.52 65.6517 545.221 65.3652C544.921 65.0723 544.684 64.6979 544.508 64.2422C544.339 63.7799 544.254 63.2233 544.254 62.5723V56.8301H541.48V55.4336H544.254V52.875H546.07Z" fill="black"/>
<ellipse cx="477.5" cy="120" rx="42.5" ry="30" fill="#C4C4C4" fill-opacity="0.12"/>
<path d="M465.32 127H463.624V121.085H457.173V127H455.485V114.203H457.173V119.705H463.624V114.203H465.32V127ZM476.896 115.592H472.782V127H471.104V115.592H466.999V114.203H476.896V115.592ZM480.974 114.203L485.157 124.645L489.341 114.203H491.529V127H489.842V122.017L490 116.638L485.799 127H484.507L480.314 116.664L480.481 122.017V127H478.794V114.203H480.974ZM496.205 125.62H502.27V127H494.509V114.203H496.205V125.62Z" fill="black"/>
<ellipse cx="477.5" cy="120" rx="42.5" ry="30" fill="#C4C4C4" fill-opacity="0.12"/>
<path d="M465.32 127H463.624V121.085H457.173V127H455.485V114.203H457.173V119.705H463.624V114.203H465.32V127ZM476.896 115.592H472.782V127H471.104V115.592H466.999V114.203H476.896V115.592ZM480.974 114.203L485.157 124.645L489.341 114.203H491.529V127H489.842V122.017L490 116.638L485.799 127H484.507L480.314 116.664L480.481 122.017V127H478.794V114.203H480.974ZM496.205 125.62H502.27V127H494.509V114.203H496.205V125.62Z" fill="black"/>
<ellipse cx="784.5" cy="255" rx="42.5" ry="30" fill="#C4C4C4" fill-opacity="0.12"/>
<path d="M769.173 257.99V263H767.485V250.203H772.205C773.605 250.203 774.701 250.561 775.492 251.275C776.289 251.99 776.688 252.937 776.688 254.114C776.688 255.356 776.298 256.314 775.519 256.988C774.745 257.656 773.635 257.99 772.188 257.99H769.173ZM769.173 256.61H772.205C773.107 256.61 773.799 256.399 774.279 255.978C774.76 255.55 775 254.935 775 254.132C775 253.37 774.76 252.761 774.279 252.304C773.799 251.847 773.14 251.609 772.302 251.592H769.173V256.61ZM788.676 263H786.979V257.085H780.528V263H778.841V250.203H780.528V255.705H786.979V250.203H788.676V263ZM793.36 257.99V263H791.673V250.203H796.393C797.793 250.203 798.889 250.561 799.68 251.275C800.477 251.99 800.875 252.937 800.875 254.114C800.875 255.356 800.485 256.314 799.706 256.988C798.933 257.656 797.822 257.99 796.375 257.99H793.36ZM793.36 256.61H796.393C797.295 256.61 797.986 256.399 798.467 255.978C798.947 255.55 799.188 254.935 799.188 254.132C799.188 253.37 798.947 252.761 798.467 252.304C797.986 251.847 797.327 251.609 796.489 251.592H793.36V256.61Z" fill="black"/>
<ellipse cx="587" cy="258.5" rx="42" ry="28.5" fill="#C4C4C4" fill-opacity="0.12"/>
<path d="M580.898 262.939C580.74 264.293 580.239 265.339 579.396 266.077C578.558 266.81 577.441 267.176 576.047 267.176C574.535 267.176 573.322 266.634 572.408 265.55C571.5 264.466 571.046 263.016 571.046 261.199V259.969C571.046 258.779 571.257 257.733 571.679 256.831C572.106 255.929 572.71 255.237 573.489 254.757C574.269 254.271 575.171 254.027 576.196 254.027C577.556 254.027 578.646 254.408 579.466 255.17C580.286 255.926 580.764 256.975 580.898 258.316H579.202C579.056 257.297 578.736 256.559 578.244 256.102C577.758 255.645 577.075 255.416 576.196 255.416C575.118 255.416 574.271 255.814 573.656 256.611C573.047 257.408 572.742 258.542 572.742 260.013V261.252C572.742 262.641 573.032 263.745 573.612 264.565C574.192 265.386 575.004 265.796 576.047 265.796C576.984 265.796 577.702 265.585 578.2 265.163C578.704 264.735 579.038 263.994 579.202 262.939H580.898ZM587.613 260.136H591.182V261.674H587.613V265.717H585.979V261.674H582.41V260.136H585.979V256.4H587.613V260.136ZM597.826 260.136H601.395V261.674H597.826V265.717H596.191V261.674H592.623V260.136H596.191V256.4H597.826V260.136Z" fill="black"/>
<ellipse cx="685" cy="258.5" rx="42" ry="28.5" fill="#C4C4C4" fill-opacity="0.12"/>
<path d="M685.898 261.939C685.74 263.293 685.239 264.339 684.396 265.077C683.558 265.81 682.441 266.176 681.047 266.176C679.535 266.176 678.322 265.634 677.408 264.55C676.5 263.466 676.046 262.016 676.046 260.199V258.969C676.046 257.779 676.257 256.733 676.679 255.831C677.106 254.929 677.71 254.237 678.489 253.757C679.269 253.271 680.171 253.027 681.196 253.027C682.556 253.027 683.646 253.408 684.466 254.17C685.286 254.926 685.764 255.975 685.898 257.316H684.202C684.056 256.297 683.736 255.559 683.244 255.102C682.758 254.645 682.075 254.416 681.196 254.416C680.118 254.416 679.271 254.814 678.656 255.611C678.047 256.408 677.742 257.542 677.742 259.013V260.252C677.742 261.641 678.032 262.745 678.612 263.565C679.192 264.386 680.004 264.796 681.047 264.796C681.984 264.796 682.702 264.585 683.2 264.163C683.704 263.735 684.038 262.994 684.202 261.939H685.898ZM693.448 262.396H691.128L690.425 266H689.168L689.871 262.396H687.771V261.192H690.1L690.706 258.081H688.438V256.859H690.943L691.664 253.203H692.921L692.2 256.859H694.521L695.241 253.203H696.507L695.786 256.859H697.579V258.081H695.549L694.942 261.192H696.92V262.396H694.714L694.011 266H692.745L693.448 262.396ZM691.356 261.192H693.677L694.283 258.081H691.963L691.356 261.192Z" fill="black"/>
<ellipse cx="477.5" cy="260" rx="42.5" ry="30" fill="#C4C4C4" fill-opacity="0.12"/>
<path d="M482.898 262.939C482.74 264.293 482.239 265.339 481.396 266.077C480.558 266.81 479.441 267.176 478.047 267.176C476.535 267.176 475.322 266.634 474.408 265.55C473.5 264.466 473.046 263.016 473.046 261.199V259.969C473.046 258.779 473.257 257.733 473.679 256.831C474.106 255.929 474.71 255.237 475.489 254.757C476.269 254.271 477.171 254.027 478.196 254.027C479.556 254.027 480.646 254.408 481.466 255.17C482.286 255.926 482.764 256.975 482.898 258.316H481.202C481.056 257.297 480.736 256.559 480.244 256.102C479.758 255.645 479.075 255.416 478.196 255.416C477.118 255.416 476.271 255.814 475.656 256.611C475.047 257.408 474.742 258.542 474.742 260.013V261.252C474.742 262.641 475.032 263.745 475.612 264.565C476.192 265.386 477.004 265.796 478.047 265.796C478.984 265.796 479.702 265.585 480.2 265.163C480.704 264.735 481.038 263.994 481.202 262.939H482.898Z" fill="black"/>
<ellipse cx="683" cy="328.5" rx="42" ry="28.5" fill="#C4C4C4" fill-opacity="0.12"/>
<path d="M666.934 333.321C666.5 333.942 665.894 334.408 665.114 334.719C664.341 335.023 663.438 335.176 662.407 335.176C661.364 335.176 660.438 334.933 659.63 334.446C658.821 333.954 658.194 333.257 657.749 332.354C657.31 331.452 657.084 330.406 657.072 329.217V328.101C657.072 326.173 657.521 324.679 658.417 323.618C659.319 322.558 660.585 322.027 662.214 322.027C663.55 322.027 664.625 322.37 665.439 323.056C666.254 323.735 666.752 324.702 666.934 325.956H665.246C664.93 324.263 663.922 323.416 662.223 323.416C661.092 323.416 660.233 323.814 659.647 324.611C659.067 325.402 658.774 326.551 658.769 328.057V329.103C658.769 330.538 659.097 331.681 659.753 332.53C660.409 333.374 661.297 333.796 662.416 333.796C663.049 333.796 663.603 333.726 664.077 333.585C664.552 333.444 664.944 333.207 665.255 332.873V329.999H662.293V328.628H666.934V333.321ZM671.267 335H669.641V325.49H671.267V335ZM669.509 322.968C669.509 322.704 669.588 322.481 669.746 322.3C669.91 322.118 670.15 322.027 670.467 322.027C670.783 322.027 671.023 322.118 671.188 322.3C671.352 322.481 671.434 322.704 671.434 322.968C671.434 323.231 671.352 323.451 671.188 323.627C671.023 323.803 670.783 323.891 670.467 323.891C670.15 323.891 669.91 323.803 669.746 323.627C669.588 323.451 669.509 323.231 669.509 322.968ZM676.083 323.188V325.49H677.858V326.747H676.083V332.645C676.083 333.025 676.162 333.312 676.32 333.506C676.479 333.693 676.748 333.787 677.129 333.787C677.316 333.787 677.574 333.752 677.902 333.682V335C677.475 335.117 677.059 335.176 676.654 335.176C675.928 335.176 675.38 334.956 675.011 334.517C674.642 334.077 674.457 333.453 674.457 332.645V326.747H672.726V325.49H674.457V323.188H676.083ZM681.392 326.642C682.112 325.757 683.05 325.314 684.204 325.314C686.214 325.314 687.228 326.448 687.245 328.716V335H685.619V328.707C685.613 328.021 685.455 327.515 685.145 327.187C684.84 326.858 684.362 326.694 683.712 326.694C683.185 326.694 682.722 326.835 682.323 327.116C681.925 327.397 681.614 327.767 681.392 328.224V335H679.766V321.5H681.392V326.642ZM695.551 334.06C694.918 334.804 693.989 335.176 692.765 335.176C691.751 335.176 690.978 334.883 690.444 334.297C689.917 333.705 689.65 332.832 689.645 331.678V325.49H691.271V331.634C691.271 333.075 691.856 333.796 693.028 333.796C694.271 333.796 695.097 333.333 695.507 332.407V325.49H697.133V335H695.586L695.551 334.06ZM707.662 330.351C707.662 331.804 707.328 332.973 706.66 333.857C705.992 334.736 705.096 335.176 703.971 335.176C702.77 335.176 701.841 334.751 701.185 333.901L701.105 335H699.611V321.5H701.237V326.536C701.894 325.722 702.799 325.314 703.953 325.314C705.107 325.314 706.013 325.751 706.669 326.624C707.331 327.497 707.662 328.692 707.662 330.21V330.351ZM706.036 330.166C706.036 329.059 705.822 328.203 705.395 327.6C704.967 326.996 704.352 326.694 703.549 326.694C702.477 326.694 701.706 327.192 701.237 328.188V332.302C701.735 333.298 702.512 333.796 703.566 333.796C704.346 333.796 704.952 333.494 705.386 332.891C705.819 332.287 706.036 331.379 706.036 330.166Z" fill="black"/>
<ellipse cx="785" cy="328.5" rx="42" ry="28.5" fill="#C4C4C4" fill-opacity="0.12"/>
<path d="M766.934 334.321C766.5 334.942 765.894 335.408 765.114 335.719C764.341 336.023 763.438 336.176 762.407 336.176C761.364 336.176 760.438 335.933 759.63 335.446C758.821 334.954 758.194 334.257 757.749 333.354C757.31 332.452 757.084 331.406 757.072 330.217V329.101C757.072 327.173 757.521 325.679 758.417 324.618C759.319 323.558 760.585 323.027 762.214 323.027C763.55 323.027 764.625 323.37 765.439 324.056C766.254 324.735 766.752 325.702 766.934 326.956H765.246C764.93 325.263 763.922 324.416 762.223 324.416C761.092 324.416 760.233 324.814 759.647 325.611C759.067 326.402 758.774 327.551 758.769 329.057V330.103C758.769 331.538 759.097 332.681 759.753 333.53C760.409 334.374 761.297 334.796 762.416 334.796C763.049 334.796 763.603 334.726 764.077 334.585C764.552 334.444 764.944 334.207 765.255 333.873V330.999H762.293V329.628H766.934V334.321ZM771.267 336H769.641V326.49H771.267V336ZM769.509 323.968C769.509 323.704 769.588 323.481 769.746 323.3C769.91 323.118 770.15 323.027 770.467 323.027C770.783 323.027 771.023 323.118 771.188 323.3C771.352 323.481 771.434 323.704 771.434 323.968C771.434 324.231 771.352 324.451 771.188 324.627C771.023 324.803 770.783 324.891 770.467 324.891C770.15 324.891 769.91 324.803 769.746 324.627C769.588 324.451 769.509 324.231 769.509 323.968ZM776.083 324.188V326.49H777.858V327.747H776.083V333.645C776.083 334.025 776.162 334.312 776.32 334.506C776.479 334.693 776.748 334.787 777.129 334.787C777.316 334.787 777.574 334.752 777.902 334.682V336C777.475 336.117 777.059 336.176 776.654 336.176C775.928 336.176 775.38 335.956 775.011 335.517C774.642 335.077 774.457 334.453 774.457 333.645V327.747H772.726V326.49H774.457V324.188H776.083ZM780.021 336V323.203H784.204C785.593 323.203 786.636 323.49 787.333 324.064C788.036 324.639 788.388 325.488 788.388 326.613C788.388 327.211 788.218 327.741 787.878 328.204C787.538 328.661 787.075 329.016 786.489 329.268C787.181 329.461 787.726 329.83 788.124 330.375C788.528 330.914 788.73 331.559 788.73 332.309C788.73 333.457 788.358 334.359 787.614 335.016C786.87 335.672 785.818 336 784.459 336H780.021ZM781.708 330.015V334.62H784.494C785.279 334.62 785.897 334.418 786.349 334.014C786.806 333.604 787.034 333.041 787.034 332.326C787.034 330.785 786.196 330.015 784.521 330.015H781.708ZM781.708 328.661H784.257C784.995 328.661 785.584 328.477 786.023 328.107C786.469 327.738 786.691 327.237 786.691 326.604C786.691 325.901 786.486 325.392 786.076 325.075C785.666 324.753 785.042 324.592 784.204 324.592H781.708V328.661ZM796.852 336C796.758 335.812 796.682 335.479 796.623 334.998C795.867 335.783 794.965 336.176 793.916 336.176C792.979 336.176 792.208 335.912 791.604 335.385C791.007 334.852 790.708 334.178 790.708 333.363C790.708 332.373 791.083 331.605 791.833 331.061C792.589 330.51 793.649 330.234 795.015 330.234H796.597V329.487C796.597 328.919 796.427 328.468 796.087 328.134C795.747 327.794 795.246 327.624 794.584 327.624C794.004 327.624 793.518 327.771 793.125 328.063C792.732 328.356 792.536 328.711 792.536 329.127H790.901C790.901 328.652 791.068 328.195 791.402 327.756C791.742 327.311 792.199 326.959 792.773 326.701C793.354 326.443 793.989 326.314 794.681 326.314C795.776 326.314 796.635 326.59 797.256 327.141C797.877 327.686 798.199 328.438 798.223 329.399V333.776C798.223 334.649 798.334 335.344 798.557 335.859V336H796.852ZM794.153 334.761C794.663 334.761 795.146 334.629 795.604 334.365C796.061 334.102 796.392 333.759 796.597 333.337V331.386H795.322C793.33 331.386 792.334 331.969 792.334 333.135C792.334 333.645 792.504 334.043 792.844 334.33C793.184 334.617 793.62 334.761 794.153 334.761ZM806.309 333.478C806.309 333.038 806.142 332.698 805.808 332.458C805.479 332.212 804.902 332.001 804.076 331.825C803.256 331.649 802.603 331.438 802.116 331.192C801.636 330.946 801.278 330.653 801.044 330.313C800.815 329.974 800.701 329.569 800.701 329.101C800.701 328.321 801.029 327.662 801.686 327.123C802.348 326.584 803.191 326.314 804.217 326.314C805.295 326.314 806.168 326.593 806.836 327.149C807.51 327.706 807.847 328.418 807.847 329.285H806.212C806.212 328.84 806.021 328.456 805.641 328.134C805.266 327.812 804.791 327.65 804.217 327.65C803.625 327.65 803.162 327.779 802.828 328.037C802.494 328.295 802.327 328.632 802.327 329.048C802.327 329.44 802.482 329.736 802.793 329.936C803.104 330.135 803.663 330.325 804.472 330.507C805.286 330.688 805.945 330.905 806.449 331.157C806.953 331.409 807.325 331.714 807.565 332.071C807.812 332.423 807.935 332.854 807.935 333.363C807.935 334.213 807.595 334.896 806.915 335.411C806.235 335.921 805.354 336.176 804.27 336.176C803.508 336.176 802.834 336.041 802.248 335.771C801.662 335.502 801.202 335.127 800.868 334.646C800.54 334.16 800.376 333.636 800.376 333.073H802.002C802.031 333.618 802.248 334.052 802.652 334.374C803.062 334.69 803.602 334.849 804.27 334.849C804.885 334.849 805.377 334.726 805.746 334.479C806.121 334.228 806.309 333.894 806.309 333.478ZM811.679 327.642C812.399 326.757 813.337 326.314 814.491 326.314C816.501 326.314 817.515 327.448 817.532 329.716V336H815.906V329.707C815.9 329.021 815.742 328.515 815.432 328.187C815.127 327.858 814.649 327.694 813.999 327.694C813.472 327.694 813.009 327.835 812.61 328.116C812.212 328.397 811.901 328.767 811.679 329.224V336H810.053V322.5H811.679V327.642Z" fill="black"/>
<ellipse cx="688" cy="188.5" rx="42" ry="28.5" fill="#C4C4C4" fill-opacity="0.12"/>
<path d="M653.563 183.559L657.631 193.71L661.698 183.559H663.826V196H662.185V191.155L662.339 185.926L658.254 196H656.998L652.922 185.951L653.085 191.155V196H651.444V183.559H653.563ZM666.056 191.292C666.056 190.386 666.233 189.571 666.586 188.848C666.945 188.124 667.44 187.566 668.073 187.173C668.711 186.78 669.437 186.583 670.251 186.583C671.51 186.583 672.527 187.019 673.302 187.891C674.082 188.762 674.473 189.922 674.473 191.369V191.48C674.473 192.38 674.299 193.189 673.951 193.906C673.61 194.619 673.117 195.174 672.473 195.573C671.835 195.972 671.1 196.171 670.269 196.171C669.015 196.171 667.998 195.735 667.218 194.864C666.443 193.992 666.056 192.838 666.056 191.403V191.292ZM667.645 191.48C667.645 192.505 667.882 193.328 668.354 193.949C668.833 194.57 669.471 194.881 670.269 194.881C671.072 194.881 671.71 194.567 672.183 193.941C672.655 193.308 672.892 192.425 672.892 191.292C672.892 190.278 672.65 189.457 672.166 188.831C671.687 188.198 671.049 187.882 670.251 187.882C669.471 187.882 668.842 188.193 668.363 188.814C667.885 189.435 667.645 190.323 667.645 191.48ZM677.95 186.754L678.002 187.917C678.708 187.028 679.631 186.583 680.77 186.583C682.724 186.583 683.71 187.686 683.727 189.89V196H682.146V189.882C682.14 189.215 681.986 188.723 681.685 188.404C681.388 188.085 680.924 187.925 680.292 187.925C679.779 187.925 679.329 188.062 678.942 188.335C678.554 188.609 678.252 188.968 678.036 189.412V196H676.455V186.754H677.95ZM685.735 191.3C685.735 189.859 686.068 188.714 686.735 187.865C687.401 187.011 688.284 186.583 689.384 186.583C690.511 186.583 691.392 186.982 692.024 187.78L692.101 186.754H693.545V195.778C693.545 196.974 693.189 197.917 692.477 198.606C691.77 199.295 690.819 199.64 689.623 199.64C688.956 199.64 688.304 199.498 687.666 199.213C687.028 198.928 686.541 198.538 686.205 198.042L687.025 197.094C687.703 197.931 688.532 198.35 689.512 198.35C690.281 198.35 690.879 198.133 691.306 197.7C691.739 197.267 691.956 196.658 691.956 195.872V195.077C691.323 195.806 690.46 196.171 689.366 196.171C688.284 196.171 687.407 195.735 686.735 194.864C686.068 193.992 685.735 192.804 685.735 191.3ZM687.324 191.48C687.324 192.522 687.538 193.343 687.965 193.941C688.392 194.533 688.99 194.829 689.76 194.829C690.756 194.829 691.488 194.376 691.956 193.471V189.25C691.471 188.367 690.745 187.925 689.777 187.925C689.008 187.925 688.407 188.224 687.974 188.822C687.541 189.42 687.324 190.306 687.324 191.48ZM695.519 191.292C695.519 190.386 695.695 189.571 696.049 188.848C696.407 188.124 696.903 187.566 697.535 187.173C698.173 186.78 698.9 186.583 699.714 186.583C700.973 186.583 701.99 187.019 702.765 187.891C703.545 188.762 703.936 189.922 703.936 191.369V191.48C703.936 192.38 703.762 193.189 703.414 193.906C703.073 194.619 702.58 195.174 701.936 195.573C701.298 195.972 700.563 196.171 699.731 196.171C698.478 196.171 697.461 195.735 696.681 194.864C695.906 193.992 695.519 192.838 695.519 191.403V191.292ZM697.108 191.48C697.108 192.505 697.345 193.328 697.817 193.949C698.296 194.57 698.934 194.881 699.731 194.881C700.535 194.881 701.173 194.567 701.646 193.941C702.118 193.308 702.355 192.425 702.355 191.292C702.355 190.278 702.113 189.457 701.628 188.831C701.15 188.198 700.512 187.882 699.714 187.882C698.934 187.882 698.304 188.193 697.826 188.814C697.347 189.435 697.108 190.323 697.108 191.48ZM706.166 196V183.559H709.678C710.76 183.559 711.717 183.798 712.549 184.276C713.381 184.755 714.021 185.436 714.471 186.319C714.927 187.202 715.158 188.216 715.164 189.361V190.155C715.164 191.329 714.936 192.357 714.48 193.24C714.03 194.123 713.383 194.801 712.54 195.274C711.703 195.747 710.726 195.989 709.609 196H706.166ZM707.806 184.909V194.658H709.532C710.797 194.658 711.78 194.265 712.48 193.479C713.187 192.693 713.54 191.574 713.54 190.121V189.395C713.54 187.982 713.207 186.885 712.54 186.105C711.879 185.319 710.94 184.92 709.72 184.909H707.806ZM717.65 196V183.559H721.718C723.068 183.559 724.082 183.838 724.76 184.396C725.443 184.954 725.785 185.78 725.785 186.874C725.785 187.455 725.62 187.971 725.289 188.421C724.959 188.865 724.509 189.21 723.939 189.455C724.611 189.643 725.141 190.001 725.529 190.531C725.922 191.055 726.118 191.682 726.118 192.411C726.118 193.528 725.756 194.405 725.033 195.043C724.309 195.681 723.287 196 721.965 196H717.65ZM719.291 190.181V194.658H722C722.763 194.658 723.364 194.462 723.802 194.069C724.247 193.67 724.469 193.123 724.469 192.428C724.469 190.93 723.654 190.181 722.025 190.181H719.291ZM719.291 188.865H721.769C722.487 188.865 723.059 188.686 723.486 188.327C723.919 187.968 724.136 187.481 724.136 186.865C724.136 186.182 723.936 185.686 723.538 185.379C723.139 185.065 722.532 184.909 721.718 184.909H719.291V188.865Z" fill="black"/>
<ellipse cx="583" cy="188.5" rx="42" ry="28.5" fill="#C4C4C4" fill-opacity="0.12"/>
<path d="M560.719 190.085H555.173V194.62H561.615V196H553.485V183.203H561.527V184.592H555.173V188.705H560.719V190.085ZM566.651 189.962L568.761 186.49H570.659L567.548 191.192L570.756 196H568.875L566.678 192.44L564.48 196H562.591L565.799 191.192L562.688 186.49H564.568L566.651 189.962ZM580.424 191.351C580.424 192.798 580.093 193.964 579.431 194.849C578.769 195.733 577.872 196.176 576.741 196.176C575.587 196.176 574.679 195.81 574.017 195.077V199.656H572.391V186.49H573.876L573.955 187.545C574.617 186.725 575.537 186.314 576.715 186.314C577.857 186.314 578.76 186.745 579.422 187.606C580.09 188.468 580.424 189.666 580.424 191.201V191.351ZM578.798 191.166C578.798 190.094 578.569 189.247 578.112 188.626C577.655 188.005 577.028 187.694 576.231 187.694C575.247 187.694 574.509 188.131 574.017 189.004V193.548C574.503 194.415 575.247 194.849 576.249 194.849C577.028 194.849 577.646 194.541 578.104 193.926C578.566 193.305 578.798 192.385 578.798 191.166ZM587.095 187.949C586.849 187.908 586.582 187.888 586.295 187.888C585.229 187.888 584.505 188.342 584.124 189.25V196H582.498V186.49H584.08L584.106 187.589C584.64 186.739 585.396 186.314 586.374 186.314C586.69 186.314 586.931 186.355 587.095 186.438V187.949ZM592.368 196.176C591.079 196.176 590.03 195.754 589.222 194.91C588.413 194.061 588.009 192.927 588.009 191.509V191.21C588.009 190.267 588.188 189.426 588.545 188.688C588.908 187.943 589.412 187.363 590.057 186.947C590.707 186.525 591.41 186.314 592.166 186.314C593.402 186.314 594.363 186.722 595.049 187.536C595.734 188.351 596.077 189.517 596.077 191.034V191.711H589.635C589.658 192.648 589.931 193.407 590.452 193.987C590.979 194.562 591.647 194.849 592.456 194.849C593.03 194.849 593.517 194.731 593.915 194.497C594.313 194.263 594.662 193.952 594.961 193.565L595.954 194.339C595.157 195.563 593.962 196.176 592.368 196.176ZM592.166 187.65C591.51 187.65 590.959 187.891 590.514 188.371C590.068 188.846 589.793 189.514 589.688 190.375H594.451V190.252C594.404 189.426 594.182 188.787 593.783 188.336C593.385 187.879 592.846 187.65 592.166 187.65ZM603.504 193.478C603.504 193.038 603.337 192.698 603.003 192.458C602.675 192.212 602.098 192.001 601.271 191.825C600.451 191.649 599.798 191.438 599.312 191.192C598.831 190.946 598.474 190.653 598.239 190.313C598.011 189.974 597.896 189.569 597.896 189.101C597.896 188.321 598.225 187.662 598.881 187.123C599.543 186.584 600.387 186.314 601.412 186.314C602.49 186.314 603.363 186.593 604.031 187.149C604.705 187.706 605.042 188.418 605.042 189.285H603.407C603.407 188.84 603.217 188.456 602.836 188.134C602.461 187.812 601.986 187.65 601.412 187.65C600.82 187.65 600.357 187.779 600.023 188.037C599.689 188.295 599.522 188.632 599.522 189.048C599.522 189.44 599.678 189.736 599.988 189.936C600.299 190.135 600.858 190.325 601.667 190.507C602.481 190.688 603.141 190.905 603.645 191.157C604.148 191.409 604.521 191.714 604.761 192.071C605.007 192.423 605.13 192.854 605.13 193.363C605.13 194.213 604.79 194.896 604.11 195.411C603.431 195.921 602.549 196.176 601.465 196.176C600.703 196.176 600.029 196.041 599.443 195.771C598.857 195.502 598.397 195.127 598.063 194.646C597.735 194.16 597.571 193.636 597.571 193.073H599.197C599.227 193.618 599.443 194.052 599.848 194.374C600.258 194.69 600.797 194.849 601.465 194.849C602.08 194.849 602.572 194.726 602.941 194.479C603.316 194.228 603.504 193.894 603.504 193.478ZM612.785 193.478C612.785 193.038 612.618 192.698 612.284 192.458C611.956 192.212 611.379 192.001 610.553 191.825C609.732 191.649 609.079 191.438 608.593 191.192C608.112 190.946 607.755 190.653 607.521 190.313C607.292 189.974 607.178 189.569 607.178 189.101C607.178 188.321 607.506 187.662 608.162 187.123C608.824 186.584 609.668 186.314 610.693 186.314C611.771 186.314 612.645 186.593 613.312 187.149C613.986 187.706 614.323 188.418 614.323 189.285H612.688C612.688 188.84 612.498 188.456 612.117 188.134C611.742 187.812 611.268 187.65 610.693 187.65C610.102 187.65 609.639 187.779 609.305 188.037C608.971 188.295 608.804 188.632 608.804 189.048C608.804 189.44 608.959 189.736 609.27 189.936C609.58 190.135 610.14 190.325 610.948 190.507C611.763 190.688 612.422 190.905 612.926 191.157C613.43 191.409 613.802 191.714 614.042 192.071C614.288 192.423 614.411 192.854 614.411 193.363C614.411 194.213 614.071 194.896 613.392 195.411C612.712 195.921 611.83 196.176 610.746 196.176C609.984 196.176 609.311 196.041 608.725 195.771C608.139 195.502 607.679 195.127 607.345 194.646C607.017 194.16 606.853 193.636 606.853 193.073H608.479C608.508 193.618 608.725 194.052 609.129 194.374C609.539 194.69 610.078 194.849 610.746 194.849C611.361 194.849 611.854 194.726 612.223 194.479C612.598 194.228 612.785 193.894 612.785 193.478Z" fill="black"/>
<ellipse cx="477.5" cy="188.5" rx="42.5" ry="28.5" fill="#C4C4C4" fill-opacity="0.12"/>
<path d="M460.32 196H458.624L452.182 186.139V196H450.485V183.203H452.182L458.642 193.108V183.203H460.32V196ZM462.632 191.157C462.632 190.226 462.813 189.388 463.177 188.644C463.546 187.899 464.056 187.325 464.706 186.921C465.362 186.517 466.109 186.314 466.947 186.314C468.242 186.314 469.288 186.763 470.085 187.659C470.888 188.556 471.289 189.748 471.289 191.236V191.351C471.289 192.276 471.11 193.108 470.753 193.847C470.401 194.579 469.895 195.15 469.232 195.561C468.576 195.971 467.82 196.176 466.965 196.176C465.676 196.176 464.63 195.728 463.827 194.831C463.03 193.935 462.632 192.748 462.632 191.271V191.157ZM464.267 191.351C464.267 192.405 464.51 193.252 464.996 193.891C465.488 194.529 466.145 194.849 466.965 194.849C467.791 194.849 468.447 194.526 468.934 193.882C469.42 193.231 469.663 192.323 469.663 191.157C469.663 190.114 469.414 189.271 468.916 188.626C468.424 187.976 467.768 187.65 466.947 187.65C466.145 187.65 465.497 187.97 465.005 188.608C464.513 189.247 464.267 190.161 464.267 191.351ZM472.933 191.166C472.933 189.707 473.278 188.535 473.97 187.65C474.661 186.76 475.566 186.314 476.686 186.314C477.799 186.314 478.681 186.695 479.331 187.457V182.5H480.957V196H479.463L479.384 194.98C478.733 195.777 477.828 196.176 476.668 196.176C475.566 196.176 474.667 195.725 473.97 194.822C473.278 193.92 472.933 192.742 472.933 191.289V191.166ZM474.559 191.351C474.559 192.429 474.781 193.272 475.227 193.882C475.672 194.491 476.287 194.796 477.072 194.796C478.104 194.796 478.856 194.333 479.331 193.407V189.039C478.845 188.143 478.098 187.694 477.09 187.694C476.293 187.694 475.672 188.002 475.227 188.617C474.781 189.232 474.559 190.144 474.559 191.351ZM487.435 196.176C486.146 196.176 485.097 195.754 484.288 194.91C483.479 194.061 483.075 192.927 483.075 191.509V191.21C483.075 190.267 483.254 189.426 483.611 188.688C483.975 187.943 484.479 187.363 485.123 186.947C485.773 186.525 486.477 186.314 487.232 186.314C488.469 186.314 489.43 186.722 490.115 187.536C490.801 188.351 491.144 189.517 491.144 191.034V191.711H484.701C484.725 192.648 484.997 193.407 485.519 193.987C486.046 194.562 486.714 194.849 487.522 194.849C488.097 194.849 488.583 194.731 488.981 194.497C489.38 194.263 489.729 193.952 490.027 193.565L491.021 194.339C490.224 195.563 489.028 196.176 487.435 196.176ZM487.232 187.65C486.576 187.65 486.025 187.891 485.58 188.371C485.135 188.846 484.859 189.514 484.754 190.375H489.518V190.252C489.471 189.426 489.248 188.787 488.85 188.336C488.451 187.879 487.912 187.65 487.232 187.65ZM498.649 183.203H500.346V192.265C500.346 193.489 499.977 194.447 499.238 195.139C498.506 195.83 497.527 196.176 496.303 196.176C495.031 196.176 494.041 195.851 493.332 195.2C492.623 194.55 492.269 193.639 492.269 192.467H493.956C493.956 193.199 494.155 193.771 494.554 194.181C494.958 194.591 495.541 194.796 496.303 194.796C497 194.796 497.562 194.576 497.99 194.137C498.424 193.697 498.644 193.082 498.649 192.291V183.203ZM508.502 193.478C508.502 193.038 508.335 192.698 508.001 192.458C507.673 192.212 507.096 192.001 506.27 191.825C505.449 191.649 504.796 191.438 504.31 191.192C503.829 190.946 503.472 190.653 503.237 190.313C503.009 189.974 502.895 189.569 502.895 189.101C502.895 188.321 503.223 187.662 503.879 187.123C504.541 186.584 505.385 186.314 506.41 186.314C507.488 186.314 508.361 186.593 509.029 187.149C509.703 187.706 510.04 188.418 510.04 189.285H508.405C508.405 188.84 508.215 188.456 507.834 188.134C507.459 187.812 506.984 187.65 506.41 187.65C505.818 187.65 505.355 187.779 505.021 188.037C504.688 188.295 504.521 188.632 504.521 189.048C504.521 189.44 504.676 189.736 504.986 189.936C505.297 190.135 505.856 190.325 506.665 190.507C507.479 190.688 508.139 190.905 508.643 191.157C509.146 191.409 509.519 191.714 509.759 192.071C510.005 192.423 510.128 192.854 510.128 193.363C510.128 194.213 509.788 194.896 509.108 195.411C508.429 195.921 507.547 196.176 506.463 196.176C505.701 196.176 505.027 196.041 504.441 195.771C503.855 195.502 503.396 195.127 503.062 194.646C502.733 194.16 502.569 193.636 502.569 193.073H504.195C504.225 193.618 504.441 194.052 504.846 194.374C505.256 194.69 505.795 194.849 506.463 194.849C507.078 194.849 507.57 194.726 507.939 194.479C508.314 194.228 508.502 193.894 508.502 193.478Z" fill="black"/>
<ellipse cx="787.5" cy="120" rx="42.5" ry="30" fill="#C4C4C4" fill-opacity="0.12"/>
<path d="M762.179 121.823H759.173V127H757.477V114.203H761.713C763.154 114.203 764.262 114.531 765.035 115.188C765.814 115.844 766.204 116.799 766.204 118.053C766.204 118.85 765.987 119.544 765.554 120.136C765.126 120.728 764.528 121.17 763.761 121.463L766.767 126.895V127H764.956L762.179 121.823ZM759.173 120.443H761.766C762.604 120.443 763.269 120.227 763.761 119.793C764.259 119.359 764.508 118.779 764.508 118.053C764.508 117.262 764.271 116.655 763.796 116.233C763.327 115.812 762.647 115.598 761.757 115.592H759.173V120.443ZM772.269 127.176C770.979 127.176 769.931 126.754 769.122 125.91C768.313 125.061 767.909 123.927 767.909 122.509V122.21C767.909 121.267 768.088 120.426 768.445 119.688C768.809 118.943 769.312 118.363 769.957 117.947C770.607 117.525 771.311 117.314 772.066 117.314C773.303 117.314 774.264 117.722 774.949 118.536C775.635 119.351 775.978 120.517 775.978 122.034V122.711H769.535C769.559 123.648 769.831 124.407 770.353 124.987C770.88 125.562 771.548 125.849 772.356 125.849C772.931 125.849 773.417 125.731 773.815 125.497C774.214 125.263 774.562 124.952 774.861 124.565L775.854 125.339C775.058 126.563 773.862 127.176 772.269 127.176ZM772.066 118.65C771.41 118.65 770.859 118.891 770.414 119.371C769.969 119.846 769.693 120.514 769.588 121.375H774.352V121.252C774.305 120.426 774.082 119.787 773.684 119.336C773.285 118.879 772.746 118.65 772.066 118.65ZM783.738 127C783.645 126.812 783.568 126.479 783.51 125.998C782.754 126.783 781.852 127.176 780.803 127.176C779.865 127.176 779.095 126.912 778.491 126.385C777.894 125.852 777.595 125.178 777.595 124.363C777.595 123.373 777.97 122.605 778.72 122.061C779.476 121.51 780.536 121.234 781.901 121.234H783.483V120.487C783.483 119.919 783.313 119.468 782.974 119.134C782.634 118.794 782.133 118.624 781.471 118.624C780.891 118.624 780.404 118.771 780.012 119.063C779.619 119.356 779.423 119.711 779.423 120.127H777.788C777.788 119.652 777.955 119.195 778.289 118.756C778.629 118.311 779.086 117.959 779.66 117.701C780.24 117.443 780.876 117.314 781.567 117.314C782.663 117.314 783.521 117.59 784.143 118.141C784.764 118.686 785.086 119.438 785.109 120.399V124.776C785.109 125.649 785.221 126.344 785.443 126.859V127H783.738ZM781.04 125.761C781.55 125.761 782.033 125.629 782.49 125.365C782.947 125.102 783.278 124.759 783.483 124.337V122.386H782.209C780.217 122.386 779.221 122.969 779.221 124.135C779.221 124.645 779.391 125.043 779.73 125.33C780.07 125.617 780.507 125.761 781.04 125.761ZM791.473 125.849C792.053 125.849 792.56 125.673 792.993 125.321C793.427 124.97 793.667 124.53 793.714 124.003H795.252C795.223 124.548 795.035 125.066 794.689 125.559C794.344 126.051 793.881 126.443 793.301 126.736C792.727 127.029 792.117 127.176 791.473 127.176C790.178 127.176 789.146 126.745 788.379 125.884C787.617 125.017 787.236 123.833 787.236 122.333V122.061C787.236 121.135 787.406 120.312 787.746 119.591C788.086 118.87 788.572 118.311 789.205 117.912C789.844 117.514 790.597 117.314 791.464 117.314C792.53 117.314 793.415 117.634 794.118 118.272C794.827 118.911 795.205 119.74 795.252 120.76H793.714C793.667 120.145 793.433 119.641 793.011 119.248C792.595 118.85 792.079 118.65 791.464 118.65C790.638 118.65 789.996 118.949 789.539 119.547C789.088 120.139 788.862 120.997 788.862 122.122V122.43C788.862 123.525 789.088 124.369 789.539 124.961C789.99 125.553 790.635 125.849 791.473 125.849ZM799.286 115.188V117.49H801.062V118.747H799.286V124.645C799.286 125.025 799.365 125.312 799.523 125.506C799.682 125.693 799.951 125.787 800.332 125.787C800.52 125.787 800.777 125.752 801.105 125.682V127C800.678 127.117 800.262 127.176 799.857 127.176C799.131 127.176 798.583 126.956 798.214 126.517C797.845 126.077 797.66 125.453 797.66 124.645V118.747H795.929V117.49H797.66V115.188H799.286ZM808.585 114.203H810.281V123.265C810.281 124.489 809.912 125.447 809.174 126.139C808.441 126.83 807.463 127.176 806.238 127.176C804.967 127.176 803.977 126.851 803.268 126.2C802.559 125.55 802.204 124.639 802.204 123.467H803.892C803.892 124.199 804.091 124.771 804.489 125.181C804.894 125.591 805.477 125.796 806.238 125.796C806.936 125.796 807.498 125.576 807.926 125.137C808.359 124.697 808.579 124.082 808.585 123.291V114.203ZM816.926 121.296C815.479 120.88 814.424 120.37 813.762 119.767C813.105 119.157 812.777 118.407 812.777 117.517C812.777 116.509 813.179 115.677 813.981 115.021C814.79 114.358 815.839 114.027 817.128 114.027C818.007 114.027 818.789 114.197 819.475 114.537C820.166 114.877 820.699 115.346 821.074 115.943C821.455 116.541 821.646 117.194 821.646 117.903H819.949C819.949 117.13 819.703 116.523 819.211 116.084C818.719 115.639 818.024 115.416 817.128 115.416C816.296 115.416 815.646 115.601 815.177 115.97C814.714 116.333 814.482 116.84 814.482 117.49C814.482 118.012 814.702 118.454 815.142 118.817C815.587 119.175 816.34 119.503 817.4 119.802C818.467 120.101 819.299 120.432 819.896 120.795C820.5 121.152 820.945 121.571 821.232 122.052C821.525 122.532 821.672 123.098 821.672 123.748C821.672 124.785 821.268 125.617 820.459 126.244C819.65 126.865 818.569 127.176 817.216 127.176C816.337 127.176 815.517 127.009 814.755 126.675C813.993 126.335 813.404 125.872 812.988 125.286C812.578 124.7 812.373 124.035 812.373 123.291H814.069C814.069 124.064 814.354 124.677 814.922 125.128C815.496 125.573 816.261 125.796 817.216 125.796C818.106 125.796 818.789 125.614 819.264 125.251C819.738 124.888 819.976 124.393 819.976 123.766C819.976 123.139 819.756 122.655 819.316 122.315C818.877 121.97 818.08 121.63 816.926 121.296Z" fill="black"/>
<ellipse cx="477.5" cy="330" rx="42.5" ry="30" fill="#C4C4C4" fill-opacity="0.12"/>
<path d="M444.36 315.27L448.195 324.841L452.03 315.27H454.036V327H452.489V322.432L452.634 317.501L448.783 327H447.598L443.755 317.525L443.908 322.432V327H442.362V315.27H444.36ZM456.138 322.561C456.138 321.707 456.305 320.939 456.638 320.257C456.976 319.574 457.444 319.048 458.04 318.677C458.641 318.307 459.326 318.122 460.094 318.122C461.281 318.122 462.24 318.532 462.97 319.354C463.706 320.176 464.074 321.269 464.074 322.633V322.738C464.074 323.587 463.91 324.349 463.583 325.026C463.26 325.698 462.796 326.221 462.189 326.597C461.587 326.973 460.895 327.161 460.11 327.161C458.929 327.161 457.97 326.75 457.234 325.928C456.504 325.107 456.138 324.019 456.138 322.666V322.561ZM457.637 322.738C457.637 323.705 457.86 324.481 458.306 325.066C458.757 325.652 459.358 325.945 460.11 325.945C460.868 325.945 461.469 325.649 461.915 325.058C462.361 324.462 462.584 323.63 462.584 322.561C462.584 321.605 462.355 320.831 461.899 320.24C461.448 319.644 460.846 319.346 460.094 319.346C459.358 319.346 458.765 319.639 458.314 320.224C457.863 320.81 457.637 321.648 457.637 322.738ZM467.353 318.283L467.402 319.378C468.068 318.541 468.938 318.122 470.012 318.122C471.854 318.122 472.783 319.161 472.8 321.24V327H471.309V321.231C471.304 320.603 471.159 320.138 470.874 319.838C470.595 319.537 470.157 319.386 469.561 319.386C469.077 319.386 468.653 319.515 468.288 319.773C467.923 320.031 467.638 320.369 467.434 320.788V327H465.943V318.283H467.353ZM474.693 322.569C474.693 321.21 475.007 320.13 475.635 319.33C476.264 318.524 477.096 318.122 478.133 318.122C479.197 318.122 480.026 318.498 480.623 319.25L480.695 318.283H482.057V326.791C482.057 327.918 481.721 328.807 481.05 329.457C480.384 330.107 479.487 330.432 478.359 330.432C477.73 330.432 477.115 330.298 476.514 330.029C475.912 329.761 475.453 329.393 475.136 328.926L475.909 328.031C476.549 328.821 477.33 329.216 478.254 329.216C478.979 329.216 479.543 329.011 479.946 328.603C480.354 328.195 480.558 327.62 480.558 326.879V326.13C479.962 326.817 479.148 327.161 478.117 327.161C477.096 327.161 476.269 326.75 475.635 325.928C475.007 325.107 474.693 323.987 474.693 322.569ZM476.191 322.738C476.191 323.721 476.393 324.494 476.796 325.058C477.198 325.617 477.762 325.896 478.488 325.896C479.427 325.896 480.118 325.469 480.558 324.615V320.635C480.102 319.803 479.417 319.386 478.504 319.386C477.779 319.386 477.212 319.668 476.804 320.232C476.396 320.796 476.191 321.632 476.191 322.738ZM483.918 322.561C483.918 321.707 484.084 320.939 484.417 320.257C484.756 319.574 485.223 319.048 485.819 318.677C486.421 318.307 487.105 318.122 487.874 318.122C489.061 318.122 490.019 318.532 490.75 319.354C491.486 320.176 491.854 321.269 491.854 322.633V322.738C491.854 323.587 491.69 324.349 491.362 325.026C491.04 325.698 490.575 326.221 489.968 326.597C489.367 326.973 488.674 327.161 487.89 327.161C486.708 327.161 485.749 326.75 485.013 325.928C484.283 325.107 483.918 324.019 483.918 322.666V322.561ZM485.416 322.738C485.416 323.705 485.639 324.481 486.085 325.066C486.536 325.652 487.138 325.945 487.89 325.945C488.647 325.945 489.249 325.649 489.694 325.058C490.14 324.462 490.363 323.63 490.363 322.561C490.363 321.605 490.135 320.831 489.678 320.24C489.227 319.644 488.625 319.346 487.874 319.346C487.138 319.346 486.544 319.639 486.093 320.224C485.642 320.81 485.416 321.648 485.416 322.738ZM493.956 327V315.27H497.268C498.288 315.27 499.19 315.495 499.975 315.946C500.759 316.397 501.363 317.039 501.787 317.872C502.217 318.704 502.435 319.66 502.44 320.74V321.489C502.44 322.596 502.225 323.565 501.795 324.398C501.371 325.23 500.761 325.869 499.967 326.315C499.177 326.761 498.256 326.989 497.203 327H493.956ZM495.503 316.542V325.735H497.131C498.323 325.735 499.25 325.365 499.91 324.623C500.576 323.882 500.909 322.827 500.909 321.457V320.772C500.909 319.44 500.595 318.406 499.967 317.67C499.344 316.929 498.457 316.553 497.308 316.542H495.503ZM504.784 327V315.27H508.619C509.892 315.27 510.848 315.533 511.488 316.059C512.132 316.585 512.454 317.364 512.454 318.396C512.454 318.943 512.299 319.429 511.987 319.854C511.676 320.273 511.251 320.598 510.714 320.829C511.348 321.006 511.847 321.344 512.213 321.844C512.583 322.338 512.769 322.929 512.769 323.616C512.769 324.669 512.427 325.496 511.745 326.098C511.063 326.699 510.099 327 508.853 327H504.784ZM506.331 321.513V325.735H508.885C509.605 325.735 510.172 325.55 510.585 325.179C511.004 324.803 511.214 324.288 511.214 323.632C511.214 322.22 510.446 321.513 508.909 321.513H506.331ZM506.331 320.273H508.668C509.344 320.273 509.884 320.104 510.287 319.765C510.695 319.427 510.899 318.968 510.899 318.387C510.899 317.743 510.711 317.276 510.335 316.986C509.959 316.69 509.387 316.542 508.619 316.542H506.331V320.273ZM450.99 342.278C450.845 343.519 450.386 344.477 449.613 345.154C448.844 345.825 447.821 346.161 446.543 346.161C445.157 346.161 444.045 345.664 443.208 344.671C442.375 343.677 441.959 342.348 441.959 340.683V339.555C441.959 338.464 442.152 337.506 442.539 336.678C442.931 335.851 443.484 335.218 444.198 334.777C444.913 334.331 445.74 334.108 446.68 334.108C447.926 334.108 448.925 334.458 449.677 335.156C450.429 335.849 450.867 336.81 450.99 338.04H449.435C449.301 337.105 449.008 336.429 448.557 336.01C448.111 335.591 447.486 335.381 446.68 335.381C445.692 335.381 444.916 335.747 444.352 336.477C443.793 337.208 443.514 338.247 443.514 339.595V340.731C443.514 342.004 443.78 343.016 444.311 343.768C444.843 344.52 445.587 344.896 446.543 344.896C447.402 344.896 448.06 344.703 448.517 344.316C448.979 343.924 449.285 343.245 449.435 342.278H450.99ZM452.481 341.561C452.481 340.707 452.647 339.939 452.98 339.257C453.319 338.574 453.786 338.048 454.382 337.677C454.984 337.307 455.668 337.122 456.437 337.122C457.624 337.122 458.582 337.532 459.313 338.354C460.049 339.176 460.417 340.269 460.417 341.633V341.738C460.417 342.587 460.253 343.349 459.925 344.026C459.603 344.698 459.138 345.221 458.531 345.597C457.93 345.973 457.237 346.161 456.453 346.161C455.271 346.161 454.312 345.75 453.576 344.928C452.846 344.107 452.481 343.019 452.481 341.666V341.561ZM453.979 341.738C453.979 342.705 454.202 343.481 454.648 344.066C455.099 344.652 455.701 344.945 456.453 344.945C457.21 344.945 457.812 344.649 458.257 344.058C458.703 343.462 458.926 342.63 458.926 341.561C458.926 340.605 458.698 339.831 458.241 339.24C457.79 338.644 457.188 338.346 456.437 338.346C455.701 338.346 455.107 338.639 454.656 339.224C454.205 339.81 453.979 340.648 453.979 341.738ZM463.688 337.283L463.728 338.25C464.367 337.498 465.229 337.122 466.314 337.122C467.533 337.122 468.363 337.589 468.803 338.523C469.094 338.104 469.469 337.766 469.931 337.508C470.399 337.25 470.949 337.122 471.583 337.122C473.495 337.122 474.467 338.134 474.5 340.159V346H473.009V340.248C473.009 339.625 472.867 339.16 472.582 338.854C472.297 338.542 471.819 338.386 471.148 338.386C470.595 338.386 470.135 338.553 469.77 338.886C469.405 339.214 469.193 339.657 469.134 340.215V346H467.635V340.288C467.635 339.02 467.015 338.386 465.774 338.386C464.797 338.386 464.128 338.803 463.768 339.635V346H462.278V337.283H463.688ZM484.119 341.738C484.119 343.065 483.816 344.134 483.209 344.945C482.602 345.756 481.78 346.161 480.743 346.161C479.685 346.161 478.853 345.825 478.246 345.154V349.352H476.755V337.283H478.117L478.189 338.25C478.796 337.498 479.64 337.122 480.719 337.122C481.767 337.122 482.594 337.516 483.201 338.306C483.813 339.095 484.119 340.194 484.119 341.601V341.738ZM482.629 341.569C482.629 340.586 482.419 339.81 482 339.24C481.581 338.671 481.007 338.386 480.276 338.386C479.374 338.386 478.697 338.787 478.246 339.587V343.752C478.692 344.547 479.374 344.945 480.292 344.945C481.007 344.945 481.573 344.663 481.992 344.099C482.417 343.529 482.629 342.686 482.629 341.569ZM491.402 346C491.316 345.828 491.247 345.522 491.193 345.082C490.5 345.801 489.673 346.161 488.711 346.161C487.852 346.161 487.146 345.919 486.593 345.436C486.045 344.947 485.771 344.33 485.771 343.583C485.771 342.675 486.115 341.972 486.802 341.472C487.495 340.967 488.467 340.715 489.719 340.715H491.169V340.03C491.169 339.509 491.013 339.095 490.701 338.789C490.39 338.478 489.931 338.322 489.324 338.322C488.792 338.322 488.346 338.456 487.986 338.725C487.626 338.993 487.447 339.318 487.447 339.7H485.948C485.948 339.265 486.101 338.846 486.407 338.443C486.719 338.035 487.138 337.712 487.664 337.476C488.196 337.24 488.779 337.122 489.412 337.122C490.417 337.122 491.204 337.374 491.773 337.879C492.342 338.378 492.638 339.069 492.659 339.949V343.962C492.659 344.762 492.761 345.398 492.965 345.871V346H491.402ZM488.929 344.864C489.396 344.864 489.839 344.743 490.258 344.501C490.677 344.26 490.981 343.946 491.169 343.559V341.77H490C488.174 341.77 487.261 342.305 487.261 343.374C487.261 343.841 487.417 344.206 487.729 344.469C488.04 344.732 488.44 344.864 488.929 344.864ZM500.071 343.688C500.071 343.285 499.918 342.973 499.612 342.753C499.311 342.528 498.782 342.334 498.025 342.173C497.273 342.012 496.674 341.819 496.228 341.593C495.788 341.367 495.46 341.099 495.245 340.787C495.036 340.476 494.931 340.105 494.931 339.676C494.931 338.961 495.232 338.357 495.833 337.863C496.44 337.369 497.214 337.122 498.154 337.122C499.142 337.122 499.942 337.377 500.555 337.887C501.172 338.397 501.481 339.05 501.481 339.845H499.983C499.983 339.437 499.808 339.085 499.459 338.789C499.115 338.494 498.68 338.346 498.154 338.346C497.611 338.346 497.187 338.464 496.881 338.701C496.575 338.937 496.422 339.246 496.422 339.627C496.422 339.987 496.564 340.258 496.849 340.441C497.133 340.624 497.646 340.798 498.387 340.965C499.134 341.131 499.738 341.33 500.2 341.561C500.662 341.792 501.003 342.071 501.223 342.399C501.449 342.721 501.562 343.116 501.562 343.583C501.562 344.362 501.25 344.988 500.627 345.46C500.004 345.927 499.196 346.161 498.202 346.161C497.504 346.161 496.886 346.038 496.349 345.791C495.812 345.543 495.39 345.2 495.084 344.759C494.783 344.313 494.633 343.833 494.633 343.317H496.124C496.15 343.817 496.349 344.214 496.72 344.51C497.096 344.8 497.59 344.945 498.202 344.945C498.766 344.945 499.217 344.832 499.556 344.606C499.899 344.375 500.071 344.069 500.071 343.688ZM508.579 343.688C508.579 343.285 508.426 342.973 508.12 342.753C507.819 342.528 507.29 342.334 506.533 342.173C505.781 342.012 505.182 341.819 504.736 341.593C504.296 341.367 503.968 341.099 503.753 340.787C503.544 340.476 503.439 340.105 503.439 339.676C503.439 338.961 503.74 338.357 504.341 337.863C504.948 337.369 505.722 337.122 506.662 337.122C507.65 337.122 508.45 337.377 509.062 337.887C509.68 338.397 509.989 339.05 509.989 339.845H508.49C508.49 339.437 508.316 339.085 507.967 338.789C507.623 338.494 507.188 338.346 506.662 338.346C506.119 338.346 505.695 338.464 505.389 338.701C505.083 338.937 504.929 339.246 504.929 339.627C504.929 339.987 505.072 340.258 505.356 340.441C505.641 340.624 506.154 340.798 506.895 340.965C507.642 341.131 508.246 341.33 508.708 341.561C509.17 341.792 509.511 342.071 509.731 342.399C509.957 342.721 510.07 343.116 510.07 343.583C510.07 344.362 509.758 344.988 509.135 345.46C508.512 345.927 507.704 346.161 506.71 346.161C506.012 346.161 505.394 346.038 504.857 345.791C504.32 345.543 503.898 345.2 503.592 344.759C503.291 344.313 503.141 343.833 503.141 343.317H504.631C504.658 343.817 504.857 344.214 505.228 344.51C505.604 344.8 506.098 344.945 506.71 344.945C507.274 344.945 507.725 344.832 508.063 344.606C508.407 344.375 508.579 344.069 508.579 343.688Z" fill="black"/>
<ellipse cx="882.5" cy="329" rx="42.5" ry="30" fill="#C4C4C4" fill-opacity="0.12"/>
<path d="M867.543 329.349H862.173V335H860.485V322.203H868.413V323.592H862.173V327.969H867.543V329.349ZM871.946 335H870.32V325.49H871.946V335ZM870.188 322.968C870.188 322.704 870.268 322.481 870.426 322.3C870.59 322.118 870.83 322.027 871.146 322.027C871.463 322.027 871.703 322.118 871.867 322.3C872.031 322.481 872.113 322.704 872.113 322.968C872.113 323.231 872.031 323.451 871.867 323.627C871.703 323.803 871.463 323.891 871.146 323.891C870.83 323.891 870.59 323.803 870.426 323.627C870.268 323.451 870.188 323.231 870.188 322.968ZM874.17 330.166C874.17 328.684 874.513 327.506 875.198 326.633C875.884 325.754 876.792 325.314 877.923 325.314C879.083 325.314 879.988 325.725 880.639 326.545L880.718 325.49H882.203V334.771C882.203 336.002 881.837 336.972 881.104 337.681C880.378 338.39 879.399 338.744 878.169 338.744C877.483 338.744 876.812 338.598 876.156 338.305C875.5 338.012 874.999 337.61 874.653 337.101L875.497 336.125C876.194 336.986 877.047 337.417 878.055 337.417C878.846 337.417 879.461 337.194 879.9 336.749C880.346 336.304 880.568 335.677 880.568 334.868V334.051C879.918 334.801 879.03 335.176 877.905 335.176C876.792 335.176 875.89 334.728 875.198 333.831C874.513 332.935 874.17 331.713 874.17 330.166ZM875.805 330.351C875.805 331.423 876.024 332.267 876.464 332.882C876.903 333.491 877.519 333.796 878.31 333.796C879.335 333.796 880.088 333.33 880.568 332.398V328.057C880.07 327.148 879.323 326.694 878.327 326.694C877.536 326.694 876.918 327.002 876.473 327.617C876.027 328.232 875.805 329.144 875.805 330.351ZM886.193 325.49L886.237 326.545C886.935 325.725 887.875 325.314 889.059 325.314C890.389 325.314 891.294 325.824 891.774 326.844C892.091 326.387 892.501 326.018 893.005 325.736C893.515 325.455 894.115 325.314 894.807 325.314C896.893 325.314 897.953 326.419 897.988 328.628V335H896.362V328.725C896.362 328.045 896.207 327.538 895.896 327.204C895.586 326.864 895.064 326.694 894.332 326.694C893.729 326.694 893.228 326.876 892.829 327.239C892.431 327.597 892.199 328.08 892.135 328.689V335H890.5V328.769C890.5 327.386 889.823 326.694 888.47 326.694C887.403 326.694 886.674 327.148 886.281 328.057V335H884.655V325.49H886.193ZM906.32 335C906.227 334.812 906.15 334.479 906.092 333.998C905.336 334.783 904.434 335.176 903.385 335.176C902.447 335.176 901.677 334.912 901.073 334.385C900.476 333.852 900.177 333.178 900.177 332.363C900.177 331.373 900.552 330.605 901.302 330.061C902.058 329.51 903.118 329.234 904.483 329.234H906.065V328.487C906.065 327.919 905.896 327.468 905.556 327.134C905.216 326.794 904.715 326.624 904.053 326.624C903.473 326.624 902.986 326.771 902.594 327.063C902.201 327.356 902.005 327.711 902.005 328.127H900.37C900.37 327.652 900.537 327.195 900.871 326.756C901.211 326.311 901.668 325.959 902.242 325.701C902.822 325.443 903.458 325.314 904.149 325.314C905.245 325.314 906.104 325.59 906.725 326.141C907.346 326.686 907.668 327.438 907.691 328.399V332.776C907.691 333.649 907.803 334.344 908.025 334.859V335H906.32ZM903.622 333.761C904.132 333.761 904.615 333.629 905.072 333.365C905.529 333.102 905.86 332.759 906.065 332.337V330.386H904.791C902.799 330.386 901.803 330.969 901.803 332.135C901.803 332.645 901.973 333.043 902.312 333.33C902.652 333.617 903.089 333.761 903.622 333.761Z" fill="black"/>
<ellipse cx="583.5" cy="120" rx="42.5" ry="30" fill="#C4C4C4" fill-opacity="0.12"/>
<path d="M576.898 122.939C576.74 124.293 576.239 125.339 575.396 126.077C574.558 126.81 573.441 127.176 572.047 127.176C570.535 127.176 569.322 126.634 568.408 125.55C567.5 124.466 567.046 123.016 567.046 121.199V119.969C567.046 118.779 567.257 117.733 567.679 116.831C568.106 115.929 568.71 115.237 569.489 114.757C570.269 114.271 571.171 114.027 572.196 114.027C573.556 114.027 574.646 114.408 575.466 115.17C576.286 115.926 576.764 116.975 576.898 118.316H575.202C575.056 117.297 574.736 116.559 574.244 116.102C573.758 115.645 573.075 115.416 572.196 115.416C571.118 115.416 570.271 115.814 569.656 116.611C569.047 117.408 568.742 118.542 568.742 120.013V121.252C568.742 122.641 569.032 123.745 569.612 124.565C570.192 125.386 571.004 125.796 572.047 125.796C572.984 125.796 573.702 125.585 574.2 125.163C574.704 124.735 575.038 123.994 575.202 122.939H576.898ZM582.98 121.296C581.533 120.88 580.479 120.37 579.816 119.767C579.16 119.157 578.832 118.407 578.832 117.517C578.832 116.509 579.233 115.677 580.036 115.021C580.845 114.358 581.894 114.027 583.183 114.027C584.062 114.027 584.844 114.197 585.529 114.537C586.221 114.877 586.754 115.346 587.129 115.943C587.51 116.541 587.7 117.194 587.7 117.903H586.004C586.004 117.13 585.758 116.523 585.266 116.084C584.773 115.639 584.079 115.416 583.183 115.416C582.351 115.416 581.7 115.601 581.231 115.97C580.769 116.333 580.537 116.84 580.537 117.49C580.537 118.012 580.757 118.454 581.196 118.817C581.642 119.175 582.395 119.503 583.455 119.802C584.521 120.101 585.354 120.432 585.951 120.795C586.555 121.152 587 121.571 587.287 122.052C587.58 122.532 587.727 123.098 587.727 123.748C587.727 124.785 587.322 125.617 586.514 126.244C585.705 126.865 584.624 127.176 583.271 127.176C582.392 127.176 581.571 127.009 580.81 126.675C580.048 126.335 579.459 125.872 579.043 125.286C578.633 124.7 578.428 124.035 578.428 123.291H580.124C580.124 124.064 580.408 124.677 580.977 125.128C581.551 125.573 582.315 125.796 583.271 125.796C584.161 125.796 584.844 125.614 585.318 125.251C585.793 124.888 586.03 124.393 586.03 123.766C586.03 123.139 585.811 122.655 585.371 122.315C584.932 121.97 584.135 121.63 582.98 121.296ZM593.668 121.296C592.221 120.88 591.166 120.37 590.504 119.767C589.848 119.157 589.52 118.407 589.52 117.517C589.52 116.509 589.921 115.677 590.724 115.021C591.532 114.358 592.581 114.027 593.87 114.027C594.749 114.027 595.531 114.197 596.217 114.537C596.908 114.877 597.441 115.346 597.816 115.943C598.197 116.541 598.388 117.194 598.388 117.903H596.691C596.691 117.13 596.445 116.523 595.953 116.084C595.461 115.639 594.767 115.416 593.87 115.416C593.038 115.416 592.388 115.601 591.919 115.97C591.456 116.333 591.225 116.84 591.225 117.49C591.225 118.012 591.444 118.454 591.884 118.817C592.329 119.175 593.082 119.503 594.143 119.802C595.209 120.101 596.041 120.432 596.639 120.795C597.242 121.152 597.688 121.571 597.975 122.052C598.268 122.532 598.414 123.098 598.414 123.748C598.414 124.785 598.01 125.617 597.201 126.244C596.393 126.865 595.312 127.176 593.958 127.176C593.079 127.176 592.259 127.009 591.497 126.675C590.735 126.335 590.146 125.872 589.73 125.286C589.32 124.7 589.115 124.035 589.115 123.291H590.812C590.812 124.064 591.096 124.677 591.664 125.128C592.238 125.573 593.003 125.796 593.958 125.796C594.849 125.796 595.531 125.614 596.006 125.251C596.48 124.888 596.718 124.393 596.718 123.766C596.718 123.139 596.498 122.655 596.059 122.315C595.619 121.97 594.822 121.63 593.668 121.296Z" fill="black"/>
<ellipse cx="688.5" cy="120" rx="42.5" ry="30" fill="#C4C4C4" fill-opacity="0.12"/>
<path d="M684.847 114.203H686.543V123.265C686.543 124.489 686.174 125.447 685.436 126.139C684.703 126.83 683.725 127.176 682.5 127.176C681.229 127.176 680.238 126.851 679.529 126.2C678.82 125.55 678.466 124.639 678.466 123.467H680.153C680.153 124.199 680.353 124.771 680.751 125.181C681.155 125.591 681.738 125.796 682.5 125.796C683.197 125.796 683.76 125.576 684.188 125.137C684.621 124.697 684.841 124.082 684.847 123.291V114.203ZM693.188 121.296C691.74 120.88 690.686 120.37 690.023 119.767C689.367 119.157 689.039 118.407 689.039 117.517C689.039 116.509 689.44 115.677 690.243 115.021C691.052 114.358 692.101 114.027 693.39 114.027C694.269 114.027 695.051 114.197 695.736 114.537C696.428 114.877 696.961 115.346 697.336 115.943C697.717 116.541 697.907 117.194 697.907 117.903H696.211C696.211 117.13 695.965 116.523 695.473 116.084C694.98 115.639 694.286 115.416 693.39 115.416C692.558 115.416 691.907 115.601 691.438 115.97C690.976 116.333 690.744 116.84 690.744 117.49C690.744 118.012 690.964 118.454 691.403 118.817C691.849 119.175 692.602 119.503 693.662 119.802C694.729 120.101 695.561 120.432 696.158 120.795C696.762 121.152 697.207 121.571 697.494 122.052C697.787 122.532 697.934 123.098 697.934 123.748C697.934 124.785 697.529 125.617 696.721 126.244C695.912 126.865 694.831 127.176 693.478 127.176C692.599 127.176 691.778 127.009 691.017 126.675C690.255 126.335 689.666 125.872 689.25 125.286C688.84 124.7 688.635 124.035 688.635 123.291H690.331C690.331 124.064 690.615 124.677 691.184 125.128C691.758 125.573 692.522 125.796 693.478 125.796C694.368 125.796 695.051 125.614 695.525 125.251C696 124.888 696.237 124.393 696.237 123.766C696.237 123.139 696.018 122.655 695.578 122.315C695.139 121.97 694.342 121.63 693.188 121.296Z" fill="black"/>
<ellipse cx="583" cy="328.5" rx="42" ry="28.5" fill="#C4C4C4" fill-opacity="0.12"/>
<path d="M552.908 330.408V335H551.362V323.27H555.688C556.972 323.27 557.976 323.597 558.701 324.252C559.432 324.908 559.797 325.775 559.797 326.855C559.797 327.993 559.44 328.872 558.725 329.489C558.016 330.102 556.999 330.408 555.672 330.408H552.908ZM552.908 329.143H555.688C556.515 329.143 557.149 328.949 557.589 328.563C558.03 328.171 558.25 327.607 558.25 326.871C558.25 326.173 558.03 325.614 557.589 325.195C557.149 324.776 556.545 324.559 555.777 324.542H552.908V329.143ZM561.03 330.561C561.03 329.707 561.196 328.939 561.529 328.257C561.867 327.574 562.335 327.048 562.931 326.677C563.532 326.307 564.217 326.122 564.985 326.122C566.172 326.122 567.131 326.532 567.862 327.354C568.597 328.176 568.965 329.269 568.965 330.633V330.738C568.965 331.587 568.802 332.349 568.474 333.026C568.152 333.698 567.687 334.221 567.08 334.597C566.479 334.973 565.786 335.161 565.001 335.161C563.82 335.161 562.861 334.75 562.125 333.928C561.395 333.107 561.03 332.019 561.03 330.666V330.561ZM562.528 330.738C562.528 331.705 562.751 332.481 563.197 333.066C563.648 333.652 564.25 333.945 565.001 333.945C565.759 333.945 566.36 333.649 566.806 333.058C567.252 332.462 567.475 331.63 567.475 330.561C567.475 329.605 567.247 328.831 566.79 328.24C566.339 327.644 565.737 327.346 564.985 327.346C564.25 327.346 563.656 327.639 563.205 328.224C562.754 328.81 562.528 329.648 562.528 330.738ZM575.91 332.688C575.91 332.285 575.757 331.973 575.451 331.753C575.15 331.528 574.621 331.334 573.864 331.173C573.112 331.012 572.513 330.819 572.067 330.593C571.627 330.367 571.299 330.099 571.084 329.787C570.875 329.476 570.77 329.105 570.77 328.676C570.77 327.961 571.071 327.357 571.672 326.863C572.279 326.369 573.053 326.122 573.993 326.122C574.981 326.122 575.781 326.377 576.394 326.887C577.011 327.397 577.32 328.05 577.32 328.845H575.822C575.822 328.437 575.647 328.085 575.298 327.789C574.954 327.494 574.519 327.346 573.993 327.346C573.45 327.346 573.026 327.464 572.72 327.701C572.414 327.937 572.26 328.246 572.26 328.627C572.26 328.987 572.403 329.258 572.688 329.441C572.972 329.624 573.485 329.798 574.226 329.965C574.973 330.131 575.577 330.33 576.039 330.561C576.501 330.792 576.842 331.071 577.062 331.399C577.288 331.721 577.401 332.116 577.401 332.583C577.401 333.362 577.089 333.988 576.466 334.46C575.843 334.927 575.035 335.161 574.041 335.161C573.343 335.161 572.725 335.038 572.188 334.791C571.651 334.543 571.229 334.2 570.923 333.759C570.622 333.313 570.472 332.833 570.472 332.317H571.962C571.989 332.817 572.188 333.214 572.559 333.51C572.935 333.8 573.429 333.945 574.041 333.945C574.605 333.945 575.056 333.832 575.395 333.606C575.738 333.375 575.91 333.069 575.91 332.688ZM581.365 324.172V326.283H582.992V327.435H581.365V332.841C581.365 333.19 581.437 333.453 581.582 333.63C581.727 333.802 581.974 333.888 582.323 333.888C582.495 333.888 582.731 333.856 583.032 333.792V335C582.64 335.107 582.259 335.161 581.888 335.161C581.222 335.161 580.72 334.96 580.382 334.557C580.043 334.154 579.874 333.582 579.874 332.841V327.435H578.287V326.283H579.874V324.172H581.365ZM586.142 326.283L586.182 327.25C586.822 326.498 587.684 326.122 588.769 326.122C589.988 326.122 590.818 326.589 591.258 327.523C591.548 327.104 591.924 326.766 592.386 326.508C592.853 326.25 593.404 326.122 594.038 326.122C595.95 326.122 596.922 327.134 596.954 329.159V335H595.464V329.248C595.464 328.625 595.321 328.16 595.037 327.854C594.752 327.542 594.274 327.386 593.603 327.386C593.049 327.386 592.59 327.553 592.225 327.886C591.86 328.214 591.647 328.657 591.588 329.215V335H590.09V329.288C590.09 328.02 589.469 327.386 588.229 327.386C587.251 327.386 586.583 327.803 586.223 328.635V335H584.732V326.283H586.142ZM604.592 335C604.506 334.828 604.436 334.522 604.382 334.082C603.689 334.801 602.862 335.161 601.901 335.161C601.042 335.161 600.335 334.919 599.782 334.436C599.234 333.947 598.96 333.33 598.96 332.583C598.96 331.675 599.304 330.972 599.991 330.472C600.684 329.967 601.656 329.715 602.908 329.715H604.358V329.03C604.358 328.509 604.202 328.095 603.891 327.789C603.579 327.478 603.12 327.322 602.513 327.322C601.981 327.322 601.536 327.456 601.176 327.725C600.816 327.993 600.636 328.318 600.636 328.7H599.137C599.137 328.265 599.291 327.846 599.597 327.443C599.908 327.035 600.327 326.712 600.854 326.476C601.385 326.24 601.968 326.122 602.602 326.122C603.606 326.122 604.393 326.374 604.962 326.879C605.532 327.378 605.827 328.069 605.849 328.949V332.962C605.849 333.762 605.951 334.398 606.155 334.871V335H604.592ZM602.118 333.864C602.586 333.864 603.029 333.743 603.448 333.501C603.867 333.26 604.17 332.946 604.358 332.559V330.77H603.19C601.364 330.77 600.451 331.305 600.451 332.374C600.451 332.841 600.606 333.206 600.918 333.469C601.229 333.732 601.63 333.864 602.118 333.864ZM609.595 326.283L609.643 327.378C610.309 326.541 611.179 326.122 612.254 326.122C614.096 326.122 615.025 327.161 615.041 329.24V335H613.551V329.231C613.545 328.603 613.4 328.138 613.116 327.838C612.836 327.537 612.399 327.386 611.802 327.386C611.319 327.386 610.895 327.515 610.53 327.773C610.164 328.031 609.88 328.369 609.676 328.788V335H608.185V326.283H609.595Z" fill="black"/>
<path d="M349.686 147.302L346.57 177.208L332.637 175.919L335.753 146.013C335.809 145.479 336.204 144.999 336.853 144.678C337.501 144.356 338.349 144.221 339.21 144.3L346.649 144.989C347.51 145.069 348.314 145.357 348.884 145.791C349.453 146.225 349.742 146.768 349.686 147.302Z" fill="#00703A"/>
<path d="M338.279 196.823C345.305 197.473 351.515 193.061 352.149 186.968C352.784 180.876 347.603 175.41 340.578 174.76C333.552 174.109 327.342 178.521 326.707 184.614C326.072 190.707 331.253 196.173 338.279 196.823Z" fill="#00703A"/>
<path d="M338.543 193.445C343.262 193.882 347.452 190.731 347.902 186.408C348.353 182.086 344.893 178.227 340.174 177.791C335.456 177.354 331.266 180.504 330.816 184.827C330.365 189.15 333.825 193.008 338.543 193.445Z" fill="#ACB8BC"/>
<path d="M338.981 188.193C341.179 188.396 343.098 187.257 343.265 185.649C343.433 184.041 341.786 182.572 339.588 182.368C337.389 182.165 335.471 183.304 335.303 184.912C335.136 186.521 336.782 187.989 338.981 188.193Z" fill="#1A6201"/>
<path opacity="0.1" d="M349.718 146.995L349.6 148.133L335.667 146.844L335.785 145.706C335.832 145.261 336.218 144.867 336.86 144.609C337.501 144.351 338.346 144.251 339.207 144.331L346.646 145.019C347.507 145.099 348.315 145.352 348.891 145.722C349.467 146.093 349.765 146.551 349.718 146.995Z" fill="black"/>
<path d="M30 378L40.75 385.055M30 378L28.5 375.5M30 378L38 378.941L38.5 379L40.75 385.055M51.5 392.109L62 399L60.5 388.256L51.5 392.109ZM51.5 392.109L49 382.884L40.75 385.055M51.5 392.109L40.75 385.055" stroke="#A9A9A9"/>
</g>
<defs>
<clipPath id="clip0">
<rect width="1082.44" height="449.881" fill="white"/>
</clipPath>
</defs>
</svg>
