<svg width="1077" height="756" viewBox="0 0 1077 756" fill="none" xmlns="http://www.w3.org/2000/svg">
<g clip-path="url(#clip0)">
<path d="M144.734 601.808H181.575L272.363 566.283C272.363 566.283 336.836 539.967 331.573 589.966C326.31 639.965 317.099 707.069 317.099 707.069C317.099 707.069 288.152 693.912 272.363 697.859C256.574 701.806 267.1 617.597 267.1 617.597C267.1 617.597 138.155 679.438 126.313 671.544C114.471 663.649 111.84 608.387 111.84 608.387L144.734 601.808Z" fill="#2F2E41"/>
<path opacity="0.1" d="M144.734 601.808H181.575L272.363 566.283C272.363 566.283 336.836 539.967 331.573 589.966C326.31 639.965 317.099 707.069 317.099 707.069C317.099 707.069 288.152 693.912 272.363 697.859C256.574 701.806 267.1 617.597 267.1 617.597C267.1 617.597 138.155 679.438 126.313 671.544C114.471 663.649 111.84 608.387 111.84 608.387L144.734 601.808Z" fill="black"/>
<path d="M202.778 486.434L247.364 550.494L351.309 637.334C351.309 637.334 447.36 659.702 434.202 675.491C421.045 691.28 340.783 659.702 340.783 659.702C340.783 659.702 221.048 572.861 217.101 566.283C213.154 559.704 169.734 497.863 169.734 497.863L202.778 486.434Z" fill="#D79BA3"/>
<path opacity="0.1" d="M202.778 486.434L247.364 550.494L351.309 637.334C351.309 637.334 447.36 659.702 434.202 675.491C421.045 691.28 340.783 659.702 340.783 659.702C340.783 659.702 221.048 572.861 217.101 566.283C213.154 559.704 169.734 497.863 169.734 497.863L202.778 486.434Z" fill="black"/>
<path d="M176.312 434.706L205.259 491.284C205.259 491.284 198.68 518.915 188.154 521.547C177.628 524.178 132.892 487.337 132.892 487.337L176.312 434.706Z" fill="#D0CDE1"/>
<path opacity="0.1" d="M176.312 434.706L205.259 491.284C205.259 491.284 198.68 518.915 188.154 521.547C177.628 524.178 132.892 487.337 132.892 487.337L176.312 434.706Z" fill="black"/>
<path d="M529.451 572.514L538.002 607.786C538.097 608.179 538.082 608.591 537.959 608.976L499.171 730.188C499.018 730.668 498.704 731.08 498.283 731.357C497.862 731.634 497.359 731.758 496.857 731.709C496.355 731.659 495.886 731.439 495.527 731.086C495.168 730.732 494.941 730.266 494.884 729.765L489.518 682.546C489.483 682.232 489.515 681.915 489.613 681.615L525.215 572.351C525.364 571.895 525.657 571.5 526.051 571.226C526.444 570.952 526.916 570.814 527.395 570.832C527.874 570.851 528.334 571.025 528.705 571.328C529.076 571.632 529.338 572.048 529.451 572.514Z" fill="#2F2E41"/>
<path d="M526.306 575.493L534.2 605.756L499.99 716.28L492.096 682.07L526.306 575.493Z" fill="#F2F2F2"/>
<path d="M353.941 739.964C355.256 743.911 490.78 738.648 492.096 737.332C493.243 735.684 494.213 733.92 494.99 732.069C496.227 729.437 497.359 726.806 497.359 726.806L492.096 684.201L357.888 679.438C357.888 679.438 354.533 715.543 353.848 732.069C353.677 736.24 353.677 739.174 353.941 739.964Z" fill="#2F2E41"/>
<path opacity="0.1" d="M474.991 689.965L477.622 726.806H418.413V689.965H474.991Z" fill="black"/>
<path opacity="0.1" d="M398.677 701.806L399.03 701.736L397.361 717.596H364.467V701.806H398.677Z" fill="black"/>
<path opacity="0.1" d="M353.941 739.964C355.256 743.911 490.78 738.648 492.096 737.332C493.243 735.684 494.213 733.92 494.99 732.069H353.848C353.677 736.24 353.677 739.174 353.941 739.964Z" fill="black"/>
<path d="M196.049 416.286C228.749 416.286 255.258 389.777 255.258 357.076C255.258 324.376 228.749 297.867 196.049 297.867C163.348 297.867 136.839 324.376 136.839 357.076C136.839 389.777 163.348 416.286 196.049 416.286Z" fill="#D79BA3"/>
<path d="M192.102 409.707C192.102 409.707 172.365 443.917 168.418 462.337C164.471 480.758 109.208 425.496 109.208 425.496L101.972 406.417C101.972 406.417 153.944 382.076 149.997 362.339C146.05 342.603 192.102 409.707 192.102 409.707Z" fill="#D79BA3"/>
<path d="M202.628 512.336L256.574 583.388L385.519 679.438C385.519 679.438 478.938 699.175 457.886 713.648C436.834 728.122 376.309 700.491 376.309 700.491C376.309 700.491 246.048 630.755 218.417 601.808C190.786 572.862 139.471 524.178 139.471 524.178L202.628 512.336Z" fill="#D79BA3"/>
<path d="M130.261 622.861L146.05 647.86L240.281 618.214C260.957 611.71 283.629 614.103 301.968 625.657C318.415 636.018 328.941 652.465 305.257 676.807C257.89 725.49 226.312 699.175 226.312 699.175C226.312 699.175 67.104 774.173 40.7887 737.332C14.4734 700.491 13.1577 682.07 13.1577 682.07C13.1577 682.07 114.472 618.913 130.261 622.861Z" fill="#2F2E41"/>
<path d="M327.625 709.701C327.625 709.701 369.73 737.332 319.731 750.49C269.732 763.647 232.89 745.227 232.89 745.227C232.89 745.227 189.47 745.227 189.47 722.859C189.47 700.491 203.943 697.859 203.943 697.859L248.679 704.438C248.679 704.438 302.626 689.965 327.625 709.701Z" fill="#D0CDE1"/>
<path d="M179.732 378.445C184.363 376.509 189.743 376.11 194.756 374.907C212.69 370.603 224.705 354.577 220.869 340.076C220.16 338.216 219.842 336.277 219.927 334.335C220.597 330.04 226.157 327.269 231.489 326.285C236.82 325.301 242.493 325.444 247.588 323.862C255.456 321.418 260.682 315.027 261.815 308.406C262.629 301.702 260.741 294.967 256.42 289.163L254.494 293.543C251.557 291.578 249.377 289.001 248.202 286.104C246.013 286.395 243.956 287.125 242.226 288.224C240.497 289.324 239.153 290.756 238.324 292.383C235.233 293.824 234.788 287.907 231.374 287.034C229.872 286.886 228.354 287.182 227.112 287.865C220.232 290.401 212.238 288.233 204.858 286.827C192.078 284.403 178.756 284.391 165.969 286.79C157.474 288.392 149.065 291.181 142.986 296.138C138.231 300.404 134.579 305.365 132.234 310.741C125.714 323.711 121.407 337.745 123.559 351.597C125.352 362.933 131.352 373.595 140.801 382.239C145.724 386.722 161.786 402.363 170.592 399.696C181.658 396.346 166.694 383.894 179.732 378.445Z" fill="#2F2E41"/>
<path d="M97.2716 400.176C99.9352 399.465 102.74 399.472 105.4 400.197C113.846 402.464 132.78 408.467 136.839 417.601C142.103 429.443 160.523 447.864 160.523 447.864C160.523 447.864 185.523 472.863 180.26 489.968C174.997 507.073 155.26 526.81 155.26 526.81C155.26 526.81 160.523 608.387 134.208 629.439C107.893 650.492 97.3665 636.018 97.3665 655.755C97.3665 675.491 15.7892 737.332 0 699.175C0 699.175 7.89459 628.124 5.26306 603.124C2.66948 578.485 6.46634 424.759 97.2716 400.176Z" fill="#D0CDE1"/>
<path d="M139.471 433.39C139.471 433.39 219.733 492.6 205.259 517.599C205.259 517.599 156.576 541.283 146.05 539.967C135.524 538.652 94.7351 492.6 84.2089 488.653C73.6828 484.705 68.4198 413.654 139.471 433.39Z" fill="#D0CDE1"/>
</g>
<defs>
<clipPath id="clip0">
<rect width="1076.06" height="755.228" fill="white"/>
</clipPath>
</defs>
</svg>
